G04 #@! TF.GenerationSoftware,KiCad,Pcbnew,(6.0.2)*
G04 #@! TF.CreationDate,2022-07-05T12:59:41+02:00*
G04 #@! TF.ProjectId,Raspberry Pi temperature management hat,52617370-6265-4727-9279-205069207465,V2*
G04 #@! TF.SameCoordinates,Original*
G04 #@! TF.FileFunction,Copper,L2,Bot*
G04 #@! TF.FilePolarity,Positive*
%FSLAX46Y46*%
G04 Gerber Fmt 4.6, Leading zero omitted, Abs format (unit mm)*
G04 Created by KiCad (PCBNEW (6.0.2)) date 2022-07-05 12:59:41*
%MOMM*%
%LPD*%
G01*
G04 APERTURE LIST*
%ADD10C,0.375000*%
G04 #@! TA.AperFunction,NonConductor*
%ADD11C,0.375000*%
G04 #@! TD*
G04 #@! TA.AperFunction,Profile*
%ADD12C,0.150000*%
G04 #@! TD*
G04 #@! TA.AperFunction,ComponentPad*
%ADD13C,6.000000*%
G04 #@! TD*
G04 #@! TA.AperFunction,ComponentPad*
%ADD14R,2.400000X2.400000*%
G04 #@! TD*
G04 #@! TA.AperFunction,ComponentPad*
%ADD15C,2.400000*%
G04 #@! TD*
G04 #@! TA.AperFunction,ComponentPad*
%ADD16R,1.700000X1.700000*%
G04 #@! TD*
G04 #@! TA.AperFunction,ComponentPad*
%ADD17O,1.700000X1.700000*%
G04 #@! TD*
G04 #@! TA.AperFunction,ViaPad*
%ADD18C,0.600000*%
G04 #@! TD*
G04 #@! TA.AperFunction,Conductor*
%ADD19C,0.250000*%
G04 #@! TD*
G04 APERTURE END LIST*
D10*
D11*
X102357142Y-101178571D02*
X102857142Y-100464285D01*
X103214285Y-101178571D02*
X103214285Y-99678571D01*
X102642857Y-99678571D01*
X102500000Y-99750000D01*
X102428571Y-99821428D01*
X102357142Y-99964285D01*
X102357142Y-100178571D01*
X102428571Y-100321428D01*
X102500000Y-100392857D01*
X102642857Y-100464285D01*
X103214285Y-100464285D01*
X101071428Y-101178571D02*
X101071428Y-100392857D01*
X101142857Y-100250000D01*
X101285714Y-100178571D01*
X101571428Y-100178571D01*
X101714285Y-100250000D01*
X101071428Y-101107142D02*
X101214285Y-101178571D01*
X101571428Y-101178571D01*
X101714285Y-101107142D01*
X101785714Y-100964285D01*
X101785714Y-100821428D01*
X101714285Y-100678571D01*
X101571428Y-100607142D01*
X101214285Y-100607142D01*
X101071428Y-100535714D01*
X100428571Y-101107142D02*
X100285714Y-101178571D01*
X100000000Y-101178571D01*
X99857142Y-101107142D01*
X99785714Y-100964285D01*
X99785714Y-100892857D01*
X99857142Y-100750000D01*
X100000000Y-100678571D01*
X100214285Y-100678571D01*
X100357142Y-100607142D01*
X100428571Y-100464285D01*
X100428571Y-100392857D01*
X100357142Y-100250000D01*
X100214285Y-100178571D01*
X100000000Y-100178571D01*
X99857142Y-100250000D01*
X99142857Y-100178571D02*
X99142857Y-101678571D01*
X99142857Y-100250000D02*
X99000000Y-100178571D01*
X98714285Y-100178571D01*
X98571428Y-100250000D01*
X98500000Y-100321428D01*
X98428571Y-100464285D01*
X98428571Y-100892857D01*
X98500000Y-101035714D01*
X98571428Y-101107142D01*
X98714285Y-101178571D01*
X99000000Y-101178571D01*
X99142857Y-101107142D01*
X97785714Y-101178571D02*
X97785714Y-99678571D01*
X97785714Y-100250000D02*
X97642857Y-100178571D01*
X97357142Y-100178571D01*
X97214285Y-100250000D01*
X97142857Y-100321428D01*
X97071428Y-100464285D01*
X97071428Y-100892857D01*
X97142857Y-101035714D01*
X97214285Y-101107142D01*
X97357142Y-101178571D01*
X97642857Y-101178571D01*
X97785714Y-101107142D01*
X95857142Y-101107142D02*
X96000000Y-101178571D01*
X96285714Y-101178571D01*
X96428571Y-101107142D01*
X96500000Y-100964285D01*
X96500000Y-100392857D01*
X96428571Y-100250000D01*
X96285714Y-100178571D01*
X96000000Y-100178571D01*
X95857142Y-100250000D01*
X95785714Y-100392857D01*
X95785714Y-100535714D01*
X96500000Y-100678571D01*
X95142857Y-101178571D02*
X95142857Y-100178571D01*
X95142857Y-100464285D02*
X95071428Y-100321428D01*
X95000000Y-100250000D01*
X94857142Y-100178571D01*
X94714285Y-100178571D01*
X94214285Y-101178571D02*
X94214285Y-100178571D01*
X94214285Y-100464285D02*
X94142857Y-100321428D01*
X94071428Y-100250000D01*
X93928571Y-100178571D01*
X93785714Y-100178571D01*
X93428571Y-100178571D02*
X93071428Y-101178571D01*
X92714285Y-100178571D02*
X93071428Y-101178571D01*
X93214285Y-101535714D01*
X93285714Y-101607142D01*
X93428571Y-101678571D01*
X91000000Y-101178571D02*
X91000000Y-99678571D01*
X90428571Y-99678571D01*
X90285714Y-99750000D01*
X90214285Y-99821428D01*
X90142857Y-99964285D01*
X90142857Y-100178571D01*
X90214285Y-100321428D01*
X90285714Y-100392857D01*
X90428571Y-100464285D01*
X91000000Y-100464285D01*
X89500000Y-101178571D02*
X89500000Y-100178571D01*
X89500000Y-99678571D02*
X89571428Y-99750000D01*
X89500000Y-99821428D01*
X89428571Y-99750000D01*
X89500000Y-99678571D01*
X89500000Y-99821428D01*
X87857142Y-100178571D02*
X87285714Y-100178571D01*
X87642857Y-99678571D02*
X87642857Y-100964285D01*
X87571428Y-101107142D01*
X87428571Y-101178571D01*
X87285714Y-101178571D01*
X86214285Y-101107142D02*
X86357142Y-101178571D01*
X86642857Y-101178571D01*
X86785714Y-101107142D01*
X86857142Y-100964285D01*
X86857142Y-100392857D01*
X86785714Y-100250000D01*
X86642857Y-100178571D01*
X86357142Y-100178571D01*
X86214285Y-100250000D01*
X86142857Y-100392857D01*
X86142857Y-100535714D01*
X86857142Y-100678571D01*
X85500000Y-101178571D02*
X85500000Y-100178571D01*
X85500000Y-100321428D02*
X85428571Y-100250000D01*
X85285714Y-100178571D01*
X85071428Y-100178571D01*
X84928571Y-100250000D01*
X84857142Y-100392857D01*
X84857142Y-101178571D01*
X84857142Y-100392857D02*
X84785714Y-100250000D01*
X84642857Y-100178571D01*
X84428571Y-100178571D01*
X84285714Y-100250000D01*
X84214285Y-100392857D01*
X84214285Y-101178571D01*
X83500000Y-100178571D02*
X83500000Y-101678571D01*
X83500000Y-100250000D02*
X83357142Y-100178571D01*
X83071428Y-100178571D01*
X82928571Y-100250000D01*
X82857142Y-100321428D01*
X82785714Y-100464285D01*
X82785714Y-100892857D01*
X82857142Y-101035714D01*
X82928571Y-101107142D01*
X83071428Y-101178571D01*
X83357142Y-101178571D01*
X83500000Y-101107142D01*
X81571428Y-101107142D02*
X81714285Y-101178571D01*
X82000000Y-101178571D01*
X82142857Y-101107142D01*
X82214285Y-100964285D01*
X82214285Y-100392857D01*
X82142857Y-100250000D01*
X82000000Y-100178571D01*
X81714285Y-100178571D01*
X81571428Y-100250000D01*
X81500000Y-100392857D01*
X81500000Y-100535714D01*
X82214285Y-100678571D01*
X80857142Y-101178571D02*
X80857142Y-100178571D01*
X80857142Y-100464285D02*
X80785714Y-100321428D01*
X80714285Y-100250000D01*
X80571428Y-100178571D01*
X80428571Y-100178571D01*
X79285714Y-101178571D02*
X79285714Y-100392857D01*
X79357142Y-100250000D01*
X79500000Y-100178571D01*
X79785714Y-100178571D01*
X79928571Y-100250000D01*
X79285714Y-101107142D02*
X79428571Y-101178571D01*
X79785714Y-101178571D01*
X79928571Y-101107142D01*
X80000000Y-100964285D01*
X80000000Y-100821428D01*
X79928571Y-100678571D01*
X79785714Y-100607142D01*
X79428571Y-100607142D01*
X79285714Y-100535714D01*
X78785714Y-100178571D02*
X78214285Y-100178571D01*
X78571428Y-99678571D02*
X78571428Y-100964285D01*
X78500000Y-101107142D01*
X78357142Y-101178571D01*
X78214285Y-101178571D01*
X77071428Y-100178571D02*
X77071428Y-101178571D01*
X77714285Y-100178571D02*
X77714285Y-100964285D01*
X77642857Y-101107142D01*
X77500000Y-101178571D01*
X77285714Y-101178571D01*
X77142857Y-101107142D01*
X77071428Y-101035714D01*
X76357142Y-101178571D02*
X76357142Y-100178571D01*
X76357142Y-100464285D02*
X76285714Y-100321428D01*
X76214285Y-100250000D01*
X76071428Y-100178571D01*
X75928571Y-100178571D01*
X74857142Y-101107142D02*
X75000000Y-101178571D01*
X75285714Y-101178571D01*
X75428571Y-101107142D01*
X75500000Y-100964285D01*
X75500000Y-100392857D01*
X75428571Y-100250000D01*
X75285714Y-100178571D01*
X75000000Y-100178571D01*
X74857142Y-100250000D01*
X74785714Y-100392857D01*
X74785714Y-100535714D01*
X75500000Y-100678571D01*
X73000000Y-101178571D02*
X73000000Y-100178571D01*
X73000000Y-100321428D02*
X72928571Y-100250000D01*
X72785714Y-100178571D01*
X72571428Y-100178571D01*
X72428571Y-100250000D01*
X72357142Y-100392857D01*
X72357142Y-101178571D01*
X72357142Y-100392857D02*
X72285714Y-100250000D01*
X72142857Y-100178571D01*
X71928571Y-100178571D01*
X71785714Y-100250000D01*
X71714285Y-100392857D01*
X71714285Y-101178571D01*
X70357142Y-101178571D02*
X70357142Y-100392857D01*
X70428571Y-100250000D01*
X70571428Y-100178571D01*
X70857142Y-100178571D01*
X71000000Y-100250000D01*
X70357142Y-101107142D02*
X70500000Y-101178571D01*
X70857142Y-101178571D01*
X71000000Y-101107142D01*
X71071428Y-100964285D01*
X71071428Y-100821428D01*
X71000000Y-100678571D01*
X70857142Y-100607142D01*
X70500000Y-100607142D01*
X70357142Y-100535714D01*
X69642857Y-100178571D02*
X69642857Y-101178571D01*
X69642857Y-100321428D02*
X69571428Y-100250000D01*
X69428571Y-100178571D01*
X69214285Y-100178571D01*
X69071428Y-100250000D01*
X69000000Y-100392857D01*
X69000000Y-101178571D01*
X67642857Y-101178571D02*
X67642857Y-100392857D01*
X67714285Y-100250000D01*
X67857142Y-100178571D01*
X68142857Y-100178571D01*
X68285714Y-100250000D01*
X67642857Y-101107142D02*
X67785714Y-101178571D01*
X68142857Y-101178571D01*
X68285714Y-101107142D01*
X68357142Y-100964285D01*
X68357142Y-100821428D01*
X68285714Y-100678571D01*
X68142857Y-100607142D01*
X67785714Y-100607142D01*
X67642857Y-100535714D01*
X66285714Y-100178571D02*
X66285714Y-101392857D01*
X66357142Y-101535714D01*
X66428571Y-101607142D01*
X66571428Y-101678571D01*
X66785714Y-101678571D01*
X66928571Y-101607142D01*
X66285714Y-101107142D02*
X66428571Y-101178571D01*
X66714285Y-101178571D01*
X66857142Y-101107142D01*
X66928571Y-101035714D01*
X67000000Y-100892857D01*
X67000000Y-100464285D01*
X66928571Y-100321428D01*
X66857142Y-100250000D01*
X66714285Y-100178571D01*
X66428571Y-100178571D01*
X66285714Y-100250000D01*
X65000000Y-101107142D02*
X65142857Y-101178571D01*
X65428571Y-101178571D01*
X65571428Y-101107142D01*
X65642857Y-100964285D01*
X65642857Y-100392857D01*
X65571428Y-100250000D01*
X65428571Y-100178571D01*
X65142857Y-100178571D01*
X65000000Y-100250000D01*
X64928571Y-100392857D01*
X64928571Y-100535714D01*
X65642857Y-100678571D01*
X64285714Y-101178571D02*
X64285714Y-100178571D01*
X64285714Y-100321428D02*
X64214285Y-100250000D01*
X64071428Y-100178571D01*
X63857142Y-100178571D01*
X63714285Y-100250000D01*
X63642857Y-100392857D01*
X63642857Y-101178571D01*
X63642857Y-100392857D02*
X63571428Y-100250000D01*
X63428571Y-100178571D01*
X63214285Y-100178571D01*
X63071428Y-100250000D01*
X63000000Y-100392857D01*
X63000000Y-101178571D01*
X61714285Y-101107142D02*
X61857142Y-101178571D01*
X62142857Y-101178571D01*
X62285714Y-101107142D01*
X62357142Y-100964285D01*
X62357142Y-100392857D01*
X62285714Y-100250000D01*
X62142857Y-100178571D01*
X61857142Y-100178571D01*
X61714285Y-100250000D01*
X61642857Y-100392857D01*
X61642857Y-100535714D01*
X62357142Y-100678571D01*
X61000000Y-100178571D02*
X61000000Y-101178571D01*
X61000000Y-100321428D02*
X60928571Y-100250000D01*
X60785714Y-100178571D01*
X60571428Y-100178571D01*
X60428571Y-100250000D01*
X60357142Y-100392857D01*
X60357142Y-101178571D01*
X59857142Y-100178571D02*
X59285714Y-100178571D01*
X59642857Y-99678571D02*
X59642857Y-100964285D01*
X59571428Y-101107142D01*
X59428571Y-101178571D01*
X59285714Y-101178571D01*
X57642857Y-101178571D02*
X57642857Y-99678571D01*
X57000000Y-101178571D02*
X57000000Y-100392857D01*
X57071428Y-100250000D01*
X57214285Y-100178571D01*
X57428571Y-100178571D01*
X57571428Y-100250000D01*
X57642857Y-100321428D01*
X55642857Y-101178571D02*
X55642857Y-100392857D01*
X55714285Y-100250000D01*
X55857142Y-100178571D01*
X56142857Y-100178571D01*
X56285714Y-100250000D01*
X55642857Y-101107142D02*
X55785714Y-101178571D01*
X56142857Y-101178571D01*
X56285714Y-101107142D01*
X56357142Y-100964285D01*
X56357142Y-100821428D01*
X56285714Y-100678571D01*
X56142857Y-100607142D01*
X55785714Y-100607142D01*
X55642857Y-100535714D01*
X55142857Y-100178571D02*
X54571428Y-100178571D01*
X54928571Y-99678571D02*
X54928571Y-100964285D01*
X54857142Y-101107142D01*
X54714285Y-101178571D01*
X54571428Y-101178571D01*
D12*
X111500000Y-50000000D02*
G75*
G03*
X108000000Y-46500000I-3499999J1D01*
G01*
X50000000Y-46500000D02*
X108000000Y-46500000D01*
X50000000Y-102500000D02*
X108000000Y-102500000D01*
X111500000Y-50000000D02*
X111500000Y-99000000D01*
X108000000Y-102500000D02*
G75*
G03*
X111500000Y-99000000I1J3499999D01*
G01*
X46500000Y-99000000D02*
G75*
G03*
X50000000Y-102500000I3499999J-1D01*
G01*
X50000000Y-46500000D02*
G75*
G03*
X46500000Y-50000000I-1J-3499999D01*
G01*
X46500000Y-50000000D02*
X46500000Y-99000000D01*
D13*
X108000000Y-99000000D03*
X50000000Y-99000000D03*
D14*
X73660000Y-95820000D03*
D15*
X77160000Y-95820000D03*
D14*
X93000000Y-95800000D03*
D15*
X96500000Y-95800000D03*
X100000000Y-95800000D03*
D14*
X60960000Y-95820000D03*
D15*
X64460000Y-95820000D03*
D16*
X54870000Y-51270000D03*
D17*
X54870000Y-48730000D03*
X57410000Y-51270000D03*
X57410000Y-48730000D03*
X59950000Y-51270000D03*
X59950000Y-48730000D03*
X62490000Y-51270000D03*
X62490000Y-48730000D03*
X65030000Y-51270000D03*
X65030000Y-48730000D03*
X67570000Y-51270000D03*
X67570000Y-48730000D03*
X70110000Y-51270000D03*
X70110000Y-48730000D03*
X72650000Y-51270000D03*
X72650000Y-48730000D03*
X75190000Y-51270000D03*
X75190000Y-48730000D03*
X77730000Y-51270000D03*
X77730000Y-48730000D03*
X80270000Y-51270000D03*
X80270000Y-48730000D03*
X82810000Y-51270000D03*
X82810000Y-48730000D03*
X85350000Y-51270000D03*
X85350000Y-48730000D03*
X87890000Y-51270000D03*
X87890000Y-48730000D03*
X90430000Y-51270000D03*
X90430000Y-48730000D03*
X92970000Y-51270000D03*
X92970000Y-48730000D03*
X95510000Y-51270000D03*
X95510000Y-48730000D03*
X98050000Y-51270000D03*
X98050000Y-48730000D03*
X100590000Y-51270000D03*
X100590000Y-48730000D03*
X103130000Y-51270000D03*
X103130000Y-48730000D03*
D18*
X101600000Y-74168000D03*
X102616000Y-73660000D03*
X103632000Y-73152000D03*
X101092000Y-71628000D03*
D19*
X81280000Y-53848000D02*
X80264000Y-53848000D01*
X89408000Y-55880000D02*
X88392000Y-54864000D01*
X100076000Y-56388000D02*
X99568000Y-55880000D01*
X78232000Y-52832000D02*
X77724000Y-52324000D01*
X79248000Y-52832000D02*
X78232000Y-52832000D01*
X77724000Y-52324000D02*
X77724000Y-51276000D01*
X88392000Y-54864000D02*
X82296000Y-54864000D01*
X101600000Y-74168000D02*
X100076000Y-72644000D01*
X77724000Y-51276000D02*
X77730000Y-51270000D01*
X80264000Y-53848000D02*
X79248000Y-52832000D01*
X99568000Y-55880000D02*
X89408000Y-55880000D01*
X100076000Y-72644000D02*
X100076000Y-56388000D01*
X82296000Y-54864000D02*
X81280000Y-53848000D01*
X101600000Y-53848000D02*
X90424000Y-53848000D01*
X102108000Y-73152000D02*
X102108000Y-54356000D01*
X102108000Y-54356000D02*
X101600000Y-53848000D01*
X90424000Y-53848000D02*
X89408000Y-52832000D01*
X82804000Y-51276000D02*
X82810000Y-51270000D01*
X83312000Y-52832000D02*
X82804000Y-52324000D01*
X102616000Y-73660000D02*
X102108000Y-73152000D01*
X89408000Y-52832000D02*
X83312000Y-52832000D01*
X82804000Y-52324000D02*
X82804000Y-51276000D01*
X103124000Y-53340000D02*
X102616000Y-52832000D01*
X90932000Y-52832000D02*
X90424000Y-52324000D01*
X102616000Y-52832000D02*
X90932000Y-52832000D01*
X103632000Y-73152000D02*
X103124000Y-72644000D01*
X103124000Y-72644000D02*
X103124000Y-53340000D01*
X90424000Y-51276000D02*
X90430000Y-51270000D01*
X90424000Y-52324000D02*
X90424000Y-51276000D01*
X81788000Y-52832000D02*
X80772000Y-52832000D01*
X100584000Y-54864000D02*
X89916000Y-54864000D01*
X80270000Y-52330000D02*
X80270000Y-51270000D01*
X101092000Y-55372000D02*
X100584000Y-54864000D01*
X82804000Y-53848000D02*
X81788000Y-52832000D01*
X88900000Y-53848000D02*
X82804000Y-53848000D01*
X80772000Y-52832000D02*
X80270000Y-52330000D01*
X89916000Y-54864000D02*
X88900000Y-53848000D01*
X101092000Y-71628000D02*
X101092000Y-55372000D01*
G04 #@! TA.AperFunction,Conductor*
G36*
X77516034Y-52724962D02*
G01*
X77546893Y-52748641D01*
X77978780Y-53180528D01*
X77989224Y-53185850D01*
X77989226Y-53185851D01*
X77998548Y-53190601D01*
X78018475Y-53202813D01*
X78026930Y-53208956D01*
X78026935Y-53208958D01*
X78036419Y-53215849D01*
X78047566Y-53219471D01*
X78047568Y-53219472D01*
X78052376Y-53221034D01*
X78057515Y-53222704D01*
X78079110Y-53231649D01*
X78083867Y-53234073D01*
X78088424Y-53236395D01*
X78088426Y-53236396D01*
X78098874Y-53241719D01*
X78110456Y-53243553D01*
X78110461Y-53243555D01*
X78120789Y-53245191D01*
X78143515Y-53250647D01*
X78164607Y-53257500D01*
X79010034Y-53257500D01*
X79084534Y-53277462D01*
X79115393Y-53301141D01*
X80010780Y-54196528D01*
X80021224Y-54201850D01*
X80021226Y-54201851D01*
X80030548Y-54206601D01*
X80050475Y-54218813D01*
X80058930Y-54224956D01*
X80058935Y-54224958D01*
X80068419Y-54231849D01*
X80079566Y-54235471D01*
X80079568Y-54235472D01*
X80084376Y-54237034D01*
X80089515Y-54238704D01*
X80111110Y-54247649D01*
X80115867Y-54250073D01*
X80120424Y-54252395D01*
X80120426Y-54252396D01*
X80130874Y-54257719D01*
X80142456Y-54259553D01*
X80142461Y-54259555D01*
X80152789Y-54261191D01*
X80175515Y-54266647D01*
X80196607Y-54273500D01*
X81042034Y-54273500D01*
X81116534Y-54293462D01*
X81147393Y-54317141D01*
X82042780Y-55212528D01*
X82053224Y-55217850D01*
X82053226Y-55217851D01*
X82062548Y-55222601D01*
X82082475Y-55234813D01*
X82090930Y-55240956D01*
X82090935Y-55240958D01*
X82100419Y-55247849D01*
X82111566Y-55251471D01*
X82111568Y-55251472D01*
X82116376Y-55253034D01*
X82121515Y-55254704D01*
X82143110Y-55263649D01*
X82147867Y-55266073D01*
X82152424Y-55268395D01*
X82152426Y-55268396D01*
X82162874Y-55273719D01*
X82174456Y-55275553D01*
X82174461Y-55275555D01*
X82184789Y-55277191D01*
X82207515Y-55282647D01*
X82228607Y-55289500D01*
X88154034Y-55289500D01*
X88228534Y-55309462D01*
X88259393Y-55333141D01*
X89154780Y-56228528D01*
X89165224Y-56233850D01*
X89165226Y-56233851D01*
X89174548Y-56238601D01*
X89194475Y-56250813D01*
X89202930Y-56256956D01*
X89202935Y-56256958D01*
X89212419Y-56263849D01*
X89223566Y-56267471D01*
X89223568Y-56267472D01*
X89228376Y-56269034D01*
X89233515Y-56270704D01*
X89255110Y-56279649D01*
X89259867Y-56282073D01*
X89264424Y-56284395D01*
X89264426Y-56284396D01*
X89274874Y-56289719D01*
X89286456Y-56291553D01*
X89286461Y-56291555D01*
X89296789Y-56293191D01*
X89319515Y-56298647D01*
X89340607Y-56305500D01*
X99330034Y-56305500D01*
X99404534Y-56325462D01*
X99435393Y-56349141D01*
X99606859Y-56520607D01*
X99645423Y-56587402D01*
X99650500Y-56625966D01*
X99650500Y-72711393D01*
X99657352Y-72732480D01*
X99662809Y-72755211D01*
X99664445Y-72765539D01*
X99664447Y-72765544D01*
X99666281Y-72777126D01*
X99671604Y-72787574D01*
X99671605Y-72787576D01*
X99676349Y-72796885D01*
X99685296Y-72818485D01*
X99692151Y-72839581D01*
X99699042Y-72849065D01*
X99699044Y-72849070D01*
X99705187Y-72857525D01*
X99717399Y-72877452D01*
X99722149Y-72886774D01*
X99727472Y-72897220D01*
X100957957Y-74127705D01*
X100996521Y-74194500D01*
X101000323Y-74213615D01*
X101013592Y-74314399D01*
X101014956Y-74324762D01*
X101075464Y-74470841D01*
X101171718Y-74596282D01*
X101297159Y-74692536D01*
X101443238Y-74753044D01*
X101452919Y-74754319D01*
X101452921Y-74754319D01*
X101590315Y-74772407D01*
X101600000Y-74773682D01*
X101609685Y-74772407D01*
X101747079Y-74754319D01*
X101747081Y-74754319D01*
X101756762Y-74753044D01*
X101902841Y-74692536D01*
X102028282Y-74596282D01*
X102124536Y-74470841D01*
X102185044Y-74324762D01*
X102186319Y-74315079D01*
X102186501Y-74314399D01*
X102225066Y-74247604D01*
X102291861Y-74209041D01*
X102368989Y-74209041D01*
X102387445Y-74215306D01*
X102459238Y-74245044D01*
X102468919Y-74246319D01*
X102468921Y-74246319D01*
X102606315Y-74264407D01*
X102616000Y-74265682D01*
X102625685Y-74264407D01*
X102763079Y-74246319D01*
X102763081Y-74246319D01*
X102772762Y-74245044D01*
X102918841Y-74184536D01*
X103044282Y-74088282D01*
X103140536Y-73962841D01*
X103201044Y-73816762D01*
X103202319Y-73807079D01*
X103202501Y-73806399D01*
X103241066Y-73739604D01*
X103307861Y-73701041D01*
X103384989Y-73701041D01*
X103403445Y-73707306D01*
X103475238Y-73737044D01*
X103484919Y-73738319D01*
X103484921Y-73738319D01*
X103622315Y-73756407D01*
X103632000Y-73757682D01*
X103641685Y-73756407D01*
X103779079Y-73738319D01*
X103779081Y-73738319D01*
X103788762Y-73737044D01*
X103934841Y-73676536D01*
X104060282Y-73580282D01*
X104156536Y-73454841D01*
X104217044Y-73308762D01*
X104220436Y-73283001D01*
X104236407Y-73161685D01*
X104237682Y-73152000D01*
X104217044Y-72995238D01*
X104156536Y-72849159D01*
X104060282Y-72723718D01*
X103934841Y-72627464D01*
X103788762Y-72566956D01*
X103779083Y-72565682D01*
X103779080Y-72565681D01*
X103679051Y-72552512D01*
X103607794Y-72522996D01*
X103560842Y-72461806D01*
X103549500Y-72404787D01*
X103549500Y-53272607D01*
X103542647Y-53251515D01*
X103537191Y-53228789D01*
X103535555Y-53218461D01*
X103535553Y-53218456D01*
X103533719Y-53206874D01*
X103528139Y-53195921D01*
X103523651Y-53187115D01*
X103514702Y-53165511D01*
X103511472Y-53155568D01*
X103511471Y-53155566D01*
X103507849Y-53144419D01*
X103500958Y-53134935D01*
X103500956Y-53134930D01*
X103494813Y-53126475D01*
X103482601Y-53106548D01*
X103477851Y-53097226D01*
X103477850Y-53097224D01*
X103472528Y-53086780D01*
X103345107Y-52959359D01*
X103306543Y-52892564D01*
X103306543Y-52815436D01*
X103345107Y-52748641D01*
X103411902Y-52710077D01*
X103450466Y-52705000D01*
X111051000Y-52705000D01*
X111125500Y-52724962D01*
X111180038Y-52779500D01*
X111200000Y-52854000D01*
X111200000Y-96983590D01*
X111180038Y-97058090D01*
X111125500Y-97112628D01*
X111051000Y-97132590D01*
X110976500Y-97112628D01*
X110926038Y-97064741D01*
X110844054Y-96938496D01*
X110839466Y-96932183D01*
X110667267Y-96719532D01*
X110654309Y-96710118D01*
X110644905Y-96714305D01*
X108850851Y-98508359D01*
X108784056Y-98546923D01*
X108745492Y-98552000D01*
X108448508Y-98552000D01*
X108374008Y-98532038D01*
X108319470Y-98477500D01*
X108299508Y-98403000D01*
X108319470Y-98328500D01*
X108343149Y-98297641D01*
X110281841Y-96358949D01*
X110289849Y-96345078D01*
X110284702Y-96336162D01*
X110067817Y-96160534D01*
X110061504Y-96155946D01*
X109759684Y-95959942D01*
X109752928Y-95956041D01*
X109432259Y-95792653D01*
X109425150Y-95789488D01*
X109089167Y-95660515D01*
X109081748Y-95658105D01*
X108734130Y-95564961D01*
X108726497Y-95563338D01*
X108371038Y-95507040D01*
X108363296Y-95506226D01*
X108003892Y-95487390D01*
X107996108Y-95487390D01*
X107636704Y-95506226D01*
X107628962Y-95507040D01*
X107273503Y-95563338D01*
X107265870Y-95564961D01*
X106918252Y-95658105D01*
X106910833Y-95660515D01*
X106574850Y-95789488D01*
X106567741Y-95792653D01*
X106247072Y-95956041D01*
X106240316Y-95959942D01*
X105938496Y-96155946D01*
X105932183Y-96160534D01*
X105719532Y-96332733D01*
X105710118Y-96345691D01*
X105714305Y-96355095D01*
X107656851Y-98297641D01*
X107695415Y-98364436D01*
X107695415Y-98441564D01*
X107656851Y-98508359D01*
X107590056Y-98546923D01*
X107551492Y-98552000D01*
X107254508Y-98552000D01*
X107180008Y-98532038D01*
X107149149Y-98508359D01*
X105358949Y-96718159D01*
X105345078Y-96710151D01*
X105336162Y-96715298D01*
X105160534Y-96932183D01*
X105155946Y-96938496D01*
X104959942Y-97240316D01*
X104956041Y-97247072D01*
X104792653Y-97567741D01*
X104789488Y-97574850D01*
X104660515Y-97910833D01*
X104658105Y-97918252D01*
X104564961Y-98265870D01*
X104563339Y-98273500D01*
X104539136Y-98426309D01*
X104507765Y-98496769D01*
X104445367Y-98542103D01*
X104391970Y-98552000D01*
X53608030Y-98552000D01*
X53533530Y-98532038D01*
X53478992Y-98477500D01*
X53460864Y-98426309D01*
X53436661Y-98273500D01*
X53435039Y-98265870D01*
X53341895Y-97918252D01*
X53339485Y-97910833D01*
X53210512Y-97574850D01*
X53207347Y-97567741D01*
X53043959Y-97247072D01*
X53040058Y-97240316D01*
X52925977Y-97064646D01*
X59459500Y-97064646D01*
X59462618Y-97090846D01*
X59508061Y-97193153D01*
X59587287Y-97272241D01*
X59599867Y-97277803D01*
X59599869Y-97277804D01*
X59679426Y-97312976D01*
X59689673Y-97317506D01*
X59704318Y-97319213D01*
X59711070Y-97320001D01*
X59711078Y-97320001D01*
X59715354Y-97320500D01*
X62204646Y-97320500D01*
X62230846Y-97317382D01*
X62333153Y-97271939D01*
X62412241Y-97192713D01*
X62417855Y-97180016D01*
X62452976Y-97100574D01*
X62452976Y-97100573D01*
X62457506Y-97090327D01*
X62460500Y-97064646D01*
X62460500Y-95783214D01*
X62954806Y-95783214D01*
X62955774Y-95800000D01*
X62964997Y-95959942D01*
X62969010Y-96029545D01*
X63023255Y-96270249D01*
X63116084Y-96498861D01*
X63119278Y-96504073D01*
X63235584Y-96693865D01*
X63245006Y-96709241D01*
X63249009Y-96713862D01*
X63249011Y-96713865D01*
X63252731Y-96718159D01*
X63406557Y-96895741D01*
X63411268Y-96899653D01*
X63411272Y-96899656D01*
X63521071Y-96990812D01*
X63596399Y-97053351D01*
X63809433Y-97177838D01*
X63815133Y-97180015D01*
X63815136Y-97180016D01*
X64034234Y-97263681D01*
X64034240Y-97263683D01*
X64039939Y-97265859D01*
X64045920Y-97267076D01*
X64045924Y-97267077D01*
X64134698Y-97285138D01*
X64281726Y-97315052D01*
X64287835Y-97315276D01*
X64522183Y-97323869D01*
X64522187Y-97323869D01*
X64528300Y-97324093D01*
X64773041Y-97292741D01*
X64925248Y-97247077D01*
X65003522Y-97223594D01*
X65003526Y-97223593D01*
X65009374Y-97221838D01*
X65230954Y-97113287D01*
X65299146Y-97064646D01*
X72159500Y-97064646D01*
X72162618Y-97090846D01*
X72208061Y-97193153D01*
X72287287Y-97272241D01*
X72299867Y-97277803D01*
X72299869Y-97277804D01*
X72379426Y-97312976D01*
X72389673Y-97317506D01*
X72404318Y-97319213D01*
X72411070Y-97320001D01*
X72411078Y-97320001D01*
X72415354Y-97320500D01*
X74904646Y-97320500D01*
X74930846Y-97317382D01*
X75033153Y-97271939D01*
X75112241Y-97192713D01*
X75117855Y-97180016D01*
X75152976Y-97100574D01*
X75152976Y-97100573D01*
X75157506Y-97090327D01*
X75160500Y-97064646D01*
X75160500Y-95783214D01*
X75654806Y-95783214D01*
X75655774Y-95800000D01*
X75664997Y-95959942D01*
X75669010Y-96029545D01*
X75723255Y-96270249D01*
X75816084Y-96498861D01*
X75819278Y-96504073D01*
X75935584Y-96693865D01*
X75945006Y-96709241D01*
X75949009Y-96713862D01*
X75949011Y-96713865D01*
X75952731Y-96718159D01*
X76106557Y-96895741D01*
X76111268Y-96899653D01*
X76111272Y-96899656D01*
X76221071Y-96990812D01*
X76296399Y-97053351D01*
X76509433Y-97177838D01*
X76515133Y-97180015D01*
X76515136Y-97180016D01*
X76734234Y-97263681D01*
X76734240Y-97263683D01*
X76739939Y-97265859D01*
X76745920Y-97267076D01*
X76745924Y-97267077D01*
X76834698Y-97285138D01*
X76981726Y-97315052D01*
X76987835Y-97315276D01*
X77222183Y-97323869D01*
X77222187Y-97323869D01*
X77228300Y-97324093D01*
X77473041Y-97292741D01*
X77625248Y-97247077D01*
X77703522Y-97223594D01*
X77703526Y-97223593D01*
X77709374Y-97221838D01*
X77930954Y-97113287D01*
X78027185Y-97044646D01*
X91499500Y-97044646D01*
X91502618Y-97070846D01*
X91548061Y-97173153D01*
X91627287Y-97252241D01*
X91639867Y-97257803D01*
X91639869Y-97257804D01*
X91719426Y-97292976D01*
X91729673Y-97297506D01*
X91744318Y-97299213D01*
X91751070Y-97300001D01*
X91751078Y-97300001D01*
X91755354Y-97300500D01*
X94244646Y-97300500D01*
X94270846Y-97297382D01*
X94373153Y-97251939D01*
X94452241Y-97172713D01*
X94457855Y-97160016D01*
X94492976Y-97080574D01*
X94492976Y-97080573D01*
X94497506Y-97070327D01*
X94500500Y-97044646D01*
X94500500Y-95763214D01*
X94994806Y-95763214D01*
X95009010Y-96009545D01*
X95063255Y-96250249D01*
X95156084Y-96478861D01*
X95285006Y-96689241D01*
X95289009Y-96693862D01*
X95289011Y-96693865D01*
X95311245Y-96719532D01*
X95446557Y-96875741D01*
X95451268Y-96879653D01*
X95451272Y-96879656D01*
X95554899Y-96965688D01*
X95636399Y-97033351D01*
X95849433Y-97157838D01*
X95855133Y-97160015D01*
X95855136Y-97160016D01*
X96074234Y-97243681D01*
X96074240Y-97243683D01*
X96079939Y-97245859D01*
X96085920Y-97247076D01*
X96085924Y-97247077D01*
X96167535Y-97263681D01*
X96321726Y-97295052D01*
X96327835Y-97295276D01*
X96562183Y-97303869D01*
X96562187Y-97303869D01*
X96568300Y-97304093D01*
X96813041Y-97272741D01*
X96946250Y-97232777D01*
X97043522Y-97203594D01*
X97043526Y-97203593D01*
X97049374Y-97201838D01*
X97270954Y-97093287D01*
X97471829Y-96950004D01*
X97646605Y-96775837D01*
X97691137Y-96713865D01*
X97787021Y-96580427D01*
X97790588Y-96575463D01*
X97899911Y-96354264D01*
X97971639Y-96118180D01*
X98003845Y-95873550D01*
X98005643Y-95800000D01*
X98002619Y-95763214D01*
X98494806Y-95763214D01*
X98509010Y-96009545D01*
X98563255Y-96250249D01*
X98656084Y-96478861D01*
X98785006Y-96689241D01*
X98789009Y-96693862D01*
X98789011Y-96693865D01*
X98811245Y-96719532D01*
X98946557Y-96875741D01*
X98951268Y-96879653D01*
X98951272Y-96879656D01*
X99054899Y-96965688D01*
X99136399Y-97033351D01*
X99349433Y-97157838D01*
X99355133Y-97160015D01*
X99355136Y-97160016D01*
X99574234Y-97243681D01*
X99574240Y-97243683D01*
X99579939Y-97245859D01*
X99585920Y-97247076D01*
X99585924Y-97247077D01*
X99667535Y-97263681D01*
X99821726Y-97295052D01*
X99827835Y-97295276D01*
X100062183Y-97303869D01*
X100062187Y-97303869D01*
X100068300Y-97304093D01*
X100313041Y-97272741D01*
X100446250Y-97232777D01*
X100543522Y-97203594D01*
X100543526Y-97203593D01*
X100549374Y-97201838D01*
X100770954Y-97093287D01*
X100971829Y-96950004D01*
X101146605Y-96775837D01*
X101191137Y-96713865D01*
X101287021Y-96580427D01*
X101290588Y-96575463D01*
X101399911Y-96354264D01*
X101471639Y-96118180D01*
X101503845Y-95873550D01*
X101505643Y-95800000D01*
X101486319Y-95564961D01*
X101485926Y-95560181D01*
X101485926Y-95560179D01*
X101485425Y-95554089D01*
X101481352Y-95537871D01*
X101426805Y-95320711D01*
X101425316Y-95314783D01*
X101418934Y-95300104D01*
X101379703Y-95209882D01*
X101326928Y-95088507D01*
X101192905Y-94881339D01*
X101026846Y-94698842D01*
X100833210Y-94545918D01*
X100827857Y-94542963D01*
X100827854Y-94542961D01*
X100676517Y-94459419D01*
X100617198Y-94426673D01*
X100384610Y-94344309D01*
X100378595Y-94343238D01*
X100378593Y-94343237D01*
X100287247Y-94326966D01*
X100141694Y-94301039D01*
X100135581Y-94300964D01*
X100135578Y-94300964D01*
X100031654Y-94299695D01*
X99894972Y-94298025D01*
X99836879Y-94306914D01*
X99657107Y-94334423D01*
X99657104Y-94334424D01*
X99651070Y-94335347D01*
X99416540Y-94412003D01*
X99197679Y-94525935D01*
X99000364Y-94674083D01*
X98996140Y-94678503D01*
X98996139Y-94678504D01*
X98834123Y-94848044D01*
X98834119Y-94848048D01*
X98829896Y-94852468D01*
X98826449Y-94857520D01*
X98826449Y-94857521D01*
X98806700Y-94886472D01*
X98690851Y-95056300D01*
X98586965Y-95280104D01*
X98577348Y-95314783D01*
X98524030Y-95507040D01*
X98521026Y-95517871D01*
X98520377Y-95523948D01*
X98520376Y-95523951D01*
X98505782Y-95660515D01*
X98494806Y-95763214D01*
X98002619Y-95763214D01*
X97986319Y-95564961D01*
X97985926Y-95560181D01*
X97985926Y-95560179D01*
X97985425Y-95554089D01*
X97981352Y-95537871D01*
X97926805Y-95320711D01*
X97925316Y-95314783D01*
X97918934Y-95300104D01*
X97879703Y-95209882D01*
X97826928Y-95088507D01*
X97692905Y-94881339D01*
X97526846Y-94698842D01*
X97333210Y-94545918D01*
X97327857Y-94542963D01*
X97327854Y-94542961D01*
X97176517Y-94459419D01*
X97117198Y-94426673D01*
X96884610Y-94344309D01*
X96878595Y-94343238D01*
X96878593Y-94343237D01*
X96787247Y-94326966D01*
X96641694Y-94301039D01*
X96635581Y-94300964D01*
X96635578Y-94300964D01*
X96531654Y-94299695D01*
X96394972Y-94298025D01*
X96336879Y-94306914D01*
X96157107Y-94334423D01*
X96157104Y-94334424D01*
X96151070Y-94335347D01*
X95916540Y-94412003D01*
X95697679Y-94525935D01*
X95500364Y-94674083D01*
X95496140Y-94678503D01*
X95496139Y-94678504D01*
X95334123Y-94848044D01*
X95334119Y-94848048D01*
X95329896Y-94852468D01*
X95326449Y-94857520D01*
X95326449Y-94857521D01*
X95306700Y-94886472D01*
X95190851Y-95056300D01*
X95086965Y-95280104D01*
X95077348Y-95314783D01*
X95024030Y-95507040D01*
X95021026Y-95517871D01*
X95020377Y-95523948D01*
X95020376Y-95523951D01*
X95005782Y-95660515D01*
X94994806Y-95763214D01*
X94500500Y-95763214D01*
X94500500Y-94555354D01*
X94497382Y-94529154D01*
X94451939Y-94426847D01*
X94372713Y-94347759D01*
X94360133Y-94342197D01*
X94360131Y-94342196D01*
X94280574Y-94307024D01*
X94280573Y-94307024D01*
X94270327Y-94302494D01*
X94255682Y-94300787D01*
X94248930Y-94299999D01*
X94248922Y-94299999D01*
X94244646Y-94299500D01*
X91755354Y-94299500D01*
X91729154Y-94302618D01*
X91626847Y-94348061D01*
X91547759Y-94427287D01*
X91542197Y-94439867D01*
X91542196Y-94439869D01*
X91539188Y-94446673D01*
X91502494Y-94529673D01*
X91501197Y-94540800D01*
X91500170Y-94549609D01*
X91499500Y-94555354D01*
X91499500Y-97044646D01*
X78027185Y-97044646D01*
X78131829Y-96970004D01*
X78306605Y-96795837D01*
X78320977Y-96775837D01*
X78447021Y-96600427D01*
X78450588Y-96595463D01*
X78463183Y-96569980D01*
X78557204Y-96379741D01*
X78559911Y-96374264D01*
X78599410Y-96244258D01*
X78629862Y-96144030D01*
X78629863Y-96144026D01*
X78631639Y-96138180D01*
X78663845Y-95893550D01*
X78665643Y-95820000D01*
X78645425Y-95574089D01*
X78640402Y-95554089D01*
X78586805Y-95340711D01*
X78585316Y-95334783D01*
X78579198Y-95320711D01*
X78489367Y-95114117D01*
X78486928Y-95108507D01*
X78352905Y-94901339D01*
X78186846Y-94718842D01*
X77993210Y-94565918D01*
X77987857Y-94562963D01*
X77987854Y-94562961D01*
X77885204Y-94506296D01*
X77777198Y-94446673D01*
X77544610Y-94364309D01*
X77538595Y-94363238D01*
X77538593Y-94363237D01*
X77432331Y-94344309D01*
X77301694Y-94321039D01*
X77295581Y-94320964D01*
X77295578Y-94320964D01*
X77191654Y-94319695D01*
X77054972Y-94318025D01*
X76996878Y-94326914D01*
X76817107Y-94354423D01*
X76817104Y-94354424D01*
X76811070Y-94355347D01*
X76576540Y-94432003D01*
X76357679Y-94545935D01*
X76160364Y-94694083D01*
X76156140Y-94698503D01*
X76156139Y-94698504D01*
X75994123Y-94868044D01*
X75994119Y-94868048D01*
X75989896Y-94872468D01*
X75986449Y-94877520D01*
X75986449Y-94877521D01*
X75966700Y-94906472D01*
X75850851Y-95076300D01*
X75746965Y-95300104D01*
X75737348Y-95334783D01*
X75686573Y-95517871D01*
X75681026Y-95537871D01*
X75680377Y-95543948D01*
X75680376Y-95543951D01*
X75656292Y-95769313D01*
X75654806Y-95783214D01*
X75160500Y-95783214D01*
X75160500Y-94575354D01*
X75157382Y-94549154D01*
X75111939Y-94446847D01*
X75032713Y-94367759D01*
X75020133Y-94362197D01*
X75020131Y-94362196D01*
X74940574Y-94327024D01*
X74940573Y-94327024D01*
X74930327Y-94322494D01*
X74915682Y-94320787D01*
X74908930Y-94319999D01*
X74908922Y-94319999D01*
X74904646Y-94319500D01*
X72415354Y-94319500D01*
X72389154Y-94322618D01*
X72286847Y-94368061D01*
X72207759Y-94447287D01*
X72202197Y-94459867D01*
X72202196Y-94459869D01*
X72171565Y-94529154D01*
X72162494Y-94549673D01*
X72159500Y-94575354D01*
X72159500Y-97064646D01*
X65299146Y-97064646D01*
X65431829Y-96970004D01*
X65606605Y-96795837D01*
X65620977Y-96775837D01*
X65747021Y-96600427D01*
X65750588Y-96595463D01*
X65763183Y-96569980D01*
X65857204Y-96379741D01*
X65859911Y-96374264D01*
X65899410Y-96244258D01*
X65929862Y-96144030D01*
X65929863Y-96144026D01*
X65931639Y-96138180D01*
X65963845Y-95893550D01*
X65965643Y-95820000D01*
X65945425Y-95574089D01*
X65940402Y-95554089D01*
X65886805Y-95340711D01*
X65885316Y-95334783D01*
X65879198Y-95320711D01*
X65789367Y-95114117D01*
X65786928Y-95108507D01*
X65652905Y-94901339D01*
X65486846Y-94718842D01*
X65293210Y-94565918D01*
X65287857Y-94562963D01*
X65287854Y-94562961D01*
X65185204Y-94506296D01*
X65077198Y-94446673D01*
X64844610Y-94364309D01*
X64838595Y-94363238D01*
X64838593Y-94363237D01*
X64732331Y-94344309D01*
X64601694Y-94321039D01*
X64595581Y-94320964D01*
X64595578Y-94320964D01*
X64491654Y-94319695D01*
X64354972Y-94318025D01*
X64296878Y-94326914D01*
X64117107Y-94354423D01*
X64117104Y-94354424D01*
X64111070Y-94355347D01*
X63876540Y-94432003D01*
X63657679Y-94545935D01*
X63460364Y-94694083D01*
X63456140Y-94698503D01*
X63456139Y-94698504D01*
X63294123Y-94868044D01*
X63294119Y-94868048D01*
X63289896Y-94872468D01*
X63286449Y-94877520D01*
X63286449Y-94877521D01*
X63266700Y-94906472D01*
X63150851Y-95076300D01*
X63046965Y-95300104D01*
X63037348Y-95334783D01*
X62986573Y-95517871D01*
X62981026Y-95537871D01*
X62980377Y-95543948D01*
X62980376Y-95543951D01*
X62956292Y-95769313D01*
X62954806Y-95783214D01*
X62460500Y-95783214D01*
X62460500Y-94575354D01*
X62457382Y-94549154D01*
X62411939Y-94446847D01*
X62332713Y-94367759D01*
X62320133Y-94362197D01*
X62320131Y-94362196D01*
X62240574Y-94327024D01*
X62240573Y-94327024D01*
X62230327Y-94322494D01*
X62215682Y-94320787D01*
X62208930Y-94319999D01*
X62208922Y-94319999D01*
X62204646Y-94319500D01*
X59715354Y-94319500D01*
X59689154Y-94322618D01*
X59586847Y-94368061D01*
X59507759Y-94447287D01*
X59502197Y-94459867D01*
X59502196Y-94459869D01*
X59471565Y-94529154D01*
X59462494Y-94549673D01*
X59459500Y-94575354D01*
X59459500Y-97064646D01*
X52925977Y-97064646D01*
X52844054Y-96938496D01*
X52839466Y-96932183D01*
X52667267Y-96719532D01*
X52654309Y-96710118D01*
X52644905Y-96714305D01*
X50850851Y-98508359D01*
X50784056Y-98546923D01*
X50745492Y-98552000D01*
X50448508Y-98552000D01*
X50374008Y-98532038D01*
X50319470Y-98477500D01*
X50299508Y-98403000D01*
X50319470Y-98328500D01*
X50343149Y-98297641D01*
X52281841Y-96358949D01*
X52289849Y-96345078D01*
X52284702Y-96336162D01*
X52067817Y-96160534D01*
X52061504Y-96155946D01*
X51759684Y-95959942D01*
X51752928Y-95956041D01*
X51432259Y-95792653D01*
X51425150Y-95789488D01*
X51089167Y-95660515D01*
X51081748Y-95658105D01*
X50734130Y-95564961D01*
X50726497Y-95563338D01*
X50371038Y-95507040D01*
X50363296Y-95506226D01*
X50003892Y-95487390D01*
X49996108Y-95487390D01*
X49636704Y-95506226D01*
X49628962Y-95507040D01*
X49273503Y-95563338D01*
X49265870Y-95564961D01*
X48918252Y-95658105D01*
X48910833Y-95660515D01*
X48574850Y-95789488D01*
X48567741Y-95792653D01*
X48247072Y-95956041D01*
X48240316Y-95959942D01*
X47938496Y-96155946D01*
X47932183Y-96160534D01*
X47719532Y-96332733D01*
X47710118Y-96345691D01*
X47714305Y-96355095D01*
X49656851Y-98297641D01*
X49695415Y-98364436D01*
X49695415Y-98441564D01*
X49656851Y-98508359D01*
X49590056Y-98546923D01*
X49551492Y-98552000D01*
X49254508Y-98552000D01*
X49180008Y-98532038D01*
X49149149Y-98508359D01*
X47358949Y-96718159D01*
X47345078Y-96710151D01*
X47336162Y-96715298D01*
X47160534Y-96932183D01*
X47155946Y-96938496D01*
X47073962Y-97064741D01*
X47016645Y-97116350D01*
X46941202Y-97132386D01*
X46867849Y-97108552D01*
X46816240Y-97051235D01*
X46800000Y-96983590D01*
X46800000Y-52854000D01*
X46819962Y-52779500D01*
X46874500Y-52724962D01*
X46949000Y-52705000D01*
X77441534Y-52705000D01*
X77516034Y-52724962D01*
G37*
G04 #@! TD.AperFunction*
M02*
