G04 #@! TF.GenerationSoftware,KiCad,Pcbnew,(6.0.2)*
G04 #@! TF.CreationDate,2022-07-05T12:59:41+02:00*
G04 #@! TF.ProjectId,Raspberry Pi temperature management hat,52617370-6265-4727-9279-205069207465,V2*
G04 #@! TF.SameCoordinates,Original*
G04 #@! TF.FileFunction,Soldermask,Top*
G04 #@! TF.FilePolarity,Negative*
%FSLAX46Y46*%
G04 Gerber Fmt 4.6, Leading zero omitted, Abs format (unit mm)*
G04 Created by KiCad (PCBNEW (6.0.2)) date 2022-07-05 12:59:41*
%MOMM*%
%LPD*%
G01*
G04 APERTURE LIST*
G04 Aperture macros list*
%AMRoundRect*
0 Rectangle with rounded corners*
0 $1 Rounding radius*
0 $2 $3 $4 $5 $6 $7 $8 $9 X,Y pos of 4 corners*
0 Add a 4 corners polygon primitive as box body*
4,1,4,$2,$3,$4,$5,$6,$7,$8,$9,$2,$3,0*
0 Add four circle primitives for the rounded corners*
1,1,$1+$1,$2,$3*
1,1,$1+$1,$4,$5*
1,1,$1+$1,$6,$7*
1,1,$1+$1,$8,$9*
0 Add four rect primitives between the rounded corners*
20,1,$1+$1,$2,$3,$4,$5,0*
20,1,$1+$1,$4,$5,$6,$7,0*
20,1,$1+$1,$6,$7,$8,$9,0*
20,1,$1+$1,$8,$9,$2,$3,0*%
G04 Aperture macros list end*
G04 #@! TA.AperFunction,Profile*
%ADD10C,0.150000*%
G04 #@! TD*
%ADD11C,6.000000*%
%ADD12RoundRect,0.075000X-0.412500X-0.075000X0.412500X-0.075000X0.412500X0.075000X-0.412500X0.075000X0*%
%ADD13RoundRect,0.075000X-0.075000X-0.412500X0.075000X-0.412500X0.075000X0.412500X-0.075000X0.412500X0*%
%ADD14R,3.100000X3.100000*%
%ADD15RoundRect,0.237500X-0.237500X0.250000X-0.237500X-0.250000X0.237500X-0.250000X0.237500X0.250000X0*%
%ADD16RoundRect,0.237500X-0.250000X-0.237500X0.250000X-0.237500X0.250000X0.237500X-0.250000X0.237500X0*%
%ADD17R,2.400000X2.400000*%
%ADD18C,2.400000*%
%ADD19RoundRect,0.237500X0.287500X0.237500X-0.287500X0.237500X-0.287500X-0.237500X0.287500X-0.237500X0*%
%ADD20RoundRect,0.237500X-0.287500X-0.237500X0.287500X-0.237500X0.287500X0.237500X-0.287500X0.237500X0*%
%ADD21RoundRect,0.237500X-0.300000X-0.237500X0.300000X-0.237500X0.300000X0.237500X-0.300000X0.237500X0*%
%ADD22R,1.780000X2.000000*%
%ADD23R,1.300000X1.700000*%
%ADD24C,3.000000*%
%ADD25R,0.800000X1.900000*%
%ADD26R,0.650000X1.560000*%
%ADD27R,1.700000X1.700000*%
%ADD28O,1.700000X1.700000*%
G04 APERTURE END LIST*
D10*
X111500000Y-50000000D02*
G75*
G03*
X108000000Y-46500000I-3499999J1D01*
G01*
X50000000Y-46500000D02*
X108000000Y-46500000D01*
X50000000Y-102500000D02*
X108000000Y-102500000D01*
X111500000Y-50000000D02*
X111500000Y-99000000D01*
X108000000Y-102500000D02*
G75*
G03*
X111500000Y-99000000I1J3499999D01*
G01*
X46500000Y-99000000D02*
G75*
G03*
X50000000Y-102500000I3499999J-1D01*
G01*
X50000000Y-46500000D02*
G75*
G03*
X46500000Y-50000000I-1J-3499999D01*
G01*
X46500000Y-50000000D02*
X46500000Y-99000000D01*
D11*
X108000000Y-99000000D03*
D12*
X94792500Y-71090000D03*
X94792500Y-71740000D03*
X94792500Y-72390000D03*
X94792500Y-73040000D03*
X94792500Y-73690000D03*
D13*
X95855000Y-74752500D03*
X96505000Y-74752500D03*
X97155000Y-74752500D03*
X97805000Y-74752500D03*
X98455000Y-74752500D03*
D12*
X99517500Y-73690000D03*
X99517500Y-73040000D03*
X99517500Y-72390000D03*
X99517500Y-71740000D03*
X99517500Y-71090000D03*
D13*
X98455000Y-70027500D03*
X97805000Y-70027500D03*
X97155000Y-70027500D03*
X96505000Y-70027500D03*
X95855000Y-70027500D03*
D14*
X97155000Y-72390000D03*
D11*
X50000000Y-99000000D03*
D15*
X69850000Y-79097500D03*
X69850000Y-80922500D03*
D16*
X75287500Y-64135000D03*
X77112500Y-64135000D03*
D15*
X57150000Y-79097500D03*
X57150000Y-80922500D03*
D17*
X73660000Y-95820000D03*
D18*
X77160000Y-95820000D03*
D19*
X94855000Y-65227500D03*
X93105000Y-65227500D03*
D16*
X62587500Y-64135000D03*
X64412500Y-64135000D03*
D20*
X70245000Y-64135000D03*
X71995000Y-64135000D03*
D21*
X84862500Y-76835000D03*
X86587500Y-76835000D03*
D22*
X62230000Y-67625000D03*
X59690000Y-67625000D03*
X59690000Y-77155000D03*
X62230000Y-77155000D03*
D21*
X96292500Y-77292500D03*
X98017500Y-77292500D03*
X84862500Y-67945000D03*
X86587500Y-67945000D03*
D23*
X64460000Y-90000000D03*
X60960000Y-90000000D03*
D17*
X93000000Y-95800000D03*
D18*
X96500000Y-95800000D03*
X100000000Y-95800000D03*
D24*
X50000000Y-50000000D03*
D25*
X74610000Y-81050000D03*
X72710000Y-81050000D03*
X73660000Y-84050000D03*
D17*
X60960000Y-95820000D03*
D18*
X64460000Y-95820000D03*
D21*
X97562500Y-67132500D03*
X99287500Y-67132500D03*
D23*
X77160000Y-90000000D03*
X73660000Y-90000000D03*
D21*
X93117500Y-67132500D03*
X94842500Y-67132500D03*
D20*
X57545000Y-64135000D03*
X59295000Y-64135000D03*
D26*
X84775000Y-73740000D03*
X85725000Y-73740000D03*
X86675000Y-73740000D03*
X86675000Y-71040000D03*
X84775000Y-71040000D03*
D22*
X74930000Y-67625000D03*
X72390000Y-67625000D03*
X72390000Y-77155000D03*
X74930000Y-77155000D03*
D25*
X61910000Y-81050000D03*
X60010000Y-81050000D03*
X60960000Y-84050000D03*
D24*
X108000000Y-50000000D03*
D15*
X92075000Y-71223500D03*
X92075000Y-73048500D03*
D27*
X54870000Y-51270000D03*
D28*
X54870000Y-48730000D03*
X57410000Y-51270000D03*
X57410000Y-48730000D03*
X59950000Y-51270000D03*
X59950000Y-48730000D03*
X62490000Y-51270000D03*
X62490000Y-48730000D03*
X65030000Y-51270000D03*
X65030000Y-48730000D03*
X67570000Y-51270000D03*
X67570000Y-48730000D03*
X70110000Y-51270000D03*
X70110000Y-48730000D03*
X72650000Y-51270000D03*
X72650000Y-48730000D03*
X75190000Y-51270000D03*
X75190000Y-48730000D03*
X77730000Y-51270000D03*
X77730000Y-48730000D03*
X80270000Y-51270000D03*
X80270000Y-48730000D03*
X82810000Y-51270000D03*
X82810000Y-48730000D03*
X85350000Y-51270000D03*
X85350000Y-48730000D03*
X87890000Y-51270000D03*
X87890000Y-48730000D03*
X90430000Y-51270000D03*
X90430000Y-48730000D03*
X92970000Y-51270000D03*
X92970000Y-48730000D03*
X95510000Y-51270000D03*
X95510000Y-48730000D03*
X98050000Y-51270000D03*
X98050000Y-48730000D03*
X100590000Y-51270000D03*
X100590000Y-48730000D03*
X103130000Y-51270000D03*
X103130000Y-48730000D03*
M02*
