G04 #@! TF.GenerationSoftware,KiCad,Pcbnew,(6.0.2)*
G04 #@! TF.CreationDate,2022-07-05T12:59:41+02:00*
G04 #@! TF.ProjectId,Raspberry Pi temperature management hat,52617370-6265-4727-9279-205069207465,V2*
G04 #@! TF.SameCoordinates,Original*
G04 #@! TF.FileFunction,Copper,L1,Top*
G04 #@! TF.FilePolarity,Positive*
%FSLAX46Y46*%
G04 Gerber Fmt 4.6, Leading zero omitted, Abs format (unit mm)*
G04 Created by KiCad (PCBNEW (6.0.2)) date 2022-07-05 12:59:41*
%MOMM*%
%LPD*%
G01*
G04 APERTURE LIST*
G04 Aperture macros list*
%AMRoundRect*
0 Rectangle with rounded corners*
0 $1 Rounding radius*
0 $2 $3 $4 $5 $6 $7 $8 $9 X,Y pos of 4 corners*
0 Add a 4 corners polygon primitive as box body*
4,1,4,$2,$3,$4,$5,$6,$7,$8,$9,$2,$3,0*
0 Add four circle primitives for the rounded corners*
1,1,$1+$1,$2,$3*
1,1,$1+$1,$4,$5*
1,1,$1+$1,$6,$7*
1,1,$1+$1,$8,$9*
0 Add four rect primitives between the rounded corners*
20,1,$1+$1,$2,$3,$4,$5,0*
20,1,$1+$1,$4,$5,$6,$7,0*
20,1,$1+$1,$6,$7,$8,$9,0*
20,1,$1+$1,$8,$9,$2,$3,0*%
G04 Aperture macros list end*
G04 #@! TA.AperFunction,Profile*
%ADD10C,0.150000*%
G04 #@! TD*
G04 #@! TA.AperFunction,ComponentPad*
%ADD11C,6.000000*%
G04 #@! TD*
G04 #@! TA.AperFunction,SMDPad,CuDef*
%ADD12RoundRect,0.075000X-0.412500X-0.075000X0.412500X-0.075000X0.412500X0.075000X-0.412500X0.075000X0*%
G04 #@! TD*
G04 #@! TA.AperFunction,SMDPad,CuDef*
%ADD13RoundRect,0.075000X-0.075000X-0.412500X0.075000X-0.412500X0.075000X0.412500X-0.075000X0.412500X0*%
G04 #@! TD*
G04 #@! TA.AperFunction,SMDPad,CuDef*
%ADD14R,3.100000X3.100000*%
G04 #@! TD*
G04 #@! TA.AperFunction,SMDPad,CuDef*
%ADD15RoundRect,0.237500X-0.237500X0.250000X-0.237500X-0.250000X0.237500X-0.250000X0.237500X0.250000X0*%
G04 #@! TD*
G04 #@! TA.AperFunction,SMDPad,CuDef*
%ADD16RoundRect,0.237500X-0.250000X-0.237500X0.250000X-0.237500X0.250000X0.237500X-0.250000X0.237500X0*%
G04 #@! TD*
G04 #@! TA.AperFunction,ComponentPad*
%ADD17R,2.400000X2.400000*%
G04 #@! TD*
G04 #@! TA.AperFunction,ComponentPad*
%ADD18C,2.400000*%
G04 #@! TD*
G04 #@! TA.AperFunction,SMDPad,CuDef*
%ADD19RoundRect,0.237500X0.287500X0.237500X-0.287500X0.237500X-0.287500X-0.237500X0.287500X-0.237500X0*%
G04 #@! TD*
G04 #@! TA.AperFunction,SMDPad,CuDef*
%ADD20RoundRect,0.237500X-0.287500X-0.237500X0.287500X-0.237500X0.287500X0.237500X-0.287500X0.237500X0*%
G04 #@! TD*
G04 #@! TA.AperFunction,SMDPad,CuDef*
%ADD21RoundRect,0.237500X-0.300000X-0.237500X0.300000X-0.237500X0.300000X0.237500X-0.300000X0.237500X0*%
G04 #@! TD*
G04 #@! TA.AperFunction,SMDPad,CuDef*
%ADD22R,1.780000X2.000000*%
G04 #@! TD*
G04 #@! TA.AperFunction,SMDPad,CuDef*
%ADD23R,1.300000X1.700000*%
G04 #@! TD*
G04 #@! TA.AperFunction,SMDPad,CuDef*
%ADD24R,0.800000X1.900000*%
G04 #@! TD*
G04 #@! TA.AperFunction,SMDPad,CuDef*
%ADD25R,0.650000X1.560000*%
G04 #@! TD*
G04 #@! TA.AperFunction,ComponentPad*
%ADD26R,1.700000X1.700000*%
G04 #@! TD*
G04 #@! TA.AperFunction,ComponentPad*
%ADD27O,1.700000X1.700000*%
G04 #@! TD*
G04 #@! TA.AperFunction,ViaPad*
%ADD28C,0.600000*%
G04 #@! TD*
G04 #@! TA.AperFunction,Conductor*
%ADD29C,0.250000*%
G04 #@! TD*
G04 #@! TA.AperFunction,Conductor*
%ADD30C,1.000000*%
G04 #@! TD*
G04 #@! TA.AperFunction,Conductor*
%ADD31C,0.500000*%
G04 #@! TD*
G04 APERTURE END LIST*
D10*
X111500000Y-50000000D02*
G75*
G03*
X108000000Y-46500000I-3499999J1D01*
G01*
X50000000Y-46500000D02*
X108000000Y-46500000D01*
X50000000Y-102500000D02*
X108000000Y-102500000D01*
X111500000Y-50000000D02*
X111500000Y-99000000D01*
X108000000Y-102500000D02*
G75*
G03*
X111500000Y-99000000I1J3499999D01*
G01*
X46500000Y-99000000D02*
G75*
G03*
X50000000Y-102500000I3499999J-1D01*
G01*
X50000000Y-46500000D02*
G75*
G03*
X46500000Y-50000000I-1J-3499999D01*
G01*
X46500000Y-50000000D02*
X46500000Y-99000000D01*
D11*
X108000000Y-99000000D03*
D12*
X94792500Y-71090000D03*
X94792500Y-71740000D03*
X94792500Y-72390000D03*
X94792500Y-73040000D03*
X94792500Y-73690000D03*
D13*
X95855000Y-74752500D03*
X96505000Y-74752500D03*
X97155000Y-74752500D03*
X97805000Y-74752500D03*
X98455000Y-74752500D03*
D12*
X99517500Y-73690000D03*
X99517500Y-73040000D03*
X99517500Y-72390000D03*
X99517500Y-71740000D03*
X99517500Y-71090000D03*
D13*
X98455000Y-70027500D03*
X97805000Y-70027500D03*
X97155000Y-70027500D03*
X96505000Y-70027500D03*
X95855000Y-70027500D03*
D14*
X97155000Y-72390000D03*
D11*
X50000000Y-99000000D03*
D15*
X69850000Y-79097500D03*
X69850000Y-80922500D03*
D16*
X75287500Y-64135000D03*
X77112500Y-64135000D03*
D15*
X57150000Y-79097500D03*
X57150000Y-80922500D03*
D17*
X73660000Y-95820000D03*
D18*
X77160000Y-95820000D03*
D19*
X94855000Y-65227500D03*
X93105000Y-65227500D03*
D16*
X62587500Y-64135000D03*
X64412500Y-64135000D03*
D20*
X70245000Y-64135000D03*
X71995000Y-64135000D03*
D21*
X84862500Y-76835000D03*
X86587500Y-76835000D03*
D22*
X62230000Y-67625000D03*
X59690000Y-67625000D03*
X59690000Y-77155000D03*
X62230000Y-77155000D03*
D21*
X96292500Y-77292500D03*
X98017500Y-77292500D03*
X84862500Y-67945000D03*
X86587500Y-67945000D03*
D23*
X64460000Y-90000000D03*
X60960000Y-90000000D03*
D17*
X93000000Y-95800000D03*
D18*
X96500000Y-95800000D03*
X100000000Y-95800000D03*
D24*
X74610000Y-81050000D03*
X72710000Y-81050000D03*
X73660000Y-84050000D03*
D17*
X60960000Y-95820000D03*
D18*
X64460000Y-95820000D03*
D21*
X97562500Y-67132500D03*
X99287500Y-67132500D03*
D23*
X77160000Y-90000000D03*
X73660000Y-90000000D03*
D21*
X93117500Y-67132500D03*
X94842500Y-67132500D03*
D20*
X57545000Y-64135000D03*
X59295000Y-64135000D03*
D25*
X84775000Y-73740000D03*
X85725000Y-73740000D03*
X86675000Y-73740000D03*
X86675000Y-71040000D03*
X84775000Y-71040000D03*
D22*
X74930000Y-67625000D03*
X72390000Y-67625000D03*
X72390000Y-77155000D03*
X74930000Y-77155000D03*
D24*
X61910000Y-81050000D03*
X60010000Y-81050000D03*
X60960000Y-84050000D03*
D15*
X92075000Y-71223500D03*
X92075000Y-73048500D03*
D26*
X54870000Y-51270000D03*
D27*
X54870000Y-48730000D03*
X57410000Y-51270000D03*
X57410000Y-48730000D03*
X59950000Y-51270000D03*
X59950000Y-48730000D03*
X62490000Y-51270000D03*
X62490000Y-48730000D03*
X65030000Y-51270000D03*
X65030000Y-48730000D03*
X67570000Y-51270000D03*
X67570000Y-48730000D03*
X70110000Y-51270000D03*
X70110000Y-48730000D03*
X72650000Y-51270000D03*
X72650000Y-48730000D03*
X75190000Y-51270000D03*
X75190000Y-48730000D03*
X77730000Y-51270000D03*
X77730000Y-48730000D03*
X80270000Y-51270000D03*
X80270000Y-48730000D03*
X82810000Y-51270000D03*
X82810000Y-48730000D03*
X85350000Y-51270000D03*
X85350000Y-48730000D03*
X87890000Y-51270000D03*
X87890000Y-48730000D03*
X90430000Y-51270000D03*
X90430000Y-48730000D03*
X92970000Y-51270000D03*
X92970000Y-48730000D03*
X95510000Y-51270000D03*
X95510000Y-48730000D03*
X98050000Y-51270000D03*
X98050000Y-48730000D03*
X100590000Y-51270000D03*
X100590000Y-48730000D03*
X103130000Y-51270000D03*
X103130000Y-48730000D03*
D28*
X101600000Y-74168000D03*
X102616000Y-73660000D03*
X103632000Y-73152000D03*
X101092000Y-71628000D03*
D29*
X98455000Y-70027500D02*
X98455000Y-71090000D01*
X99287500Y-67132500D02*
X99517500Y-67362500D01*
X98455000Y-71090000D02*
X97155000Y-72390000D01*
D30*
X103130000Y-51270000D02*
X103130000Y-52826000D01*
D29*
X98455000Y-70027500D02*
X98455000Y-69185000D01*
X99287500Y-68352500D02*
X99287500Y-67132500D01*
X98455000Y-69185000D02*
X99287500Y-68352500D01*
X98455000Y-73690000D02*
X97155000Y-72390000D01*
X98455000Y-74752500D02*
X98455000Y-73690000D01*
X99517500Y-71090000D02*
X98455000Y-71090000D01*
X86675000Y-76747500D02*
X86587500Y-76835000D01*
X74993354Y-75501646D02*
X74930000Y-75565000D01*
X84775000Y-73740000D02*
X84775000Y-75501646D01*
X84775000Y-75501646D02*
X86652091Y-75501646D01*
D31*
X62230000Y-72390000D02*
X62230000Y-77155000D01*
X53505000Y-48730000D02*
X52705000Y-49530000D01*
D29*
X86675000Y-73740000D02*
X86675000Y-75524555D01*
D31*
X74930000Y-72390000D02*
X74930000Y-75565000D01*
X62230000Y-72390000D02*
X74930000Y-72390000D01*
X64460000Y-79385000D02*
X62230000Y-77155000D01*
X77160000Y-79385000D02*
X74930000Y-77155000D01*
D29*
X86652091Y-75501646D02*
X86675000Y-75524555D01*
D31*
X77160000Y-90000000D02*
X77160000Y-79385000D01*
X52705000Y-71755000D02*
X53340000Y-72390000D01*
X54870000Y-48730000D02*
X53505000Y-48730000D01*
X52705000Y-49530000D02*
X52705000Y-71755000D01*
X74930000Y-75565000D02*
X74930000Y-77155000D01*
D29*
X86675000Y-75524555D02*
X86675000Y-76747500D01*
D31*
X53340000Y-72390000D02*
X62230000Y-72390000D01*
X77160000Y-95820000D02*
X77160000Y-90000000D01*
X64460000Y-95820000D02*
X64460000Y-90000000D01*
X64460000Y-90000000D02*
X64460000Y-79385000D01*
D29*
X84775000Y-75501646D02*
X74993354Y-75501646D01*
X97562500Y-64542500D02*
X97562500Y-67132500D01*
X84775000Y-71040000D02*
X84775000Y-68032500D01*
X97155000Y-64135000D02*
X97562500Y-64542500D01*
X85090000Y-64135000D02*
X93121141Y-64135000D01*
X93105000Y-65227500D02*
X93105000Y-64151141D01*
X96505000Y-68190000D02*
X96505000Y-70027500D01*
X84775000Y-68032500D02*
X84862500Y-67945000D01*
X93105000Y-64151141D02*
X93121141Y-64135000D01*
X84862500Y-64362500D02*
X85090000Y-64135000D01*
X93121141Y-64135000D02*
X97155000Y-64135000D01*
X97562500Y-67132500D02*
X96505000Y-68190000D01*
X84862500Y-67945000D02*
X84862500Y-64362500D01*
X96500000Y-77500000D02*
X96500000Y-95800000D01*
X96292500Y-77292500D02*
X96500000Y-77500000D01*
X96505000Y-77080000D02*
X96292500Y-77292500D01*
X96505000Y-74752500D02*
X96505000Y-77080000D01*
X97805000Y-77080000D02*
X98017500Y-77292500D01*
X97967500Y-77292500D02*
X97790000Y-77470000D01*
X97155000Y-79375000D02*
X97155000Y-89535000D01*
X97155000Y-89535000D02*
X100000000Y-92380000D01*
X97805000Y-74752500D02*
X97805000Y-77080000D01*
X97790000Y-77470000D02*
X97790000Y-78740000D01*
X100000000Y-92380000D02*
X100000000Y-95800000D01*
X97790000Y-78740000D02*
X97155000Y-79375000D01*
X98017500Y-77292500D02*
X97967500Y-77292500D01*
X97155000Y-74752500D02*
X97805000Y-74752500D01*
X99547500Y-73660000D02*
X101092000Y-73660000D01*
X101092000Y-73660000D02*
X101600000Y-74168000D01*
X99517500Y-73690000D02*
X99547500Y-73660000D01*
X59295000Y-64135000D02*
X59690000Y-64530000D01*
X59690000Y-64530000D02*
X59690000Y-67625000D01*
X99517500Y-73040000D02*
X101996000Y-73040000D01*
X101996000Y-73040000D02*
X102616000Y-73660000D01*
D31*
X60960000Y-84050000D02*
X60960000Y-90000000D01*
X60960000Y-95820000D02*
X60960000Y-90000000D01*
D29*
X99517500Y-72390000D02*
X102870000Y-72390000D01*
X102870000Y-72390000D02*
X103632000Y-73152000D01*
X71995000Y-64135000D02*
X72390000Y-64530000D01*
X72390000Y-64530000D02*
X72390000Y-67625000D01*
D31*
X73660000Y-90000000D02*
X73660000Y-84050000D01*
X73660000Y-90000000D02*
X73660000Y-95820000D01*
D29*
X99517500Y-71740000D02*
X100980000Y-71740000D01*
X100980000Y-71740000D02*
X101092000Y-71628000D01*
X57150000Y-80922500D02*
X57277500Y-81050000D01*
X57277500Y-81050000D02*
X60010000Y-81050000D01*
X71792500Y-77155000D02*
X72390000Y-77155000D01*
X69850000Y-79097500D02*
X71792500Y-77155000D01*
X94792500Y-71090000D02*
X94792500Y-71740000D01*
X94792500Y-71090000D02*
X92208500Y-71090000D01*
X92208500Y-71090000D02*
X92075000Y-71223500D01*
X64412500Y-64135000D02*
X64412500Y-64111500D01*
X64412500Y-64111500D02*
X64516000Y-64008000D01*
X65024000Y-52832000D02*
X67056000Y-52832000D01*
X67570000Y-52318000D02*
X67570000Y-51270000D01*
X64516000Y-53340000D02*
X65024000Y-52832000D01*
X67056000Y-52832000D02*
X67570000Y-52318000D01*
X64516000Y-64008000D02*
X64516000Y-53340000D01*
X72644000Y-52324000D02*
X72644000Y-51276000D01*
X73152000Y-52832000D02*
X72644000Y-52324000D01*
X72644000Y-51276000D02*
X72650000Y-51270000D01*
X77216000Y-64008000D02*
X77216000Y-53340000D01*
X77216000Y-53340000D02*
X76708000Y-52832000D01*
X77112500Y-64135000D02*
X77112500Y-64111500D01*
X77112500Y-64111500D02*
X77216000Y-64008000D01*
X76708000Y-52832000D02*
X73152000Y-52832000D01*
X69850000Y-80922500D02*
X69977500Y-81050000D01*
X69977500Y-81050000D02*
X72710000Y-81050000D01*
X62587500Y-64135000D02*
X62230000Y-64492500D01*
X62230000Y-64492500D02*
X62230000Y-67625000D01*
X59092500Y-77155000D02*
X59690000Y-77155000D01*
X57150000Y-79097500D02*
X59092500Y-77155000D01*
X74930000Y-67625000D02*
X74930000Y-64492500D01*
X74930000Y-64492500D02*
X75287500Y-64135000D01*
X94792500Y-73040000D02*
X92083500Y-73040000D01*
X94792500Y-72390000D02*
X94792500Y-73040000D01*
X92083500Y-73040000D02*
X92075000Y-73048500D01*
X94842500Y-67132500D02*
X95855000Y-68145000D01*
X94855000Y-67120000D02*
X94842500Y-67132500D01*
X94855000Y-65227500D02*
X94855000Y-67120000D01*
X95855000Y-68145000D02*
X95855000Y-70027500D01*
X95250000Y-76200000D02*
X95250000Y-78740000D01*
X95885000Y-79375000D02*
X95885000Y-89535000D01*
X95250000Y-78740000D02*
X95885000Y-79375000D01*
X95885000Y-89535000D02*
X93000000Y-92420000D01*
X95855000Y-74752500D02*
X94792500Y-73690000D01*
X93000000Y-92420000D02*
X93000000Y-95800000D01*
X95855000Y-75595000D02*
X95250000Y-76200000D01*
X95855000Y-74752500D02*
X95855000Y-75595000D01*
G04 #@! TA.AperFunction,Conductor*
G36*
X52080000Y-52724962D02*
G01*
X52134538Y-52779500D01*
X52154500Y-52854000D01*
X52154500Y-71739522D01*
X52154369Y-71745760D01*
X52151790Y-71807294D01*
X52154110Y-71817183D01*
X52154110Y-71817188D01*
X52161479Y-71848604D01*
X52164037Y-71862406D01*
X52167862Y-71890327D01*
X52169794Y-71904432D01*
X52173828Y-71913754D01*
X52174951Y-71916349D01*
X52183268Y-71941499D01*
X52186232Y-71954136D01*
X52199596Y-71978445D01*
X52206670Y-71991313D01*
X52212846Y-72003919D01*
X52224738Y-72031399D01*
X52229695Y-72042855D01*
X52236085Y-72050746D01*
X52237867Y-72052947D01*
X52252634Y-72074924D01*
X52258893Y-72086308D01*
X52265897Y-72094422D01*
X52289584Y-72118109D01*
X52300020Y-72129699D01*
X52324614Y-72160070D01*
X52338376Y-72169850D01*
X52357416Y-72185941D01*
X52939796Y-72768321D01*
X52944114Y-72772824D01*
X52985799Y-72818156D01*
X53021866Y-72840518D01*
X53033423Y-72848461D01*
X53067217Y-72874112D01*
X53076663Y-72877852D01*
X53076665Y-72877853D01*
X53079285Y-72878890D01*
X53102949Y-72890792D01*
X53105349Y-72892280D01*
X53105351Y-72892281D01*
X53113986Y-72897635D01*
X53123741Y-72900469D01*
X53154730Y-72909472D01*
X53168011Y-72914020D01*
X53198008Y-72925897D01*
X53198012Y-72925898D01*
X53207453Y-72929636D01*
X53220364Y-72930993D01*
X53246358Y-72936093D01*
X53258825Y-72939715D01*
X53269515Y-72940500D01*
X53303004Y-72940500D01*
X53318579Y-72941316D01*
X53347355Y-72944341D01*
X53347358Y-72944341D01*
X53357454Y-72945402D01*
X53374097Y-72942587D01*
X53398946Y-72940500D01*
X61530500Y-72940500D01*
X61605000Y-72960462D01*
X61659538Y-73015000D01*
X61679500Y-73089500D01*
X61679500Y-75705500D01*
X61659538Y-75780000D01*
X61605000Y-75834538D01*
X61530500Y-75854500D01*
X61295354Y-75854500D01*
X61269154Y-75857618D01*
X61166847Y-75903061D01*
X61157129Y-75912796D01*
X61097782Y-75972247D01*
X61087759Y-75982287D01*
X61082522Y-75994132D01*
X61024394Y-76043954D01*
X60948582Y-76058142D01*
X60875833Y-76032523D01*
X60837412Y-75994169D01*
X60831939Y-75981847D01*
X60752713Y-75902759D01*
X60740133Y-75897197D01*
X60740131Y-75897196D01*
X60660574Y-75862024D01*
X60660573Y-75862024D01*
X60650327Y-75857494D01*
X60635682Y-75855787D01*
X60628930Y-75854999D01*
X60628922Y-75854999D01*
X60624646Y-75854500D01*
X58755354Y-75854500D01*
X58729154Y-75857618D01*
X58626847Y-75903061D01*
X58617129Y-75912796D01*
X58557782Y-75972247D01*
X58547759Y-75982287D01*
X58542197Y-75994867D01*
X58542196Y-75994869D01*
X58510363Y-76066874D01*
X58502494Y-76084673D01*
X58499500Y-76110354D01*
X58499500Y-77084534D01*
X58479538Y-77159034D01*
X58455859Y-77189893D01*
X57379893Y-78265859D01*
X57313098Y-78304423D01*
X57274534Y-78309500D01*
X56902256Y-78309501D01*
X56870704Y-78309501D01*
X56866250Y-78310040D01*
X56866249Y-78310040D01*
X56816779Y-78316026D01*
X56782962Y-78320118D01*
X56645911Y-78374380D01*
X56528500Y-78463500D01*
X56439380Y-78580911D01*
X56435640Y-78590358D01*
X56388907Y-78708393D01*
X56385118Y-78717962D01*
X56374500Y-78805703D01*
X56374501Y-79389296D01*
X56385118Y-79477038D01*
X56439380Y-79614089D01*
X56528500Y-79731500D01*
X56645911Y-79820620D01*
X56739808Y-79857796D01*
X56774327Y-79871463D01*
X56836247Y-79917449D01*
X56866879Y-79988233D01*
X56858014Y-80064850D01*
X56812028Y-80126770D01*
X56774328Y-80148536D01*
X56645911Y-80199380D01*
X56528500Y-80288500D01*
X56439380Y-80405911D01*
X56385118Y-80542962D01*
X56374500Y-80630703D01*
X56374501Y-81214296D01*
X56385118Y-81302038D01*
X56439380Y-81439089D01*
X56528500Y-81556500D01*
X56645911Y-81645620D01*
X56710016Y-81671001D01*
X56774068Y-81696361D01*
X56774071Y-81696362D01*
X56782962Y-81699882D01*
X56870703Y-81710500D01*
X57149937Y-81710500D01*
X57429296Y-81710499D01*
X57433750Y-81709960D01*
X57433751Y-81709960D01*
X57507534Y-81701032D01*
X57517038Y-81699882D01*
X57654089Y-81645620D01*
X57771500Y-81556500D01*
X57788263Y-81534415D01*
X57849204Y-81487143D01*
X57906946Y-81475500D01*
X59160500Y-81475500D01*
X59235000Y-81495462D01*
X59289538Y-81550000D01*
X59309500Y-81624500D01*
X59309500Y-82044646D01*
X59312618Y-82070846D01*
X59358061Y-82173153D01*
X59437287Y-82252241D01*
X59449867Y-82257803D01*
X59449869Y-82257804D01*
X59529426Y-82292976D01*
X59539673Y-82297506D01*
X59554318Y-82299213D01*
X59561070Y-82300001D01*
X59561078Y-82300001D01*
X59565354Y-82300500D01*
X60454646Y-82300500D01*
X60480846Y-82297382D01*
X60583153Y-82251939D01*
X60662241Y-82172713D01*
X60686009Y-82118953D01*
X60702976Y-82080574D01*
X60702976Y-82080573D01*
X60707506Y-82070327D01*
X60708803Y-82059200D01*
X60711751Y-82048388D01*
X60714757Y-82049208D01*
X60736430Y-81994602D01*
X60796915Y-81946745D01*
X60873225Y-81935542D01*
X60944913Y-81963995D01*
X60992770Y-82024480D01*
X61004104Y-82067451D01*
X61007740Y-82100923D01*
X61012027Y-82118953D01*
X61056101Y-82236520D01*
X61066196Y-82254959D01*
X61140728Y-82354407D01*
X61155593Y-82369272D01*
X61255041Y-82443804D01*
X61273480Y-82453899D01*
X61391044Y-82497972D01*
X61409079Y-82502261D01*
X61410094Y-82502371D01*
X61410967Y-82502710D01*
X61418172Y-82504423D01*
X61417937Y-82505413D01*
X61432449Y-82511042D01*
X61461911Y-82508038D01*
X61461911Y-82508000D01*
X61462279Y-82508000D01*
X61463554Y-82507870D01*
X61465953Y-82508000D01*
X61636384Y-82508000D01*
X61651855Y-82503855D01*
X61656000Y-82488384D01*
X61656000Y-82488383D01*
X62164000Y-82488383D01*
X62168145Y-82503854D01*
X62183616Y-82507999D01*
X62354060Y-82507999D01*
X62362091Y-82507564D01*
X62410923Y-82502260D01*
X62428953Y-82497973D01*
X62546520Y-82453899D01*
X62564959Y-82443804D01*
X62664407Y-82369272D01*
X62679272Y-82354407D01*
X62753804Y-82254959D01*
X62763899Y-82236520D01*
X62807972Y-82118956D01*
X62812261Y-82100921D01*
X62817566Y-82052088D01*
X62818000Y-82044062D01*
X62818000Y-81323616D01*
X62813855Y-81308145D01*
X62798384Y-81304000D01*
X62183616Y-81304000D01*
X62168145Y-81308145D01*
X62164000Y-81323616D01*
X62164000Y-82488383D01*
X61656000Y-82488383D01*
X61656000Y-80776384D01*
X62164000Y-80776384D01*
X62168145Y-80791855D01*
X62183616Y-80796000D01*
X62798383Y-80796000D01*
X62813854Y-80791855D01*
X62817999Y-80776384D01*
X62817999Y-80055940D01*
X62817564Y-80047909D01*
X62812260Y-79999077D01*
X62807973Y-79981047D01*
X62763899Y-79863480D01*
X62753804Y-79845041D01*
X62679272Y-79745593D01*
X62664407Y-79730728D01*
X62564959Y-79656196D01*
X62546520Y-79646101D01*
X62428956Y-79602028D01*
X62410921Y-79597739D01*
X62362088Y-79592434D01*
X62354062Y-79592000D01*
X62183616Y-79592000D01*
X62168145Y-79596145D01*
X62164000Y-79611616D01*
X62164000Y-80776384D01*
X61656000Y-80776384D01*
X61656000Y-79611617D01*
X61651855Y-79596146D01*
X61636384Y-79592001D01*
X61465940Y-79592001D01*
X61457909Y-79592436D01*
X61409077Y-79597740D01*
X61391047Y-79602027D01*
X61273480Y-79646101D01*
X61255041Y-79656196D01*
X61155593Y-79730728D01*
X61140728Y-79745593D01*
X61066196Y-79845041D01*
X61056101Y-79863480D01*
X61012028Y-79981044D01*
X61007739Y-79999079D01*
X61004079Y-80032775D01*
X60976188Y-80104684D01*
X60916080Y-80153013D01*
X60839860Y-80164814D01*
X60767951Y-80136923D01*
X60719622Y-80076815D01*
X60712508Y-80050804D01*
X60711666Y-80051035D01*
X60708703Y-80040256D01*
X60707382Y-80029154D01*
X60661939Y-79926847D01*
X60582713Y-79847759D01*
X60570133Y-79842197D01*
X60570131Y-79842196D01*
X60490574Y-79807024D01*
X60490573Y-79807024D01*
X60480327Y-79802494D01*
X60465682Y-79800787D01*
X60458930Y-79799999D01*
X60458922Y-79799999D01*
X60454646Y-79799500D01*
X59565354Y-79799500D01*
X59539154Y-79802618D01*
X59436847Y-79848061D01*
X59357759Y-79927287D01*
X59352197Y-79939867D01*
X59352196Y-79939869D01*
X59317241Y-80018936D01*
X59312494Y-80029673D01*
X59311197Y-80040800D01*
X59310004Y-80051035D01*
X59309500Y-80055354D01*
X59309500Y-80475500D01*
X59289538Y-80550000D01*
X59235000Y-80604538D01*
X59160500Y-80624500D01*
X58048426Y-80624500D01*
X57973926Y-80604538D01*
X57919388Y-80550000D01*
X57909889Y-80530351D01*
X57864359Y-80415355D01*
X57860620Y-80405911D01*
X57771500Y-80288500D01*
X57654089Y-80199380D01*
X57525672Y-80148537D01*
X57463753Y-80102551D01*
X57433121Y-80031767D01*
X57441986Y-79955150D01*
X57487972Y-79893230D01*
X57525673Y-79871463D01*
X57560193Y-79857796D01*
X57654089Y-79820620D01*
X57771500Y-79731500D01*
X57860620Y-79614089D01*
X57902779Y-79507607D01*
X57911361Y-79485932D01*
X57911362Y-79485929D01*
X57914882Y-79477038D01*
X57925500Y-79389297D01*
X57925499Y-78985467D01*
X57945461Y-78910967D01*
X57969140Y-78880108D01*
X58431651Y-78417597D01*
X58498446Y-78379033D01*
X58575574Y-78379033D01*
X58619072Y-78399040D01*
X58627287Y-78407241D01*
X58677754Y-78429553D01*
X58719126Y-78447843D01*
X58729673Y-78452506D01*
X58744318Y-78454213D01*
X58751070Y-78455001D01*
X58751078Y-78455001D01*
X58755354Y-78455500D01*
X60624646Y-78455500D01*
X60650846Y-78452382D01*
X60753153Y-78406939D01*
X60832241Y-78327713D01*
X60837478Y-78315868D01*
X60895606Y-78266046D01*
X60971418Y-78251858D01*
X61044167Y-78277477D01*
X61082588Y-78315831D01*
X61088061Y-78328153D01*
X61167287Y-78407241D01*
X61179866Y-78412802D01*
X61179869Y-78412804D01*
X61259426Y-78447976D01*
X61269673Y-78452506D01*
X61284318Y-78454213D01*
X61291070Y-78455001D01*
X61291078Y-78455001D01*
X61295354Y-78455500D01*
X62690257Y-78455500D01*
X62764757Y-78475462D01*
X62795616Y-78499141D01*
X63865859Y-79569383D01*
X63904423Y-79636178D01*
X63909500Y-79674742D01*
X63909500Y-88700788D01*
X63889538Y-88775288D01*
X63835000Y-88829826D01*
X63769407Y-88849500D01*
X63765354Y-88849500D01*
X63739154Y-88852618D01*
X63636847Y-88898061D01*
X63557759Y-88977287D01*
X63512494Y-89079673D01*
X63509500Y-89105354D01*
X63509500Y-90894646D01*
X63512618Y-90920846D01*
X63558061Y-91023153D01*
X63637287Y-91102241D01*
X63649867Y-91107803D01*
X63649869Y-91107804D01*
X63729426Y-91142976D01*
X63739673Y-91147506D01*
X63755047Y-91149298D01*
X63761071Y-91150001D01*
X63761077Y-91150001D01*
X63765354Y-91150500D01*
X63769231Y-91150500D01*
X63842355Y-91174716D01*
X63893639Y-91232323D01*
X63909500Y-91299218D01*
X63909500Y-94324429D01*
X63889538Y-94398929D01*
X63829301Y-94456594D01*
X63657679Y-94545935D01*
X63460364Y-94694083D01*
X63456140Y-94698503D01*
X63456139Y-94698504D01*
X63294123Y-94868044D01*
X63294119Y-94868048D01*
X63289896Y-94872468D01*
X63286449Y-94877520D01*
X63286449Y-94877521D01*
X63266700Y-94906472D01*
X63150851Y-95076300D01*
X63046965Y-95300104D01*
X63037348Y-95334783D01*
X62986573Y-95517871D01*
X62981026Y-95537871D01*
X62980377Y-95543948D01*
X62980376Y-95543951D01*
X62956292Y-95769313D01*
X62954806Y-95783214D01*
X62955774Y-95800000D01*
X62964997Y-95959942D01*
X62969010Y-96029545D01*
X63023255Y-96270249D01*
X63116084Y-96498861D01*
X63119278Y-96504073D01*
X63235584Y-96693865D01*
X63245006Y-96709241D01*
X63249009Y-96713862D01*
X63249011Y-96713865D01*
X63252731Y-96718159D01*
X63406557Y-96895741D01*
X63411268Y-96899653D01*
X63411272Y-96899656D01*
X63521071Y-96990812D01*
X63596399Y-97053351D01*
X63809433Y-97177838D01*
X63815133Y-97180015D01*
X63815136Y-97180016D01*
X64034234Y-97263681D01*
X64034240Y-97263683D01*
X64039939Y-97265859D01*
X64045920Y-97267076D01*
X64045924Y-97267077D01*
X64134698Y-97285138D01*
X64281726Y-97315052D01*
X64287835Y-97315276D01*
X64522183Y-97323869D01*
X64522187Y-97323869D01*
X64528300Y-97324093D01*
X64773041Y-97292741D01*
X64925248Y-97247077D01*
X65003522Y-97223594D01*
X65003526Y-97223593D01*
X65009374Y-97221838D01*
X65230954Y-97113287D01*
X65299146Y-97064646D01*
X72159500Y-97064646D01*
X72162618Y-97090846D01*
X72208061Y-97193153D01*
X72287287Y-97272241D01*
X72299867Y-97277803D01*
X72299869Y-97277804D01*
X72379426Y-97312976D01*
X72389673Y-97317506D01*
X72404318Y-97319213D01*
X72411070Y-97320001D01*
X72411078Y-97320001D01*
X72415354Y-97320500D01*
X74904646Y-97320500D01*
X74930846Y-97317382D01*
X75033153Y-97271939D01*
X75112241Y-97192713D01*
X75117855Y-97180016D01*
X75152976Y-97100574D01*
X75152976Y-97100573D01*
X75157506Y-97090327D01*
X75160500Y-97064646D01*
X75160500Y-94575354D01*
X75157382Y-94549154D01*
X75111939Y-94446847D01*
X75032713Y-94367759D01*
X75020133Y-94362197D01*
X75020131Y-94362196D01*
X74940574Y-94327024D01*
X74940573Y-94327024D01*
X74930327Y-94322494D01*
X74915682Y-94320787D01*
X74908930Y-94319999D01*
X74908922Y-94319999D01*
X74904646Y-94319500D01*
X74359500Y-94319500D01*
X74285000Y-94299538D01*
X74230462Y-94245000D01*
X74210500Y-94170500D01*
X74210500Y-91299212D01*
X74230462Y-91224712D01*
X74285000Y-91170174D01*
X74350593Y-91150500D01*
X74354646Y-91150500D01*
X74380846Y-91147382D01*
X74483153Y-91101939D01*
X74562241Y-91022713D01*
X74607506Y-90920327D01*
X74610500Y-90894646D01*
X74610500Y-89105354D01*
X74607382Y-89079154D01*
X74561939Y-88976847D01*
X74482713Y-88897759D01*
X74470133Y-88892197D01*
X74470131Y-88892196D01*
X74390574Y-88857024D01*
X74390573Y-88857024D01*
X74380327Y-88852494D01*
X74364953Y-88850702D01*
X74358929Y-88849999D01*
X74358923Y-88849999D01*
X74354646Y-88849500D01*
X74350769Y-88849500D01*
X74277645Y-88825284D01*
X74226361Y-88767677D01*
X74210500Y-88700782D01*
X74210500Y-85336274D01*
X74230462Y-85261774D01*
X74254049Y-85231007D01*
X74302522Y-85182449D01*
X74312241Y-85172713D01*
X74357506Y-85070327D01*
X74360500Y-85044646D01*
X74360500Y-83055354D01*
X74357382Y-83029154D01*
X74311939Y-82926847D01*
X74232713Y-82847759D01*
X74220133Y-82842197D01*
X74220131Y-82842196D01*
X74140874Y-82807157D01*
X74130327Y-82802494D01*
X74119200Y-82801197D01*
X74116296Y-82800405D01*
X74109239Y-82796289D01*
X74094003Y-82799500D01*
X73215354Y-82799500D01*
X73189154Y-82802618D01*
X73086847Y-82848061D01*
X73007759Y-82927287D01*
X72962494Y-83029673D01*
X72959500Y-83055354D01*
X72959500Y-85044646D01*
X72962618Y-85070846D01*
X73008061Y-85173153D01*
X73017796Y-85182871D01*
X73065767Y-85230758D01*
X73104389Y-85297519D01*
X73109500Y-85336209D01*
X73109500Y-88700788D01*
X73089538Y-88775288D01*
X73035000Y-88829826D01*
X72969407Y-88849500D01*
X72965354Y-88849500D01*
X72939154Y-88852618D01*
X72836847Y-88898061D01*
X72757759Y-88977287D01*
X72712494Y-89079673D01*
X72709500Y-89105354D01*
X72709500Y-90894646D01*
X72712618Y-90920846D01*
X72758061Y-91023153D01*
X72837287Y-91102241D01*
X72849867Y-91107803D01*
X72849869Y-91107804D01*
X72929426Y-91142976D01*
X72939673Y-91147506D01*
X72955047Y-91149298D01*
X72961071Y-91150001D01*
X72961077Y-91150001D01*
X72965354Y-91150500D01*
X72969231Y-91150500D01*
X73042355Y-91174716D01*
X73093639Y-91232323D01*
X73109500Y-91299218D01*
X73109500Y-94170500D01*
X73089538Y-94245000D01*
X73035000Y-94299538D01*
X72960500Y-94319500D01*
X72415354Y-94319500D01*
X72389154Y-94322618D01*
X72286847Y-94368061D01*
X72207759Y-94447287D01*
X72202197Y-94459867D01*
X72202196Y-94459869D01*
X72171565Y-94529154D01*
X72162494Y-94549673D01*
X72159500Y-94575354D01*
X72159500Y-97064646D01*
X65299146Y-97064646D01*
X65431829Y-96970004D01*
X65606605Y-96795837D01*
X65620977Y-96775837D01*
X65747021Y-96600427D01*
X65750588Y-96595463D01*
X65763183Y-96569980D01*
X65857204Y-96379741D01*
X65859911Y-96374264D01*
X65899410Y-96244258D01*
X65929862Y-96144030D01*
X65929863Y-96144026D01*
X65931639Y-96138180D01*
X65963845Y-95893550D01*
X65965643Y-95820000D01*
X65945425Y-95574089D01*
X65940402Y-95554089D01*
X65886805Y-95340711D01*
X65885316Y-95334783D01*
X65879198Y-95320711D01*
X65789367Y-95114117D01*
X65786928Y-95108507D01*
X65652905Y-94901339D01*
X65486846Y-94718842D01*
X65293210Y-94565918D01*
X65287857Y-94562963D01*
X65287854Y-94562961D01*
X65087491Y-94452355D01*
X65031916Y-94398874D01*
X65010500Y-94321911D01*
X65010500Y-91299212D01*
X65030462Y-91224712D01*
X65085000Y-91170174D01*
X65150593Y-91150500D01*
X65154646Y-91150500D01*
X65180846Y-91147382D01*
X65283153Y-91101939D01*
X65362241Y-91022713D01*
X65407506Y-90920327D01*
X65410500Y-90894646D01*
X65410500Y-89105354D01*
X65407382Y-89079154D01*
X65361939Y-88976847D01*
X65282713Y-88897759D01*
X65270133Y-88892197D01*
X65270131Y-88892196D01*
X65190574Y-88857024D01*
X65190573Y-88857024D01*
X65180327Y-88852494D01*
X65164953Y-88850702D01*
X65158929Y-88849999D01*
X65158923Y-88849999D01*
X65154646Y-88849500D01*
X65150769Y-88849500D01*
X65077645Y-88825284D01*
X65026361Y-88767677D01*
X65010500Y-88700782D01*
X65010500Y-79400478D01*
X65010631Y-79394239D01*
X65012784Y-79342859D01*
X65013210Y-79332706D01*
X65010890Y-79322817D01*
X65010890Y-79322812D01*
X65003521Y-79291396D01*
X65000963Y-79277594D01*
X64996585Y-79245632D01*
X64996584Y-79245629D01*
X64995206Y-79235568D01*
X64990049Y-79223651D01*
X64981732Y-79198501D01*
X64981088Y-79195753D01*
X64981086Y-79195749D01*
X64978768Y-79185864D01*
X64958330Y-79148688D01*
X64952156Y-79136084D01*
X64939341Y-79106470D01*
X64939338Y-79106465D01*
X64935305Y-79097145D01*
X64927136Y-79087057D01*
X64912360Y-79065068D01*
X64909867Y-79060533D01*
X64909867Y-79060532D01*
X64906106Y-79053692D01*
X64899103Y-79045578D01*
X64875416Y-79021891D01*
X64864980Y-79010301D01*
X64846778Y-78987823D01*
X64846777Y-78987822D01*
X64840386Y-78979930D01*
X64826624Y-78970150D01*
X64807584Y-78954059D01*
X64157948Y-78304423D01*
X63464141Y-77610617D01*
X63425577Y-77543822D01*
X63420500Y-77505258D01*
X63420500Y-76110354D01*
X63417382Y-76084154D01*
X63371939Y-75981847D01*
X63292713Y-75902759D01*
X63280133Y-75897197D01*
X63280131Y-75897196D01*
X63200574Y-75862024D01*
X63200573Y-75862024D01*
X63190327Y-75857494D01*
X63175682Y-75855787D01*
X63168930Y-75854999D01*
X63168922Y-75854999D01*
X63164646Y-75854500D01*
X62929500Y-75854500D01*
X62855000Y-75834538D01*
X62800462Y-75780000D01*
X62780500Y-75705500D01*
X62780500Y-73089500D01*
X62800462Y-73015000D01*
X62855000Y-72960462D01*
X62929500Y-72940500D01*
X74230500Y-72940500D01*
X74305000Y-72960462D01*
X74359538Y-73015000D01*
X74379500Y-73089500D01*
X74379500Y-75705500D01*
X74359538Y-75780000D01*
X74305000Y-75834538D01*
X74230500Y-75854500D01*
X73995354Y-75854500D01*
X73969154Y-75857618D01*
X73866847Y-75903061D01*
X73857129Y-75912796D01*
X73797782Y-75972247D01*
X73787759Y-75982287D01*
X73782522Y-75994132D01*
X73724394Y-76043954D01*
X73648582Y-76058142D01*
X73575833Y-76032523D01*
X73537412Y-75994169D01*
X73531939Y-75981847D01*
X73452713Y-75902759D01*
X73440133Y-75897197D01*
X73440131Y-75897196D01*
X73360574Y-75862024D01*
X73360573Y-75862024D01*
X73350327Y-75857494D01*
X73335682Y-75855787D01*
X73328930Y-75854999D01*
X73328922Y-75854999D01*
X73324646Y-75854500D01*
X71455354Y-75854500D01*
X71429154Y-75857618D01*
X71326847Y-75903061D01*
X71317129Y-75912796D01*
X71257782Y-75972247D01*
X71247759Y-75982287D01*
X71242197Y-75994867D01*
X71242196Y-75994869D01*
X71210363Y-76066874D01*
X71202494Y-76084673D01*
X71199500Y-76110354D01*
X71199500Y-77084534D01*
X71179538Y-77159034D01*
X71155859Y-77189893D01*
X70079893Y-78265859D01*
X70013098Y-78304423D01*
X69974534Y-78309500D01*
X69602256Y-78309501D01*
X69570704Y-78309501D01*
X69566250Y-78310040D01*
X69566249Y-78310040D01*
X69516779Y-78316026D01*
X69482962Y-78320118D01*
X69345911Y-78374380D01*
X69228500Y-78463500D01*
X69139380Y-78580911D01*
X69135640Y-78590358D01*
X69088907Y-78708393D01*
X69085118Y-78717962D01*
X69074500Y-78805703D01*
X69074501Y-79389296D01*
X69085118Y-79477038D01*
X69139380Y-79614089D01*
X69228500Y-79731500D01*
X69345911Y-79820620D01*
X69439808Y-79857796D01*
X69474327Y-79871463D01*
X69536247Y-79917449D01*
X69566879Y-79988233D01*
X69558014Y-80064850D01*
X69512028Y-80126770D01*
X69474328Y-80148536D01*
X69345911Y-80199380D01*
X69228500Y-80288500D01*
X69139380Y-80405911D01*
X69085118Y-80542962D01*
X69074500Y-80630703D01*
X69074501Y-81214296D01*
X69085118Y-81302038D01*
X69139380Y-81439089D01*
X69228500Y-81556500D01*
X69345911Y-81645620D01*
X69410016Y-81671001D01*
X69474068Y-81696361D01*
X69474071Y-81696362D01*
X69482962Y-81699882D01*
X69570703Y-81710500D01*
X69849937Y-81710500D01*
X70129296Y-81710499D01*
X70133750Y-81709960D01*
X70133751Y-81709960D01*
X70207534Y-81701032D01*
X70217038Y-81699882D01*
X70354089Y-81645620D01*
X70471500Y-81556500D01*
X70488263Y-81534415D01*
X70549204Y-81487143D01*
X70606946Y-81475500D01*
X71860500Y-81475500D01*
X71935000Y-81495462D01*
X71989538Y-81550000D01*
X72009500Y-81624500D01*
X72009500Y-82044646D01*
X72012618Y-82070846D01*
X72058061Y-82173153D01*
X72137287Y-82252241D01*
X72149867Y-82257803D01*
X72149869Y-82257804D01*
X72229426Y-82292976D01*
X72239673Y-82297506D01*
X72254318Y-82299213D01*
X72261070Y-82300001D01*
X72261078Y-82300001D01*
X72265354Y-82300500D01*
X73154646Y-82300500D01*
X73180846Y-82297382D01*
X73283153Y-82251939D01*
X73362241Y-82172713D01*
X73386009Y-82118953D01*
X73402976Y-82080574D01*
X73402976Y-82080573D01*
X73407506Y-82070327D01*
X73408803Y-82059200D01*
X73411751Y-82048388D01*
X73414757Y-82049208D01*
X73436430Y-81994602D01*
X73496915Y-81946745D01*
X73573225Y-81935542D01*
X73644913Y-81963995D01*
X73692770Y-82024480D01*
X73704104Y-82067451D01*
X73707740Y-82100923D01*
X73712027Y-82118953D01*
X73756101Y-82236520D01*
X73766196Y-82254959D01*
X73840728Y-82354407D01*
X73855593Y-82369272D01*
X73955041Y-82443804D01*
X73973480Y-82453899D01*
X74091044Y-82497972D01*
X74109079Y-82502261D01*
X74110094Y-82502371D01*
X74110967Y-82502710D01*
X74118172Y-82504423D01*
X74117937Y-82505413D01*
X74132449Y-82511042D01*
X74161911Y-82508038D01*
X74161911Y-82508000D01*
X74162279Y-82508000D01*
X74163554Y-82507870D01*
X74165953Y-82508000D01*
X74336384Y-82508000D01*
X74351855Y-82503855D01*
X74356000Y-82488384D01*
X74356000Y-82488383D01*
X74864000Y-82488383D01*
X74868145Y-82503854D01*
X74883616Y-82507999D01*
X75054060Y-82507999D01*
X75062091Y-82507564D01*
X75110923Y-82502260D01*
X75128953Y-82497973D01*
X75246520Y-82453899D01*
X75264959Y-82443804D01*
X75364407Y-82369272D01*
X75379272Y-82354407D01*
X75453804Y-82254959D01*
X75463899Y-82236520D01*
X75507972Y-82118956D01*
X75512261Y-82100921D01*
X75517566Y-82052088D01*
X75518000Y-82044062D01*
X75518000Y-81323616D01*
X75513855Y-81308145D01*
X75498384Y-81304000D01*
X74883616Y-81304000D01*
X74868145Y-81308145D01*
X74864000Y-81323616D01*
X74864000Y-82488383D01*
X74356000Y-82488383D01*
X74356000Y-80776384D01*
X74864000Y-80776384D01*
X74868145Y-80791855D01*
X74883616Y-80796000D01*
X75498383Y-80796000D01*
X75513854Y-80791855D01*
X75517999Y-80776384D01*
X75517999Y-80055940D01*
X75517564Y-80047909D01*
X75512260Y-79999077D01*
X75507973Y-79981047D01*
X75463899Y-79863480D01*
X75453804Y-79845041D01*
X75379272Y-79745593D01*
X75364407Y-79730728D01*
X75264959Y-79656196D01*
X75246520Y-79646101D01*
X75128956Y-79602028D01*
X75110921Y-79597739D01*
X75062088Y-79592434D01*
X75054062Y-79592000D01*
X74883616Y-79592000D01*
X74868145Y-79596145D01*
X74864000Y-79611616D01*
X74864000Y-80776384D01*
X74356000Y-80776384D01*
X74356000Y-79611617D01*
X74351855Y-79596146D01*
X74336384Y-79592001D01*
X74165940Y-79592001D01*
X74157909Y-79592436D01*
X74109077Y-79597740D01*
X74091047Y-79602027D01*
X73973480Y-79646101D01*
X73955041Y-79656196D01*
X73855593Y-79730728D01*
X73840728Y-79745593D01*
X73766196Y-79845041D01*
X73756101Y-79863480D01*
X73712028Y-79981044D01*
X73707739Y-79999079D01*
X73704079Y-80032775D01*
X73676188Y-80104684D01*
X73616080Y-80153013D01*
X73539860Y-80164814D01*
X73467951Y-80136923D01*
X73419622Y-80076815D01*
X73412508Y-80050804D01*
X73411666Y-80051035D01*
X73408703Y-80040256D01*
X73407382Y-80029154D01*
X73361939Y-79926847D01*
X73282713Y-79847759D01*
X73270133Y-79842197D01*
X73270131Y-79842196D01*
X73190574Y-79807024D01*
X73190573Y-79807024D01*
X73180327Y-79802494D01*
X73165682Y-79800787D01*
X73158930Y-79799999D01*
X73158922Y-79799999D01*
X73154646Y-79799500D01*
X72265354Y-79799500D01*
X72239154Y-79802618D01*
X72136847Y-79848061D01*
X72057759Y-79927287D01*
X72052197Y-79939867D01*
X72052196Y-79939869D01*
X72017241Y-80018936D01*
X72012494Y-80029673D01*
X72011197Y-80040800D01*
X72010004Y-80051035D01*
X72009500Y-80055354D01*
X72009500Y-80475500D01*
X71989538Y-80550000D01*
X71935000Y-80604538D01*
X71860500Y-80624500D01*
X70748426Y-80624500D01*
X70673926Y-80604538D01*
X70619388Y-80550000D01*
X70609889Y-80530351D01*
X70564359Y-80415355D01*
X70560620Y-80405911D01*
X70471500Y-80288500D01*
X70354089Y-80199380D01*
X70225672Y-80148537D01*
X70163753Y-80102551D01*
X70133121Y-80031767D01*
X70141986Y-79955150D01*
X70187972Y-79893230D01*
X70225673Y-79871463D01*
X70260193Y-79857796D01*
X70354089Y-79820620D01*
X70471500Y-79731500D01*
X70560620Y-79614089D01*
X70602779Y-79507607D01*
X70611361Y-79485932D01*
X70611362Y-79485929D01*
X70614882Y-79477038D01*
X70625500Y-79389297D01*
X70625499Y-78985467D01*
X70645461Y-78910967D01*
X70669140Y-78880108D01*
X71131651Y-78417597D01*
X71198446Y-78379033D01*
X71275574Y-78379033D01*
X71319072Y-78399040D01*
X71327287Y-78407241D01*
X71377754Y-78429553D01*
X71419126Y-78447843D01*
X71429673Y-78452506D01*
X71444318Y-78454213D01*
X71451070Y-78455001D01*
X71451078Y-78455001D01*
X71455354Y-78455500D01*
X73324646Y-78455500D01*
X73350846Y-78452382D01*
X73453153Y-78406939D01*
X73532241Y-78327713D01*
X73537478Y-78315868D01*
X73595606Y-78266046D01*
X73671418Y-78251858D01*
X73744167Y-78277477D01*
X73782588Y-78315831D01*
X73788061Y-78328153D01*
X73867287Y-78407241D01*
X73879866Y-78412802D01*
X73879869Y-78412804D01*
X73959426Y-78447976D01*
X73969673Y-78452506D01*
X73984318Y-78454213D01*
X73991070Y-78455001D01*
X73991078Y-78455001D01*
X73995354Y-78455500D01*
X75390257Y-78455500D01*
X75464757Y-78475462D01*
X75495616Y-78499141D01*
X76565859Y-79569383D01*
X76604423Y-79636178D01*
X76609500Y-79674742D01*
X76609500Y-88700788D01*
X76589538Y-88775288D01*
X76535000Y-88829826D01*
X76469407Y-88849500D01*
X76465354Y-88849500D01*
X76439154Y-88852618D01*
X76336847Y-88898061D01*
X76257759Y-88977287D01*
X76212494Y-89079673D01*
X76209500Y-89105354D01*
X76209500Y-90894646D01*
X76212618Y-90920846D01*
X76258061Y-91023153D01*
X76337287Y-91102241D01*
X76349867Y-91107803D01*
X76349869Y-91107804D01*
X76429426Y-91142976D01*
X76439673Y-91147506D01*
X76455047Y-91149298D01*
X76461071Y-91150001D01*
X76461077Y-91150001D01*
X76465354Y-91150500D01*
X76469231Y-91150500D01*
X76542355Y-91174716D01*
X76593639Y-91232323D01*
X76609500Y-91299218D01*
X76609500Y-94324429D01*
X76589538Y-94398929D01*
X76529301Y-94456594D01*
X76357679Y-94545935D01*
X76160364Y-94694083D01*
X76156140Y-94698503D01*
X76156139Y-94698504D01*
X75994123Y-94868044D01*
X75994119Y-94868048D01*
X75989896Y-94872468D01*
X75986449Y-94877520D01*
X75986449Y-94877521D01*
X75966700Y-94906472D01*
X75850851Y-95076300D01*
X75746965Y-95300104D01*
X75737348Y-95334783D01*
X75686573Y-95517871D01*
X75681026Y-95537871D01*
X75680377Y-95543948D01*
X75680376Y-95543951D01*
X75656292Y-95769313D01*
X75654806Y-95783214D01*
X75655774Y-95800000D01*
X75664997Y-95959942D01*
X75669010Y-96029545D01*
X75723255Y-96270249D01*
X75816084Y-96498861D01*
X75819278Y-96504073D01*
X75935584Y-96693865D01*
X75945006Y-96709241D01*
X75949009Y-96713862D01*
X75949011Y-96713865D01*
X75952731Y-96718159D01*
X76106557Y-96895741D01*
X76111268Y-96899653D01*
X76111272Y-96899656D01*
X76221071Y-96990812D01*
X76296399Y-97053351D01*
X76509433Y-97177838D01*
X76515133Y-97180015D01*
X76515136Y-97180016D01*
X76734234Y-97263681D01*
X76734240Y-97263683D01*
X76739939Y-97265859D01*
X76745920Y-97267076D01*
X76745924Y-97267077D01*
X76834698Y-97285138D01*
X76981726Y-97315052D01*
X76987835Y-97315276D01*
X77222183Y-97323869D01*
X77222187Y-97323869D01*
X77228300Y-97324093D01*
X77473041Y-97292741D01*
X77625248Y-97247077D01*
X77703522Y-97223594D01*
X77703526Y-97223593D01*
X77709374Y-97221838D01*
X77930954Y-97113287D01*
X78131829Y-96970004D01*
X78306605Y-96795837D01*
X78320977Y-96775837D01*
X78447021Y-96600427D01*
X78450588Y-96595463D01*
X78463183Y-96569980D01*
X78557204Y-96379741D01*
X78559911Y-96374264D01*
X78599410Y-96244258D01*
X78629862Y-96144030D01*
X78629863Y-96144026D01*
X78631639Y-96138180D01*
X78663845Y-95893550D01*
X78665643Y-95820000D01*
X78645425Y-95574089D01*
X78640402Y-95554089D01*
X78586805Y-95340711D01*
X78585316Y-95334783D01*
X78579198Y-95320711D01*
X78489367Y-95114117D01*
X78486928Y-95108507D01*
X78352905Y-94901339D01*
X78186846Y-94718842D01*
X77993210Y-94565918D01*
X77987857Y-94562963D01*
X77987854Y-94562961D01*
X77787491Y-94452355D01*
X77731916Y-94398874D01*
X77710500Y-94321911D01*
X77710500Y-91299212D01*
X77730462Y-91224712D01*
X77785000Y-91170174D01*
X77850593Y-91150500D01*
X77854646Y-91150500D01*
X77880846Y-91147382D01*
X77983153Y-91101939D01*
X78062241Y-91022713D01*
X78107506Y-90920327D01*
X78110500Y-90894646D01*
X78110500Y-89105354D01*
X78107382Y-89079154D01*
X78061939Y-88976847D01*
X77982713Y-88897759D01*
X77970133Y-88892197D01*
X77970131Y-88892196D01*
X77890574Y-88857024D01*
X77890573Y-88857024D01*
X77880327Y-88852494D01*
X77864953Y-88850702D01*
X77858929Y-88849999D01*
X77858923Y-88849999D01*
X77854646Y-88849500D01*
X77850769Y-88849500D01*
X77777645Y-88825284D01*
X77726361Y-88767677D01*
X77710500Y-88700782D01*
X77710500Y-79400478D01*
X77710631Y-79394239D01*
X77712784Y-79342859D01*
X77713210Y-79332706D01*
X77710890Y-79322817D01*
X77710890Y-79322812D01*
X77703521Y-79291396D01*
X77700963Y-79277594D01*
X77696585Y-79245632D01*
X77696584Y-79245629D01*
X77695206Y-79235568D01*
X77690049Y-79223651D01*
X77681732Y-79198501D01*
X77681088Y-79195753D01*
X77681086Y-79195749D01*
X77678768Y-79185864D01*
X77658330Y-79148688D01*
X77652156Y-79136084D01*
X77639341Y-79106470D01*
X77639338Y-79106465D01*
X77635305Y-79097145D01*
X77627136Y-79087057D01*
X77612360Y-79065068D01*
X77609867Y-79060533D01*
X77609867Y-79060532D01*
X77606106Y-79053692D01*
X77599103Y-79045578D01*
X77575416Y-79021891D01*
X77564980Y-79010301D01*
X77546778Y-78987823D01*
X77546777Y-78987822D01*
X77540386Y-78979930D01*
X77526624Y-78970150D01*
X77507584Y-78954059D01*
X76857948Y-78304423D01*
X76164141Y-77610617D01*
X76125577Y-77543822D01*
X76120500Y-77505258D01*
X76120500Y-77118175D01*
X83817000Y-77118175D01*
X83817398Y-77125872D01*
X83826945Y-77217878D01*
X83830368Y-77233726D01*
X83880061Y-77382676D01*
X83887360Y-77398258D01*
X83969724Y-77531357D01*
X83980404Y-77544833D01*
X84091184Y-77655420D01*
X84104678Y-77666077D01*
X84237919Y-77748207D01*
X84253512Y-77755478D01*
X84402576Y-77804920D01*
X84418383Y-77808309D01*
X84509182Y-77817612D01*
X84516774Y-77818000D01*
X84588884Y-77818000D01*
X84604355Y-77813855D01*
X84608500Y-77798384D01*
X84608500Y-77108616D01*
X84604355Y-77093145D01*
X84588884Y-77089000D01*
X83836616Y-77089000D01*
X83821145Y-77093145D01*
X83817000Y-77108616D01*
X83817000Y-77118175D01*
X76120500Y-77118175D01*
X76120500Y-76110354D01*
X76119978Y-76105968D01*
X76119978Y-76105962D01*
X76118525Y-76093758D01*
X76129541Y-76017421D01*
X76177250Y-75956819D01*
X76248868Y-75928191D01*
X76266480Y-75927146D01*
X83833053Y-75927146D01*
X83907553Y-75947108D01*
X83962091Y-76001646D01*
X83982053Y-76076146D01*
X83959892Y-76154330D01*
X83886793Y-76272919D01*
X83879522Y-76288512D01*
X83830080Y-76437576D01*
X83826691Y-76453383D01*
X83817388Y-76544182D01*
X83817000Y-76551774D01*
X83817000Y-76561384D01*
X83821145Y-76576855D01*
X83836616Y-76581000D01*
X84967500Y-76581000D01*
X85042000Y-76600962D01*
X85096538Y-76655500D01*
X85116500Y-76730000D01*
X85116500Y-77798384D01*
X85120645Y-77813855D01*
X85136116Y-77818000D01*
X85208175Y-77818000D01*
X85215872Y-77817602D01*
X85307878Y-77808055D01*
X85323726Y-77804632D01*
X85472676Y-77754939D01*
X85488258Y-77747640D01*
X85621357Y-77665276D01*
X85634833Y-77654596D01*
X85745422Y-77543814D01*
X85757188Y-77528915D01*
X85819027Y-77482821D01*
X85895628Y-77473821D01*
X85964206Y-77502578D01*
X86020911Y-77545620D01*
X86075699Y-77567312D01*
X86149068Y-77596361D01*
X86149071Y-77596362D01*
X86157962Y-77599882D01*
X86245703Y-77610500D01*
X86587423Y-77610500D01*
X86929296Y-77610499D01*
X86933750Y-77609960D01*
X86933751Y-77609960D01*
X87007534Y-77601032D01*
X87017038Y-77599882D01*
X87154089Y-77545620D01*
X87236823Y-77482821D01*
X87263407Y-77462643D01*
X87271500Y-77456500D01*
X87360620Y-77339089D01*
X87414882Y-77202038D01*
X87425500Y-77114297D01*
X87425499Y-76555704D01*
X87421962Y-76526469D01*
X87416032Y-76477466D01*
X87414882Y-76467962D01*
X87360620Y-76330911D01*
X87271500Y-76213500D01*
X87159414Y-76128422D01*
X87112142Y-76067480D01*
X87100500Y-76009740D01*
X87100500Y-74897208D01*
X87120462Y-74822708D01*
X87163380Y-74776280D01*
X87173153Y-74771939D01*
X87252241Y-74692713D01*
X87292125Y-74602500D01*
X87292976Y-74600574D01*
X87292976Y-74600573D01*
X87297506Y-74590327D01*
X87300500Y-74564646D01*
X87300500Y-72915354D01*
X87297382Y-72889154D01*
X87251939Y-72786847D01*
X87182768Y-72717796D01*
X87182448Y-72717477D01*
X87172713Y-72707759D01*
X87160133Y-72702197D01*
X87160131Y-72702196D01*
X87080574Y-72667024D01*
X87080573Y-72667024D01*
X87070327Y-72662494D01*
X87055682Y-72660787D01*
X87048930Y-72659999D01*
X87048922Y-72659999D01*
X87044646Y-72659500D01*
X86534205Y-72659500D01*
X86459705Y-72639538D01*
X86428243Y-72611630D01*
X86426776Y-72613097D01*
X86404407Y-72590728D01*
X86304959Y-72516196D01*
X86286520Y-72506101D01*
X86168956Y-72462028D01*
X86150921Y-72457739D01*
X86102088Y-72452434D01*
X86094062Y-72452000D01*
X85998616Y-72452000D01*
X85983145Y-72456145D01*
X85979000Y-72471616D01*
X85979000Y-73845000D01*
X85959038Y-73919500D01*
X85904500Y-73974038D01*
X85830000Y-73994000D01*
X85620000Y-73994000D01*
X85545500Y-73974038D01*
X85490962Y-73919500D01*
X85471000Y-73845000D01*
X85471000Y-72471617D01*
X85466855Y-72456146D01*
X85451384Y-72452001D01*
X85355940Y-72452001D01*
X85347909Y-72452436D01*
X85299077Y-72457740D01*
X85281047Y-72462027D01*
X85163480Y-72506101D01*
X85145041Y-72516196D01*
X85045593Y-72590728D01*
X85023224Y-72613097D01*
X85021002Y-72610875D01*
X84974373Y-72647502D01*
X84915795Y-72659500D01*
X84405354Y-72659500D01*
X84379154Y-72662618D01*
X84276847Y-72708061D01*
X84197759Y-72787287D01*
X84192197Y-72799867D01*
X84192196Y-72799869D01*
X84157261Y-72878890D01*
X84152494Y-72889673D01*
X84151197Y-72900800D01*
X84150186Y-72909472D01*
X84149500Y-72915354D01*
X84149500Y-74564646D01*
X84152618Y-74590846D01*
X84198061Y-74693153D01*
X84207796Y-74702871D01*
X84258057Y-74753044D01*
X84277287Y-74772241D01*
X84286416Y-74776277D01*
X84334872Y-74832809D01*
X84349500Y-74897192D01*
X84349500Y-74927146D01*
X84329538Y-75001646D01*
X84275000Y-75056184D01*
X84200500Y-75076146D01*
X75629500Y-75076146D01*
X75555000Y-75056184D01*
X75500462Y-75001646D01*
X75480500Y-74927146D01*
X75480500Y-72416131D01*
X75480900Y-72405218D01*
X75483836Y-72365240D01*
X75484580Y-72355109D01*
X75474016Y-72302721D01*
X75472456Y-72293494D01*
X75466586Y-72250638D01*
X75466585Y-72250634D01*
X75465206Y-72240568D01*
X75461170Y-72231241D01*
X75459189Y-72224148D01*
X75456775Y-72217216D01*
X75454767Y-72207257D01*
X75430499Y-72159627D01*
X75426536Y-72151207D01*
X75405305Y-72102145D01*
X75398910Y-72094248D01*
X75395089Y-72087938D01*
X75390902Y-72081913D01*
X75386293Y-72072868D01*
X75379423Y-72065397D01*
X75379421Y-72065394D01*
X75352528Y-72036149D01*
X75350121Y-72033531D01*
X75344008Y-72026449D01*
X75316782Y-71992828D01*
X75316781Y-71992827D01*
X75310386Y-71984930D01*
X75302102Y-71979043D01*
X75296738Y-71974006D01*
X75291080Y-71969325D01*
X75284201Y-71961844D01*
X75238771Y-71933677D01*
X75230991Y-71928507D01*
X75225207Y-71924396D01*
X75187442Y-71897558D01*
X75177877Y-71894114D01*
X75171348Y-71890701D01*
X75164647Y-71887717D01*
X75156014Y-71882365D01*
X75104694Y-71867455D01*
X75095796Y-71864563D01*
X75055090Y-71849908D01*
X75055089Y-71849908D01*
X75045532Y-71846467D01*
X75035404Y-71845723D01*
X75026369Y-71843803D01*
X75026361Y-71843847D01*
X75018674Y-71842464D01*
X75011175Y-71840285D01*
X75000485Y-71839500D01*
X74956131Y-71839500D01*
X74945218Y-71839100D01*
X74905240Y-71836164D01*
X74895109Y-71835420D01*
X74885150Y-71837428D01*
X74875014Y-71838066D01*
X74875010Y-71838002D01*
X74860003Y-71839500D01*
X62256131Y-71839500D01*
X62245218Y-71839100D01*
X62205240Y-71836164D01*
X62195109Y-71835420D01*
X62185150Y-71837428D01*
X62175014Y-71838066D01*
X62175010Y-71838002D01*
X62160003Y-71839500D01*
X53629743Y-71839500D01*
X53555243Y-71819538D01*
X53524384Y-71795859D01*
X53299141Y-71570617D01*
X53260577Y-71503822D01*
X53255500Y-71465258D01*
X53255500Y-64418175D01*
X56512000Y-64418175D01*
X56512398Y-64425872D01*
X56521945Y-64517878D01*
X56525368Y-64533726D01*
X56575061Y-64682676D01*
X56582360Y-64698258D01*
X56664724Y-64831357D01*
X56675404Y-64844833D01*
X56786184Y-64955420D01*
X56799678Y-64966077D01*
X56932919Y-65048207D01*
X56948512Y-65055478D01*
X57097576Y-65104920D01*
X57113383Y-65108309D01*
X57204182Y-65117612D01*
X57211774Y-65118000D01*
X57271384Y-65118000D01*
X57286855Y-65113855D01*
X57291000Y-65098384D01*
X57291000Y-64408616D01*
X57286855Y-64393145D01*
X57271384Y-64389000D01*
X56531616Y-64389000D01*
X56516145Y-64393145D01*
X56512000Y-64408616D01*
X56512000Y-64418175D01*
X53255500Y-64418175D01*
X53255500Y-63861384D01*
X56512000Y-63861384D01*
X56516145Y-63876855D01*
X56531616Y-63881000D01*
X57271384Y-63881000D01*
X57286855Y-63876855D01*
X57291000Y-63861384D01*
X57291000Y-63171616D01*
X57286855Y-63156145D01*
X57271384Y-63152000D01*
X57211826Y-63152000D01*
X57204128Y-63152398D01*
X57112122Y-63161945D01*
X57096274Y-63165368D01*
X56947324Y-63215061D01*
X56931742Y-63222360D01*
X56798643Y-63304724D01*
X56785167Y-63315404D01*
X56674580Y-63426184D01*
X56663923Y-63439678D01*
X56581793Y-63572919D01*
X56574522Y-63588512D01*
X56525080Y-63737576D01*
X56521691Y-63753383D01*
X56512388Y-63844182D01*
X56512000Y-63851774D01*
X56512000Y-63861384D01*
X53255500Y-63861384D01*
X53255500Y-52854000D01*
X53275462Y-52779500D01*
X53330000Y-52724962D01*
X53404500Y-52705000D01*
X64189534Y-52705000D01*
X64264034Y-52724962D01*
X64318572Y-52779500D01*
X64338534Y-52854000D01*
X64318572Y-52928500D01*
X64294893Y-52959359D01*
X64167472Y-53086780D01*
X64162150Y-53097224D01*
X64162149Y-53097226D01*
X64157399Y-53106548D01*
X64145187Y-53126475D01*
X64139044Y-53134930D01*
X64139042Y-53134935D01*
X64132151Y-53144419D01*
X64128529Y-53155566D01*
X64128528Y-53155568D01*
X64125298Y-53165511D01*
X64116349Y-53187115D01*
X64111862Y-53195921D01*
X64106281Y-53206874D01*
X64104447Y-53218456D01*
X64104445Y-53218461D01*
X64102809Y-53228789D01*
X64097353Y-53251515D01*
X64090500Y-53272607D01*
X64090500Y-63246077D01*
X64070538Y-63320577D01*
X64016000Y-63375115D01*
X63996354Y-63384612D01*
X63895911Y-63424380D01*
X63778500Y-63513500D01*
X63689380Y-63630911D01*
X63638640Y-63759068D01*
X63638537Y-63759327D01*
X63592551Y-63821247D01*
X63521767Y-63851879D01*
X63445150Y-63843014D01*
X63383230Y-63797028D01*
X63361463Y-63759327D01*
X63361361Y-63759068D01*
X63310620Y-63630911D01*
X63221500Y-63513500D01*
X63104089Y-63424380D01*
X63003651Y-63384614D01*
X62975932Y-63373639D01*
X62975929Y-63373638D01*
X62967038Y-63370118D01*
X62879297Y-63359500D01*
X62587566Y-63359500D01*
X62295704Y-63359501D01*
X62291250Y-63360040D01*
X62291249Y-63360040D01*
X62265498Y-63363156D01*
X62207962Y-63370118D01*
X62070911Y-63424380D01*
X61953500Y-63513500D01*
X61864380Y-63630911D01*
X61860640Y-63640358D01*
X61813642Y-63759062D01*
X61810118Y-63767962D01*
X61799500Y-63855703D01*
X61799501Y-64414296D01*
X61800040Y-64418748D01*
X61800040Y-64418751D01*
X61803421Y-64446692D01*
X61804500Y-64464591D01*
X61804500Y-66175500D01*
X61784538Y-66250000D01*
X61730000Y-66304538D01*
X61655500Y-66324500D01*
X61295354Y-66324500D01*
X61269154Y-66327618D01*
X61166847Y-66373061D01*
X61087759Y-66452287D01*
X61082522Y-66464132D01*
X61024394Y-66513954D01*
X60948582Y-66528142D01*
X60875833Y-66502523D01*
X60837412Y-66464169D01*
X60831939Y-66451847D01*
X60752713Y-66372759D01*
X60740133Y-66367197D01*
X60740131Y-66367196D01*
X60660574Y-66332024D01*
X60660573Y-66332024D01*
X60650327Y-66327494D01*
X60635682Y-66325787D01*
X60628930Y-66324999D01*
X60628922Y-66324999D01*
X60624646Y-66324500D01*
X60264500Y-66324500D01*
X60190000Y-66304538D01*
X60135462Y-66250000D01*
X60115500Y-66175500D01*
X60115500Y-64464597D01*
X60116579Y-64446695D01*
X60119962Y-64418746D01*
X60119962Y-64418739D01*
X60120500Y-64414297D01*
X60120499Y-63855704D01*
X60118964Y-63843014D01*
X60111032Y-63777466D01*
X60109882Y-63767962D01*
X60055620Y-63630911D01*
X59966500Y-63513500D01*
X59849089Y-63424380D01*
X59748651Y-63384614D01*
X59720932Y-63373639D01*
X59720929Y-63373638D01*
X59712038Y-63370118D01*
X59624297Y-63359500D01*
X59295074Y-63359500D01*
X58965704Y-63359501D01*
X58961250Y-63360040D01*
X58961249Y-63360040D01*
X58935498Y-63363156D01*
X58877962Y-63370118D01*
X58740911Y-63424380D01*
X58732818Y-63430523D01*
X58650690Y-63492861D01*
X58579279Y-63522003D01*
X58502865Y-63511535D01*
X58441922Y-63464263D01*
X58433901Y-63452582D01*
X58425274Y-63438640D01*
X58414596Y-63425167D01*
X58303816Y-63314580D01*
X58290322Y-63303923D01*
X58157081Y-63221793D01*
X58141488Y-63214522D01*
X57992424Y-63165080D01*
X57976617Y-63161691D01*
X57885818Y-63152388D01*
X57878226Y-63152000D01*
X57818616Y-63152000D01*
X57803145Y-63156145D01*
X57799000Y-63171616D01*
X57799000Y-65098384D01*
X57803145Y-65113855D01*
X57818616Y-65118000D01*
X57878175Y-65118000D01*
X57885872Y-65117602D01*
X57977878Y-65108055D01*
X57993726Y-65104632D01*
X58142676Y-65054939D01*
X58158258Y-65047640D01*
X58291357Y-64965276D01*
X58304833Y-64954596D01*
X58415420Y-64843816D01*
X58426072Y-64830328D01*
X58433853Y-64817704D01*
X58489939Y-64764759D01*
X58564983Y-64746950D01*
X58638877Y-64769048D01*
X58650766Y-64777196D01*
X58740911Y-64845620D01*
X58778398Y-64860462D01*
X58869068Y-64896361D01*
X58869071Y-64896362D01*
X58877962Y-64899882D01*
X58965703Y-64910500D01*
X59115500Y-64910500D01*
X59190000Y-64930462D01*
X59244538Y-64985000D01*
X59264500Y-65059500D01*
X59264500Y-66175500D01*
X59244538Y-66250000D01*
X59190000Y-66304538D01*
X59115500Y-66324500D01*
X58755354Y-66324500D01*
X58729154Y-66327618D01*
X58626847Y-66373061D01*
X58547759Y-66452287D01*
X58542197Y-66464867D01*
X58542196Y-66464869D01*
X58521802Y-66511000D01*
X58502494Y-66554673D01*
X58499500Y-66580354D01*
X58499500Y-68669646D01*
X58502618Y-68695846D01*
X58548061Y-68798153D01*
X58557796Y-68807871D01*
X58614964Y-68864939D01*
X58627287Y-68877241D01*
X58639867Y-68882803D01*
X58639869Y-68882804D01*
X58719426Y-68917976D01*
X58729673Y-68922506D01*
X58744318Y-68924213D01*
X58751070Y-68925001D01*
X58751078Y-68925001D01*
X58755354Y-68925500D01*
X60624646Y-68925500D01*
X60650846Y-68922382D01*
X60753153Y-68876939D01*
X60832241Y-68797713D01*
X60837478Y-68785868D01*
X60895606Y-68736046D01*
X60971418Y-68721858D01*
X61044167Y-68747477D01*
X61082588Y-68785831D01*
X61088061Y-68798153D01*
X61097796Y-68807871D01*
X61097797Y-68807872D01*
X61154964Y-68864939D01*
X61167287Y-68877241D01*
X61179867Y-68882803D01*
X61179869Y-68882804D01*
X61259426Y-68917976D01*
X61269673Y-68922506D01*
X61284318Y-68924213D01*
X61291070Y-68925001D01*
X61291078Y-68925001D01*
X61295354Y-68925500D01*
X63164646Y-68925500D01*
X63190846Y-68922382D01*
X63293153Y-68876939D01*
X63372241Y-68797713D01*
X63381807Y-68776077D01*
X63412976Y-68705574D01*
X63412976Y-68705573D01*
X63417506Y-68695327D01*
X63420500Y-68669646D01*
X63420500Y-66580354D01*
X63417382Y-66554154D01*
X63371939Y-66451847D01*
X63292713Y-66372759D01*
X63280133Y-66367197D01*
X63280131Y-66367196D01*
X63200574Y-66332024D01*
X63200573Y-66332024D01*
X63190327Y-66327494D01*
X63175682Y-66325787D01*
X63168930Y-66324999D01*
X63168922Y-66324999D01*
X63164646Y-66324500D01*
X62804500Y-66324500D01*
X62730000Y-66304538D01*
X62675462Y-66250000D01*
X62655500Y-66175500D01*
X62655500Y-65059499D01*
X62675462Y-64984999D01*
X62730000Y-64930461D01*
X62804500Y-64910499D01*
X62879296Y-64910499D01*
X62883750Y-64909960D01*
X62883751Y-64909960D01*
X62957534Y-64901032D01*
X62967038Y-64899882D01*
X63104089Y-64845620D01*
X63221500Y-64756500D01*
X63310620Y-64639089D01*
X63361463Y-64510672D01*
X63407449Y-64448753D01*
X63478233Y-64418121D01*
X63554850Y-64426986D01*
X63616770Y-64472972D01*
X63638536Y-64510672D01*
X63689380Y-64639089D01*
X63778500Y-64756500D01*
X63895911Y-64845620D01*
X63933398Y-64860462D01*
X64024068Y-64896361D01*
X64024071Y-64896362D01*
X64032962Y-64899882D01*
X64120703Y-64910500D01*
X64412434Y-64910500D01*
X64704296Y-64910499D01*
X64708750Y-64909960D01*
X64708751Y-64909960D01*
X64782534Y-64901032D01*
X64792038Y-64899882D01*
X64929089Y-64845620D01*
X65046500Y-64756500D01*
X65135620Y-64639089D01*
X65189882Y-64502038D01*
X65200031Y-64418175D01*
X69212000Y-64418175D01*
X69212398Y-64425872D01*
X69221945Y-64517878D01*
X69225368Y-64533726D01*
X69275061Y-64682676D01*
X69282360Y-64698258D01*
X69364724Y-64831357D01*
X69375404Y-64844833D01*
X69486184Y-64955420D01*
X69499678Y-64966077D01*
X69632919Y-65048207D01*
X69648512Y-65055478D01*
X69797576Y-65104920D01*
X69813383Y-65108309D01*
X69904182Y-65117612D01*
X69911774Y-65118000D01*
X69971384Y-65118000D01*
X69986855Y-65113855D01*
X69991000Y-65098384D01*
X69991000Y-64408616D01*
X69986855Y-64393145D01*
X69971384Y-64389000D01*
X69231616Y-64389000D01*
X69216145Y-64393145D01*
X69212000Y-64408616D01*
X69212000Y-64418175D01*
X65200031Y-64418175D01*
X65200500Y-64414297D01*
X65200499Y-63861384D01*
X69212000Y-63861384D01*
X69216145Y-63876855D01*
X69231616Y-63881000D01*
X69971384Y-63881000D01*
X69986855Y-63876855D01*
X69991000Y-63861384D01*
X69991000Y-63171616D01*
X69986855Y-63156145D01*
X69971384Y-63152000D01*
X69911826Y-63152000D01*
X69904128Y-63152398D01*
X69812122Y-63161945D01*
X69796274Y-63165368D01*
X69647324Y-63215061D01*
X69631742Y-63222360D01*
X69498643Y-63304724D01*
X69485167Y-63315404D01*
X69374580Y-63426184D01*
X69363923Y-63439678D01*
X69281793Y-63572919D01*
X69274522Y-63588512D01*
X69225080Y-63737576D01*
X69221691Y-63753383D01*
X69212388Y-63844182D01*
X69212000Y-63851774D01*
X69212000Y-63861384D01*
X65200499Y-63861384D01*
X65200499Y-63855704D01*
X65198964Y-63843014D01*
X65191032Y-63777466D01*
X65189882Y-63767962D01*
X65135620Y-63630911D01*
X65046500Y-63513500D01*
X65038407Y-63507357D01*
X65000415Y-63478519D01*
X64953143Y-63417576D01*
X64941500Y-63359836D01*
X64941500Y-53577966D01*
X64961462Y-53503466D01*
X64985141Y-53472607D01*
X65156607Y-53301141D01*
X65223402Y-53262577D01*
X65261966Y-53257500D01*
X67123393Y-53257500D01*
X67144485Y-53250647D01*
X67167211Y-53245191D01*
X67177539Y-53243555D01*
X67177544Y-53243553D01*
X67189126Y-53241719D01*
X67199574Y-53236396D01*
X67199576Y-53236395D01*
X67204133Y-53234073D01*
X67208890Y-53231649D01*
X67230485Y-53222704D01*
X67235624Y-53221034D01*
X67240432Y-53219472D01*
X67240434Y-53219471D01*
X67251581Y-53215849D01*
X67261065Y-53208958D01*
X67261070Y-53208956D01*
X67269525Y-53202813D01*
X67289452Y-53190601D01*
X67298774Y-53185851D01*
X67298776Y-53185850D01*
X67309220Y-53180528D01*
X67741107Y-52748641D01*
X67807902Y-52710077D01*
X67846466Y-52705000D01*
X72361534Y-52705000D01*
X72436034Y-52724962D01*
X72466893Y-52748641D01*
X72898780Y-53180528D01*
X72909224Y-53185850D01*
X72909226Y-53185851D01*
X72918548Y-53190601D01*
X72938475Y-53202813D01*
X72946930Y-53208956D01*
X72946935Y-53208958D01*
X72956419Y-53215849D01*
X72967566Y-53219471D01*
X72967568Y-53219472D01*
X72972376Y-53221034D01*
X72977515Y-53222704D01*
X72999110Y-53231649D01*
X73003867Y-53234073D01*
X73008424Y-53236395D01*
X73008426Y-53236396D01*
X73018874Y-53241719D01*
X73030456Y-53243553D01*
X73030461Y-53243555D01*
X73040789Y-53245191D01*
X73063515Y-53250647D01*
X73084607Y-53257500D01*
X76470034Y-53257500D01*
X76544534Y-53277462D01*
X76575393Y-53301141D01*
X76746859Y-53472607D01*
X76785423Y-53539402D01*
X76790500Y-53577966D01*
X76790500Y-63246077D01*
X76770538Y-63320577D01*
X76716000Y-63375115D01*
X76696354Y-63384612D01*
X76595911Y-63424380D01*
X76478500Y-63513500D01*
X76389380Y-63630911D01*
X76338640Y-63759068D01*
X76338537Y-63759327D01*
X76292551Y-63821247D01*
X76221767Y-63851879D01*
X76145150Y-63843014D01*
X76083230Y-63797028D01*
X76061463Y-63759327D01*
X76061361Y-63759068D01*
X76010620Y-63630911D01*
X75921500Y-63513500D01*
X75804089Y-63424380D01*
X75703651Y-63384614D01*
X75675932Y-63373639D01*
X75675929Y-63373638D01*
X75667038Y-63370118D01*
X75579297Y-63359500D01*
X75287566Y-63359500D01*
X74995704Y-63359501D01*
X74991250Y-63360040D01*
X74991249Y-63360040D01*
X74965498Y-63363156D01*
X74907962Y-63370118D01*
X74770911Y-63424380D01*
X74653500Y-63513500D01*
X74564380Y-63630911D01*
X74560640Y-63640358D01*
X74513642Y-63759062D01*
X74510118Y-63767962D01*
X74499500Y-63855703D01*
X74499501Y-64414296D01*
X74500040Y-64418748D01*
X74500040Y-64418751D01*
X74503421Y-64446692D01*
X74504500Y-64464591D01*
X74504500Y-66175500D01*
X74484538Y-66250000D01*
X74430000Y-66304538D01*
X74355500Y-66324500D01*
X73995354Y-66324500D01*
X73969154Y-66327618D01*
X73866847Y-66373061D01*
X73787759Y-66452287D01*
X73782522Y-66464132D01*
X73724394Y-66513954D01*
X73648582Y-66528142D01*
X73575833Y-66502523D01*
X73537412Y-66464169D01*
X73531939Y-66451847D01*
X73452713Y-66372759D01*
X73440133Y-66367197D01*
X73440131Y-66367196D01*
X73360574Y-66332024D01*
X73360573Y-66332024D01*
X73350327Y-66327494D01*
X73335682Y-66325787D01*
X73328930Y-66324999D01*
X73328922Y-66324999D01*
X73324646Y-66324500D01*
X72964500Y-66324500D01*
X72890000Y-66304538D01*
X72835462Y-66250000D01*
X72815500Y-66175500D01*
X72815500Y-64464597D01*
X72816579Y-64446695D01*
X72819962Y-64418746D01*
X72819962Y-64418739D01*
X72820500Y-64414297D01*
X72820499Y-63855704D01*
X72818964Y-63843014D01*
X72811032Y-63777466D01*
X72809882Y-63767962D01*
X72755620Y-63630911D01*
X72666500Y-63513500D01*
X72549089Y-63424380D01*
X72448651Y-63384614D01*
X72420932Y-63373639D01*
X72420929Y-63373638D01*
X72412038Y-63370118D01*
X72324297Y-63359500D01*
X71995074Y-63359500D01*
X71665704Y-63359501D01*
X71661250Y-63360040D01*
X71661249Y-63360040D01*
X71635498Y-63363156D01*
X71577962Y-63370118D01*
X71440911Y-63424380D01*
X71432818Y-63430523D01*
X71350690Y-63492861D01*
X71279279Y-63522003D01*
X71202865Y-63511535D01*
X71141922Y-63464263D01*
X71133901Y-63452582D01*
X71125274Y-63438640D01*
X71114596Y-63425167D01*
X71003816Y-63314580D01*
X70990322Y-63303923D01*
X70857081Y-63221793D01*
X70841488Y-63214522D01*
X70692424Y-63165080D01*
X70676617Y-63161691D01*
X70585818Y-63152388D01*
X70578226Y-63152000D01*
X70518616Y-63152000D01*
X70503145Y-63156145D01*
X70499000Y-63171616D01*
X70499000Y-65098384D01*
X70503145Y-65113855D01*
X70518616Y-65118000D01*
X70578175Y-65118000D01*
X70585872Y-65117602D01*
X70677878Y-65108055D01*
X70693726Y-65104632D01*
X70842676Y-65054939D01*
X70858258Y-65047640D01*
X70991357Y-64965276D01*
X71004833Y-64954596D01*
X71115420Y-64843816D01*
X71126072Y-64830328D01*
X71133853Y-64817704D01*
X71189939Y-64764759D01*
X71264983Y-64746950D01*
X71338877Y-64769048D01*
X71350766Y-64777196D01*
X71440911Y-64845620D01*
X71478398Y-64860462D01*
X71569068Y-64896361D01*
X71569071Y-64896362D01*
X71577962Y-64899882D01*
X71665703Y-64910500D01*
X71815500Y-64910500D01*
X71890000Y-64930462D01*
X71944538Y-64985000D01*
X71964500Y-65059500D01*
X71964500Y-66175500D01*
X71944538Y-66250000D01*
X71890000Y-66304538D01*
X71815500Y-66324500D01*
X71455354Y-66324500D01*
X71429154Y-66327618D01*
X71326847Y-66373061D01*
X71247759Y-66452287D01*
X71242197Y-66464867D01*
X71242196Y-66464869D01*
X71221802Y-66511000D01*
X71202494Y-66554673D01*
X71199500Y-66580354D01*
X71199500Y-68669646D01*
X71202618Y-68695846D01*
X71248061Y-68798153D01*
X71257796Y-68807871D01*
X71314964Y-68864939D01*
X71327287Y-68877241D01*
X71339867Y-68882803D01*
X71339869Y-68882804D01*
X71419426Y-68917976D01*
X71429673Y-68922506D01*
X71444318Y-68924213D01*
X71451070Y-68925001D01*
X71451078Y-68925001D01*
X71455354Y-68925500D01*
X73324646Y-68925500D01*
X73350846Y-68922382D01*
X73453153Y-68876939D01*
X73532241Y-68797713D01*
X73537478Y-68785868D01*
X73595606Y-68736046D01*
X73671418Y-68721858D01*
X73744167Y-68747477D01*
X73782588Y-68785831D01*
X73788061Y-68798153D01*
X73797796Y-68807871D01*
X73797797Y-68807872D01*
X73854964Y-68864939D01*
X73867287Y-68877241D01*
X73879867Y-68882803D01*
X73879869Y-68882804D01*
X73959426Y-68917976D01*
X73969673Y-68922506D01*
X73984318Y-68924213D01*
X73991070Y-68925001D01*
X73991078Y-68925001D01*
X73995354Y-68925500D01*
X75864646Y-68925500D01*
X75890846Y-68922382D01*
X75993153Y-68876939D01*
X76072241Y-68797713D01*
X76081807Y-68776077D01*
X76112976Y-68705574D01*
X76112976Y-68705573D01*
X76117506Y-68695327D01*
X76120500Y-68669646D01*
X76120500Y-67665703D01*
X84024500Y-67665703D01*
X84024501Y-68224296D01*
X84035118Y-68312038D01*
X84089380Y-68449089D01*
X84178500Y-68566500D01*
X84273652Y-68638724D01*
X84290585Y-68651577D01*
X84337858Y-68712520D01*
X84349500Y-68770260D01*
X84349500Y-69882792D01*
X84329538Y-69957292D01*
X84286620Y-70003720D01*
X84276847Y-70008061D01*
X84197759Y-70087287D01*
X84192197Y-70099867D01*
X84192196Y-70099869D01*
X84157241Y-70178936D01*
X84152494Y-70189673D01*
X84149500Y-70215354D01*
X84149500Y-71864646D01*
X84152618Y-71890846D01*
X84198061Y-71993153D01*
X84277287Y-72072241D01*
X84289867Y-72077803D01*
X84289869Y-72077804D01*
X84369426Y-72112976D01*
X84379673Y-72117506D01*
X84394318Y-72119213D01*
X84401070Y-72120001D01*
X84401078Y-72120001D01*
X84405354Y-72120500D01*
X85144646Y-72120500D01*
X85170846Y-72117382D01*
X85273153Y-72071939D01*
X85352241Y-71992713D01*
X85359273Y-71976809D01*
X85392976Y-71900574D01*
X85392976Y-71900573D01*
X85397506Y-71890327D01*
X85400500Y-71864646D01*
X86049500Y-71864646D01*
X86052618Y-71890846D01*
X86098061Y-71993153D01*
X86177287Y-72072241D01*
X86189867Y-72077803D01*
X86189869Y-72077804D01*
X86269426Y-72112976D01*
X86279673Y-72117506D01*
X86294318Y-72119213D01*
X86301070Y-72120001D01*
X86301078Y-72120001D01*
X86305354Y-72120500D01*
X87044646Y-72120500D01*
X87070846Y-72117382D01*
X87173153Y-72071939D01*
X87252241Y-71992713D01*
X87259273Y-71976809D01*
X87292976Y-71900574D01*
X87292976Y-71900573D01*
X87297506Y-71890327D01*
X87300500Y-71864646D01*
X87300500Y-70215354D01*
X87297382Y-70189154D01*
X87251939Y-70086847D01*
X87172713Y-70007759D01*
X87160133Y-70002197D01*
X87160131Y-70002196D01*
X87080574Y-69967024D01*
X87080573Y-69967024D01*
X87070327Y-69962494D01*
X87055682Y-69960787D01*
X87048930Y-69959999D01*
X87048922Y-69959999D01*
X87044646Y-69959500D01*
X86305354Y-69959500D01*
X86279154Y-69962618D01*
X86176847Y-70008061D01*
X86097759Y-70087287D01*
X86092197Y-70099867D01*
X86092196Y-70099869D01*
X86057241Y-70178936D01*
X86052494Y-70189673D01*
X86049500Y-70215354D01*
X86049500Y-71864646D01*
X85400500Y-71864646D01*
X85400500Y-70215354D01*
X85397382Y-70189154D01*
X85351939Y-70086847D01*
X85272713Y-70007759D01*
X85263584Y-70003723D01*
X85215128Y-69947191D01*
X85200500Y-69882808D01*
X85200500Y-68847385D01*
X85220462Y-68772885D01*
X85275000Y-68718347D01*
X85294650Y-68708848D01*
X85356904Y-68684200D01*
X85429089Y-68655620D01*
X85485781Y-68612588D01*
X85557190Y-68583447D01*
X85633605Y-68593914D01*
X85692638Y-68638724D01*
X85705407Y-68654835D01*
X85816184Y-68765420D01*
X85829678Y-68776077D01*
X85962919Y-68858207D01*
X85978512Y-68865478D01*
X86127576Y-68914920D01*
X86143383Y-68918309D01*
X86234182Y-68927612D01*
X86241774Y-68928000D01*
X86313884Y-68928000D01*
X86329355Y-68923855D01*
X86333500Y-68908384D01*
X86841500Y-68908384D01*
X86845645Y-68923855D01*
X86861116Y-68928000D01*
X86933175Y-68928000D01*
X86940872Y-68927602D01*
X87032878Y-68918055D01*
X87048726Y-68914632D01*
X87197676Y-68864939D01*
X87213258Y-68857640D01*
X87346357Y-68775276D01*
X87359833Y-68764596D01*
X87470420Y-68653816D01*
X87481077Y-68640322D01*
X87563207Y-68507081D01*
X87570478Y-68491488D01*
X87619920Y-68342424D01*
X87623309Y-68326617D01*
X87632612Y-68235818D01*
X87633000Y-68228226D01*
X87633000Y-68218616D01*
X87628855Y-68203145D01*
X87613384Y-68199000D01*
X86861116Y-68199000D01*
X86845645Y-68203145D01*
X86841500Y-68218616D01*
X86841500Y-68908384D01*
X86333500Y-68908384D01*
X86333500Y-67671384D01*
X86841500Y-67671384D01*
X86845645Y-67686855D01*
X86861116Y-67691000D01*
X87613384Y-67691000D01*
X87628855Y-67686855D01*
X87633000Y-67671384D01*
X87633000Y-67661826D01*
X87632602Y-67654128D01*
X87623055Y-67562122D01*
X87619632Y-67546274D01*
X87576061Y-67415675D01*
X92072000Y-67415675D01*
X92072398Y-67423372D01*
X92081945Y-67515378D01*
X92085368Y-67531226D01*
X92135061Y-67680176D01*
X92142360Y-67695758D01*
X92224724Y-67828857D01*
X92235404Y-67842333D01*
X92346184Y-67952920D01*
X92359678Y-67963577D01*
X92492919Y-68045707D01*
X92508512Y-68052978D01*
X92657576Y-68102420D01*
X92673383Y-68105809D01*
X92764182Y-68115112D01*
X92771774Y-68115500D01*
X92843884Y-68115500D01*
X92859355Y-68111355D01*
X92863500Y-68095884D01*
X92863500Y-67406116D01*
X92859355Y-67390645D01*
X92843884Y-67386500D01*
X92091616Y-67386500D01*
X92076145Y-67390645D01*
X92072000Y-67406116D01*
X92072000Y-67415675D01*
X87576061Y-67415675D01*
X87569939Y-67397324D01*
X87562640Y-67381742D01*
X87480276Y-67248643D01*
X87469596Y-67235167D01*
X87358816Y-67124580D01*
X87345322Y-67113923D01*
X87212081Y-67031793D01*
X87196488Y-67024522D01*
X87047424Y-66975080D01*
X87031617Y-66971691D01*
X86940818Y-66962388D01*
X86933226Y-66962000D01*
X86861116Y-66962000D01*
X86845645Y-66966145D01*
X86841500Y-66981616D01*
X86841500Y-67671384D01*
X86333500Y-67671384D01*
X86333500Y-66981616D01*
X86329355Y-66966145D01*
X86313884Y-66962000D01*
X86241826Y-66962000D01*
X86234128Y-66962398D01*
X86142122Y-66971945D01*
X86126274Y-66975368D01*
X85977324Y-67025061D01*
X85961742Y-67032360D01*
X85828643Y-67114724D01*
X85815167Y-67125404D01*
X85704578Y-67236186D01*
X85692812Y-67251085D01*
X85630973Y-67297179D01*
X85554372Y-67306179D01*
X85485795Y-67277422D01*
X85437182Y-67240523D01*
X85429089Y-67234380D01*
X85419643Y-67230640D01*
X85419641Y-67230639D01*
X85382151Y-67215796D01*
X85320230Y-67169811D01*
X85289599Y-67099027D01*
X85288000Y-67077259D01*
X85288000Y-64709500D01*
X85307962Y-64635000D01*
X85362500Y-64580462D01*
X85437000Y-64560500D01*
X92189634Y-64560500D01*
X92264134Y-64580462D01*
X92318672Y-64635000D01*
X92338634Y-64709500D01*
X92328171Y-64764350D01*
X92294514Y-64849360D01*
X92290118Y-64860462D01*
X92279500Y-64948203D01*
X92279501Y-65506796D01*
X92290118Y-65594538D01*
X92344380Y-65731589D01*
X92433500Y-65849000D01*
X92550911Y-65938120D01*
X92552829Y-65938880D01*
X92604903Y-65989873D01*
X92625645Y-66064160D01*
X92606464Y-66138865D01*
X92552501Y-66193971D01*
X92523809Y-66207062D01*
X92507322Y-66212563D01*
X92491742Y-66219860D01*
X92358643Y-66302224D01*
X92345167Y-66312904D01*
X92234580Y-66423684D01*
X92223923Y-66437178D01*
X92141793Y-66570419D01*
X92134522Y-66586012D01*
X92085080Y-66735076D01*
X92081691Y-66750883D01*
X92072388Y-66841682D01*
X92072000Y-66849274D01*
X92072000Y-66858884D01*
X92076145Y-66874355D01*
X92091616Y-66878500D01*
X93222500Y-66878500D01*
X93297000Y-66898462D01*
X93351538Y-66953000D01*
X93371500Y-67027500D01*
X93371500Y-68095884D01*
X93375645Y-68111355D01*
X93391116Y-68115500D01*
X93463175Y-68115500D01*
X93470872Y-68115102D01*
X93562878Y-68105555D01*
X93578726Y-68102132D01*
X93727676Y-68052439D01*
X93743258Y-68045140D01*
X93876357Y-67962776D01*
X93889833Y-67952096D01*
X94000422Y-67841314D01*
X94012188Y-67826415D01*
X94074027Y-67780321D01*
X94150628Y-67771321D01*
X94219205Y-67800078D01*
X94250665Y-67823957D01*
X94275911Y-67843120D01*
X94340016Y-67868501D01*
X94404068Y-67893861D01*
X94404071Y-67893862D01*
X94412962Y-67897382D01*
X94500703Y-67908000D01*
X94535629Y-67908000D01*
X94954533Y-67907999D01*
X95029033Y-67927961D01*
X95059892Y-67951640D01*
X95385859Y-68277607D01*
X95424423Y-68344402D01*
X95429500Y-68382966D01*
X95429500Y-69443428D01*
X95422857Y-69487423D01*
X95420252Y-69495852D01*
X95415174Y-69506241D01*
X95404500Y-69579410D01*
X95404500Y-70280850D01*
X95384538Y-70355350D01*
X95344858Y-70400081D01*
X95250593Y-70470728D01*
X95235728Y-70485593D01*
X95165081Y-70579858D01*
X95104428Y-70627502D01*
X95045850Y-70639500D01*
X94344410Y-70639500D01*
X94295280Y-70646732D01*
X94282063Y-70648678D01*
X94282062Y-70648678D01*
X94270604Y-70650365D01*
X94260207Y-70655470D01*
X94252743Y-70657789D01*
X94208529Y-70664500D01*
X92827392Y-70664500D01*
X92752892Y-70644538D01*
X92708708Y-70605584D01*
X92702641Y-70597591D01*
X92696500Y-70589500D01*
X92579089Y-70500380D01*
X92504196Y-70470728D01*
X92450932Y-70449639D01*
X92450929Y-70449638D01*
X92442038Y-70446118D01*
X92354297Y-70435500D01*
X92075063Y-70435500D01*
X91795704Y-70435501D01*
X91791250Y-70436040D01*
X91791249Y-70436040D01*
X91725090Y-70444046D01*
X91707962Y-70446118D01*
X91570911Y-70500380D01*
X91453500Y-70589500D01*
X91447359Y-70597591D01*
X91447357Y-70597593D01*
X91440258Y-70606945D01*
X91364380Y-70706911D01*
X91360640Y-70716358D01*
X91325689Y-70804635D01*
X91310118Y-70843962D01*
X91299500Y-70931703D01*
X91299501Y-71515296D01*
X91310118Y-71603038D01*
X91364380Y-71740089D01*
X91370523Y-71748182D01*
X91446748Y-71848604D01*
X91453500Y-71857500D01*
X91461593Y-71863643D01*
X91468558Y-71868930D01*
X91570911Y-71946620D01*
X91687330Y-71992713D01*
X91699327Y-71997463D01*
X91761247Y-72043449D01*
X91791879Y-72114233D01*
X91783014Y-72190850D01*
X91737028Y-72252770D01*
X91699328Y-72274536D01*
X91570911Y-72325380D01*
X91562818Y-72331523D01*
X91465729Y-72405218D01*
X91453500Y-72414500D01*
X91364380Y-72531911D01*
X91351010Y-72565681D01*
X91313658Y-72660022D01*
X91310118Y-72668962D01*
X91299500Y-72756703D01*
X91299501Y-73340296D01*
X91300040Y-73344750D01*
X91300040Y-73344751D01*
X91305991Y-73393931D01*
X91310118Y-73428038D01*
X91364380Y-73565089D01*
X91370523Y-73573182D01*
X91436422Y-73660000D01*
X91453500Y-73682500D01*
X91570911Y-73771620D01*
X91630324Y-73795143D01*
X91699068Y-73822361D01*
X91699071Y-73822362D01*
X91707962Y-73825882D01*
X91795703Y-73836500D01*
X92074937Y-73836500D01*
X92354296Y-73836499D01*
X92358750Y-73835960D01*
X92358751Y-73835960D01*
X92432534Y-73827032D01*
X92442038Y-73825882D01*
X92579089Y-73771620D01*
X92696500Y-73682500D01*
X92713579Y-73660000D01*
X92779477Y-73573182D01*
X92785620Y-73565089D01*
X92789360Y-73555642D01*
X92794346Y-73546794D01*
X92796444Y-73547976D01*
X92833751Y-73497736D01*
X92904533Y-73467100D01*
X92926310Y-73465500D01*
X93855500Y-73465500D01*
X93930000Y-73485462D01*
X93984538Y-73540000D01*
X94004500Y-73614500D01*
X94004500Y-73800590D01*
X94015365Y-73874396D01*
X94070459Y-73986610D01*
X94158931Y-74074927D01*
X94169993Y-74080334D01*
X94169994Y-74080335D01*
X94186252Y-74088282D01*
X94271241Y-74129826D01*
X94344410Y-74140500D01*
X94579534Y-74140500D01*
X94654034Y-74160462D01*
X94684893Y-74184141D01*
X95360859Y-74860107D01*
X95399423Y-74926902D01*
X95404500Y-74965466D01*
X95404500Y-75200590D01*
X95415365Y-75274396D01*
X95420470Y-75284793D01*
X95422789Y-75292257D01*
X95429500Y-75336471D01*
X95429500Y-75357035D01*
X95409538Y-75431535D01*
X95385859Y-75462394D01*
X94996780Y-75851472D01*
X94901472Y-75946780D01*
X94896150Y-75957224D01*
X94896149Y-75957226D01*
X94891399Y-75966548D01*
X94879187Y-75986475D01*
X94873044Y-75994930D01*
X94873042Y-75994935D01*
X94866151Y-76004419D01*
X94862529Y-76015566D01*
X94862528Y-76015568D01*
X94859298Y-76025511D01*
X94850351Y-76047110D01*
X94840281Y-76066874D01*
X94838447Y-76078456D01*
X94838445Y-76078461D01*
X94836809Y-76088789D01*
X94831353Y-76111515D01*
X94824500Y-76132607D01*
X94824500Y-78807393D01*
X94828123Y-78818542D01*
X94831352Y-78828480D01*
X94836809Y-78851211D01*
X94838445Y-78861539D01*
X94838447Y-78861544D01*
X94840281Y-78873126D01*
X94845604Y-78883574D01*
X94845605Y-78883576D01*
X94850349Y-78892885D01*
X94859296Y-78914485D01*
X94866151Y-78935581D01*
X94873042Y-78945065D01*
X94873044Y-78945070D01*
X94879187Y-78953525D01*
X94891399Y-78973452D01*
X94896149Y-78982774D01*
X94901472Y-78993220D01*
X95415859Y-79507607D01*
X95454423Y-79574402D01*
X95459500Y-79612966D01*
X95459500Y-89297035D01*
X95439538Y-89371535D01*
X95415860Y-89402393D01*
X92746780Y-92071472D01*
X92651472Y-92166780D01*
X92646150Y-92177224D01*
X92646149Y-92177226D01*
X92641399Y-92186548D01*
X92629187Y-92206475D01*
X92623044Y-92214930D01*
X92623042Y-92214935D01*
X92616151Y-92224419D01*
X92612529Y-92235566D01*
X92612528Y-92235568D01*
X92609298Y-92245511D01*
X92600351Y-92267110D01*
X92590281Y-92286874D01*
X92588447Y-92298456D01*
X92588445Y-92298461D01*
X92586809Y-92308789D01*
X92581353Y-92331515D01*
X92574500Y-92352607D01*
X92574500Y-94150500D01*
X92554538Y-94225000D01*
X92500000Y-94279538D01*
X92425500Y-94299500D01*
X91755354Y-94299500D01*
X91729154Y-94302618D01*
X91626847Y-94348061D01*
X91617129Y-94357796D01*
X91576123Y-94398874D01*
X91547759Y-94427287D01*
X91502494Y-94529673D01*
X91501197Y-94540800D01*
X91500170Y-94549609D01*
X91499500Y-94555354D01*
X91499500Y-97044646D01*
X91502618Y-97070846D01*
X91548061Y-97173153D01*
X91627287Y-97252241D01*
X91639867Y-97257803D01*
X91639869Y-97257804D01*
X91719426Y-97292976D01*
X91729673Y-97297506D01*
X91744318Y-97299213D01*
X91751070Y-97300001D01*
X91751078Y-97300001D01*
X91755354Y-97300500D01*
X94244646Y-97300500D01*
X94270846Y-97297382D01*
X94373153Y-97251939D01*
X94452241Y-97172713D01*
X94457855Y-97160016D01*
X94492976Y-97080574D01*
X94492976Y-97080573D01*
X94497506Y-97070327D01*
X94500500Y-97044646D01*
X94500500Y-94555354D01*
X94497382Y-94529154D01*
X94451939Y-94426847D01*
X94372713Y-94347759D01*
X94360133Y-94342197D01*
X94360131Y-94342196D01*
X94280574Y-94307024D01*
X94280573Y-94307024D01*
X94270327Y-94302494D01*
X94255682Y-94300787D01*
X94248930Y-94299999D01*
X94248922Y-94299999D01*
X94244646Y-94299500D01*
X93574500Y-94299500D01*
X93500000Y-94279538D01*
X93445462Y-94225000D01*
X93425500Y-94150500D01*
X93425500Y-92657966D01*
X93445462Y-92583466D01*
X93469141Y-92552607D01*
X93950276Y-92071472D01*
X95820141Y-90201606D01*
X95886936Y-90163042D01*
X95964064Y-90163042D01*
X96030859Y-90201606D01*
X96069423Y-90268401D01*
X96074500Y-90306965D01*
X96074500Y-94252317D01*
X96054538Y-94326817D01*
X96000000Y-94381355D01*
X95971791Y-94393944D01*
X95956708Y-94398874D01*
X95916540Y-94412003D01*
X95697679Y-94525935D01*
X95500364Y-94674083D01*
X95496140Y-94678503D01*
X95496139Y-94678504D01*
X95334123Y-94848044D01*
X95334119Y-94848048D01*
X95329896Y-94852468D01*
X95326449Y-94857520D01*
X95326449Y-94857521D01*
X95306700Y-94886472D01*
X95190851Y-95056300D01*
X95086965Y-95280104D01*
X95077348Y-95314783D01*
X95024030Y-95507040D01*
X95021026Y-95517871D01*
X95020377Y-95523948D01*
X95020376Y-95523951D01*
X95005782Y-95660515D01*
X94994806Y-95763214D01*
X95009010Y-96009545D01*
X95063255Y-96250249D01*
X95156084Y-96478861D01*
X95285006Y-96689241D01*
X95289009Y-96693862D01*
X95289011Y-96693865D01*
X95311245Y-96719532D01*
X95446557Y-96875741D01*
X95451268Y-96879653D01*
X95451272Y-96879656D01*
X95554899Y-96965688D01*
X95636399Y-97033351D01*
X95849433Y-97157838D01*
X95855133Y-97160015D01*
X95855136Y-97160016D01*
X96074234Y-97243681D01*
X96074240Y-97243683D01*
X96079939Y-97245859D01*
X96085920Y-97247076D01*
X96085924Y-97247077D01*
X96167535Y-97263681D01*
X96321726Y-97295052D01*
X96327835Y-97295276D01*
X96562183Y-97303869D01*
X96562187Y-97303869D01*
X96568300Y-97304093D01*
X96813041Y-97272741D01*
X96946250Y-97232777D01*
X97043522Y-97203594D01*
X97043526Y-97203593D01*
X97049374Y-97201838D01*
X97270954Y-97093287D01*
X97471829Y-96950004D01*
X97646605Y-96775837D01*
X97691137Y-96713865D01*
X97787021Y-96580427D01*
X97790588Y-96575463D01*
X97899911Y-96354264D01*
X97971639Y-96118180D01*
X98003845Y-95873550D01*
X98005643Y-95800000D01*
X97986319Y-95564961D01*
X97985926Y-95560181D01*
X97985926Y-95560179D01*
X97985425Y-95554089D01*
X97981352Y-95537871D01*
X97926805Y-95320711D01*
X97925316Y-95314783D01*
X97918934Y-95300104D01*
X97879703Y-95209882D01*
X97826928Y-95088507D01*
X97692905Y-94881339D01*
X97526846Y-94698842D01*
X97333210Y-94545918D01*
X97327857Y-94542963D01*
X97327854Y-94542961D01*
X97176517Y-94459419D01*
X97117198Y-94426673D01*
X97024763Y-94393940D01*
X96961199Y-94350254D01*
X96927995Y-94280639D01*
X96925500Y-94253486D01*
X96925500Y-90266966D01*
X96945462Y-90192466D01*
X97000000Y-90137928D01*
X97074500Y-90117966D01*
X97149000Y-90137928D01*
X97179859Y-90161607D01*
X99530859Y-92512607D01*
X99569423Y-92579402D01*
X99574500Y-92617966D01*
X99574500Y-94252317D01*
X99554538Y-94326817D01*
X99500000Y-94381355D01*
X99471791Y-94393944D01*
X99456708Y-94398874D01*
X99416540Y-94412003D01*
X99197679Y-94525935D01*
X99000364Y-94674083D01*
X98996140Y-94678503D01*
X98996139Y-94678504D01*
X98834123Y-94848044D01*
X98834119Y-94848048D01*
X98829896Y-94852468D01*
X98826449Y-94857520D01*
X98826449Y-94857521D01*
X98806700Y-94886472D01*
X98690851Y-95056300D01*
X98586965Y-95280104D01*
X98577348Y-95314783D01*
X98524030Y-95507040D01*
X98521026Y-95517871D01*
X98520377Y-95523948D01*
X98520376Y-95523951D01*
X98505782Y-95660515D01*
X98494806Y-95763214D01*
X98509010Y-96009545D01*
X98563255Y-96250249D01*
X98656084Y-96478861D01*
X98785006Y-96689241D01*
X98789009Y-96693862D01*
X98789011Y-96693865D01*
X98811245Y-96719532D01*
X98946557Y-96875741D01*
X98951268Y-96879653D01*
X98951272Y-96879656D01*
X99054899Y-96965688D01*
X99136399Y-97033351D01*
X99349433Y-97157838D01*
X99355133Y-97160015D01*
X99355136Y-97160016D01*
X99574234Y-97243681D01*
X99574240Y-97243683D01*
X99579939Y-97245859D01*
X99585920Y-97247076D01*
X99585924Y-97247077D01*
X99667535Y-97263681D01*
X99821726Y-97295052D01*
X99827835Y-97295276D01*
X100062183Y-97303869D01*
X100062187Y-97303869D01*
X100068300Y-97304093D01*
X100313041Y-97272741D01*
X100446250Y-97232777D01*
X100543522Y-97203594D01*
X100543526Y-97203593D01*
X100549374Y-97201838D01*
X100770954Y-97093287D01*
X100971829Y-96950004D01*
X101146605Y-96775837D01*
X101191137Y-96713865D01*
X101287021Y-96580427D01*
X101290588Y-96575463D01*
X101399911Y-96354264D01*
X101402516Y-96345691D01*
X105710118Y-96345691D01*
X105714305Y-96355095D01*
X107986129Y-98626919D01*
X108000000Y-98634927D01*
X108013871Y-98626919D01*
X110281841Y-96358949D01*
X110289849Y-96345078D01*
X110284702Y-96336162D01*
X110067817Y-96160534D01*
X110061504Y-96155946D01*
X109759684Y-95959942D01*
X109752928Y-95956041D01*
X109432259Y-95792653D01*
X109425150Y-95789488D01*
X109089167Y-95660515D01*
X109081748Y-95658105D01*
X108734130Y-95564961D01*
X108726497Y-95563338D01*
X108371038Y-95507040D01*
X108363296Y-95506226D01*
X108003892Y-95487390D01*
X107996108Y-95487390D01*
X107636704Y-95506226D01*
X107628962Y-95507040D01*
X107273503Y-95563338D01*
X107265870Y-95564961D01*
X106918252Y-95658105D01*
X106910833Y-95660515D01*
X106574850Y-95789488D01*
X106567741Y-95792653D01*
X106247072Y-95956041D01*
X106240316Y-95959942D01*
X105938496Y-96155946D01*
X105932183Y-96160534D01*
X105719532Y-96332733D01*
X105710118Y-96345691D01*
X101402516Y-96345691D01*
X101471639Y-96118180D01*
X101503845Y-95873550D01*
X101505643Y-95800000D01*
X101486319Y-95564961D01*
X101485926Y-95560181D01*
X101485926Y-95560179D01*
X101485425Y-95554089D01*
X101481352Y-95537871D01*
X101426805Y-95320711D01*
X101425316Y-95314783D01*
X101418934Y-95300104D01*
X101379703Y-95209882D01*
X101326928Y-95088507D01*
X101192905Y-94881339D01*
X101026846Y-94698842D01*
X100833210Y-94545918D01*
X100827857Y-94542963D01*
X100827854Y-94542961D01*
X100676517Y-94459419D01*
X100617198Y-94426673D01*
X100524763Y-94393940D01*
X100461199Y-94350254D01*
X100427995Y-94280639D01*
X100425500Y-94253486D01*
X100425500Y-92312607D01*
X100418645Y-92291509D01*
X100413190Y-92268786D01*
X100409719Y-92246874D01*
X100399650Y-92227112D01*
X100390704Y-92205513D01*
X100387475Y-92195574D01*
X100387472Y-92195569D01*
X100383850Y-92184420D01*
X100370812Y-92166475D01*
X100358597Y-92146542D01*
X100348528Y-92126780D01*
X97624141Y-89402393D01*
X97585577Y-89335598D01*
X97580500Y-89297034D01*
X97580500Y-79612966D01*
X97600462Y-79538466D01*
X97624141Y-79507607D01*
X98138528Y-78993220D01*
X98143852Y-78982771D01*
X98148595Y-78973463D01*
X98160810Y-78953530D01*
X98166955Y-78945073D01*
X98166959Y-78945066D01*
X98173850Y-78935581D01*
X98180705Y-78914484D01*
X98189650Y-78892887D01*
X98189651Y-78892885D01*
X98199719Y-78873126D01*
X98203190Y-78851211D01*
X98208646Y-78828487D01*
X98208649Y-78828480D01*
X98215500Y-78807393D01*
X98215500Y-78216685D01*
X98235462Y-78142185D01*
X98290000Y-78087647D01*
X98355392Y-78067999D01*
X98359296Y-78067999D01*
X98447038Y-78057382D01*
X98584089Y-78003120D01*
X98701500Y-77914000D01*
X98790620Y-77796589D01*
X98806897Y-77755478D01*
X98841361Y-77668432D01*
X98841362Y-77668429D01*
X98844882Y-77659538D01*
X98855500Y-77571797D01*
X98855499Y-77013204D01*
X98844882Y-76925462D01*
X98790620Y-76788411D01*
X98701500Y-76671000D01*
X98584089Y-76581880D01*
X98517973Y-76555703D01*
X98455932Y-76531139D01*
X98455929Y-76531138D01*
X98447038Y-76527618D01*
X98361599Y-76517279D01*
X98290038Y-76488511D01*
X98242447Y-76427817D01*
X98230500Y-76369358D01*
X98230500Y-75867402D01*
X98250462Y-75792902D01*
X98288794Y-75749193D01*
X98300830Y-75739957D01*
X98305000Y-75729890D01*
X98305000Y-75723541D01*
X98605000Y-75723541D01*
X98609145Y-75739012D01*
X98618153Y-75741425D01*
X98672508Y-75734269D01*
X98691221Y-75729255D01*
X98814989Y-75677989D01*
X98831764Y-75668304D01*
X98938055Y-75586745D01*
X98951746Y-75573053D01*
X99033304Y-75466764D01*
X99042988Y-75449992D01*
X99094256Y-75326217D01*
X99099269Y-75307510D01*
X99112363Y-75208055D01*
X99113000Y-75198333D01*
X99113000Y-74922116D01*
X99108855Y-74906645D01*
X99093384Y-74902500D01*
X98624616Y-74902500D01*
X98609145Y-74906645D01*
X98605000Y-74922116D01*
X98605000Y-75723541D01*
X98305000Y-75723541D01*
X98305000Y-74751500D01*
X98324962Y-74677000D01*
X98379500Y-74622462D01*
X98454000Y-74602500D01*
X99093384Y-74602500D01*
X99108855Y-74598355D01*
X99113000Y-74582884D01*
X99113000Y-74306661D01*
X99112752Y-74302880D01*
X99127794Y-74227233D01*
X99142197Y-74203774D01*
X99144915Y-74200147D01*
X99205565Y-74152501D01*
X99264150Y-74140500D01*
X99965590Y-74140500D01*
X100014720Y-74133268D01*
X100027937Y-74131322D01*
X100027938Y-74131322D01*
X100039396Y-74129635D01*
X100098226Y-74100751D01*
X100163893Y-74085500D01*
X100852787Y-74085500D01*
X100927287Y-74105462D01*
X100981825Y-74160000D01*
X101000512Y-74215051D01*
X101013681Y-74315080D01*
X101014956Y-74324762D01*
X101075464Y-74470841D01*
X101171718Y-74596282D01*
X101297159Y-74692536D01*
X101306182Y-74696274D01*
X101306183Y-74696274D01*
X101322110Y-74702871D01*
X101443238Y-74753044D01*
X101452919Y-74754319D01*
X101452921Y-74754319D01*
X101590315Y-74772407D01*
X101600000Y-74773682D01*
X101609685Y-74772407D01*
X101747079Y-74754319D01*
X101747081Y-74754319D01*
X101756762Y-74753044D01*
X101877890Y-74702871D01*
X101893817Y-74696274D01*
X101893818Y-74696274D01*
X101902841Y-74692536D01*
X102028282Y-74596282D01*
X102124536Y-74470841D01*
X102185044Y-74324762D01*
X102186319Y-74315079D01*
X102186501Y-74314399D01*
X102225066Y-74247604D01*
X102291861Y-74209041D01*
X102368989Y-74209041D01*
X102387444Y-74215306D01*
X102424377Y-74230604D01*
X102459238Y-74245044D01*
X102468919Y-74246319D01*
X102468921Y-74246319D01*
X102606315Y-74264407D01*
X102616000Y-74265682D01*
X102625685Y-74264407D01*
X102763079Y-74246319D01*
X102763081Y-74246319D01*
X102772762Y-74245044D01*
X102807623Y-74230604D01*
X102909817Y-74188274D01*
X102909818Y-74188274D01*
X102918841Y-74184536D01*
X103044282Y-74088282D01*
X103140536Y-73962841D01*
X103158489Y-73919500D01*
X103192869Y-73836499D01*
X103201044Y-73816762D01*
X103202319Y-73807079D01*
X103202501Y-73806399D01*
X103241066Y-73739604D01*
X103307861Y-73701041D01*
X103384989Y-73701041D01*
X103403445Y-73707306D01*
X103475238Y-73737044D01*
X103484919Y-73738319D01*
X103484921Y-73738319D01*
X103622315Y-73756407D01*
X103632000Y-73757682D01*
X103641685Y-73756407D01*
X103779079Y-73738319D01*
X103779081Y-73738319D01*
X103788762Y-73737044D01*
X103934841Y-73676536D01*
X104060282Y-73580282D01*
X104156536Y-73454841D01*
X104217044Y-73308762D01*
X104237682Y-73152000D01*
X104217044Y-72995238D01*
X104188322Y-72925897D01*
X104160274Y-72858183D01*
X104160274Y-72858182D01*
X104156536Y-72849159D01*
X104060282Y-72723718D01*
X103934841Y-72627464D01*
X103896615Y-72611630D01*
X103797784Y-72570693D01*
X103788762Y-72566956D01*
X103779083Y-72565682D01*
X103779080Y-72565681D01*
X103677615Y-72552323D01*
X103606358Y-72522807D01*
X103591705Y-72509957D01*
X103123220Y-72041472D01*
X103112776Y-72036150D01*
X103112774Y-72036149D01*
X103103452Y-72031399D01*
X103083525Y-72019187D01*
X103075070Y-72013044D01*
X103075065Y-72013042D01*
X103065581Y-72006151D01*
X103054434Y-72002529D01*
X103054432Y-72002528D01*
X103049365Y-72000882D01*
X103044485Y-71999296D01*
X103022890Y-71990351D01*
X103018133Y-71987927D01*
X103013576Y-71985605D01*
X103013574Y-71985604D01*
X103003126Y-71980281D01*
X102991544Y-71978447D01*
X102991539Y-71978445D01*
X102981211Y-71976809D01*
X102958485Y-71971353D01*
X102937393Y-71964500D01*
X101821744Y-71964500D01*
X101747244Y-71944538D01*
X101692706Y-71890000D01*
X101672744Y-71815500D01*
X101676673Y-71785658D01*
X101677044Y-71784762D01*
X101697682Y-71628000D01*
X101694396Y-71603038D01*
X101678319Y-71480921D01*
X101678319Y-71480919D01*
X101677044Y-71471238D01*
X101616536Y-71325159D01*
X101520282Y-71199718D01*
X101394841Y-71103464D01*
X101364751Y-71091000D01*
X101257784Y-71046693D01*
X101248762Y-71042956D01*
X101239081Y-71041681D01*
X101239079Y-71041681D01*
X101101685Y-71023593D01*
X101092000Y-71022318D01*
X101082315Y-71023593D01*
X100944921Y-71041681D01*
X100944919Y-71041681D01*
X100935238Y-71042956D01*
X100926216Y-71046693D01*
X100819250Y-71091000D01*
X100789159Y-71103464D01*
X100663718Y-71199718D01*
X100657772Y-71207467D01*
X100657459Y-71207780D01*
X100590664Y-71246344D01*
X100513536Y-71246344D01*
X100495081Y-71240079D01*
X100494890Y-71240000D01*
X99516500Y-71240000D01*
X99442000Y-71220038D01*
X99387462Y-71165500D01*
X99367500Y-71091000D01*
X99367500Y-70920384D01*
X99667500Y-70920384D01*
X99671645Y-70935855D01*
X99687116Y-70940000D01*
X100488541Y-70940000D01*
X100504012Y-70935855D01*
X100506425Y-70926847D01*
X100499269Y-70872492D01*
X100494255Y-70853779D01*
X100442989Y-70730011D01*
X100433304Y-70713236D01*
X100351745Y-70606945D01*
X100338053Y-70593254D01*
X100231764Y-70511696D01*
X100214992Y-70502012D01*
X100091217Y-70450744D01*
X100072510Y-70445731D01*
X99973055Y-70432637D01*
X99963333Y-70432000D01*
X99687116Y-70432000D01*
X99671645Y-70436145D01*
X99667500Y-70451616D01*
X99667500Y-70920384D01*
X99367500Y-70920384D01*
X99367500Y-70451616D01*
X99363355Y-70436145D01*
X99347884Y-70432000D01*
X99262000Y-70432000D01*
X99187500Y-70412038D01*
X99132962Y-70357500D01*
X99113000Y-70283000D01*
X99113000Y-70197116D01*
X99108855Y-70181645D01*
X99093384Y-70177500D01*
X98454000Y-70177500D01*
X98379500Y-70157538D01*
X98324962Y-70103000D01*
X98305000Y-70028500D01*
X98305000Y-69857884D01*
X98605000Y-69857884D01*
X98609145Y-69873355D01*
X98624616Y-69877500D01*
X99093384Y-69877500D01*
X99108855Y-69873355D01*
X99113000Y-69857884D01*
X99113000Y-69581667D01*
X99112363Y-69571945D01*
X99099269Y-69472492D01*
X99094255Y-69453779D01*
X99042989Y-69330011D01*
X99033304Y-69313236D01*
X98951745Y-69206945D01*
X98938053Y-69193254D01*
X98831764Y-69111696D01*
X98814992Y-69102012D01*
X98691217Y-69050744D01*
X98672510Y-69045731D01*
X98624448Y-69039403D01*
X98608569Y-69041494D01*
X98605000Y-69050110D01*
X98605000Y-69857884D01*
X98305000Y-69857884D01*
X98305000Y-69056459D01*
X98300855Y-69040988D01*
X98291847Y-69038575D01*
X98237492Y-69045731D01*
X98218779Y-69050745D01*
X98095011Y-69102011D01*
X98078236Y-69111696D01*
X97971944Y-69193256D01*
X97969341Y-69195859D01*
X97966153Y-69197699D01*
X97964199Y-69199199D01*
X97964002Y-69198942D01*
X97902546Y-69234423D01*
X97863982Y-69239500D01*
X97694410Y-69239500D01*
X97645280Y-69246732D01*
X97632063Y-69248678D01*
X97632062Y-69248678D01*
X97620604Y-69250365D01*
X97610209Y-69255469D01*
X97610208Y-69255469D01*
X97545710Y-69287136D01*
X97470038Y-69302051D01*
X97414609Y-69287250D01*
X97349150Y-69255253D01*
X97349148Y-69255252D01*
X97338759Y-69250174D01*
X97265590Y-69239500D01*
X97079500Y-69239500D01*
X97005000Y-69219538D01*
X96950462Y-69165000D01*
X96930500Y-69090500D01*
X96930500Y-68427966D01*
X96950462Y-68353466D01*
X96974141Y-68322607D01*
X97345107Y-67951641D01*
X97411902Y-67913077D01*
X97450466Y-67908000D01*
X97869355Y-67907999D01*
X97904296Y-67907999D01*
X97908750Y-67907460D01*
X97908751Y-67907460D01*
X97982534Y-67898532D01*
X97992038Y-67897382D01*
X98129089Y-67843120D01*
X98185781Y-67800088D01*
X98257190Y-67770947D01*
X98333605Y-67781414D01*
X98392638Y-67826224D01*
X98405407Y-67842335D01*
X98516184Y-67952920D01*
X98529678Y-67963577D01*
X98662919Y-68045707D01*
X98678512Y-68052978D01*
X98827576Y-68102420D01*
X98843383Y-68105809D01*
X98934182Y-68115112D01*
X98941774Y-68115500D01*
X99013884Y-68115500D01*
X99029355Y-68111355D01*
X99033500Y-68095884D01*
X99541500Y-68095884D01*
X99545645Y-68111355D01*
X99561116Y-68115500D01*
X99633175Y-68115500D01*
X99640872Y-68115102D01*
X99732878Y-68105555D01*
X99748726Y-68102132D01*
X99897676Y-68052439D01*
X99913258Y-68045140D01*
X100046357Y-67962776D01*
X100059833Y-67952096D01*
X100170420Y-67841316D01*
X100181077Y-67827822D01*
X100263207Y-67694581D01*
X100270478Y-67678988D01*
X100319920Y-67529924D01*
X100323309Y-67514117D01*
X100332612Y-67423318D01*
X100333000Y-67415726D01*
X100333000Y-67406116D01*
X100328855Y-67390645D01*
X100313384Y-67386500D01*
X99561116Y-67386500D01*
X99545645Y-67390645D01*
X99541500Y-67406116D01*
X99541500Y-68095884D01*
X99033500Y-68095884D01*
X99033500Y-66858884D01*
X99541500Y-66858884D01*
X99545645Y-66874355D01*
X99561116Y-66878500D01*
X100313384Y-66878500D01*
X100328855Y-66874355D01*
X100333000Y-66858884D01*
X100333000Y-66849326D01*
X100332602Y-66841628D01*
X100323055Y-66749622D01*
X100319632Y-66733774D01*
X100269939Y-66584824D01*
X100262640Y-66569242D01*
X100180276Y-66436143D01*
X100169596Y-66422667D01*
X100058816Y-66312080D01*
X100045322Y-66301423D01*
X99912081Y-66219293D01*
X99896488Y-66212022D01*
X99747424Y-66162580D01*
X99731617Y-66159191D01*
X99640818Y-66149888D01*
X99633226Y-66149500D01*
X99561116Y-66149500D01*
X99545645Y-66153645D01*
X99541500Y-66169116D01*
X99541500Y-66858884D01*
X99033500Y-66858884D01*
X99033500Y-66169116D01*
X99029355Y-66153645D01*
X99013884Y-66149500D01*
X98941826Y-66149500D01*
X98934128Y-66149898D01*
X98842122Y-66159445D01*
X98826274Y-66162868D01*
X98677324Y-66212561D01*
X98661742Y-66219860D01*
X98528643Y-66302224D01*
X98515167Y-66312904D01*
X98404578Y-66423686D01*
X98392812Y-66438585D01*
X98330973Y-66484679D01*
X98254372Y-66493679D01*
X98185795Y-66464922D01*
X98137182Y-66428023D01*
X98129089Y-66421880D01*
X98119643Y-66418140D01*
X98119641Y-66418139D01*
X98082151Y-66403296D01*
X98020230Y-66357311D01*
X97989599Y-66286527D01*
X97988000Y-66264759D01*
X97988000Y-64475107D01*
X97981147Y-64454015D01*
X97975691Y-64431289D01*
X97974055Y-64420961D01*
X97974053Y-64420956D01*
X97972219Y-64409374D01*
X97962149Y-64389610D01*
X97953202Y-64368011D01*
X97949972Y-64358068D01*
X97949971Y-64358066D01*
X97946349Y-64346919D01*
X97939458Y-64337435D01*
X97939456Y-64337430D01*
X97933313Y-64328975D01*
X97921101Y-64309048D01*
X97916351Y-64299726D01*
X97916350Y-64299724D01*
X97911028Y-64289280D01*
X97408220Y-63786472D01*
X97397776Y-63781150D01*
X97397774Y-63781149D01*
X97388452Y-63776399D01*
X97368525Y-63764187D01*
X97360070Y-63758044D01*
X97360065Y-63758042D01*
X97350581Y-63751151D01*
X97339434Y-63747529D01*
X97339432Y-63747528D01*
X97334624Y-63745966D01*
X97329485Y-63744296D01*
X97307890Y-63735351D01*
X97303133Y-63732927D01*
X97298576Y-63730605D01*
X97298574Y-63730604D01*
X97288126Y-63725281D01*
X97276544Y-63723447D01*
X97276539Y-63723445D01*
X97266211Y-63721809D01*
X97243485Y-63716353D01*
X97222393Y-63709500D01*
X85022607Y-63709500D01*
X85001509Y-63716355D01*
X84978786Y-63721810D01*
X84956874Y-63725281D01*
X84946424Y-63730606D01*
X84946423Y-63730606D01*
X84937112Y-63735350D01*
X84915513Y-63744296D01*
X84905574Y-63747525D01*
X84905569Y-63747528D01*
X84894420Y-63751150D01*
X84884934Y-63758042D01*
X84876475Y-63764188D01*
X84856542Y-63776403D01*
X84836780Y-63786472D01*
X84513972Y-64109280D01*
X84508650Y-64119724D01*
X84508649Y-64119726D01*
X84503899Y-64129048D01*
X84491687Y-64148975D01*
X84485544Y-64157430D01*
X84485542Y-64157435D01*
X84478651Y-64166919D01*
X84475029Y-64178066D01*
X84475028Y-64178068D01*
X84471798Y-64188011D01*
X84462851Y-64209610D01*
X84452781Y-64229374D01*
X84450947Y-64240956D01*
X84450945Y-64240961D01*
X84449309Y-64251289D01*
X84443853Y-64274015D01*
X84437000Y-64295107D01*
X84437000Y-67077259D01*
X84417038Y-67151759D01*
X84362500Y-67206297D01*
X84342849Y-67215796D01*
X84305359Y-67230639D01*
X84305357Y-67230640D01*
X84295911Y-67234380D01*
X84287818Y-67240523D01*
X84201320Y-67306179D01*
X84178500Y-67323500D01*
X84089380Y-67440911D01*
X84035118Y-67577962D01*
X84024500Y-67665703D01*
X76120500Y-67665703D01*
X76120500Y-66580354D01*
X76117382Y-66554154D01*
X76071939Y-66451847D01*
X75992713Y-66372759D01*
X75980133Y-66367197D01*
X75980131Y-66367196D01*
X75900574Y-66332024D01*
X75900573Y-66332024D01*
X75890327Y-66327494D01*
X75875682Y-66325787D01*
X75868930Y-66324999D01*
X75868922Y-66324999D01*
X75864646Y-66324500D01*
X75504500Y-66324500D01*
X75430000Y-66304538D01*
X75375462Y-66250000D01*
X75355500Y-66175500D01*
X75355500Y-65059499D01*
X75375462Y-64984999D01*
X75430000Y-64930461D01*
X75504500Y-64910499D01*
X75579296Y-64910499D01*
X75583750Y-64909960D01*
X75583751Y-64909960D01*
X75657534Y-64901032D01*
X75667038Y-64899882D01*
X75804089Y-64845620D01*
X75921500Y-64756500D01*
X76010620Y-64639089D01*
X76061463Y-64510672D01*
X76107449Y-64448753D01*
X76178233Y-64418121D01*
X76254850Y-64426986D01*
X76316770Y-64472972D01*
X76338536Y-64510672D01*
X76389380Y-64639089D01*
X76478500Y-64756500D01*
X76595911Y-64845620D01*
X76633398Y-64860462D01*
X76724068Y-64896361D01*
X76724071Y-64896362D01*
X76732962Y-64899882D01*
X76820703Y-64910500D01*
X77112434Y-64910500D01*
X77404296Y-64910499D01*
X77408750Y-64909960D01*
X77408751Y-64909960D01*
X77482534Y-64901032D01*
X77492038Y-64899882D01*
X77629089Y-64845620D01*
X77746500Y-64756500D01*
X77835620Y-64639089D01*
X77889882Y-64502038D01*
X77900500Y-64414297D01*
X77900499Y-63855704D01*
X77898964Y-63843014D01*
X77891032Y-63777466D01*
X77889882Y-63767962D01*
X77835620Y-63630911D01*
X77746500Y-63513500D01*
X77738407Y-63507357D01*
X77700415Y-63478519D01*
X77653143Y-63417576D01*
X77641500Y-63359836D01*
X77641500Y-53272607D01*
X77634647Y-53251515D01*
X77629191Y-53228789D01*
X77627555Y-53218461D01*
X77627553Y-53218456D01*
X77625719Y-53206874D01*
X77620139Y-53195921D01*
X77615651Y-53187115D01*
X77606702Y-53165511D01*
X77603472Y-53155568D01*
X77603471Y-53155566D01*
X77599849Y-53144419D01*
X77592958Y-53134935D01*
X77592956Y-53134930D01*
X77586813Y-53126475D01*
X77574601Y-53106548D01*
X77569851Y-53097226D01*
X77569850Y-53097224D01*
X77564528Y-53086780D01*
X77437107Y-52959359D01*
X77398543Y-52892564D01*
X77398543Y-52815436D01*
X77437107Y-52748641D01*
X77503902Y-52710077D01*
X77542466Y-52705000D01*
X111051000Y-52705000D01*
X111125500Y-52724962D01*
X111180038Y-52779500D01*
X111200000Y-52854000D01*
X111200000Y-96983590D01*
X111180038Y-97058090D01*
X111125500Y-97112628D01*
X111051000Y-97132590D01*
X110976500Y-97112628D01*
X110926038Y-97064741D01*
X110844054Y-96938496D01*
X110839466Y-96932183D01*
X110667267Y-96719532D01*
X110654309Y-96710118D01*
X110644905Y-96714305D01*
X105718159Y-101641051D01*
X105710151Y-101654922D01*
X105715298Y-101663838D01*
X105932183Y-101839466D01*
X105938496Y-101844054D01*
X106064741Y-101926038D01*
X106116350Y-101983355D01*
X106132386Y-102058798D01*
X106108552Y-102132151D01*
X106051235Y-102183760D01*
X105983590Y-102200000D01*
X52016410Y-102200000D01*
X51941910Y-102180038D01*
X51887372Y-102125500D01*
X51867410Y-102051000D01*
X51887372Y-101976500D01*
X51935259Y-101926038D01*
X52061504Y-101844054D01*
X52067817Y-101839466D01*
X52280468Y-101667267D01*
X52289882Y-101654309D01*
X52285695Y-101644905D01*
X49640790Y-99000000D01*
X50365073Y-99000000D01*
X50373081Y-99013871D01*
X52641051Y-101281841D01*
X52654922Y-101289849D01*
X52663838Y-101284702D01*
X52839466Y-101067817D01*
X52844054Y-101061504D01*
X53040058Y-100759684D01*
X53043959Y-100752928D01*
X53207347Y-100432259D01*
X53210512Y-100425150D01*
X53339485Y-100089167D01*
X53341895Y-100081748D01*
X53435039Y-99734130D01*
X53436662Y-99726497D01*
X53492960Y-99371038D01*
X53493774Y-99363296D01*
X53512610Y-99003892D01*
X104487390Y-99003892D01*
X104506226Y-99363296D01*
X104507040Y-99371038D01*
X104563338Y-99726497D01*
X104564961Y-99734130D01*
X104658105Y-100081748D01*
X104660515Y-100089167D01*
X104789488Y-100425150D01*
X104792653Y-100432259D01*
X104956041Y-100752928D01*
X104959942Y-100759684D01*
X105155946Y-101061504D01*
X105160534Y-101067817D01*
X105332733Y-101280468D01*
X105345691Y-101289882D01*
X105355095Y-101285695D01*
X107626919Y-99013871D01*
X107634927Y-99000000D01*
X107626919Y-98986129D01*
X105358949Y-96718159D01*
X105345078Y-96710151D01*
X105336162Y-96715298D01*
X105160534Y-96932183D01*
X105155946Y-96938496D01*
X104959942Y-97240316D01*
X104956041Y-97247072D01*
X104792653Y-97567741D01*
X104789488Y-97574850D01*
X104660515Y-97910833D01*
X104658105Y-97918252D01*
X104564961Y-98265870D01*
X104563338Y-98273503D01*
X104507040Y-98628962D01*
X104506226Y-98636704D01*
X104487390Y-98996108D01*
X104487390Y-99003892D01*
X53512610Y-99003892D01*
X53512610Y-98996108D01*
X53493774Y-98636704D01*
X53492960Y-98628962D01*
X53436662Y-98273503D01*
X53435039Y-98265870D01*
X53341895Y-97918252D01*
X53339485Y-97910833D01*
X53210512Y-97574850D01*
X53207347Y-97567741D01*
X53043959Y-97247072D01*
X53040058Y-97240316D01*
X52925977Y-97064646D01*
X59459500Y-97064646D01*
X59462618Y-97090846D01*
X59508061Y-97193153D01*
X59587287Y-97272241D01*
X59599867Y-97277803D01*
X59599869Y-97277804D01*
X59679426Y-97312976D01*
X59689673Y-97317506D01*
X59704318Y-97319213D01*
X59711070Y-97320001D01*
X59711078Y-97320001D01*
X59715354Y-97320500D01*
X62204646Y-97320500D01*
X62230846Y-97317382D01*
X62333153Y-97271939D01*
X62412241Y-97192713D01*
X62417855Y-97180016D01*
X62452976Y-97100574D01*
X62452976Y-97100573D01*
X62457506Y-97090327D01*
X62460500Y-97064646D01*
X62460500Y-94575354D01*
X62457382Y-94549154D01*
X62411939Y-94446847D01*
X62332713Y-94367759D01*
X62320133Y-94362197D01*
X62320131Y-94362196D01*
X62240574Y-94327024D01*
X62240573Y-94327024D01*
X62230327Y-94322494D01*
X62215682Y-94320787D01*
X62208930Y-94319999D01*
X62208922Y-94319999D01*
X62204646Y-94319500D01*
X61659500Y-94319500D01*
X61585000Y-94299538D01*
X61530462Y-94245000D01*
X61510500Y-94170500D01*
X61510500Y-91299212D01*
X61530462Y-91224712D01*
X61585000Y-91170174D01*
X61650593Y-91150500D01*
X61654646Y-91150500D01*
X61680846Y-91147382D01*
X61783153Y-91101939D01*
X61862241Y-91022713D01*
X61907506Y-90920327D01*
X61910500Y-90894646D01*
X61910500Y-89105354D01*
X61907382Y-89079154D01*
X61861939Y-88976847D01*
X61782713Y-88897759D01*
X61770133Y-88892197D01*
X61770131Y-88892196D01*
X61690574Y-88857024D01*
X61690573Y-88857024D01*
X61680327Y-88852494D01*
X61664953Y-88850702D01*
X61658929Y-88849999D01*
X61658923Y-88849999D01*
X61654646Y-88849500D01*
X61650769Y-88849500D01*
X61577645Y-88825284D01*
X61526361Y-88767677D01*
X61510500Y-88700782D01*
X61510500Y-85336274D01*
X61530462Y-85261774D01*
X61554049Y-85231007D01*
X61602522Y-85182449D01*
X61612241Y-85172713D01*
X61657506Y-85070327D01*
X61660500Y-85044646D01*
X61660500Y-83055354D01*
X61657382Y-83029154D01*
X61611939Y-82926847D01*
X61532713Y-82847759D01*
X61520133Y-82842197D01*
X61520131Y-82842196D01*
X61440874Y-82807157D01*
X61430327Y-82802494D01*
X61419200Y-82801197D01*
X61416296Y-82800405D01*
X61409239Y-82796289D01*
X61394003Y-82799500D01*
X60515354Y-82799500D01*
X60489154Y-82802618D01*
X60386847Y-82848061D01*
X60307759Y-82927287D01*
X60262494Y-83029673D01*
X60259500Y-83055354D01*
X60259500Y-85044646D01*
X60262618Y-85070846D01*
X60308061Y-85173153D01*
X60317796Y-85182871D01*
X60365767Y-85230758D01*
X60404389Y-85297519D01*
X60409500Y-85336209D01*
X60409500Y-88700788D01*
X60389538Y-88775288D01*
X60335000Y-88829826D01*
X60269407Y-88849500D01*
X60265354Y-88849500D01*
X60239154Y-88852618D01*
X60136847Y-88898061D01*
X60057759Y-88977287D01*
X60012494Y-89079673D01*
X60009500Y-89105354D01*
X60009500Y-90894646D01*
X60012618Y-90920846D01*
X60058061Y-91023153D01*
X60137287Y-91102241D01*
X60149867Y-91107803D01*
X60149869Y-91107804D01*
X60229426Y-91142976D01*
X60239673Y-91147506D01*
X60255047Y-91149298D01*
X60261071Y-91150001D01*
X60261077Y-91150001D01*
X60265354Y-91150500D01*
X60269231Y-91150500D01*
X60342355Y-91174716D01*
X60393639Y-91232323D01*
X60409500Y-91299218D01*
X60409500Y-94170500D01*
X60389538Y-94245000D01*
X60335000Y-94299538D01*
X60260500Y-94319500D01*
X59715354Y-94319500D01*
X59689154Y-94322618D01*
X59586847Y-94368061D01*
X59507759Y-94447287D01*
X59502197Y-94459867D01*
X59502196Y-94459869D01*
X59471565Y-94529154D01*
X59462494Y-94549673D01*
X59459500Y-94575354D01*
X59459500Y-97064646D01*
X52925977Y-97064646D01*
X52844054Y-96938496D01*
X52839466Y-96932183D01*
X52667267Y-96719532D01*
X52654309Y-96710118D01*
X52644905Y-96714305D01*
X50373081Y-98986129D01*
X50365073Y-99000000D01*
X49640790Y-99000000D01*
X47358949Y-96718159D01*
X47345078Y-96710151D01*
X47336162Y-96715298D01*
X47160534Y-96932183D01*
X47155946Y-96938496D01*
X47073962Y-97064741D01*
X47016645Y-97116350D01*
X46941202Y-97132386D01*
X46867849Y-97108552D01*
X46816240Y-97051235D01*
X46800000Y-96983590D01*
X46800000Y-96345691D01*
X47710118Y-96345691D01*
X47714305Y-96355095D01*
X49986129Y-98626919D01*
X50000000Y-98634927D01*
X50013871Y-98626919D01*
X52281841Y-96358949D01*
X52289849Y-96345078D01*
X52284702Y-96336162D01*
X52067817Y-96160534D01*
X52061504Y-96155946D01*
X51759684Y-95959942D01*
X51752928Y-95956041D01*
X51432259Y-95792653D01*
X51425150Y-95789488D01*
X51089167Y-95660515D01*
X51081748Y-95658105D01*
X50734130Y-95564961D01*
X50726497Y-95563338D01*
X50371038Y-95507040D01*
X50363296Y-95506226D01*
X50003892Y-95487390D01*
X49996108Y-95487390D01*
X49636704Y-95506226D01*
X49628962Y-95507040D01*
X49273503Y-95563338D01*
X49265870Y-95564961D01*
X48918252Y-95658105D01*
X48910833Y-95660515D01*
X48574850Y-95789488D01*
X48567741Y-95792653D01*
X48247072Y-95956041D01*
X48240316Y-95959942D01*
X47938496Y-96155946D01*
X47932183Y-96160534D01*
X47719532Y-96332733D01*
X47710118Y-96345691D01*
X46800000Y-96345691D01*
X46800000Y-52854000D01*
X46819962Y-52779500D01*
X46874500Y-52724962D01*
X46949000Y-52705000D01*
X52005500Y-52705000D01*
X52080000Y-52724962D01*
G37*
G04 #@! TD.AperFunction*
M02*
