M48
; DRILL file {KiCad (6.0.2)} date Tue Jul  5 13:00:58 2022
; FORMAT={-:-/ absolute / metric / decimal}
; #@! TF.CreationDate,2022-07-05T13:00:58+02:00
; #@! TF.GenerationSoftware,Kicad,Pcbnew,(6.0.2)
; #@! TF.FileFunction,Plated,1,2,PTH
FMAT,2
METRIC
; #@! TA.AperFunction,Plated,PTH,ViaDrill
T1C0.300
; #@! TA.AperFunction,Plated,PTH,ComponentDrill
T2C1.000
; #@! TA.AperFunction,Plated,PTH,ComponentDrill
T3C1.200
; #@! TA.AperFunction,Plated,PTH,ComponentDrill
T4C3.000
%
G90
G05
T1
X101.092Y-71.628
X101.6Y-74.168
X102.616Y-73.66
X103.632Y-73.152
T2
X54.87Y-48.73
X54.87Y-51.27
X57.41Y-48.73
X57.41Y-51.27
X59.95Y-48.73
X59.95Y-51.27
X62.49Y-48.73
X62.49Y-51.27
X65.03Y-48.73
X65.03Y-51.27
X67.57Y-48.73
X67.57Y-51.27
X70.11Y-48.73
X70.11Y-51.27
X72.65Y-48.73
X72.65Y-51.27
X75.19Y-48.73
X75.19Y-51.27
X77.73Y-48.73
X77.73Y-51.27
X80.27Y-48.73
X80.27Y-51.27
X82.81Y-48.73
X82.81Y-51.27
X85.35Y-48.73
X85.35Y-51.27
X87.89Y-48.73
X87.89Y-51.27
X90.43Y-48.73
X90.43Y-51.27
X92.97Y-48.73
X92.97Y-51.27
X95.51Y-48.73
X95.51Y-51.27
X98.05Y-48.73
X98.05Y-51.27
X100.59Y-48.73
X100.59Y-51.27
X103.13Y-48.73
X103.13Y-51.27
T3
X60.96Y-95.82
X64.46Y-95.82
X73.66Y-95.82
X77.16Y-95.82
X93.0Y-95.8
X96.5Y-95.8
X100.0Y-95.8
T4
X50.0Y-99.0
X108.0Y-99.0
T0
M30
