  0
SECTION
  2
HEADER
  9
$ANGBASE
  50
0.0
  9
$ANGDIR
  70
1
  9
$MEASUREMENT
  70
1
  0
ENDSEC
  0
SECTION
  2
TABLES
  0
TABLE
  2
LTYPE
  70
4
  0
LTYPE
  5
40F
  2
CONTINUOUS
  70
0
  3
Solid line
  72
65
  73
0
  40
0.0
  0
LTYPE
  5
410
  2
DASHDOT
 70
0
  3
Dash Dot ____ _ ____ _
 72
65
 73
4
 40
2.0
 49
1.25
 49
-0.25
 49
0.25
 49
-0.25
  0
LTYPE
  5
411
  2
DASHED
 70
0
  3
Dashed __ __ __ __ __
 72
65
 73
2
 40
0.75
 49
0.5
 49
-0.25
  0
LTYPE
  5
43B
  2
DOTTED
 70
0
  3
Dotted .  .  .  .
 72
65
 73
2
 40
0.2
 49
0.0
 49
-0.2
  0
ENDTAB
  0
TABLE
  2
STYLE
  70
4
  0
STYLE
  2
KICAD
  70
0
  40
0
  41
1
  42
1
  50
0
  71
0
  3
isocp.shx
  0
STYLE
  2
KICADB
  70
0
  40
0
  41
1
  42
1
  50
0
  71
0
  3
isocp.shx
  0
STYLE
  2
KICADI
  70
0
  40
0
  41
1
  42
1
  50
15
  71
0
  3
isocp.shx
  0
STYLE
  2
KICADBI
  70
0
  40
0
  41
1
  42
1
  50
15
  71
0
  3
isocp.shx
  0
ENDTAB
  0
TABLE
  2
LAYER
  70
1
  0
LAYER
  2
BLACK
  70
0
  62
7
  6
CONTINUOUS
  0
ENDTAB
  0
ENDSEC
  0
SECTION
  2
ENTITIES
0
LINE
8
BLACK
6
CONTINUOUS
10
65.11
20
-90.85
11
63.81
21
-90.85
0
LINE
8
BLACK
6
CONTINUOUS
10
63.81
20
-90.85
11
63.81
21
-89.15
0
LINE
8
BLACK
6
CONTINUOUS
10
63.81
20
-89.15
11
65.11
21
-89.15
0
LINE
8
BLACK
6
CONTINUOUS
10
65.11
20
-89.15
11
65.11
21
-90.85
0
LINE
8
BLACK
6
CONTINUOUS
10
74.31
20
-90.85
11
73.01
21
-90.85
0
LINE
8
BLACK
6
CONTINUOUS
10
73.01
20
-90.85
11
73.01
21
-89.15
0
LINE
8
BLACK
6
CONTINUOUS
10
73.01
20
-89.15
11
74.31
21
-89.15
0
LINE
8
BLACK
6
CONTINUOUS
10
74.31
20
-89.15
11
74.31
21
-90.85
0
LINE
8
BLACK
6
CONTINUOUS
10
77.81
20
-90.85
11
76.51
21
-90.85
0
LINE
8
BLACK
6
CONTINUOUS
10
76.51
20
-90.85
11
76.51
21
-89.15
0
LINE
8
BLACK
6
CONTINUOUS
10
76.51
20
-89.15
11
77.81
21
-89.15
0
LINE
8
BLACK
6
CONTINUOUS
10
77.81
20
-89.15
11
77.81
21
-90.85
0
LINE
8
BLACK
6
CONTINUOUS
10
61.61
20
-90.85
11
60.31
21
-90.85
0
LINE
8
BLACK
6
CONTINUOUS
10
60.31
20
-90.85
11
60.31
21
-89.15
0
LINE
8
BLACK
6
CONTINUOUS
10
60.31
20
-89.15
11
61.61
21
-89.15
0
LINE
8
BLACK
6
CONTINUOUS
10
61.61
20
-89.15
11
61.61
21
-90.85
0
LINE
8
BLACK
6
CONTINUOUS
10
61.36
20
-85
11
60.56
21
-85
0
LINE
8
BLACK
6
CONTINUOUS
10
60.56
20
-85
11
60.56
21
-83.1
0
LINE
8
BLACK
6
CONTINUOUS
10
60.56
20
-83.1
11
61.36
21
-83.1
0
LINE
8
BLACK
6
CONTINUOUS
10
61.36
20
-83.1
11
61.36
21
-85
0
LINE
8
BLACK
6
CONTINUOUS
10
74.06
20
-85
11
73.26
21
-85
0
LINE
8
BLACK
6
CONTINUOUS
10
73.26
20
-85
11
73.26
21
-83.1
0
LINE
8
BLACK
6
CONTINUOUS
10
73.26
20
-83.1
11
74.06
21
-83.1
0
LINE
8
BLACK
6
CONTINUOUS
10
74.06
20
-83.1
11
74.06
21
-85
0
LINE
8
BLACK
6
CONTINUOUS
10
60.41
20
-82
11
59.61
21
-82
0
LINE
8
BLACK
6
CONTINUOUS
10
59.61
20
-82
11
59.61
21
-80.1
0
LINE
8
BLACK
6
CONTINUOUS
10
59.61
20
-80.1
11
60.41
21
-80.1
0
LINE
8
BLACK
6
CONTINUOUS
10
60.41
20
-80.1
11
60.41
21
-82
0
LINE
8
BLACK
6
CONTINUOUS
10
62.31
20
-82
11
61.51
21
-82
0
LINE
8
BLACK
6
CONTINUOUS
10
61.51
20
-82
11
61.51
21
-80.1
0
LINE
8
BLACK
6
CONTINUOUS
10
61.51
20
-80.1
11
62.31
21
-80.1
0
LINE
8
BLACK
6
CONTINUOUS
10
62.31
20
-80.1
11
62.31
21
-82
0
LINE
8
BLACK
6
CONTINUOUS
10
75.01
20
-82
11
74.21
21
-82
0
LINE
8
BLACK
6
CONTINUOUS
10
74.21
20
-82
11
74.21
21
-80.1
0
LINE
8
BLACK
6
CONTINUOUS
10
74.21
20
-80.1
11
75.01
21
-80.1
0
LINE
8
BLACK
6
CONTINUOUS
10
75.01
20
-80.1
11
75.01
21
-82
0
LINE
8
BLACK
6
CONTINUOUS
10
73.11
20
-82
11
72.31
21
-82
0
LINE
8
BLACK
6
CONTINUOUS
10
72.31
20
-82
11
72.31
21
-80.1
0
LINE
8
BLACK
6
CONTINUOUS
10
72.31
20
-80.1
11
73.11
21
-80.1
0
LINE
8
BLACK
6
CONTINUOUS
10
73.11
20
-80.1
11
73.11
21
-82
0
LINE
8
BLACK
6
CONTINUOUS
10
70.1784
20
-80.4531
11
70.2554
21
-80.5046
0
LINE
8
BLACK
6
CONTINUOUS
10
70.2554
20
-80.5046
11
70.3069
21
-80.5816
0
LINE
8
BLACK
6
CONTINUOUS
10
70.3069
20
-80.5816
11
70.325
21
-80.6725
0
LINE
8
BLACK
6
CONTINUOUS
10
70.325
20
-80.6725
11
70.325
21
-81.1725
0
LINE
8
BLACK
6
CONTINUOUS
10
70.325
20
-81.1725
11
70.3069
21
-81.2634
0
LINE
8
BLACK
6
CONTINUOUS
10
70.3069
20
-81.2634
11
70.2554
21
-81.3404
0
LINE
8
BLACK
6
CONTINUOUS
10
70.2554
20
-81.3404
11
70.1784
21
-81.3919
0
LINE
8
BLACK
6
CONTINUOUS
10
70.1784
20
-81.3919
11
70.0875
21
-81.41
0
LINE
8
BLACK
6
CONTINUOUS
10
70.0875
20
-81.41
11
69.6125
21
-81.41
0
LINE
8
BLACK
6
CONTINUOUS
10
69.6125
20
-81.41
11
69.5216
21
-81.3919
0
LINE
8
BLACK
6
CONTINUOUS
10
69.5216
20
-81.3919
11
69.4446
21
-81.3404
0
LINE
8
BLACK
6
CONTINUOUS
10
69.4446
20
-81.3404
11
69.3931
21
-81.2634
0
LINE
8
BLACK
6
CONTINUOUS
10
69.3931
20
-81.2634
11
69.375
21
-81.1725
0
LINE
8
BLACK
6
CONTINUOUS
10
69.375
20
-81.1725
11
69.375
21
-80.6725
0
LINE
8
BLACK
6
CONTINUOUS
10
69.375
20
-80.6725
11
69.3931
21
-80.5816
0
LINE
8
BLACK
6
CONTINUOUS
10
69.3931
20
-80.5816
11
69.4446
21
-80.5046
0
LINE
8
BLACK
6
CONTINUOUS
10
69.4446
20
-80.5046
11
69.5216
21
-80.4531
0
LINE
8
BLACK
6
CONTINUOUS
10
69.5216
20
-80.4531
11
69.6125
21
-80.435
0
LINE
8
BLACK
6
CONTINUOUS
10
69.6125
20
-80.435
11
70.0875
21
-80.435
0
LINE
8
BLACK
6
CONTINUOUS
10
70.0875
20
-80.435
11
70.1784
21
-80.4531
0
LINE
8
BLACK
6
CONTINUOUS
10
57.4784
20
-80.4531
11
57.5554
21
-80.5046
0
LINE
8
BLACK
6
CONTINUOUS
10
57.5554
20
-80.5046
11
57.6069
21
-80.5816
0
LINE
8
BLACK
6
CONTINUOUS
10
57.6069
20
-80.5816
11
57.625
21
-80.6725
0
LINE
8
BLACK
6
CONTINUOUS
10
57.625
20
-80.6725
11
57.625
21
-81.1725
0
LINE
8
BLACK
6
CONTINUOUS
10
57.625
20
-81.1725
11
57.6069
21
-81.2634
0
LINE
8
BLACK
6
CONTINUOUS
10
57.6069
20
-81.2634
11
57.5554
21
-81.3404
0
LINE
8
BLACK
6
CONTINUOUS
10
57.5554
20
-81.3404
11
57.4784
21
-81.3919
0
LINE
8
BLACK
6
CONTINUOUS
10
57.4784
20
-81.3919
11
57.3875
21
-81.41
0
LINE
8
BLACK
6
CONTINUOUS
10
57.3875
20
-81.41
11
56.9125
21
-81.41
0
LINE
8
BLACK
6
CONTINUOUS
10
56.9125
20
-81.41
11
56.8216
21
-81.3919
0
LINE
8
BLACK
6
CONTINUOUS
10
56.8216
20
-81.3919
11
56.7446
21
-81.3404
0
LINE
8
BLACK
6
CONTINUOUS
10
56.7446
20
-81.3404
11
56.6931
21
-81.2634
0
LINE
8
BLACK
6
CONTINUOUS
10
56.6931
20
-81.2634
11
56.675
21
-81.1725
0
LINE
8
BLACK
6
CONTINUOUS
10
56.675
20
-81.1725
11
56.675
21
-80.6725
0
LINE
8
BLACK
6
CONTINUOUS
10
56.675
20
-80.6725
11
56.6931
21
-80.5816
0
LINE
8
BLACK
6
CONTINUOUS
10
56.6931
20
-80.5816
11
56.7446
21
-80.5046
0
LINE
8
BLACK
6
CONTINUOUS
10
56.7446
20
-80.5046
11
56.8216
21
-80.4531
0
LINE
8
BLACK
6
CONTINUOUS
10
56.8216
20
-80.4531
11
56.9125
21
-80.435
0
LINE
8
BLACK
6
CONTINUOUS
10
56.9125
20
-80.435
11
57.3875
21
-80.435
0
LINE
8
BLACK
6
CONTINUOUS
10
57.3875
20
-80.435
11
57.4784
21
-80.4531
0
LINE
8
BLACK
6
CONTINUOUS
10
70.1784
20
-78.6281
11
70.2554
21
-78.6796
0
LINE
8
BLACK
6
CONTINUOUS
10
70.2554
20
-78.6796
11
70.3069
21
-78.7566
0
LINE
8
BLACK
6
CONTINUOUS
10
70.3069
20
-78.7566
11
70.325
21
-78.8475
0
LINE
8
BLACK
6
CONTINUOUS
10
70.325
20
-78.8475
11
70.325
21
-79.3475
0
LINE
8
BLACK
6
CONTINUOUS
10
70.325
20
-79.3475
11
70.3069
21
-79.4384
0
LINE
8
BLACK
6
CONTINUOUS
10
70.3069
20
-79.4384
11
70.2554
21
-79.5154
0
LINE
8
BLACK
6
CONTINUOUS
10
70.2554
20
-79.5154
11
70.1784
21
-79.5669
0
LINE
8
BLACK
6
CONTINUOUS
10
70.1784
20
-79.5669
11
70.0875
21
-79.585
0
LINE
8
BLACK
6
CONTINUOUS
10
70.0875
20
-79.585
11
69.6125
21
-79.585
0
LINE
8
BLACK
6
CONTINUOUS
10
69.6125
20
-79.585
11
69.5216
21
-79.5669
0
LINE
8
BLACK
6
CONTINUOUS
10
69.5216
20
-79.5669
11
69.4446
21
-79.5154
0
LINE
8
BLACK
6
CONTINUOUS
10
69.4446
20
-79.5154
11
69.3931
21
-79.4384
0
LINE
8
BLACK
6
CONTINUOUS
10
69.3931
20
-79.4384
11
69.375
21
-79.3475
0
LINE
8
BLACK
6
CONTINUOUS
10
69.375
20
-79.3475
11
69.375
21
-78.8475
0
LINE
8
BLACK
6
CONTINUOUS
10
69.375
20
-78.8475
11
69.3931
21
-78.7566
0
LINE
8
BLACK
6
CONTINUOUS
10
69.3931
20
-78.7566
11
69.4446
21
-78.6796
0
LINE
8
BLACK
6
CONTINUOUS
10
69.4446
20
-78.6796
11
69.5216
21
-78.6281
0
LINE
8
BLACK
6
CONTINUOUS
10
69.5216
20
-78.6281
11
69.6125
21
-78.61
0
LINE
8
BLACK
6
CONTINUOUS
10
69.6125
20
-78.61
11
70.0875
21
-78.61
0
LINE
8
BLACK
6
CONTINUOUS
10
70.0875
20
-78.61
11
70.1784
21
-78.6281
0
LINE
8
BLACK
6
CONTINUOUS
10
57.4784
20
-78.6281
11
57.5554
21
-78.6796
0
LINE
8
BLACK
6
CONTINUOUS
10
57.5554
20
-78.6796
11
57.6069
21
-78.7566
0
LINE
8
BLACK
6
CONTINUOUS
10
57.6069
20
-78.7566
11
57.625
21
-78.8475
0
LINE
8
BLACK
6
CONTINUOUS
10
57.625
20
-78.8475
11
57.625
21
-79.3475
0
LINE
8
BLACK
6
CONTINUOUS
10
57.625
20
-79.3475
11
57.6069
21
-79.4384
0
LINE
8
BLACK
6
CONTINUOUS
10
57.6069
20
-79.4384
11
57.5554
21
-79.5154
0
LINE
8
BLACK
6
CONTINUOUS
10
57.5554
20
-79.5154
11
57.4784
21
-79.5669
0
LINE
8
BLACK
6
CONTINUOUS
10
57.4784
20
-79.5669
11
57.3875
21
-79.585
0
LINE
8
BLACK
6
CONTINUOUS
10
57.3875
20
-79.585
11
56.9125
21
-79.585
0
LINE
8
BLACK
6
CONTINUOUS
10
56.9125
20
-79.585
11
56.8216
21
-79.5669
0
LINE
8
BLACK
6
CONTINUOUS
10
56.8216
20
-79.5669
11
56.7446
21
-79.5154
0
LINE
8
BLACK
6
CONTINUOUS
10
56.7446
20
-79.5154
11
56.6931
21
-79.4384
0
LINE
8
BLACK
6
CONTINUOUS
10
56.6931
20
-79.4384
11
56.675
21
-79.3475
0
LINE
8
BLACK
6
CONTINUOUS
10
56.675
20
-79.3475
11
56.675
21
-78.8475
0
LINE
8
BLACK
6
CONTINUOUS
10
56.675
20
-78.8475
11
56.6931
21
-78.7566
0
LINE
8
BLACK
6
CONTINUOUS
10
56.6931
20
-78.7566
11
56.7446
21
-78.6796
0
LINE
8
BLACK
6
CONTINUOUS
10
56.7446
20
-78.6796
11
56.8216
21
-78.6281
0
LINE
8
BLACK
6
CONTINUOUS
10
56.8216
20
-78.6281
11
56.9125
21
-78.61
0
LINE
8
BLACK
6
CONTINUOUS
10
56.9125
20
-78.61
11
57.3875
21
-78.61
0
LINE
8
BLACK
6
CONTINUOUS
10
57.3875
20
-78.61
11
57.4784
21
-78.6281
0
LINE
8
BLACK
6
CONTINUOUS
10
75.82
20
-78.155
11
74.04
21
-78.155
0
LINE
8
BLACK
6
CONTINUOUS
10
74.04
20
-78.155
11
74.04
21
-76.155
0
LINE
8
BLACK
6
CONTINUOUS
10
74.04
20
-76.155
11
75.82
21
-76.155
0
LINE
8
BLACK
6
CONTINUOUS
10
75.82
20
-76.155
11
75.82
21
-78.155
0
LINE
8
BLACK
6
CONTINUOUS
10
73.28
20
-78.155
11
71.5
21
-78.155
0
LINE
8
BLACK
6
CONTINUOUS
10
71.5
20
-78.155
11
71.5
21
-76.155
0
LINE
8
BLACK
6
CONTINUOUS
10
71.5
20
-76.155
11
73.28
21
-76.155
0
LINE
8
BLACK
6
CONTINUOUS
10
73.28
20
-76.155
11
73.28
21
-78.155
0
LINE
8
BLACK
6
CONTINUOUS
10
60.58
20
-78.155
11
58.8
21
-78.155
0
LINE
8
BLACK
6
CONTINUOUS
10
58.8
20
-78.155
11
58.8
21
-76.155
0
LINE
8
BLACK
6
CONTINUOUS
10
58.8
20
-76.155
11
60.58
21
-76.155
0
LINE
8
BLACK
6
CONTINUOUS
10
60.58
20
-76.155
11
60.58
21
-78.155
0
LINE
8
BLACK
6
CONTINUOUS
10
63.12
20
-78.155
11
61.34
21
-78.155
0
LINE
8
BLACK
6
CONTINUOUS
10
61.34
20
-78.155
11
61.34
21
-76.155
0
LINE
8
BLACK
6
CONTINUOUS
10
61.34
20
-76.155
11
63.12
21
-76.155
0
LINE
8
BLACK
6
CONTINUOUS
10
63.12
20
-76.155
11
63.12
21
-78.155
0
LINE
8
BLACK
6
CONTINUOUS
10
98.4084
20
-76.8356
11
98.4854
21
-76.8871
0
LINE
8
BLACK
6
CONTINUOUS
10
98.4854
20
-76.8871
11
98.5369
21
-76.9641
0
LINE
8
BLACK
6
CONTINUOUS
10
98.5369
20
-76.9641
11
98.555
21
-77.055
0
LINE
8
BLACK
6
CONTINUOUS
10
98.555
20
-77.055
11
98.555
21
-77.53
0
LINE
8
BLACK
6
CONTINUOUS
10
98.555
20
-77.53
11
98.5369
21
-77.6209
0
LINE
8
BLACK
6
CONTINUOUS
10
98.5369
20
-77.6209
11
98.4854
21
-77.6979
0
LINE
8
BLACK
6
CONTINUOUS
10
98.4854
20
-77.6979
11
98.4084
21
-77.7494
0
LINE
8
BLACK
6
CONTINUOUS
10
98.4084
20
-77.7494
11
98.3175
21
-77.7675
0
LINE
8
BLACK
6
CONTINUOUS
10
98.3175
20
-77.7675
11
97.7175
21
-77.7675
0
LINE
8
BLACK
6
CONTINUOUS
10
97.7175
20
-77.7675
11
97.6266
21
-77.7494
0
LINE
8
BLACK
6
CONTINUOUS
10
97.6266
20
-77.7494
11
97.5496
21
-77.6979
0
LINE
8
BLACK
6
CONTINUOUS
10
97.5496
20
-77.6979
11
97.4981
21
-77.6209
0
LINE
8
BLACK
6
CONTINUOUS
10
97.4981
20
-77.6209
11
97.48
21
-77.53
0
LINE
8
BLACK
6
CONTINUOUS
10
97.48
20
-77.53
11
97.48
21
-77.055
0
LINE
8
BLACK
6
CONTINUOUS
10
97.48
20
-77.055
11
97.4981
21
-76.9641
0
LINE
8
BLACK
6
CONTINUOUS
10
97.4981
20
-76.9641
11
97.5496
21
-76.8871
0
LINE
8
BLACK
6
CONTINUOUS
10
97.5496
20
-76.8871
11
97.6266
21
-76.8356
0
LINE
8
BLACK
6
CONTINUOUS
10
97.6266
20
-76.8356
11
97.7175
21
-76.8175
0
LINE
8
BLACK
6
CONTINUOUS
10
97.7175
20
-76.8175
11
98.3175
21
-76.8175
0
LINE
8
BLACK
6
CONTINUOUS
10
98.3175
20
-76.8175
11
98.4084
21
-76.8356
0
LINE
8
BLACK
6
CONTINUOUS
10
96.6834
20
-76.8356
11
96.7604
21
-76.8871
0
LINE
8
BLACK
6
CONTINUOUS
10
96.7604
20
-76.8871
11
96.8119
21
-76.9641
0
LINE
8
BLACK
6
CONTINUOUS
10
96.8119
20
-76.9641
11
96.83
21
-77.055
0
LINE
8
BLACK
6
CONTINUOUS
10
96.83
20
-77.055
11
96.83
21
-77.53
0
LINE
8
BLACK
6
CONTINUOUS
10
96.83
20
-77.53
11
96.8119
21
-77.6209
0
LINE
8
BLACK
6
CONTINUOUS
10
96.8119
20
-77.6209
11
96.7604
21
-77.6979
0
LINE
8
BLACK
6
CONTINUOUS
10
96.7604
20
-77.6979
11
96.6834
21
-77.7494
0
LINE
8
BLACK
6
CONTINUOUS
10
96.6834
20
-77.7494
11
96.5925
21
-77.7675
0
LINE
8
BLACK
6
CONTINUOUS
10
96.5925
20
-77.7675
11
95.9925
21
-77.7675
0
LINE
8
BLACK
6
CONTINUOUS
10
95.9925
20
-77.7675
11
95.9016
21
-77.7494
0
LINE
8
BLACK
6
CONTINUOUS
10
95.9016
20
-77.7494
11
95.8246
21
-77.6979
0
LINE
8
BLACK
6
CONTINUOUS
10
95.8246
20
-77.6979
11
95.7731
21
-77.6209
0
LINE
8
BLACK
6
CONTINUOUS
10
95.7731
20
-77.6209
11
95.755
21
-77.53
0
LINE
8
BLACK
6
CONTINUOUS
10
95.755
20
-77.53
11
95.755
21
-77.055
0
LINE
8
BLACK
6
CONTINUOUS
10
95.755
20
-77.055
11
95.7731
21
-76.9641
0
LINE
8
BLACK
6
CONTINUOUS
10
95.7731
20
-76.9641
11
95.8246
21
-76.8871
0
LINE
8
BLACK
6
CONTINUOUS
10
95.8246
20
-76.8871
11
95.9016
21
-76.8356
0
LINE
8
BLACK
6
CONTINUOUS
10
95.9016
20
-76.8356
11
95.9925
21
-76.8175
0
LINE
8
BLACK
6
CONTINUOUS
10
95.9925
20
-76.8175
11
96.5925
21
-76.8175
0
LINE
8
BLACK
6
CONTINUOUS
10
96.5925
20
-76.8175
11
96.6834
21
-76.8356
0
LINE
8
BLACK
6
CONTINUOUS
10
86.9784
20
-76.3781
11
87.0554
21
-76.4296
0
LINE
8
BLACK
6
CONTINUOUS
10
87.0554
20
-76.4296
11
87.1069
21
-76.5066
0
LINE
8
BLACK
6
CONTINUOUS
10
87.1069
20
-76.5066
11
87.125
21
-76.5975
0
LINE
8
BLACK
6
CONTINUOUS
10
87.125
20
-76.5975
11
87.125
21
-77.0725
0
LINE
8
BLACK
6
CONTINUOUS
10
87.125
20
-77.0725
11
87.1069
21
-77.1634
0
LINE
8
BLACK
6
CONTINUOUS
10
87.1069
20
-77.1634
11
87.0554
21
-77.2404
0
LINE
8
BLACK
6
CONTINUOUS
10
87.0554
20
-77.2404
11
86.9784
21
-77.2919
0
LINE
8
BLACK
6
CONTINUOUS
10
86.9784
20
-77.2919
11
86.8875
21
-77.31
0
LINE
8
BLACK
6
CONTINUOUS
10
86.8875
20
-77.31
11
86.2875
21
-77.31
0
LINE
8
BLACK
6
CONTINUOUS
10
86.2875
20
-77.31
11
86.1966
21
-77.2919
0
LINE
8
BLACK
6
CONTINUOUS
10
86.1966
20
-77.2919
11
86.1196
21
-77.2404
0
LINE
8
BLACK
6
CONTINUOUS
10
86.1196
20
-77.2404
11
86.0681
21
-77.1634
0
LINE
8
BLACK
6
CONTINUOUS
10
86.0681
20
-77.1634
11
86.05
21
-77.0725
0
LINE
8
BLACK
6
CONTINUOUS
10
86.05
20
-77.0725
11
86.05
21
-76.5975
0
LINE
8
BLACK
6
CONTINUOUS
10
86.05
20
-76.5975
11
86.0681
21
-76.5066
0
LINE
8
BLACK
6
CONTINUOUS
10
86.0681
20
-76.5066
11
86.1196
21
-76.4296
0
LINE
8
BLACK
6
CONTINUOUS
10
86.1196
20
-76.4296
11
86.1966
21
-76.3781
0
LINE
8
BLACK
6
CONTINUOUS
10
86.1966
20
-76.3781
11
86.2875
21
-76.36
0
LINE
8
BLACK
6
CONTINUOUS
10
86.2875
20
-76.36
11
86.8875
21
-76.36
0
LINE
8
BLACK
6
CONTINUOUS
10
86.8875
20
-76.36
11
86.9784
21
-76.3781
0
LINE
8
BLACK
6
CONTINUOUS
10
85.2534
20
-76.3781
11
85.3304
21
-76.4296
0
LINE
8
BLACK
6
CONTINUOUS
10
85.3304
20
-76.4296
11
85.3819
21
-76.5066
0
LINE
8
BLACK
6
CONTINUOUS
10
85.3819
20
-76.5066
11
85.4
21
-76.5975
0
LINE
8
BLACK
6
CONTINUOUS
10
85.4
20
-76.5975
11
85.4
21
-77.0725
0
LINE
8
BLACK
6
CONTINUOUS
10
85.4
20
-77.0725
11
85.3819
21
-77.1634
0
LINE
8
BLACK
6
CONTINUOUS
10
85.3819
20
-77.1634
11
85.3304
21
-77.2404
0
LINE
8
BLACK
6
CONTINUOUS
10
85.3304
20
-77.2404
11
85.2534
21
-77.2919
0
LINE
8
BLACK
6
CONTINUOUS
10
85.2534
20
-77.2919
11
85.1625
21
-77.31
0
LINE
8
BLACK
6
CONTINUOUS
10
85.1625
20
-77.31
11
84.5625
21
-77.31
0
LINE
8
BLACK
6
CONTINUOUS
10
84.5625
20
-77.31
11
84.4716
21
-77.2919
0
LINE
8
BLACK
6
CONTINUOUS
10
84.4716
20
-77.2919
11
84.3946
21
-77.2404
0
LINE
8
BLACK
6
CONTINUOUS
10
84.3946
20
-77.2404
11
84.3431
21
-77.1634
0
LINE
8
BLACK
6
CONTINUOUS
10
84.3431
20
-77.1634
11
84.325
21
-77.0725
0
LINE
8
BLACK
6
CONTINUOUS
10
84.325
20
-77.0725
11
84.325
21
-76.5975
0
LINE
8
BLACK
6
CONTINUOUS
10
84.325
20
-76.5975
11
84.3431
21
-76.5066
0
LINE
8
BLACK
6
CONTINUOUS
10
84.3431
20
-76.5066
11
84.3946
21
-76.4296
0
LINE
8
BLACK
6
CONTINUOUS
10
84.3946
20
-76.4296
11
84.4716
21
-76.3781
0
LINE
8
BLACK
6
CONTINUOUS
10
84.4716
20
-76.3781
11
84.5625
21
-76.36
0
LINE
8
BLACK
6
CONTINUOUS
10
84.5625
20
-76.36
11
85.1625
21
-76.36
0
LINE
8
BLACK
6
CONTINUOUS
10
85.1625
20
-76.36
11
85.2534
21
-76.3781
0
LINE
8
BLACK
6
CONTINUOUS
10
98.5587
20
-74.2707
11
98.583
21
-74.287
0
LINE
8
BLACK
6
CONTINUOUS
10
98.583
20
-74.287
11
98.5993
21
-74.3113
0
LINE
8
BLACK
6
CONTINUOUS
10
98.5993
20
-74.3113
11
98.605
21
-74.34
0
LINE
8
BLACK
6
CONTINUOUS
10
98.605
20
-74.34
11
98.605
21
-75.165
0
LINE
8
BLACK
6
CONTINUOUS
10
98.605
20
-75.165
11
98.5993
21
-75.1937
0
LINE
8
BLACK
6
CONTINUOUS
10
98.5993
20
-75.1937
11
98.583
21
-75.218
0
LINE
8
BLACK
6
CONTINUOUS
10
98.583
20
-75.218
11
98.5587
21
-75.2343
0
LINE
8
BLACK
6
CONTINUOUS
10
98.5587
20
-75.2343
11
98.53
21
-75.24
0
LINE
8
BLACK
6
CONTINUOUS
10
98.53
20
-75.24
11
98.38
21
-75.24
0
LINE
8
BLACK
6
CONTINUOUS
10
98.38
20
-75.24
11
98.3513
21
-75.2343
0
LINE
8
BLACK
6
CONTINUOUS
10
98.3513
20
-75.2343
11
98.327
21
-75.218
0
LINE
8
BLACK
6
CONTINUOUS
10
98.327
20
-75.218
11
98.3107
21
-75.1937
0
LINE
8
BLACK
6
CONTINUOUS
10
98.3107
20
-75.1937
11
98.305
21
-75.165
0
LINE
8
BLACK
6
CONTINUOUS
10
98.305
20
-75.165
11
98.305
21
-74.34
0
LINE
8
BLACK
6
CONTINUOUS
10
98.305
20
-74.34
11
98.3107
21
-74.3113
0
LINE
8
BLACK
6
CONTINUOUS
10
98.3107
20
-74.3113
11
98.327
21
-74.287
0
LINE
8
BLACK
6
CONTINUOUS
10
98.327
20
-74.287
11
98.3513
21
-74.2707
0
LINE
8
BLACK
6
CONTINUOUS
10
98.3513
20
-74.2707
11
98.38
21
-74.265
0
LINE
8
BLACK
6
CONTINUOUS
10
98.38
20
-74.265
11
98.53
21
-74.265
0
LINE
8
BLACK
6
CONTINUOUS
10
98.53
20
-74.265
11
98.5587
21
-74.2707
0
LINE
8
BLACK
6
CONTINUOUS
10
97.9087
20
-74.2707
11
97.933
21
-74.287
0
LINE
8
BLACK
6
CONTINUOUS
10
97.933
20
-74.287
11
97.9493
21
-74.3113
0
LINE
8
BLACK
6
CONTINUOUS
10
97.9493
20
-74.3113
11
97.955
21
-74.34
0
LINE
8
BLACK
6
CONTINUOUS
10
97.955
20
-74.34
11
97.955
21
-75.165
0
LINE
8
BLACK
6
CONTINUOUS
10
97.955
20
-75.165
11
97.9493
21
-75.1937
0
LINE
8
BLACK
6
CONTINUOUS
10
97.9493
20
-75.1937
11
97.933
21
-75.218
0
LINE
8
BLACK
6
CONTINUOUS
10
97.933
20
-75.218
11
97.9087
21
-75.2343
0
LINE
8
BLACK
6
CONTINUOUS
10
97.9087
20
-75.2343
11
97.88
21
-75.24
0
LINE
8
BLACK
6
CONTINUOUS
10
97.88
20
-75.24
11
97.73
21
-75.24
0
LINE
8
BLACK
6
CONTINUOUS
10
97.73
20
-75.24
11
97.7013
21
-75.2343
0
LINE
8
BLACK
6
CONTINUOUS
10
97.7013
20
-75.2343
11
97.677
21
-75.218
0
LINE
8
BLACK
6
CONTINUOUS
10
97.677
20
-75.218
11
97.6607
21
-75.1937
0
LINE
8
BLACK
6
CONTINUOUS
10
97.6607
20
-75.1937
11
97.655
21
-75.165
0
LINE
8
BLACK
6
CONTINUOUS
10
97.655
20
-75.165
11
97.655
21
-74.34
0
LINE
8
BLACK
6
CONTINUOUS
10
97.655
20
-74.34
11
97.6607
21
-74.3113
0
LINE
8
BLACK
6
CONTINUOUS
10
97.6607
20
-74.3113
11
97.677
21
-74.287
0
LINE
8
BLACK
6
CONTINUOUS
10
97.677
20
-74.287
11
97.7013
21
-74.2707
0
LINE
8
BLACK
6
CONTINUOUS
10
97.7013
20
-74.2707
11
97.73
21
-74.265
0
LINE
8
BLACK
6
CONTINUOUS
10
97.73
20
-74.265
11
97.88
21
-74.265
0
LINE
8
BLACK
6
CONTINUOUS
10
97.88
20
-74.265
11
97.9087
21
-74.2707
0
LINE
8
BLACK
6
CONTINUOUS
10
97.2587
20
-74.2707
11
97.283
21
-74.287
0
LINE
8
BLACK
6
CONTINUOUS
10
97.283
20
-74.287
11
97.2993
21
-74.3113
0
LINE
8
BLACK
6
CONTINUOUS
10
97.2993
20
-74.3113
11
97.305
21
-74.34
0
LINE
8
BLACK
6
CONTINUOUS
10
97.305
20
-74.34
11
97.305
21
-75.165
0
LINE
8
BLACK
6
CONTINUOUS
10
97.305
20
-75.165
11
97.2993
21
-75.1937
0
LINE
8
BLACK
6
CONTINUOUS
10
97.2993
20
-75.1937
11
97.283
21
-75.218
0
LINE
8
BLACK
6
CONTINUOUS
10
97.283
20
-75.218
11
97.2587
21
-75.2343
0
LINE
8
BLACK
6
CONTINUOUS
10
97.2587
20
-75.2343
11
97.23
21
-75.24
0
LINE
8
BLACK
6
CONTINUOUS
10
97.23
20
-75.24
11
97.08
21
-75.24
0
LINE
8
BLACK
6
CONTINUOUS
10
97.08
20
-75.24
11
97.0513
21
-75.2343
0
LINE
8
BLACK
6
CONTINUOUS
10
97.0513
20
-75.2343
11
97.027
21
-75.218
0
LINE
8
BLACK
6
CONTINUOUS
10
97.027
20
-75.218
11
97.0107
21
-75.1937
0
LINE
8
BLACK
6
CONTINUOUS
10
97.0107
20
-75.1937
11
97.005
21
-75.165
0
LINE
8
BLACK
6
CONTINUOUS
10
97.005
20
-75.165
11
97.005
21
-74.34
0
LINE
8
BLACK
6
CONTINUOUS
10
97.005
20
-74.34
11
97.0107
21
-74.3113
0
LINE
8
BLACK
6
CONTINUOUS
10
97.0107
20
-74.3113
11
97.027
21
-74.287
0
LINE
8
BLACK
6
CONTINUOUS
10
97.027
20
-74.287
11
97.0513
21
-74.2707
0
LINE
8
BLACK
6
CONTINUOUS
10
97.0513
20
-74.2707
11
97.08
21
-74.265
0
LINE
8
BLACK
6
CONTINUOUS
10
97.08
20
-74.265
11
97.23
21
-74.265
0
LINE
8
BLACK
6
CONTINUOUS
10
97.23
20
-74.265
11
97.2587
21
-74.2707
0
LINE
8
BLACK
6
CONTINUOUS
10
96.6087
20
-74.2707
11
96.633
21
-74.287
0
LINE
8
BLACK
6
CONTINUOUS
10
96.633
20
-74.287
11
96.6493
21
-74.3113
0
LINE
8
BLACK
6
CONTINUOUS
10
96.6493
20
-74.3113
11
96.655
21
-74.34
0
LINE
8
BLACK
6
CONTINUOUS
10
96.655
20
-74.34
11
96.655
21
-75.165
0
LINE
8
BLACK
6
CONTINUOUS
10
96.655
20
-75.165
11
96.6493
21
-75.1937
0
LINE
8
BLACK
6
CONTINUOUS
10
96.6493
20
-75.1937
11
96.633
21
-75.218
0
LINE
8
BLACK
6
CONTINUOUS
10
96.633
20
-75.218
11
96.6087
21
-75.2343
0
LINE
8
BLACK
6
CONTINUOUS
10
96.6087
20
-75.2343
11
96.58
21
-75.24
0
LINE
8
BLACK
6
CONTINUOUS
10
96.58
20
-75.24
11
96.43
21
-75.24
0
LINE
8
BLACK
6
CONTINUOUS
10
96.43
20
-75.24
11
96.4013
21
-75.2343
0
LINE
8
BLACK
6
CONTINUOUS
10
96.4013
20
-75.2343
11
96.377
21
-75.218
0
LINE
8
BLACK
6
CONTINUOUS
10
96.377
20
-75.218
11
96.3607
21
-75.1937
0
LINE
8
BLACK
6
CONTINUOUS
10
96.3607
20
-75.1937
11
96.355
21
-75.165
0
LINE
8
BLACK
6
CONTINUOUS
10
96.355
20
-75.165
11
96.355
21
-74.34
0
LINE
8
BLACK
6
CONTINUOUS
10
96.355
20
-74.34
11
96.3607
21
-74.3113
0
LINE
8
BLACK
6
CONTINUOUS
10
96.3607
20
-74.3113
11
96.377
21
-74.287
0
LINE
8
BLACK
6
CONTINUOUS
10
96.377
20
-74.287
11
96.4013
21
-74.2707
0
LINE
8
BLACK
6
CONTINUOUS
10
96.4013
20
-74.2707
11
96.43
21
-74.265
0
LINE
8
BLACK
6
CONTINUOUS
10
96.43
20
-74.265
11
96.58
21
-74.265
0
LINE
8
BLACK
6
CONTINUOUS
10
96.58
20
-74.265
11
96.6087
21
-74.2707
0
LINE
8
BLACK
6
CONTINUOUS
10
95.9587
20
-74.2707
11
95.983
21
-74.287
0
LINE
8
BLACK
6
CONTINUOUS
10
95.983
20
-74.287
11
95.9993
21
-74.3113
0
LINE
8
BLACK
6
CONTINUOUS
10
95.9993
20
-74.3113
11
96.005
21
-74.34
0
LINE
8
BLACK
6
CONTINUOUS
10
96.005
20
-74.34
11
96.005
21
-75.165
0
LINE
8
BLACK
6
CONTINUOUS
10
96.005
20
-75.165
11
95.9993
21
-75.1937
0
LINE
8
BLACK
6
CONTINUOUS
10
95.9993
20
-75.1937
11
95.983
21
-75.218
0
LINE
8
BLACK
6
CONTINUOUS
10
95.983
20
-75.218
11
95.9587
21
-75.2343
0
LINE
8
BLACK
6
CONTINUOUS
10
95.9587
20
-75.2343
11
95.93
21
-75.24
0
LINE
8
BLACK
6
CONTINUOUS
10
95.93
20
-75.24
11
95.78
21
-75.24
0
LINE
8
BLACK
6
CONTINUOUS
10
95.78
20
-75.24
11
95.7513
21
-75.2343
0
LINE
8
BLACK
6
CONTINUOUS
10
95.7513
20
-75.2343
11
95.727
21
-75.218
0
LINE
8
BLACK
6
CONTINUOUS
10
95.727
20
-75.218
11
95.7107
21
-75.1937
0
LINE
8
BLACK
6
CONTINUOUS
10
95.7107
20
-75.1937
11
95.705
21
-75.165
0
LINE
8
BLACK
6
CONTINUOUS
10
95.705
20
-75.165
11
95.705
21
-74.34
0
LINE
8
BLACK
6
CONTINUOUS
10
95.705
20
-74.34
11
95.7107
21
-74.3113
0
LINE
8
BLACK
6
CONTINUOUS
10
95.7107
20
-74.3113
11
95.727
21
-74.287
0
LINE
8
BLACK
6
CONTINUOUS
10
95.727
20
-74.287
11
95.7513
21
-74.2707
0
LINE
8
BLACK
6
CONTINUOUS
10
95.7513
20
-74.2707
11
95.78
21
-74.265
0
LINE
8
BLACK
6
CONTINUOUS
10
95.78
20
-74.265
11
95.93
21
-74.265
0
LINE
8
BLACK
6
CONTINUOUS
10
95.93
20
-74.265
11
95.9587
21
-74.2707
0
LINE
8
BLACK
6
CONTINUOUS
10
85.1
20
-74.52
11
84.45
21
-74.52
0
LINE
8
BLACK
6
CONTINUOUS
10
84.45
20
-74.52
11
84.45
21
-72.96
0
LINE
8
BLACK
6
CONTINUOUS
10
84.45
20
-72.96
11
85.1
21
-72.96
0
LINE
8
BLACK
6
CONTINUOUS
10
85.1
20
-72.96
11
85.1
21
-74.52
0
LINE
8
BLACK
6
CONTINUOUS
10
86.05
20
-74.52
11
85.4
21
-74.52
0
LINE
8
BLACK
6
CONTINUOUS
10
85.4
20
-74.52
11
85.4
21
-72.96
0
LINE
8
BLACK
6
CONTINUOUS
10
85.4
20
-72.96
11
86.05
21
-72.96
0
LINE
8
BLACK
6
CONTINUOUS
10
86.05
20
-72.96
11
86.05
21
-74.52
0
LINE
8
BLACK
6
CONTINUOUS
10
87
20
-74.52
11
86.35
21
-74.52
0
LINE
8
BLACK
6
CONTINUOUS
10
86.35
20
-74.52
11
86.35
21
-72.96
0
LINE
8
BLACK
6
CONTINUOUS
10
86.35
20
-72.96
11
87
21
-72.96
0
LINE
8
BLACK
6
CONTINUOUS
10
87
20
-72.96
11
87
21
-74.52
0
LINE
8
BLACK
6
CONTINUOUS
10
99.9587
20
-73.5457
11
99.983
21
-73.562
0
LINE
8
BLACK
6
CONTINUOUS
10
99.983
20
-73.562
11
99.9993
21
-73.5863
0
LINE
8
BLACK
6
CONTINUOUS
10
99.9993
20
-73.5863
11
100.005
21
-73.615
0
LINE
8
BLACK
6
CONTINUOUS
10
100.005
20
-73.615
11
100.005
21
-73.765
0
LINE
8
BLACK
6
CONTINUOUS
10
100.005
20
-73.765
11
99.9993
21
-73.7937
0
LINE
8
BLACK
6
CONTINUOUS
10
99.9993
20
-73.7937
11
99.983
21
-73.818
0
LINE
8
BLACK
6
CONTINUOUS
10
99.983
20
-73.818
11
99.9587
21
-73.8343
0
LINE
8
BLACK
6
CONTINUOUS
10
99.9587
20
-73.8343
11
99.93
21
-73.84
0
LINE
8
BLACK
6
CONTINUOUS
10
99.93
20
-73.84
11
99.105
21
-73.84
0
LINE
8
BLACK
6
CONTINUOUS
10
99.105
20
-73.84
11
99.0763
21
-73.8343
0
LINE
8
BLACK
6
CONTINUOUS
10
99.0763
20
-73.8343
11
99.052
21
-73.818
0
LINE
8
BLACK
6
CONTINUOUS
10
99.052
20
-73.818
11
99.0357
21
-73.7937
0
LINE
8
BLACK
6
CONTINUOUS
10
99.0357
20
-73.7937
11
99.03
21
-73.765
0
LINE
8
BLACK
6
CONTINUOUS
10
99.03
20
-73.765
11
99.03
21
-73.615
0
LINE
8
BLACK
6
CONTINUOUS
10
99.03
20
-73.615
11
99.0357
21
-73.5863
0
LINE
8
BLACK
6
CONTINUOUS
10
99.0357
20
-73.5863
11
99.052
21
-73.562
0
LINE
8
BLACK
6
CONTINUOUS
10
99.052
20
-73.562
11
99.0763
21
-73.5457
0
LINE
8
BLACK
6
CONTINUOUS
10
99.0763
20
-73.5457
11
99.105
21
-73.54
0
LINE
8
BLACK
6
CONTINUOUS
10
99.105
20
-73.54
11
99.93
21
-73.54
0
LINE
8
BLACK
6
CONTINUOUS
10
99.93
20
-73.54
11
99.9587
21
-73.5457
0
LINE
8
BLACK
6
CONTINUOUS
10
95.2337
20
-73.5457
11
95.258
21
-73.562
0
LINE
8
BLACK
6
CONTINUOUS
10
95.258
20
-73.562
11
95.2743
21
-73.5863
0
LINE
8
BLACK
6
CONTINUOUS
10
95.2743
20
-73.5863
11
95.28
21
-73.615
0
LINE
8
BLACK
6
CONTINUOUS
10
95.28
20
-73.615
11
95.28
21
-73.765
0
LINE
8
BLACK
6
CONTINUOUS
10
95.28
20
-73.765
11
95.2743
21
-73.7937
0
LINE
8
BLACK
6
CONTINUOUS
10
95.2743
20
-73.7937
11
95.258
21
-73.818
0
LINE
8
BLACK
6
CONTINUOUS
10
95.258
20
-73.818
11
95.2337
21
-73.8343
0
LINE
8
BLACK
6
CONTINUOUS
10
95.2337
20
-73.8343
11
95.205
21
-73.84
0
LINE
8
BLACK
6
CONTINUOUS
10
95.205
20
-73.84
11
94.38
21
-73.84
0
LINE
8
BLACK
6
CONTINUOUS
10
94.38
20
-73.84
11
94.3513
21
-73.8343
0
LINE
8
BLACK
6
CONTINUOUS
10
94.3513
20
-73.8343
11
94.327
21
-73.818
0
LINE
8
BLACK
6
CONTINUOUS
10
94.327
20
-73.818
11
94.3107
21
-73.7937
0
LINE
8
BLACK
6
CONTINUOUS
10
94.3107
20
-73.7937
11
94.305
21
-73.765
0
LINE
8
BLACK
6
CONTINUOUS
10
94.305
20
-73.765
11
94.305
21
-73.615
0
LINE
8
BLACK
6
CONTINUOUS
10
94.305
20
-73.615
11
94.3107
21
-73.5863
0
LINE
8
BLACK
6
CONTINUOUS
10
94.3107
20
-73.5863
11
94.327
21
-73.562
0
LINE
8
BLACK
6
CONTINUOUS
10
94.327
20
-73.562
11
94.3513
21
-73.5457
0
LINE
8
BLACK
6
CONTINUOUS
10
94.3513
20
-73.5457
11
94.38
21
-73.54
0
LINE
8
BLACK
6
CONTINUOUS
10
94.38
20
-73.54
11
95.205
21
-73.54
0
LINE
8
BLACK
6
CONTINUOUS
10
95.205
20
-73.54
11
95.2337
21
-73.5457
0
LINE
8
BLACK
6
CONTINUOUS
10
98.4007
20
-72.559
11
98.4818
21
-72.6132
0
LINE
8
BLACK
6
CONTINUOUS
10
98.4818
20
-72.6132
11
98.536
21
-72.6943
0
LINE
8
BLACK
6
CONTINUOUS
10
98.536
20
-72.6943
11
98.555
21
-72.79
0
LINE
8
BLACK
6
CONTINUOUS
10
98.555
20
-72.79
11
98.555
21
-73.54
0
LINE
8
BLACK
6
CONTINUOUS
10
98.555
20
-73.54
11
98.536
21
-73.6357
0
LINE
8
BLACK
6
CONTINUOUS
10
98.536
20
-73.6357
11
98.4818
21
-73.7168
0
LINE
8
BLACK
6
CONTINUOUS
10
98.4818
20
-73.7168
11
98.4007
21
-73.771
0
LINE
8
BLACK
6
CONTINUOUS
10
98.4007
20
-73.771
11
98.305
21
-73.79
0
LINE
8
BLACK
6
CONTINUOUS
10
98.305
20
-73.79
11
97.555
21
-73.79
0
LINE
8
BLACK
6
CONTINUOUS
10
97.555
20
-73.79
11
97.4593
21
-73.771
0
LINE
8
BLACK
6
CONTINUOUS
10
97.4593
20
-73.771
11
97.3782
21
-73.7168
0
LINE
8
BLACK
6
CONTINUOUS
10
97.3782
20
-73.7168
11
97.324
21
-73.6357
0
LINE
8
BLACK
6
CONTINUOUS
10
97.324
20
-73.6357
11
97.305
21
-73.54
0
LINE
8
BLACK
6
CONTINUOUS
10
97.305
20
-73.54
11
97.305
21
-72.79
0
LINE
8
BLACK
6
CONTINUOUS
10
97.305
20
-72.79
11
97.324
21
-72.6943
0
LINE
8
BLACK
6
CONTINUOUS
10
97.324
20
-72.6943
11
97.3782
21
-72.6132
0
LINE
8
BLACK
6
CONTINUOUS
10
97.3782
20
-72.6132
11
97.4593
21
-72.559
0
LINE
8
BLACK
6
CONTINUOUS
10
97.4593
20
-72.559
11
97.555
21
-72.54
0
LINE
8
BLACK
6
CONTINUOUS
10
97.555
20
-72.54
11
98.305
21
-72.54
0
LINE
8
BLACK
6
CONTINUOUS
10
98.305
20
-72.54
11
98.4007
21
-72.559
0
LINE
8
BLACK
6
CONTINUOUS
10
96.8507
20
-72.559
11
96.9318
21
-72.6132
0
LINE
8
BLACK
6
CONTINUOUS
10
96.9318
20
-72.6132
11
96.986
21
-72.6943
0
LINE
8
BLACK
6
CONTINUOUS
10
96.986
20
-72.6943
11
97.005
21
-72.79
0
LINE
8
BLACK
6
CONTINUOUS
10
97.005
20
-72.79
11
97.005
21
-73.54
0
LINE
8
BLACK
6
CONTINUOUS
10
97.005
20
-73.54
11
96.986
21
-73.6357
0
LINE
8
BLACK
6
CONTINUOUS
10
96.986
20
-73.6357
11
96.9318
21
-73.7168
0
LINE
8
BLACK
6
CONTINUOUS
10
96.9318
20
-73.7168
11
96.8507
21
-73.771
0
LINE
8
BLACK
6
CONTINUOUS
10
96.8507
20
-73.771
11
96.755
21
-73.79
0
LINE
8
BLACK
6
CONTINUOUS
10
96.755
20
-73.79
11
96.005
21
-73.79
0
LINE
8
BLACK
6
CONTINUOUS
10
96.005
20
-73.79
11
95.9093
21
-73.771
0
LINE
8
BLACK
6
CONTINUOUS
10
95.9093
20
-73.771
11
95.8282
21
-73.7168
0
LINE
8
BLACK
6
CONTINUOUS
10
95.8282
20
-73.7168
11
95.774
21
-73.6357
0
LINE
8
BLACK
6
CONTINUOUS
10
95.774
20
-73.6357
11
95.755
21
-73.54
0
LINE
8
BLACK
6
CONTINUOUS
10
95.755
20
-73.54
11
95.755
21
-72.79
0
LINE
8
BLACK
6
CONTINUOUS
10
95.755
20
-72.79
11
95.774
21
-72.6943
0
LINE
8
BLACK
6
CONTINUOUS
10
95.774
20
-72.6943
11
95.8282
21
-72.6132
0
LINE
8
BLACK
6
CONTINUOUS
10
95.8282
20
-72.6132
11
95.9093
21
-72.559
0
LINE
8
BLACK
6
CONTINUOUS
10
95.9093
20
-72.559
11
96.005
21
-72.54
0
LINE
8
BLACK
6
CONTINUOUS
10
96.005
20
-72.54
11
96.755
21
-72.54
0
LINE
8
BLACK
6
CONTINUOUS
10
96.755
20
-72.54
11
96.8507
21
-72.559
0
LINE
8
BLACK
6
CONTINUOUS
10
92.4034
20
-72.5791
11
92.4804
21
-72.6306
0
LINE
8
BLACK
6
CONTINUOUS
10
92.4804
20
-72.6306
11
92.5319
21
-72.7076
0
LINE
8
BLACK
6
CONTINUOUS
10
92.5319
20
-72.7076
11
92.55
21
-72.7985
0
LINE
8
BLACK
6
CONTINUOUS
10
92.55
20
-72.7985
11
92.55
21
-73.2985
0
LINE
8
BLACK
6
CONTINUOUS
10
92.55
20
-73.2985
11
92.5319
21
-73.3894
0
LINE
8
BLACK
6
CONTINUOUS
10
92.5319
20
-73.3894
11
92.4804
21
-73.4664
0
LINE
8
BLACK
6
CONTINUOUS
10
92.4804
20
-73.4664
11
92.4034
21
-73.5179
0
LINE
8
BLACK
6
CONTINUOUS
10
92.4034
20
-73.5179
11
92.3125
21
-73.536
0
LINE
8
BLACK
6
CONTINUOUS
10
92.3125
20
-73.536
11
91.8375
21
-73.536
0
LINE
8
BLACK
6
CONTINUOUS
10
91.8375
20
-73.536
11
91.7466
21
-73.5179
0
LINE
8
BLACK
6
CONTINUOUS
10
91.7466
20
-73.5179
11
91.6696
21
-73.4664
0
LINE
8
BLACK
6
CONTINUOUS
10
91.6696
20
-73.4664
11
91.6181
21
-73.3894
0
LINE
8
BLACK
6
CONTINUOUS
10
91.6181
20
-73.3894
11
91.6
21
-73.2985
0
LINE
8
BLACK
6
CONTINUOUS
10
91.6
20
-73.2985
11
91.6
21
-72.7985
0
LINE
8
BLACK
6
CONTINUOUS
10
91.6
20
-72.7985
11
91.6181
21
-72.7076
0
LINE
8
BLACK
6
CONTINUOUS
10
91.6181
20
-72.7076
11
91.6696
21
-72.6306
0
LINE
8
BLACK
6
CONTINUOUS
10
91.6696
20
-72.6306
11
91.7466
21
-72.5791
0
LINE
8
BLACK
6
CONTINUOUS
10
91.7466
20
-72.5791
11
91.8375
21
-72.561
0
LINE
8
BLACK
6
CONTINUOUS
10
91.8375
20
-72.561
11
92.3125
21
-72.561
0
LINE
8
BLACK
6
CONTINUOUS
10
92.3125
20
-72.561
11
92.4034
21
-72.5791
0
LINE
8
BLACK
6
CONTINUOUS
10
95.2337
20
-72.8957
11
95.258
21
-72.912
0
LINE
8
BLACK
6
CONTINUOUS
10
95.258
20
-72.912
11
95.2743
21
-72.9363
0
LINE
8
BLACK
6
CONTINUOUS
10
95.2743
20
-72.9363
11
95.28
21
-72.965
0
LINE
8
BLACK
6
CONTINUOUS
10
95.28
20
-72.965
11
95.28
21
-73.115
0
LINE
8
BLACK
6
CONTINUOUS
10
95.28
20
-73.115
11
95.2743
21
-73.1437
0
LINE
8
BLACK
6
CONTINUOUS
10
95.2743
20
-73.1437
11
95.258
21
-73.168
0
LINE
8
BLACK
6
CONTINUOUS
10
95.258
20
-73.168
11
95.2337
21
-73.1843
0
LINE
8
BLACK
6
CONTINUOUS
10
95.2337
20
-73.1843
11
95.205
21
-73.19
0
LINE
8
BLACK
6
CONTINUOUS
10
95.205
20
-73.19
11
94.38
21
-73.19
0
LINE
8
BLACK
6
CONTINUOUS
10
94.38
20
-73.19
11
94.3513
21
-73.1843
0
LINE
8
BLACK
6
CONTINUOUS
10
94.3513
20
-73.1843
11
94.327
21
-73.168
0
LINE
8
BLACK
6
CONTINUOUS
10
94.327
20
-73.168
11
94.3107
21
-73.1437
0
LINE
8
BLACK
6
CONTINUOUS
10
94.3107
20
-73.1437
11
94.305
21
-73.115
0
LINE
8
BLACK
6
CONTINUOUS
10
94.305
20
-73.115
11
94.305
21
-72.965
0
LINE
8
BLACK
6
CONTINUOUS
10
94.305
20
-72.965
11
94.3107
21
-72.9363
0
LINE
8
BLACK
6
CONTINUOUS
10
94.3107
20
-72.9363
11
94.327
21
-72.912
0
LINE
8
BLACK
6
CONTINUOUS
10
94.327
20
-72.912
11
94.3513
21
-72.8957
0
LINE
8
BLACK
6
CONTINUOUS
10
94.3513
20
-72.8957
11
94.38
21
-72.89
0
LINE
8
BLACK
6
CONTINUOUS
10
94.38
20
-72.89
11
95.205
21
-72.89
0
LINE
8
BLACK
6
CONTINUOUS
10
95.205
20
-72.89
11
95.2337
21
-72.8957
0
LINE
8
BLACK
6
CONTINUOUS
10
99.9587
20
-72.8957
11
99.983
21
-72.912
0
LINE
8
BLACK
6
CONTINUOUS
10
99.983
20
-72.912
11
99.9993
21
-72.9363
0
LINE
8
BLACK
6
CONTINUOUS
10
99.9993
20
-72.9363
11
100.005
21
-72.965
0
LINE
8
BLACK
6
CONTINUOUS
10
100.005
20
-72.965
11
100.005
21
-73.115
0
LINE
8
BLACK
6
CONTINUOUS
10
100.005
20
-73.115
11
99.9993
21
-73.1437
0
LINE
8
BLACK
6
CONTINUOUS
10
99.9993
20
-73.1437
11
99.983
21
-73.168
0
LINE
8
BLACK
6
CONTINUOUS
10
99.983
20
-73.168
11
99.9587
21
-73.1843
0
LINE
8
BLACK
6
CONTINUOUS
10
99.9587
20
-73.1843
11
99.93
21
-73.19
0
LINE
8
BLACK
6
CONTINUOUS
10
99.93
20
-73.19
11
99.105
21
-73.19
0
LINE
8
BLACK
6
CONTINUOUS
10
99.105
20
-73.19
11
99.0763
21
-73.1843
0
LINE
8
BLACK
6
CONTINUOUS
10
99.0763
20
-73.1843
11
99.052
21
-73.168
0
LINE
8
BLACK
6
CONTINUOUS
10
99.052
20
-73.168
11
99.0357
21
-73.1437
0
LINE
8
BLACK
6
CONTINUOUS
10
99.0357
20
-73.1437
11
99.03
21
-73.115
0
LINE
8
BLACK
6
CONTINUOUS
10
99.03
20
-73.115
11
99.03
21
-72.965
0
LINE
8
BLACK
6
CONTINUOUS
10
99.03
20
-72.965
11
99.0357
21
-72.9363
0
LINE
8
BLACK
6
CONTINUOUS
10
99.0357
20
-72.9363
11
99.052
21
-72.912
0
LINE
8
BLACK
6
CONTINUOUS
10
99.052
20
-72.912
11
99.0763
21
-72.8957
0
LINE
8
BLACK
6
CONTINUOUS
10
99.0763
20
-72.8957
11
99.105
21
-72.89
0
LINE
8
BLACK
6
CONTINUOUS
10
99.105
20
-72.89
11
99.93
21
-72.89
0
LINE
8
BLACK
6
CONTINUOUS
10
99.93
20
-72.89
11
99.9587
21
-72.8957
0
LINE
8
BLACK
6
CONTINUOUS
10
95.2337
20
-72.2457
11
95.258
21
-72.262
0
LINE
8
BLACK
6
CONTINUOUS
10
95.258
20
-72.262
11
95.2743
21
-72.2863
0
LINE
8
BLACK
6
CONTINUOUS
10
95.2743
20
-72.2863
11
95.28
21
-72.315
0
LINE
8
BLACK
6
CONTINUOUS
10
95.28
20
-72.315
11
95.28
21
-72.465
0
LINE
8
BLACK
6
CONTINUOUS
10
95.28
20
-72.465
11
95.2743
21
-72.4937
0
LINE
8
BLACK
6
CONTINUOUS
10
95.2743
20
-72.4937
11
95.258
21
-72.518
0
LINE
8
BLACK
6
CONTINUOUS
10
95.258
20
-72.518
11
95.2337
21
-72.5343
0
LINE
8
BLACK
6
CONTINUOUS
10
95.2337
20
-72.5343
11
95.205
21
-72.54
0
LINE
8
BLACK
6
CONTINUOUS
10
95.205
20
-72.54
11
94.38
21
-72.54
0
LINE
8
BLACK
6
CONTINUOUS
10
94.38
20
-72.54
11
94.3513
21
-72.5343
0
LINE
8
BLACK
6
CONTINUOUS
10
94.3513
20
-72.5343
11
94.327
21
-72.518
0
LINE
8
BLACK
6
CONTINUOUS
10
94.327
20
-72.518
11
94.3107
21
-72.4937
0
LINE
8
BLACK
6
CONTINUOUS
10
94.3107
20
-72.4937
11
94.305
21
-72.465
0
LINE
8
BLACK
6
CONTINUOUS
10
94.305
20
-72.465
11
94.305
21
-72.315
0
LINE
8
BLACK
6
CONTINUOUS
10
94.305
20
-72.315
11
94.3107
21
-72.2863
0
LINE
8
BLACK
6
CONTINUOUS
10
94.3107
20
-72.2863
11
94.327
21
-72.262
0
LINE
8
BLACK
6
CONTINUOUS
10
94.327
20
-72.262
11
94.3513
21
-72.2457
0
LINE
8
BLACK
6
CONTINUOUS
10
94.3513
20
-72.2457
11
94.38
21
-72.24
0
LINE
8
BLACK
6
CONTINUOUS
10
94.38
20
-72.24
11
95.205
21
-72.24
0
LINE
8
BLACK
6
CONTINUOUS
10
95.205
20
-72.24
11
95.2337
21
-72.2457
0
LINE
8
BLACK
6
CONTINUOUS
10
99.9587
20
-72.2457
11
99.983
21
-72.262
0
LINE
8
BLACK
6
CONTINUOUS
10
99.983
20
-72.262
11
99.9993
21
-72.2863
0
LINE
8
BLACK
6
CONTINUOUS
10
99.9993
20
-72.2863
11
100.005
21
-72.315
0
LINE
8
BLACK
6
CONTINUOUS
10
100.005
20
-72.315
11
100.005
21
-72.465
0
LINE
8
BLACK
6
CONTINUOUS
10
100.005
20
-72.465
11
99.9993
21
-72.4937
0
LINE
8
BLACK
6
CONTINUOUS
10
99.9993
20
-72.4937
11
99.983
21
-72.518
0
LINE
8
BLACK
6
CONTINUOUS
10
99.983
20
-72.518
11
99.9587
21
-72.5343
0
LINE
8
BLACK
6
CONTINUOUS
10
99.9587
20
-72.5343
11
99.93
21
-72.54
0
LINE
8
BLACK
6
CONTINUOUS
10
99.93
20
-72.54
11
99.105
21
-72.54
0
LINE
8
BLACK
6
CONTINUOUS
10
99.105
20
-72.54
11
99.0763
21
-72.5343
0
LINE
8
BLACK
6
CONTINUOUS
10
99.0763
20
-72.5343
11
99.052
21
-72.518
0
LINE
8
BLACK
6
CONTINUOUS
10
99.052
20
-72.518
11
99.0357
21
-72.4937
0
LINE
8
BLACK
6
CONTINUOUS
10
99.0357
20
-72.4937
11
99.03
21
-72.465
0
LINE
8
BLACK
6
CONTINUOUS
10
99.03
20
-72.465
11
99.03
21
-72.315
0
LINE
8
BLACK
6
CONTINUOUS
10
99.03
20
-72.315
11
99.0357
21
-72.2863
0
LINE
8
BLACK
6
CONTINUOUS
10
99.0357
20
-72.2863
11
99.052
21
-72.262
0
LINE
8
BLACK
6
CONTINUOUS
10
99.052
20
-72.262
11
99.0763
21
-72.2457
0
LINE
8
BLACK
6
CONTINUOUS
10
99.0763
20
-72.2457
11
99.105
21
-72.24
0
LINE
8
BLACK
6
CONTINUOUS
10
99.105
20
-72.24
11
99.93
21
-72.24
0
LINE
8
BLACK
6
CONTINUOUS
10
99.93
20
-72.24
11
99.9587
21
-72.2457
0
LINE
8
BLACK
6
CONTINUOUS
10
98.4007
20
-71.009
11
98.4818
21
-71.0632
0
LINE
8
BLACK
6
CONTINUOUS
10
98.4818
20
-71.0632
11
98.536
21
-71.1443
0
LINE
8
BLACK
6
CONTINUOUS
10
98.536
20
-71.1443
11
98.555
21
-71.24
0
LINE
8
BLACK
6
CONTINUOUS
10
98.555
20
-71.24
11
98.555
21
-71.99
0
LINE
8
BLACK
6
CONTINUOUS
10
98.555
20
-71.99
11
98.536
21
-72.0857
0
LINE
8
BLACK
6
CONTINUOUS
10
98.536
20
-72.0857
11
98.4818
21
-72.1668
0
LINE
8
BLACK
6
CONTINUOUS
10
98.4818
20
-72.1668
11
98.4007
21
-72.221
0
LINE
8
BLACK
6
CONTINUOUS
10
98.4007
20
-72.221
11
98.305
21
-72.24
0
LINE
8
BLACK
6
CONTINUOUS
10
98.305
20
-72.24
11
97.555
21
-72.24
0
LINE
8
BLACK
6
CONTINUOUS
10
97.555
20
-72.24
11
97.4593
21
-72.221
0
LINE
8
BLACK
6
CONTINUOUS
10
97.4593
20
-72.221
11
97.3782
21
-72.1668
0
LINE
8
BLACK
6
CONTINUOUS
10
97.3782
20
-72.1668
11
97.324
21
-72.0857
0
LINE
8
BLACK
6
CONTINUOUS
10
97.324
20
-72.0857
11
97.305
21
-71.99
0
LINE
8
BLACK
6
CONTINUOUS
10
97.305
20
-71.99
11
97.305
21
-71.24
0
LINE
8
BLACK
6
CONTINUOUS
10
97.305
20
-71.24
11
97.324
21
-71.1443
0
LINE
8
BLACK
6
CONTINUOUS
10
97.324
20
-71.1443
11
97.3782
21
-71.0632
0
LINE
8
BLACK
6
CONTINUOUS
10
97.3782
20
-71.0632
11
97.4593
21
-71.009
0
LINE
8
BLACK
6
CONTINUOUS
10
97.4593
20
-71.009
11
97.555
21
-70.99
0
LINE
8
BLACK
6
CONTINUOUS
10
97.555
20
-70.99
11
98.305
21
-70.99
0
LINE
8
BLACK
6
CONTINUOUS
10
98.305
20
-70.99
11
98.4007
21
-71.009
0
LINE
8
BLACK
6
CONTINUOUS
10
96.8507
20
-71.009
11
96.9318
21
-71.0632
0
LINE
8
BLACK
6
CONTINUOUS
10
96.9318
20
-71.0632
11
96.986
21
-71.1443
0
LINE
8
BLACK
6
CONTINUOUS
10
96.986
20
-71.1443
11
97.005
21
-71.24
0
LINE
8
BLACK
6
CONTINUOUS
10
97.005
20
-71.24
11
97.005
21
-71.99
0
LINE
8
BLACK
6
CONTINUOUS
10
97.005
20
-71.99
11
96.986
21
-72.0857
0
LINE
8
BLACK
6
CONTINUOUS
10
96.986
20
-72.0857
11
96.9318
21
-72.1668
0
LINE
8
BLACK
6
CONTINUOUS
10
96.9318
20
-72.1668
11
96.8507
21
-72.221
0
LINE
8
BLACK
6
CONTINUOUS
10
96.8507
20
-72.221
11
96.755
21
-72.24
0
LINE
8
BLACK
6
CONTINUOUS
10
96.755
20
-72.24
11
96.005
21
-72.24
0
LINE
8
BLACK
6
CONTINUOUS
10
96.005
20
-72.24
11
95.9093
21
-72.221
0
LINE
8
BLACK
6
CONTINUOUS
10
95.9093
20
-72.221
11
95.8282
21
-72.1668
0
LINE
8
BLACK
6
CONTINUOUS
10
95.8282
20
-72.1668
11
95.774
21
-72.0857
0
LINE
8
BLACK
6
CONTINUOUS
10
95.774
20
-72.0857
11
95.755
21
-71.99
0
LINE
8
BLACK
6
CONTINUOUS
10
95.755
20
-71.99
11
95.755
21
-71.24
0
LINE
8
BLACK
6
CONTINUOUS
10
95.755
20
-71.24
11
95.774
21
-71.1443
0
LINE
8
BLACK
6
CONTINUOUS
10
95.774
20
-71.1443
11
95.8282
21
-71.0632
0
LINE
8
BLACK
6
CONTINUOUS
10
95.8282
20
-71.0632
11
95.9093
21
-71.009
0
LINE
8
BLACK
6
CONTINUOUS
10
95.9093
20
-71.009
11
96.005
21
-70.99
0
LINE
8
BLACK
6
CONTINUOUS
10
96.005
20
-70.99
11
96.755
21
-70.99
0
LINE
8
BLACK
6
CONTINUOUS
10
96.755
20
-70.99
11
96.8507
21
-71.009
0
LINE
8
BLACK
6
CONTINUOUS
10
95.2337
20
-71.5957
11
95.258
21
-71.612
0
LINE
8
BLACK
6
CONTINUOUS
10
95.258
20
-71.612
11
95.2743
21
-71.6363
0
LINE
8
BLACK
6
CONTINUOUS
10
95.2743
20
-71.6363
11
95.28
21
-71.665
0
LINE
8
BLACK
6
CONTINUOUS
10
95.28
20
-71.665
11
95.28
21
-71.815
0
LINE
8
BLACK
6
CONTINUOUS
10
95.28
20
-71.815
11
95.2743
21
-71.8437
0
LINE
8
BLACK
6
CONTINUOUS
10
95.2743
20
-71.8437
11
95.258
21
-71.868
0
LINE
8
BLACK
6
CONTINUOUS
10
95.258
20
-71.868
11
95.2337
21
-71.8843
0
LINE
8
BLACK
6
CONTINUOUS
10
95.2337
20
-71.8843
11
95.205
21
-71.89
0
LINE
8
BLACK
6
CONTINUOUS
10
95.205
20
-71.89
11
94.38
21
-71.89
0
LINE
8
BLACK
6
CONTINUOUS
10
94.38
20
-71.89
11
94.3513
21
-71.8843
0
LINE
8
BLACK
6
CONTINUOUS
10
94.3513
20
-71.8843
11
94.327
21
-71.868
0
LINE
8
BLACK
6
CONTINUOUS
10
94.327
20
-71.868
11
94.3107
21
-71.8437
0
LINE
8
BLACK
6
CONTINUOUS
10
94.3107
20
-71.8437
11
94.305
21
-71.815
0
LINE
8
BLACK
6
CONTINUOUS
10
94.305
20
-71.815
11
94.305
21
-71.665
0
LINE
8
BLACK
6
CONTINUOUS
10
94.305
20
-71.665
11
94.3107
21
-71.6363
0
LINE
8
BLACK
6
CONTINUOUS
10
94.3107
20
-71.6363
11
94.327
21
-71.612
0
LINE
8
BLACK
6
CONTINUOUS
10
94.327
20
-71.612
11
94.3513
21
-71.5957
0
LINE
8
BLACK
6
CONTINUOUS
10
94.3513
20
-71.5957
11
94.38
21
-71.59
0
LINE
8
BLACK
6
CONTINUOUS
10
94.38
20
-71.59
11
95.205
21
-71.59
0
LINE
8
BLACK
6
CONTINUOUS
10
95.205
20
-71.59
11
95.2337
21
-71.5957
0
LINE
8
BLACK
6
CONTINUOUS
10
99.9587
20
-71.5957
11
99.983
21
-71.612
0
LINE
8
BLACK
6
CONTINUOUS
10
99.983
20
-71.612
11
99.9993
21
-71.6363
0
LINE
8
BLACK
6
CONTINUOUS
10
99.9993
20
-71.6363
11
100.005
21
-71.665
0
LINE
8
BLACK
6
CONTINUOUS
10
100.005
20
-71.665
11
100.005
21
-71.815
0
LINE
8
BLACK
6
CONTINUOUS
10
100.005
20
-71.815
11
99.9993
21
-71.8437
0
LINE
8
BLACK
6
CONTINUOUS
10
99.9993
20
-71.8437
11
99.983
21
-71.868
0
LINE
8
BLACK
6
CONTINUOUS
10
99.983
20
-71.868
11
99.9587
21
-71.8843
0
LINE
8
BLACK
6
CONTINUOUS
10
99.9587
20
-71.8843
11
99.93
21
-71.89
0
LINE
8
BLACK
6
CONTINUOUS
10
99.93
20
-71.89
11
99.105
21
-71.89
0
LINE
8
BLACK
6
CONTINUOUS
10
99.105
20
-71.89
11
99.0763
21
-71.8843
0
LINE
8
BLACK
6
CONTINUOUS
10
99.0763
20
-71.8843
11
99.052
21
-71.868
0
LINE
8
BLACK
6
CONTINUOUS
10
99.052
20
-71.868
11
99.0357
21
-71.8437
0
LINE
8
BLACK
6
CONTINUOUS
10
99.0357
20
-71.8437
11
99.03
21
-71.815
0
LINE
8
BLACK
6
CONTINUOUS
10
99.03
20
-71.815
11
99.03
21
-71.665
0
LINE
8
BLACK
6
CONTINUOUS
10
99.03
20
-71.665
11
99.0357
21
-71.6363
0
LINE
8
BLACK
6
CONTINUOUS
10
99.0357
20
-71.6363
11
99.052
21
-71.612
0
LINE
8
BLACK
6
CONTINUOUS
10
99.052
20
-71.612
11
99.0763
21
-71.5957
0
LINE
8
BLACK
6
CONTINUOUS
10
99.0763
20
-71.5957
11
99.105
21
-71.59
0
LINE
8
BLACK
6
CONTINUOUS
10
99.105
20
-71.59
11
99.93
21
-71.59
0
LINE
8
BLACK
6
CONTINUOUS
10
99.93
20
-71.59
11
99.9587
21
-71.5957
0
LINE
8
BLACK
6
CONTINUOUS
10
85.1
20
-71.82
11
84.45
21
-71.82
0
LINE
8
BLACK
6
CONTINUOUS
10
84.45
20
-71.82
11
84.45
21
-70.26
0
LINE
8
BLACK
6
CONTINUOUS
10
84.45
20
-70.26
11
85.1
21
-70.26
0
LINE
8
BLACK
6
CONTINUOUS
10
85.1
20
-70.26
11
85.1
21
-71.82
0
LINE
8
BLACK
6
CONTINUOUS
10
87
20
-71.82
11
86.35
21
-71.82
0
LINE
8
BLACK
6
CONTINUOUS
10
86.35
20
-71.82
11
86.35
21
-70.26
0
LINE
8
BLACK
6
CONTINUOUS
10
86.35
20
-70.26
11
87
21
-70.26
0
LINE
8
BLACK
6
CONTINUOUS
10
87
20
-70.26
11
87
21
-71.82
0
LINE
8
BLACK
6
CONTINUOUS
10
92.4034
20
-70.7541
11
92.4804
21
-70.8056
0
LINE
8
BLACK
6
CONTINUOUS
10
92.4804
20
-70.8056
11
92.5319
21
-70.8826
0
LINE
8
BLACK
6
CONTINUOUS
10
92.5319
20
-70.8826
11
92.55
21
-70.9735
0
LINE
8
BLACK
6
CONTINUOUS
10
92.55
20
-70.9735
11
92.55
21
-71.4735
0
LINE
8
BLACK
6
CONTINUOUS
10
92.55
20
-71.4735
11
92.5319
21
-71.5644
0
LINE
8
BLACK
6
CONTINUOUS
10
92.5319
20
-71.5644
11
92.4804
21
-71.6414
0
LINE
8
BLACK
6
CONTINUOUS
10
92.4804
20
-71.6414
11
92.4034
21
-71.6929
0
LINE
8
BLACK
6
CONTINUOUS
10
92.4034
20
-71.6929
11
92.3125
21
-71.711
0
LINE
8
BLACK
6
CONTINUOUS
10
92.3125
20
-71.711
11
91.8375
21
-71.711
0
LINE
8
BLACK
6
CONTINUOUS
10
91.8375
20
-71.711
11
91.7466
21
-71.6929
0
LINE
8
BLACK
6
CONTINUOUS
10
91.7466
20
-71.6929
11
91.6696
21
-71.6414
0
LINE
8
BLACK
6
CONTINUOUS
10
91.6696
20
-71.6414
11
91.6181
21
-71.5644
0
LINE
8
BLACK
6
CONTINUOUS
10
91.6181
20
-71.5644
11
91.6
21
-71.4735
0
LINE
8
BLACK
6
CONTINUOUS
10
91.6
20
-71.4735
11
91.6
21
-70.9735
0
LINE
8
BLACK
6
CONTINUOUS
10
91.6
20
-70.9735
11
91.6181
21
-70.8826
0
LINE
8
BLACK
6
CONTINUOUS
10
91.6181
20
-70.8826
11
91.6696
21
-70.8056
0
LINE
8
BLACK
6
CONTINUOUS
10
91.6696
20
-70.8056
11
91.7466
21
-70.7541
0
LINE
8
BLACK
6
CONTINUOUS
10
91.7466
20
-70.7541
11
91.8375
21
-70.736
0
LINE
8
BLACK
6
CONTINUOUS
10
91.8375
20
-70.736
11
92.3125
21
-70.736
0
LINE
8
BLACK
6
CONTINUOUS
10
92.3125
20
-70.736
11
92.4034
21
-70.7541
0
LINE
8
BLACK
6
CONTINUOUS
10
99.9587
20
-70.9457
11
99.983
21
-70.962
0
LINE
8
BLACK
6
CONTINUOUS
10
99.983
20
-70.962
11
99.9993
21
-70.9863
0
LINE
8
BLACK
6
CONTINUOUS
10
99.9993
20
-70.9863
11
100.005
21
-71.015
0
LINE
8
BLACK
6
CONTINUOUS
10
100.005
20
-71.015
11
100.005
21
-71.165
0
LINE
8
BLACK
6
CONTINUOUS
10
100.005
20
-71.165
11
99.9993
21
-71.1937
0
LINE
8
BLACK
6
CONTINUOUS
10
99.9993
20
-71.1937
11
99.983
21
-71.218
0
LINE
8
BLACK
6
CONTINUOUS
10
99.983
20
-71.218
11
99.9587
21
-71.2343
0
LINE
8
BLACK
6
CONTINUOUS
10
99.9587
20
-71.2343
11
99.93
21
-71.24
0
LINE
8
BLACK
6
CONTINUOUS
10
99.93
20
-71.24
11
99.105
21
-71.24
0
LINE
8
BLACK
6
CONTINUOUS
10
99.105
20
-71.24
11
99.0763
21
-71.2343
0
LINE
8
BLACK
6
CONTINUOUS
10
99.0763
20
-71.2343
11
99.052
21
-71.218
0
LINE
8
BLACK
6
CONTINUOUS
10
99.052
20
-71.218
11
99.0357
21
-71.1937
0
LINE
8
BLACK
6
CONTINUOUS
10
99.0357
20
-71.1937
11
99.03
21
-71.165
0
LINE
8
BLACK
6
CONTINUOUS
10
99.03
20
-71.165
11
99.03
21
-71.015
0
LINE
8
BLACK
6
CONTINUOUS
10
99.03
20
-71.015
11
99.0357
21
-70.9863
0
LINE
8
BLACK
6
CONTINUOUS
10
99.0357
20
-70.9863
11
99.052
21
-70.962
0
LINE
8
BLACK
6
CONTINUOUS
10
99.052
20
-70.962
11
99.0763
21
-70.9457
0
LINE
8
BLACK
6
CONTINUOUS
10
99.0763
20
-70.9457
11
99.105
21
-70.94
0
LINE
8
BLACK
6
CONTINUOUS
10
99.105
20
-70.94
11
99.93
21
-70.94
0
LINE
8
BLACK
6
CONTINUOUS
10
99.93
20
-70.94
11
99.9587
21
-70.9457
0
LINE
8
BLACK
6
CONTINUOUS
10
95.2337
20
-70.9457
11
95.258
21
-70.962
0
LINE
8
BLACK
6
CONTINUOUS
10
95.258
20
-70.962
11
95.2743
21
-70.9863
0
LINE
8
BLACK
6
CONTINUOUS
10
95.2743
20
-70.9863
11
95.28
21
-71.015
0
LINE
8
BLACK
6
CONTINUOUS
10
95.28
20
-71.015
11
95.28
21
-71.165
0
LINE
8
BLACK
6
CONTINUOUS
10
95.28
20
-71.165
11
95.2743
21
-71.1937
0
LINE
8
BLACK
6
CONTINUOUS
10
95.2743
20
-71.1937
11
95.258
21
-71.218
0
LINE
8
BLACK
6
CONTINUOUS
10
95.258
20
-71.218
11
95.2337
21
-71.2343
0
LINE
8
BLACK
6
CONTINUOUS
10
95.2337
20
-71.2343
11
95.205
21
-71.24
0
LINE
8
BLACK
6
CONTINUOUS
10
95.205
20
-71.24
11
94.38
21
-71.24
0
LINE
8
BLACK
6
CONTINUOUS
10
94.38
20
-71.24
11
94.3513
21
-71.2343
0
LINE
8
BLACK
6
CONTINUOUS
10
94.3513
20
-71.2343
11
94.327
21
-71.218
0
LINE
8
BLACK
6
CONTINUOUS
10
94.327
20
-71.218
11
94.3107
21
-71.1937
0
LINE
8
BLACK
6
CONTINUOUS
10
94.3107
20
-71.1937
11
94.305
21
-71.165
0
LINE
8
BLACK
6
CONTINUOUS
10
94.305
20
-71.165
11
94.305
21
-71.015
0
LINE
8
BLACK
6
CONTINUOUS
10
94.305
20
-71.015
11
94.3107
21
-70.9863
0
LINE
8
BLACK
6
CONTINUOUS
10
94.3107
20
-70.9863
11
94.327
21
-70.962
0
LINE
8
BLACK
6
CONTINUOUS
10
94.327
20
-70.962
11
94.3513
21
-70.9457
0
LINE
8
BLACK
6
CONTINUOUS
10
94.3513
20
-70.9457
11
94.38
21
-70.94
0
LINE
8
BLACK
6
CONTINUOUS
10
94.38
20
-70.94
11
95.205
21
-70.94
0
LINE
8
BLACK
6
CONTINUOUS
10
95.205
20
-70.94
11
95.2337
21
-70.9457
0
LINE
8
BLACK
6
CONTINUOUS
10
97.2587
20
-69.5457
11
97.283
21
-69.562
0
LINE
8
BLACK
6
CONTINUOUS
10
97.283
20
-69.562
11
97.2993
21
-69.5863
0
LINE
8
BLACK
6
CONTINUOUS
10
97.2993
20
-69.5863
11
97.305
21
-69.615
0
LINE
8
BLACK
6
CONTINUOUS
10
97.305
20
-69.615
11
97.305
21
-70.44
0
LINE
8
BLACK
6
CONTINUOUS
10
97.305
20
-70.44
11
97.2993
21
-70.4687
0
LINE
8
BLACK
6
CONTINUOUS
10
97.2993
20
-70.4687
11
97.283
21
-70.493
0
LINE
8
BLACK
6
CONTINUOUS
10
97.283
20
-70.493
11
97.2587
21
-70.5093
0
LINE
8
BLACK
6
CONTINUOUS
10
97.2587
20
-70.5093
11
97.23
21
-70.515
0
LINE
8
BLACK
6
CONTINUOUS
10
97.23
20
-70.515
11
97.08
21
-70.515
0
LINE
8
BLACK
6
CONTINUOUS
10
97.08
20
-70.515
11
97.0513
21
-70.5093
0
LINE
8
BLACK
6
CONTINUOUS
10
97.0513
20
-70.5093
11
97.027
21
-70.493
0
LINE
8
BLACK
6
CONTINUOUS
10
97.027
20
-70.493
11
97.0107
21
-70.4687
0
LINE
8
BLACK
6
CONTINUOUS
10
97.0107
20
-70.4687
11
97.005
21
-70.44
0
LINE
8
BLACK
6
CONTINUOUS
10
97.005
20
-70.44
11
97.005
21
-69.615
0
LINE
8
BLACK
6
CONTINUOUS
10
97.005
20
-69.615
11
97.0107
21
-69.5863
0
LINE
8
BLACK
6
CONTINUOUS
10
97.0107
20
-69.5863
11
97.027
21
-69.562
0
LINE
8
BLACK
6
CONTINUOUS
10
97.027
20
-69.562
11
97.0513
21
-69.5457
0
LINE
8
BLACK
6
CONTINUOUS
10
97.0513
20
-69.5457
11
97.08
21
-69.54
0
LINE
8
BLACK
6
CONTINUOUS
10
97.08
20
-69.54
11
97.23
21
-69.54
0
LINE
8
BLACK
6
CONTINUOUS
10
97.23
20
-69.54
11
97.2587
21
-69.5457
0
LINE
8
BLACK
6
CONTINUOUS
10
97.9087
20
-69.5457
11
97.933
21
-69.562
0
LINE
8
BLACK
6
CONTINUOUS
10
97.933
20
-69.562
11
97.9493
21
-69.5863
0
LINE
8
BLACK
6
CONTINUOUS
10
97.9493
20
-69.5863
11
97.955
21
-69.615
0
LINE
8
BLACK
6
CONTINUOUS
10
97.955
20
-69.615
11
97.955
21
-70.44
0
LINE
8
BLACK
6
CONTINUOUS
10
97.955
20
-70.44
11
97.9493
21
-70.4687
0
LINE
8
BLACK
6
CONTINUOUS
10
97.9493
20
-70.4687
11
97.933
21
-70.493
0
LINE
8
BLACK
6
CONTINUOUS
10
97.933
20
-70.493
11
97.9087
21
-70.5093
0
LINE
8
BLACK
6
CONTINUOUS
10
97.9087
20
-70.5093
11
97.88
21
-70.515
0
LINE
8
BLACK
6
CONTINUOUS
10
97.88
20
-70.515
11
97.73
21
-70.515
0
LINE
8
BLACK
6
CONTINUOUS
10
97.73
20
-70.515
11
97.7013
21
-70.5093
0
LINE
8
BLACK
6
CONTINUOUS
10
97.7013
20
-70.5093
11
97.677
21
-70.493
0
LINE
8
BLACK
6
CONTINUOUS
10
97.677
20
-70.493
11
97.6607
21
-70.4687
0
LINE
8
BLACK
6
CONTINUOUS
10
97.6607
20
-70.4687
11
97.655
21
-70.44
0
LINE
8
BLACK
6
CONTINUOUS
10
97.655
20
-70.44
11
97.655
21
-69.615
0
LINE
8
BLACK
6
CONTINUOUS
10
97.655
20
-69.615
11
97.6607
21
-69.5863
0
LINE
8
BLACK
6
CONTINUOUS
10
97.6607
20
-69.5863
11
97.677
21
-69.562
0
LINE
8
BLACK
6
CONTINUOUS
10
97.677
20
-69.562
11
97.7013
21
-69.5457
0
LINE
8
BLACK
6
CONTINUOUS
10
97.7013
20
-69.5457
11
97.73
21
-69.54
0
LINE
8
BLACK
6
CONTINUOUS
10
97.73
20
-69.54
11
97.88
21
-69.54
0
LINE
8
BLACK
6
CONTINUOUS
10
97.88
20
-69.54
11
97.9087
21
-69.5457
0
LINE
8
BLACK
6
CONTINUOUS
10
98.5587
20
-69.5457
11
98.583
21
-69.562
0
LINE
8
BLACK
6
CONTINUOUS
10
98.583
20
-69.562
11
98.5993
21
-69.5863
0
LINE
8
BLACK
6
CONTINUOUS
10
98.5993
20
-69.5863
11
98.605
21
-69.615
0
LINE
8
BLACK
6
CONTINUOUS
10
98.605
20
-69.615
11
98.605
21
-70.44
0
LINE
8
BLACK
6
CONTINUOUS
10
98.605
20
-70.44
11
98.5993
21
-70.4687
0
LINE
8
BLACK
6
CONTINUOUS
10
98.5993
20
-70.4687
11
98.583
21
-70.493
0
LINE
8
BLACK
6
CONTINUOUS
10
98.583
20
-70.493
11
98.5587
21
-70.5093
0
LINE
8
BLACK
6
CONTINUOUS
10
98.5587
20
-70.5093
11
98.53
21
-70.515
0
LINE
8
BLACK
6
CONTINUOUS
10
98.53
20
-70.515
11
98.38
21
-70.515
0
LINE
8
BLACK
6
CONTINUOUS
10
98.38
20
-70.515
11
98.3513
21
-70.5093
0
LINE
8
BLACK
6
CONTINUOUS
10
98.3513
20
-70.5093
11
98.327
21
-70.493
0
LINE
8
BLACK
6
CONTINUOUS
10
98.327
20
-70.493
11
98.3107
21
-70.4687
0
LINE
8
BLACK
6
CONTINUOUS
10
98.3107
20
-70.4687
11
98.305
21
-70.44
0
LINE
8
BLACK
6
CONTINUOUS
10
98.305
20
-70.44
11
98.305
21
-69.615
0
LINE
8
BLACK
6
CONTINUOUS
10
98.305
20
-69.615
11
98.3107
21
-69.5863
0
LINE
8
BLACK
6
CONTINUOUS
10
98.3107
20
-69.5863
11
98.327
21
-69.562
0
LINE
8
BLACK
6
CONTINUOUS
10
98.327
20
-69.562
11
98.3513
21
-69.5457
0
LINE
8
BLACK
6
CONTINUOUS
10
98.3513
20
-69.5457
11
98.38
21
-69.54
0
LINE
8
BLACK
6
CONTINUOUS
10
98.38
20
-69.54
11
98.53
21
-69.54
0
LINE
8
BLACK
6
CONTINUOUS
10
98.53
20
-69.54
11
98.5587
21
-69.5457
0
LINE
8
BLACK
6
CONTINUOUS
10
96.6087
20
-69.5457
11
96.633
21
-69.562
0
LINE
8
BLACK
6
CONTINUOUS
10
96.633
20
-69.562
11
96.6493
21
-69.5863
0
LINE
8
BLACK
6
CONTINUOUS
10
96.6493
20
-69.5863
11
96.655
21
-69.615
0
LINE
8
BLACK
6
CONTINUOUS
10
96.655
20
-69.615
11
96.655
21
-70.44
0
LINE
8
BLACK
6
CONTINUOUS
10
96.655
20
-70.44
11
96.6493
21
-70.4687
0
LINE
8
BLACK
6
CONTINUOUS
10
96.6493
20
-70.4687
11
96.633
21
-70.493
0
LINE
8
BLACK
6
CONTINUOUS
10
96.633
20
-70.493
11
96.6087
21
-70.5093
0
LINE
8
BLACK
6
CONTINUOUS
10
96.6087
20
-70.5093
11
96.58
21
-70.515
0
LINE
8
BLACK
6
CONTINUOUS
10
96.58
20
-70.515
11
96.43
21
-70.515
0
LINE
8
BLACK
6
CONTINUOUS
10
96.43
20
-70.515
11
96.4013
21
-70.5093
0
LINE
8
BLACK
6
CONTINUOUS
10
96.4013
20
-70.5093
11
96.377
21
-70.493
0
LINE
8
BLACK
6
CONTINUOUS
10
96.377
20
-70.493
11
96.3607
21
-70.4687
0
LINE
8
BLACK
6
CONTINUOUS
10
96.3607
20
-70.4687
11
96.355
21
-70.44
0
LINE
8
BLACK
6
CONTINUOUS
10
96.355
20
-70.44
11
96.355
21
-69.615
0
LINE
8
BLACK
6
CONTINUOUS
10
96.355
20
-69.615
11
96.3607
21
-69.5863
0
LINE
8
BLACK
6
CONTINUOUS
10
96.3607
20
-69.5863
11
96.377
21
-69.562
0
LINE
8
BLACK
6
CONTINUOUS
10
96.377
20
-69.562
11
96.4013
21
-69.5457
0
LINE
8
BLACK
6
CONTINUOUS
10
96.4013
20
-69.5457
11
96.43
21
-69.54
0
LINE
8
BLACK
6
CONTINUOUS
10
96.43
20
-69.54
11
96.58
21
-69.54
0
LINE
8
BLACK
6
CONTINUOUS
10
96.58
20
-69.54
11
96.6087
21
-69.5457
0
LINE
8
BLACK
6
CONTINUOUS
10
95.9587
20
-69.5457
11
95.983
21
-69.562
0
LINE
8
BLACK
6
CONTINUOUS
10
95.983
20
-69.562
11
95.9993
21
-69.5863
0
LINE
8
BLACK
6
CONTINUOUS
10
95.9993
20
-69.5863
11
96.005
21
-69.615
0
LINE
8
BLACK
6
CONTINUOUS
10
96.005
20
-69.615
11
96.005
21
-70.44
0
LINE
8
BLACK
6
CONTINUOUS
10
96.005
20
-70.44
11
95.9993
21
-70.4687
0
LINE
8
BLACK
6
CONTINUOUS
10
95.9993
20
-70.4687
11
95.983
21
-70.493
0
LINE
8
BLACK
6
CONTINUOUS
10
95.983
20
-70.493
11
95.9587
21
-70.5093
0
LINE
8
BLACK
6
CONTINUOUS
10
95.9587
20
-70.5093
11
95.93
21
-70.515
0
LINE
8
BLACK
6
CONTINUOUS
10
95.93
20
-70.515
11
95.78
21
-70.515
0
LINE
8
BLACK
6
CONTINUOUS
10
95.78
20
-70.515
11
95.7513
21
-70.5093
0
LINE
8
BLACK
6
CONTINUOUS
10
95.7513
20
-70.5093
11
95.727
21
-70.493
0
LINE
8
BLACK
6
CONTINUOUS
10
95.727
20
-70.493
11
95.7107
21
-70.4687
0
LINE
8
BLACK
6
CONTINUOUS
10
95.7107
20
-70.4687
11
95.705
21
-70.44
0
LINE
8
BLACK
6
CONTINUOUS
10
95.705
20
-70.44
11
95.705
21
-69.615
0
LINE
8
BLACK
6
CONTINUOUS
10
95.705
20
-69.615
11
95.7107
21
-69.5863
0
LINE
8
BLACK
6
CONTINUOUS
10
95.7107
20
-69.5863
11
95.727
21
-69.562
0
LINE
8
BLACK
6
CONTINUOUS
10
95.727
20
-69.562
11
95.7513
21
-69.5457
0
LINE
8
BLACK
6
CONTINUOUS
10
95.7513
20
-69.5457
11
95.78
21
-69.54
0
LINE
8
BLACK
6
CONTINUOUS
10
95.78
20
-69.54
11
95.93
21
-69.54
0
LINE
8
BLACK
6
CONTINUOUS
10
95.93
20
-69.54
11
95.9587
21
-69.5457
0
LINE
8
BLACK
6
CONTINUOUS
10
63.12
20
-68.625
11
61.34
21
-68.625
0
LINE
8
BLACK
6
CONTINUOUS
10
61.34
20
-68.625
11
61.34
21
-66.625
0
LINE
8
BLACK
6
CONTINUOUS
10
61.34
20
-66.625
11
63.12
21
-66.625
0
LINE
8
BLACK
6
CONTINUOUS
10
63.12
20
-66.625
11
63.12
21
-68.625
0
LINE
8
BLACK
6
CONTINUOUS
10
73.28
20
-68.625
11
71.5
21
-68.625
0
LINE
8
BLACK
6
CONTINUOUS
10
71.5
20
-68.625
11
71.5
21
-66.625
0
LINE
8
BLACK
6
CONTINUOUS
10
71.5
20
-66.625
11
73.28
21
-66.625
0
LINE
8
BLACK
6
CONTINUOUS
10
73.28
20
-66.625
11
73.28
21
-68.625
0
LINE
8
BLACK
6
CONTINUOUS
10
75.82
20
-68.625
11
74.04
21
-68.625
0
LINE
8
BLACK
6
CONTINUOUS
10
74.04
20
-68.625
11
74.04
21
-66.625
0
LINE
8
BLACK
6
CONTINUOUS
10
74.04
20
-66.625
11
75.82
21
-66.625
0
LINE
8
BLACK
6
CONTINUOUS
10
75.82
20
-66.625
11
75.82
21
-68.625
0
LINE
8
BLACK
6
CONTINUOUS
10
60.58
20
-68.625
11
58.8
21
-68.625
0
LINE
8
BLACK
6
CONTINUOUS
10
58.8
20
-68.625
11
58.8
21
-66.625
0
LINE
8
BLACK
6
CONTINUOUS
10
58.8
20
-66.625
11
60.58
21
-66.625
0
LINE
8
BLACK
6
CONTINUOUS
10
60.58
20
-66.625
11
60.58
21
-68.625
0
LINE
8
BLACK
6
CONTINUOUS
10
86.9784
20
-67.4881
11
87.0554
21
-67.5396
0
LINE
8
BLACK
6
CONTINUOUS
10
87.0554
20
-67.5396
11
87.1069
21
-67.6166
0
LINE
8
BLACK
6
CONTINUOUS
10
87.1069
20
-67.6166
11
87.125
21
-67.7075
0
LINE
8
BLACK
6
CONTINUOUS
10
87.125
20
-67.7075
11
87.125
21
-68.1825
0
LINE
8
BLACK
6
CONTINUOUS
10
87.125
20
-68.1825
11
87.1069
21
-68.2734
0
LINE
8
BLACK
6
CONTINUOUS
10
87.1069
20
-68.2734
11
87.0554
21
-68.3504
0
LINE
8
BLACK
6
CONTINUOUS
10
87.0554
20
-68.3504
11
86.9784
21
-68.4019
0
LINE
8
BLACK
6
CONTINUOUS
10
86.9784
20
-68.4019
11
86.8875
21
-68.42
0
LINE
8
BLACK
6
CONTINUOUS
10
86.8875
20
-68.42
11
86.2875
21
-68.42
0
LINE
8
BLACK
6
CONTINUOUS
10
86.2875
20
-68.42
11
86.1966
21
-68.4019
0
LINE
8
BLACK
6
CONTINUOUS
10
86.1966
20
-68.4019
11
86.1196
21
-68.3504
0
LINE
8
BLACK
6
CONTINUOUS
10
86.1196
20
-68.3504
11
86.0681
21
-68.2734
0
LINE
8
BLACK
6
CONTINUOUS
10
86.0681
20
-68.2734
11
86.05
21
-68.1825
0
LINE
8
BLACK
6
CONTINUOUS
10
86.05
20
-68.1825
11
86.05
21
-67.7075
0
LINE
8
BLACK
6
CONTINUOUS
10
86.05
20
-67.7075
11
86.0681
21
-67.6166
0
LINE
8
BLACK
6
CONTINUOUS
10
86.0681
20
-67.6166
11
86.1196
21
-67.5396
0
LINE
8
BLACK
6
CONTINUOUS
10
86.1196
20
-67.5396
11
86.1966
21
-67.4881
0
LINE
8
BLACK
6
CONTINUOUS
10
86.1966
20
-67.4881
11
86.2875
21
-67.47
0
LINE
8
BLACK
6
CONTINUOUS
10
86.2875
20
-67.47
11
86.8875
21
-67.47
0
LINE
8
BLACK
6
CONTINUOUS
10
86.8875
20
-67.47
11
86.9784
21
-67.4881
0
LINE
8
BLACK
6
CONTINUOUS
10
85.2534
20
-67.4881
11
85.3304
21
-67.5396
0
LINE
8
BLACK
6
CONTINUOUS
10
85.3304
20
-67.5396
11
85.3819
21
-67.6166
0
LINE
8
BLACK
6
CONTINUOUS
10
85.3819
20
-67.6166
11
85.4
21
-67.7075
0
LINE
8
BLACK
6
CONTINUOUS
10
85.4
20
-67.7075
11
85.4
21
-68.1825
0
LINE
8
BLACK
6
CONTINUOUS
10
85.4
20
-68.1825
11
85.3819
21
-68.2734
0
LINE
8
BLACK
6
CONTINUOUS
10
85.3819
20
-68.2734
11
85.3304
21
-68.3504
0
LINE
8
BLACK
6
CONTINUOUS
10
85.3304
20
-68.3504
11
85.2534
21
-68.4019
0
LINE
8
BLACK
6
CONTINUOUS
10
85.2534
20
-68.4019
11
85.1625
21
-68.42
0
LINE
8
BLACK
6
CONTINUOUS
10
85.1625
20
-68.42
11
84.5625
21
-68.42
0
LINE
8
BLACK
6
CONTINUOUS
10
84.5625
20
-68.42
11
84.4716
21
-68.4019
0
LINE
8
BLACK
6
CONTINUOUS
10
84.4716
20
-68.4019
11
84.3946
21
-68.3504
0
LINE
8
BLACK
6
CONTINUOUS
10
84.3946
20
-68.3504
11
84.3431
21
-68.2734
0
LINE
8
BLACK
6
CONTINUOUS
10
84.3431
20
-68.2734
11
84.325
21
-68.1825
0
LINE
8
BLACK
6
CONTINUOUS
10
84.325
20
-68.1825
11
84.325
21
-67.7075
0
LINE
8
BLACK
6
CONTINUOUS
10
84.325
20
-67.7075
11
84.3431
21
-67.6166
0
LINE
8
BLACK
6
CONTINUOUS
10
84.3431
20
-67.6166
11
84.3946
21
-67.5396
0
LINE
8
BLACK
6
CONTINUOUS
10
84.3946
20
-67.5396
11
84.4716
21
-67.4881
0
LINE
8
BLACK
6
CONTINUOUS
10
84.4716
20
-67.4881
11
84.5625
21
-67.47
0
LINE
8
BLACK
6
CONTINUOUS
10
84.5625
20
-67.47
11
85.1625
21
-67.47
0
LINE
8
BLACK
6
CONTINUOUS
10
85.1625
20
-67.47
11
85.2534
21
-67.4881
0
LINE
8
BLACK
6
CONTINUOUS
10
95.2334
20
-66.6756
11
95.3104
21
-66.7271
0
LINE
8
BLACK
6
CONTINUOUS
10
95.3104
20
-66.7271
11
95.3619
21
-66.8041
0
LINE
8
BLACK
6
CONTINUOUS
10
95.3619
20
-66.8041
11
95.38
21
-66.895
0
LINE
8
BLACK
6
CONTINUOUS
10
95.38
20
-66.895
11
95.38
21
-67.37
0
LINE
8
BLACK
6
CONTINUOUS
10
95.38
20
-67.37
11
95.3619
21
-67.4609
0
LINE
8
BLACK
6
CONTINUOUS
10
95.3619
20
-67.4609
11
95.3104
21
-67.5379
0
LINE
8
BLACK
6
CONTINUOUS
10
95.3104
20
-67.5379
11
95.2334
21
-67.5894
0
LINE
8
BLACK
6
CONTINUOUS
10
95.2334
20
-67.5894
11
95.1425
21
-67.6075
0
LINE
8
BLACK
6
CONTINUOUS
10
95.1425
20
-67.6075
11
94.5425
21
-67.6075
0
LINE
8
BLACK
6
CONTINUOUS
10
94.5425
20
-67.6075
11
94.4516
21
-67.5894
0
LINE
8
BLACK
6
CONTINUOUS
10
94.4516
20
-67.5894
11
94.3746
21
-67.5379
0
LINE
8
BLACK
6
CONTINUOUS
10
94.3746
20
-67.5379
11
94.3231
21
-67.4609
0
LINE
8
BLACK
6
CONTINUOUS
10
94.3231
20
-67.4609
11
94.305
21
-67.37
0
LINE
8
BLACK
6
CONTINUOUS
10
94.305
20
-67.37
11
94.305
21
-66.895
0
LINE
8
BLACK
6
CONTINUOUS
10
94.305
20
-66.895
11
94.3231
21
-66.8041
0
LINE
8
BLACK
6
CONTINUOUS
10
94.3231
20
-66.8041
11
94.3746
21
-66.7271
0
LINE
8
BLACK
6
CONTINUOUS
10
94.3746
20
-66.7271
11
94.4516
21
-66.6756
0
LINE
8
BLACK
6
CONTINUOUS
10
94.4516
20
-66.6756
11
94.5425
21
-66.6575
0
LINE
8
BLACK
6
CONTINUOUS
10
94.5425
20
-66.6575
11
95.1425
21
-66.6575
0
LINE
8
BLACK
6
CONTINUOUS
10
95.1425
20
-66.6575
11
95.2334
21
-66.6756
0
LINE
8
BLACK
6
CONTINUOUS
10
93.5084
20
-66.6756
11
93.5854
21
-66.7271
0
LINE
8
BLACK
6
CONTINUOUS
10
93.5854
20
-66.7271
11
93.6369
21
-66.8041
0
LINE
8
BLACK
6
CONTINUOUS
10
93.6369
20
-66.8041
11
93.655
21
-66.895
0
LINE
8
BLACK
6
CONTINUOUS
10
93.655
20
-66.895
11
93.655
21
-67.37
0
LINE
8
BLACK
6
CONTINUOUS
10
93.655
20
-67.37
11
93.6369
21
-67.4609
0
LINE
8
BLACK
6
CONTINUOUS
10
93.6369
20
-67.4609
11
93.5854
21
-67.5379
0
LINE
8
BLACK
6
CONTINUOUS
10
93.5854
20
-67.5379
11
93.5084
21
-67.5894
0
LINE
8
BLACK
6
CONTINUOUS
10
93.5084
20
-67.5894
11
93.4175
21
-67.6075
0
LINE
8
BLACK
6
CONTINUOUS
10
93.4175
20
-67.6075
11
92.8175
21
-67.6075
0
LINE
8
BLACK
6
CONTINUOUS
10
92.8175
20
-67.6075
11
92.7266
21
-67.5894
0
LINE
8
BLACK
6
CONTINUOUS
10
92.7266
20
-67.5894
11
92.6496
21
-67.5379
0
LINE
8
BLACK
6
CONTINUOUS
10
92.6496
20
-67.5379
11
92.5981
21
-67.4609
0
LINE
8
BLACK
6
CONTINUOUS
10
92.5981
20
-67.4609
11
92.58
21
-67.37
0
LINE
8
BLACK
6
CONTINUOUS
10
92.58
20
-67.37
11
92.58
21
-66.895
0
LINE
8
BLACK
6
CONTINUOUS
10
92.58
20
-66.895
11
92.5981
21
-66.8041
0
LINE
8
BLACK
6
CONTINUOUS
10
92.5981
20
-66.8041
11
92.6496
21
-66.7271
0
LINE
8
BLACK
6
CONTINUOUS
10
92.6496
20
-66.7271
11
92.7266
21
-66.6756
0
LINE
8
BLACK
6
CONTINUOUS
10
92.7266
20
-66.6756
11
92.8175
21
-66.6575
0
LINE
8
BLACK
6
CONTINUOUS
10
92.8175
20
-66.6575
11
93.4175
21
-66.6575
0
LINE
8
BLACK
6
CONTINUOUS
10
93.4175
20
-66.6575
11
93.5084
21
-66.6756
0
LINE
8
BLACK
6
CONTINUOUS
10
99.6784
20
-66.6756
11
99.7554
21
-66.7271
0
LINE
8
BLACK
6
CONTINUOUS
10
99.7554
20
-66.7271
11
99.8069
21
-66.8041
0
LINE
8
BLACK
6
CONTINUOUS
10
99.8069
20
-66.8041
11
99.825
21
-66.895
0
LINE
8
BLACK
6
CONTINUOUS
10
99.825
20
-66.895
11
99.825
21
-67.37
0
LINE
8
BLACK
6
CONTINUOUS
10
99.825
20
-67.37
11
99.8069
21
-67.4609
0
LINE
8
BLACK
6
CONTINUOUS
10
99.8069
20
-67.4609
11
99.7554
21
-67.5379
0
LINE
8
BLACK
6
CONTINUOUS
10
99.7554
20
-67.5379
11
99.6784
21
-67.5894
0
LINE
8
BLACK
6
CONTINUOUS
10
99.6784
20
-67.5894
11
99.5875
21
-67.6075
0
LINE
8
BLACK
6
CONTINUOUS
10
99.5875
20
-67.6075
11
98.9875
21
-67.6075
0
LINE
8
BLACK
6
CONTINUOUS
10
98.9875
20
-67.6075
11
98.8966
21
-67.5894
0
LINE
8
BLACK
6
CONTINUOUS
10
98.8966
20
-67.5894
11
98.8196
21
-67.5379
0
LINE
8
BLACK
6
CONTINUOUS
10
98.8196
20
-67.5379
11
98.7681
21
-67.4609
0
LINE
8
BLACK
6
CONTINUOUS
10
98.7681
20
-67.4609
11
98.75
21
-67.37
0
LINE
8
BLACK
6
CONTINUOUS
10
98.75
20
-67.37
11
98.75
21
-66.895
0
LINE
8
BLACK
6
CONTINUOUS
10
98.75
20
-66.895
11
98.7681
21
-66.8041
0
LINE
8
BLACK
6
CONTINUOUS
10
98.7681
20
-66.8041
11
98.8196
21
-66.7271
0
LINE
8
BLACK
6
CONTINUOUS
10
98.8196
20
-66.7271
11
98.8966
21
-66.6756
0
LINE
8
BLACK
6
CONTINUOUS
10
98.8966
20
-66.6756
11
98.9875
21
-66.6575
0
LINE
8
BLACK
6
CONTINUOUS
10
98.9875
20
-66.6575
11
99.5875
21
-66.6575
0
LINE
8
BLACK
6
CONTINUOUS
10
99.5875
20
-66.6575
11
99.6784
21
-66.6756
0
LINE
8
BLACK
6
CONTINUOUS
10
97.9534
20
-66.6756
11
98.0304
21
-66.7271
0
LINE
8
BLACK
6
CONTINUOUS
10
98.0304
20
-66.7271
11
98.0819
21
-66.8041
0
LINE
8
BLACK
6
CONTINUOUS
10
98.0819
20
-66.8041
11
98.1
21
-66.895
0
LINE
8
BLACK
6
CONTINUOUS
10
98.1
20
-66.895
11
98.1
21
-67.37
0
LINE
8
BLACK
6
CONTINUOUS
10
98.1
20
-67.37
11
98.0819
21
-67.4609
0
LINE
8
BLACK
6
CONTINUOUS
10
98.0819
20
-67.4609
11
98.0304
21
-67.5379
0
LINE
8
BLACK
6
CONTINUOUS
10
98.0304
20
-67.5379
11
97.9534
21
-67.5894
0
LINE
8
BLACK
6
CONTINUOUS
10
97.9534
20
-67.5894
11
97.8625
21
-67.6075
0
LINE
8
BLACK
6
CONTINUOUS
10
97.8625
20
-67.6075
11
97.2625
21
-67.6075
0
LINE
8
BLACK
6
CONTINUOUS
10
97.2625
20
-67.6075
11
97.1716
21
-67.5894
0
LINE
8
BLACK
6
CONTINUOUS
10
97.1716
20
-67.5894
11
97.0946
21
-67.5379
0
LINE
8
BLACK
6
CONTINUOUS
10
97.0946
20
-67.5379
11
97.0431
21
-67.4609
0
LINE
8
BLACK
6
CONTINUOUS
10
97.0431
20
-67.4609
11
97.025
21
-67.37
0
LINE
8
BLACK
6
CONTINUOUS
10
97.025
20
-67.37
11
97.025
21
-66.895
0
LINE
8
BLACK
6
CONTINUOUS
10
97.025
20
-66.895
11
97.0431
21
-66.8041
0
LINE
8
BLACK
6
CONTINUOUS
10
97.0431
20
-66.8041
11
97.0946
21
-66.7271
0
LINE
8
BLACK
6
CONTINUOUS
10
97.0946
20
-66.7271
11
97.1716
21
-66.6756
0
LINE
8
BLACK
6
CONTINUOUS
10
97.1716
20
-66.6756
11
97.2625
21
-66.6575
0
LINE
8
BLACK
6
CONTINUOUS
10
97.2625
20
-66.6575
11
97.8625
21
-66.6575
0
LINE
8
BLACK
6
CONTINUOUS
10
97.8625
20
-66.6575
11
97.9534
21
-66.6756
0
LINE
8
BLACK
6
CONTINUOUS
10
95.2334
20
-64.7706
11
95.3104
21
-64.8221
0
LINE
8
BLACK
6
CONTINUOUS
10
95.3104
20
-64.8221
11
95.3619
21
-64.8991
0
LINE
8
BLACK
6
CONTINUOUS
10
95.3619
20
-64.8991
11
95.38
21
-64.99
0
LINE
8
BLACK
6
CONTINUOUS
10
95.38
20
-64.99
11
95.38
21
-65.465
0
LINE
8
BLACK
6
CONTINUOUS
10
95.38
20
-65.465
11
95.3619
21
-65.5559
0
LINE
8
BLACK
6
CONTINUOUS
10
95.3619
20
-65.5559
11
95.3104
21
-65.6329
0
LINE
8
BLACK
6
CONTINUOUS
10
95.3104
20
-65.6329
11
95.2334
21
-65.6844
0
LINE
8
BLACK
6
CONTINUOUS
10
95.2334
20
-65.6844
11
95.1425
21
-65.7025
0
LINE
8
BLACK
6
CONTINUOUS
10
95.1425
20
-65.7025
11
94.5675
21
-65.7025
0
LINE
8
BLACK
6
CONTINUOUS
10
94.5675
20
-65.7025
11
94.4766
21
-65.6844
0
LINE
8
BLACK
6
CONTINUOUS
10
94.4766
20
-65.6844
11
94.3996
21
-65.6329
0
LINE
8
BLACK
6
CONTINUOUS
10
94.3996
20
-65.6329
11
94.3481
21
-65.5559
0
LINE
8
BLACK
6
CONTINUOUS
10
94.3481
20
-65.5559
11
94.33
21
-65.465
0
LINE
8
BLACK
6
CONTINUOUS
10
94.33
20
-65.465
11
94.33
21
-64.99
0
LINE
8
BLACK
6
CONTINUOUS
10
94.33
20
-64.99
11
94.3481
21
-64.8991
0
LINE
8
BLACK
6
CONTINUOUS
10
94.3481
20
-64.8991
11
94.3996
21
-64.8221
0
LINE
8
BLACK
6
CONTINUOUS
10
94.3996
20
-64.8221
11
94.4766
21
-64.7706
0
LINE
8
BLACK
6
CONTINUOUS
10
94.4766
20
-64.7706
11
94.5675
21
-64.7525
0
LINE
8
BLACK
6
CONTINUOUS
10
94.5675
20
-64.7525
11
95.1425
21
-64.7525
0
LINE
8
BLACK
6
CONTINUOUS
10
95.1425
20
-64.7525
11
95.2334
21
-64.7706
0
LINE
8
BLACK
6
CONTINUOUS
10
93.4834
20
-64.7706
11
93.5604
21
-64.8221
0
LINE
8
BLACK
6
CONTINUOUS
10
93.5604
20
-64.8221
11
93.6119
21
-64.8991
0
LINE
8
BLACK
6
CONTINUOUS
10
93.6119
20
-64.8991
11
93.63
21
-64.99
0
LINE
8
BLACK
6
CONTINUOUS
10
93.63
20
-64.99
11
93.63
21
-65.465
0
LINE
8
BLACK
6
CONTINUOUS
10
93.63
20
-65.465
11
93.6119
21
-65.5559
0
LINE
8
BLACK
6
CONTINUOUS
10
93.6119
20
-65.5559
11
93.5604
21
-65.6329
0
LINE
8
BLACK
6
CONTINUOUS
10
93.5604
20
-65.6329
11
93.4834
21
-65.6844
0
LINE
8
BLACK
6
CONTINUOUS
10
93.4834
20
-65.6844
11
93.3925
21
-65.7025
0
LINE
8
BLACK
6
CONTINUOUS
10
93.3925
20
-65.7025
11
92.8175
21
-65.7025
0
LINE
8
BLACK
6
CONTINUOUS
10
92.8175
20
-65.7025
11
92.7266
21
-65.6844
0
LINE
8
BLACK
6
CONTINUOUS
10
92.7266
20
-65.6844
11
92.6496
21
-65.6329
0
LINE
8
BLACK
6
CONTINUOUS
10
92.6496
20
-65.6329
11
92.5981
21
-65.5559
0
LINE
8
BLACK
6
CONTINUOUS
10
92.5981
20
-65.5559
11
92.58
21
-65.465
0
LINE
8
BLACK
6
CONTINUOUS
10
92.58
20
-65.465
11
92.58
21
-64.99
0
LINE
8
BLACK
6
CONTINUOUS
10
92.58
20
-64.99
11
92.5981
21
-64.8991
0
LINE
8
BLACK
6
CONTINUOUS
10
92.5981
20
-64.8991
11
92.6496
21
-64.8221
0
LINE
8
BLACK
6
CONTINUOUS
10
92.6496
20
-64.8221
11
92.7266
21
-64.7706
0
LINE
8
BLACK
6
CONTINUOUS
10
92.7266
20
-64.7706
11
92.8175
21
-64.7525
0
LINE
8
BLACK
6
CONTINUOUS
10
92.8175
20
-64.7525
11
93.3925
21
-64.7525
0
LINE
8
BLACK
6
CONTINUOUS
10
93.3925
20
-64.7525
11
93.4834
21
-64.7706
0
LINE
8
BLACK
6
CONTINUOUS
10
64.7534
20
-63.6781
11
64.8304
21
-63.7296
0
LINE
8
BLACK
6
CONTINUOUS
10
64.8304
20
-63.7296
11
64.8819
21
-63.8066
0
LINE
8
BLACK
6
CONTINUOUS
10
64.8819
20
-63.8066
11
64.9
21
-63.8975
0
LINE
8
BLACK
6
CONTINUOUS
10
64.9
20
-63.8975
11
64.9
21
-64.3725
0
LINE
8
BLACK
6
CONTINUOUS
10
64.9
20
-64.3725
11
64.8819
21
-64.4634
0
LINE
8
BLACK
6
CONTINUOUS
10
64.8819
20
-64.4634
11
64.8304
21
-64.5404
0
LINE
8
BLACK
6
CONTINUOUS
10
64.8304
20
-64.5404
11
64.7534
21
-64.5919
0
LINE
8
BLACK
6
CONTINUOUS
10
64.7534
20
-64.5919
11
64.6625
21
-64.61
0
LINE
8
BLACK
6
CONTINUOUS
10
64.6625
20
-64.61
11
64.1625
21
-64.61
0
LINE
8
BLACK
6
CONTINUOUS
10
64.1625
20
-64.61
11
64.0716
21
-64.5919
0
LINE
8
BLACK
6
CONTINUOUS
10
64.0716
20
-64.5919
11
63.9946
21
-64.5404
0
LINE
8
BLACK
6
CONTINUOUS
10
63.9946
20
-64.5404
11
63.9431
21
-64.4634
0
LINE
8
BLACK
6
CONTINUOUS
10
63.9431
20
-64.4634
11
63.925
21
-64.3725
0
LINE
8
BLACK
6
CONTINUOUS
10
63.925
20
-64.3725
11
63.925
21
-63.8975
0
LINE
8
BLACK
6
CONTINUOUS
10
63.925
20
-63.8975
11
63.9431
21
-63.8066
0
LINE
8
BLACK
6
CONTINUOUS
10
63.9431
20
-63.8066
11
63.9946
21
-63.7296
0
LINE
8
BLACK
6
CONTINUOUS
10
63.9946
20
-63.7296
11
64.0716
21
-63.6781
0
LINE
8
BLACK
6
CONTINUOUS
10
64.0716
20
-63.6781
11
64.1625
21
-63.66
0
LINE
8
BLACK
6
CONTINUOUS
10
64.1625
20
-63.66
11
64.6625
21
-63.66
0
LINE
8
BLACK
6
CONTINUOUS
10
64.6625
20
-63.66
11
64.7534
21
-63.6781
0
LINE
8
BLACK
6
CONTINUOUS
10
70.6234
20
-63.6781
11
70.7004
21
-63.7296
0
LINE
8
BLACK
6
CONTINUOUS
10
70.7004
20
-63.7296
11
70.7519
21
-63.8066
0
LINE
8
BLACK
6
CONTINUOUS
10
70.7519
20
-63.8066
11
70.77
21
-63.8975
0
LINE
8
BLACK
6
CONTINUOUS
10
70.77
20
-63.8975
11
70.77
21
-64.3725
0
LINE
8
BLACK
6
CONTINUOUS
10
70.77
20
-64.3725
11
70.7519
21
-64.4634
0
LINE
8
BLACK
6
CONTINUOUS
10
70.7519
20
-64.4634
11
70.7004
21
-64.5404
0
LINE
8
BLACK
6
CONTINUOUS
10
70.7004
20
-64.5404
11
70.6234
21
-64.5919
0
LINE
8
BLACK
6
CONTINUOUS
10
70.6234
20
-64.5919
11
70.5325
21
-64.61
0
LINE
8
BLACK
6
CONTINUOUS
10
70.5325
20
-64.61
11
69.9575
21
-64.61
0
LINE
8
BLACK
6
CONTINUOUS
10
69.9575
20
-64.61
11
69.8666
21
-64.5919
0
LINE
8
BLACK
6
CONTINUOUS
10
69.8666
20
-64.5919
11
69.7896
21
-64.5404
0
LINE
8
BLACK
6
CONTINUOUS
10
69.7896
20
-64.5404
11
69.7381
21
-64.4634
0
LINE
8
BLACK
6
CONTINUOUS
10
69.7381
20
-64.4634
11
69.72
21
-64.3725
0
LINE
8
BLACK
6
CONTINUOUS
10
69.72
20
-64.3725
11
69.72
21
-63.8975
0
LINE
8
BLACK
6
CONTINUOUS
10
69.72
20
-63.8975
11
69.7381
21
-63.8066
0
LINE
8
BLACK
6
CONTINUOUS
10
69.7381
20
-63.8066
11
69.7896
21
-63.7296
0
LINE
8
BLACK
6
CONTINUOUS
10
69.7896
20
-63.7296
11
69.8666
21
-63.6781
0
LINE
8
BLACK
6
CONTINUOUS
10
69.8666
20
-63.6781
11
69.9575
21
-63.66
0
LINE
8
BLACK
6
CONTINUOUS
10
69.9575
20
-63.66
11
70.5325
21
-63.66
0
LINE
8
BLACK
6
CONTINUOUS
10
70.5325
20
-63.66
11
70.6234
21
-63.6781
0
LINE
8
BLACK
6
CONTINUOUS
10
62.9284
20
-63.6781
11
63.0054
21
-63.7296
0
LINE
8
BLACK
6
CONTINUOUS
10
63.0054
20
-63.7296
11
63.0569
21
-63.8066
0
LINE
8
BLACK
6
CONTINUOUS
10
63.0569
20
-63.8066
11
63.075
21
-63.8975
0
LINE
8
BLACK
6
CONTINUOUS
10
63.075
20
-63.8975
11
63.075
21
-64.3725
0
LINE
8
BLACK
6
CONTINUOUS
10
63.075
20
-64.3725
11
63.0569
21
-64.4634
0
LINE
8
BLACK
6
CONTINUOUS
10
63.0569
20
-64.4634
11
63.0054
21
-64.5404
0
LINE
8
BLACK
6
CONTINUOUS
10
63.0054
20
-64.5404
11
62.9284
21
-64.5919
0
LINE
8
BLACK
6
CONTINUOUS
10
62.9284
20
-64.5919
11
62.8375
21
-64.61
0
LINE
8
BLACK
6
CONTINUOUS
10
62.8375
20
-64.61
11
62.3375
21
-64.61
0
LINE
8
BLACK
6
CONTINUOUS
10
62.3375
20
-64.61
11
62.2466
21
-64.5919
0
LINE
8
BLACK
6
CONTINUOUS
10
62.2466
20
-64.5919
11
62.1696
21
-64.5404
0
LINE
8
BLACK
6
CONTINUOUS
10
62.1696
20
-64.5404
11
62.1181
21
-64.4634
0
LINE
8
BLACK
6
CONTINUOUS
10
62.1181
20
-64.4634
11
62.1
21
-64.3725
0
LINE
8
BLACK
6
CONTINUOUS
10
62.1
20
-64.3725
11
62.1
21
-63.8975
0
LINE
8
BLACK
6
CONTINUOUS
10
62.1
20
-63.8975
11
62.1181
21
-63.8066
0
LINE
8
BLACK
6
CONTINUOUS
10
62.1181
20
-63.8066
11
62.1696
21
-63.7296
0
LINE
8
BLACK
6
CONTINUOUS
10
62.1696
20
-63.7296
11
62.2466
21
-63.6781
0
LINE
8
BLACK
6
CONTINUOUS
10
62.2466
20
-63.6781
11
62.3375
21
-63.66
0
LINE
8
BLACK
6
CONTINUOUS
10
62.3375
20
-63.66
11
62.8375
21
-63.66
0
LINE
8
BLACK
6
CONTINUOUS
10
62.8375
20
-63.66
11
62.9284
21
-63.6781
0
LINE
8
BLACK
6
CONTINUOUS
10
77.4534
20
-63.6781
11
77.5304
21
-63.7296
0
LINE
8
BLACK
6
CONTINUOUS
10
77.5304
20
-63.7296
11
77.5819
21
-63.8066
0
LINE
8
BLACK
6
CONTINUOUS
10
77.5819
20
-63.8066
11
77.6
21
-63.8975
0
LINE
8
BLACK
6
CONTINUOUS
10
77.6
20
-63.8975
11
77.6
21
-64.3725
0
LINE
8
BLACK
6
CONTINUOUS
10
77.6
20
-64.3725
11
77.5819
21
-64.4634
0
LINE
8
BLACK
6
CONTINUOUS
10
77.5819
20
-64.4634
11
77.5304
21
-64.5404
0
LINE
8
BLACK
6
CONTINUOUS
10
77.5304
20
-64.5404
11
77.4534
21
-64.5919
0
LINE
8
BLACK
6
CONTINUOUS
10
77.4534
20
-64.5919
11
77.3625
21
-64.61
0
LINE
8
BLACK
6
CONTINUOUS
10
77.3625
20
-64.61
11
76.8625
21
-64.61
0
LINE
8
BLACK
6
CONTINUOUS
10
76.8625
20
-64.61
11
76.7716
21
-64.5919
0
LINE
8
BLACK
6
CONTINUOUS
10
76.7716
20
-64.5919
11
76.6946
21
-64.5404
0
LINE
8
BLACK
6
CONTINUOUS
10
76.6946
20
-64.5404
11
76.6431
21
-64.4634
0
LINE
8
BLACK
6
CONTINUOUS
10
76.6431
20
-64.4634
11
76.625
21
-64.3725
0
LINE
8
BLACK
6
CONTINUOUS
10
76.625
20
-64.3725
11
76.625
21
-63.8975
0
LINE
8
BLACK
6
CONTINUOUS
10
76.625
20
-63.8975
11
76.6431
21
-63.8066
0
LINE
8
BLACK
6
CONTINUOUS
10
76.6431
20
-63.8066
11
76.6946
21
-63.7296
0
LINE
8
BLACK
6
CONTINUOUS
10
76.6946
20
-63.7296
11
76.7716
21
-63.6781
0
LINE
8
BLACK
6
CONTINUOUS
10
76.7716
20
-63.6781
11
76.8625
21
-63.66
0
LINE
8
BLACK
6
CONTINUOUS
10
76.8625
20
-63.66
11
77.3625
21
-63.66
0
LINE
8
BLACK
6
CONTINUOUS
10
77.3625
20
-63.66
11
77.4534
21
-63.6781
0
LINE
8
BLACK
6
CONTINUOUS
10
75.6284
20
-63.6781
11
75.7054
21
-63.7296
0
LINE
8
BLACK
6
CONTINUOUS
10
75.7054
20
-63.7296
11
75.7569
21
-63.8066
0
LINE
8
BLACK
6
CONTINUOUS
10
75.7569
20
-63.8066
11
75.775
21
-63.8975
0
LINE
8
BLACK
6
CONTINUOUS
10
75.775
20
-63.8975
11
75.775
21
-64.3725
0
LINE
8
BLACK
6
CONTINUOUS
10
75.775
20
-64.3725
11
75.7569
21
-64.4634
0
LINE
8
BLACK
6
CONTINUOUS
10
75.7569
20
-64.4634
11
75.7054
21
-64.5404
0
LINE
8
BLACK
6
CONTINUOUS
10
75.7054
20
-64.5404
11
75.6284
21
-64.5919
0
LINE
8
BLACK
6
CONTINUOUS
10
75.6284
20
-64.5919
11
75.5375
21
-64.61
0
LINE
8
BLACK
6
CONTINUOUS
10
75.5375
20
-64.61
11
75.0375
21
-64.61
0
LINE
8
BLACK
6
CONTINUOUS
10
75.0375
20
-64.61
11
74.9466
21
-64.5919
0
LINE
8
BLACK
6
CONTINUOUS
10
74.9466
20
-64.5919
11
74.8696
21
-64.5404
0
LINE
8
BLACK
6
CONTINUOUS
10
74.8696
20
-64.5404
11
74.8181
21
-64.4634
0
LINE
8
BLACK
6
CONTINUOUS
10
74.8181
20
-64.4634
11
74.8
21
-64.3725
0
LINE
8
BLACK
6
CONTINUOUS
10
74.8
20
-64.3725
11
74.8
21
-63.8975
0
LINE
8
BLACK
6
CONTINUOUS
10
74.8
20
-63.8975
11
74.8181
21
-63.8066
0
LINE
8
BLACK
6
CONTINUOUS
10
74.8181
20
-63.8066
11
74.8696
21
-63.7296
0
LINE
8
BLACK
6
CONTINUOUS
10
74.8696
20
-63.7296
11
74.9466
21
-63.6781
0
LINE
8
BLACK
6
CONTINUOUS
10
74.9466
20
-63.6781
11
75.0375
21
-63.66
0
LINE
8
BLACK
6
CONTINUOUS
10
75.0375
20
-63.66
11
75.5375
21
-63.66
0
LINE
8
BLACK
6
CONTINUOUS
10
75.5375
20
-63.66
11
75.6284
21
-63.6781
0
LINE
8
BLACK
6
CONTINUOUS
10
59.6734
20
-63.6781
11
59.7504
21
-63.7296
0
LINE
8
BLACK
6
CONTINUOUS
10
59.7504
20
-63.7296
11
59.8019
21
-63.8066
0
LINE
8
BLACK
6
CONTINUOUS
10
59.8019
20
-63.8066
11
59.82
21
-63.8975
0
LINE
8
BLACK
6
CONTINUOUS
10
59.82
20
-63.8975
11
59.82
21
-64.3725
0
LINE
8
BLACK
6
CONTINUOUS
10
59.82
20
-64.3725
11
59.8019
21
-64.4634
0
LINE
8
BLACK
6
CONTINUOUS
10
59.8019
20
-64.4634
11
59.7504
21
-64.5404
0
LINE
8
BLACK
6
CONTINUOUS
10
59.7504
20
-64.5404
11
59.6734
21
-64.5919
0
LINE
8
BLACK
6
CONTINUOUS
10
59.6734
20
-64.5919
11
59.5825
21
-64.61
0
LINE
8
BLACK
6
CONTINUOUS
10
59.5825
20
-64.61
11
59.0075
21
-64.61
0
LINE
8
BLACK
6
CONTINUOUS
10
59.0075
20
-64.61
11
58.9166
21
-64.5919
0
LINE
8
BLACK
6
CONTINUOUS
10
58.9166
20
-64.5919
11
58.8396
21
-64.5404
0
LINE
8
BLACK
6
CONTINUOUS
10
58.8396
20
-64.5404
11
58.7881
21
-64.4634
0
LINE
8
BLACK
6
CONTINUOUS
10
58.7881
20
-64.4634
11
58.77
21
-64.3725
0
LINE
8
BLACK
6
CONTINUOUS
10
58.77
20
-64.3725
11
58.77
21
-63.8975
0
LINE
8
BLACK
6
CONTINUOUS
10
58.77
20
-63.8975
11
58.7881
21
-63.8066
0
LINE
8
BLACK
6
CONTINUOUS
10
58.7881
20
-63.8066
11
58.8396
21
-63.7296
0
LINE
8
BLACK
6
CONTINUOUS
10
58.8396
20
-63.7296
11
58.9166
21
-63.6781
0
LINE
8
BLACK
6
CONTINUOUS
10
58.9166
20
-63.6781
11
59.0075
21
-63.66
0
LINE
8
BLACK
6
CONTINUOUS
10
59.0075
20
-63.66
11
59.5825
21
-63.66
0
LINE
8
BLACK
6
CONTINUOUS
10
59.5825
20
-63.66
11
59.6734
21
-63.6781
0
LINE
8
BLACK
6
CONTINUOUS
10
57.9234
20
-63.6781
11
58.0004
21
-63.7296
0
LINE
8
BLACK
6
CONTINUOUS
10
58.0004
20
-63.7296
11
58.0519
21
-63.8066
0
LINE
8
BLACK
6
CONTINUOUS
10
58.0519
20
-63.8066
11
58.07
21
-63.8975
0
LINE
8
BLACK
6
CONTINUOUS
10
58.07
20
-63.8975
11
58.07
21
-64.3725
0
LINE
8
BLACK
6
CONTINUOUS
10
58.07
20
-64.3725
11
58.0519
21
-64.4634
0
LINE
8
BLACK
6
CONTINUOUS
10
58.0519
20
-64.4634
11
58.0004
21
-64.5404
0
LINE
8
BLACK
6
CONTINUOUS
10
58.0004
20
-64.5404
11
57.9234
21
-64.5919
0
LINE
8
BLACK
6
CONTINUOUS
10
57.9234
20
-64.5919
11
57.8325
21
-64.61
0
LINE
8
BLACK
6
CONTINUOUS
10
57.8325
20
-64.61
11
57.2575
21
-64.61
0
LINE
8
BLACK
6
CONTINUOUS
10
57.2575
20
-64.61
11
57.1666
21
-64.5919
0
LINE
8
BLACK
6
CONTINUOUS
10
57.1666
20
-64.5919
11
57.0896
21
-64.5404
0
LINE
8
BLACK
6
CONTINUOUS
10
57.0896
20
-64.5404
11
57.0381
21
-64.4634
0
LINE
8
BLACK
6
CONTINUOUS
10
57.0381
20
-64.4634
11
57.02
21
-64.3725
0
LINE
8
BLACK
6
CONTINUOUS
10
57.02
20
-64.3725
11
57.02
21
-63.8975
0
LINE
8
BLACK
6
CONTINUOUS
10
57.02
20
-63.8975
11
57.0381
21
-63.8066
0
LINE
8
BLACK
6
CONTINUOUS
10
57.0381
20
-63.8066
11
57.0896
21
-63.7296
0
LINE
8
BLACK
6
CONTINUOUS
10
57.0896
20
-63.7296
11
57.1666
21
-63.6781
0
LINE
8
BLACK
6
CONTINUOUS
10
57.1666
20
-63.6781
11
57.2575
21
-63.66
0
LINE
8
BLACK
6
CONTINUOUS
10
57.2575
20
-63.66
11
57.8325
21
-63.66
0
LINE
8
BLACK
6
CONTINUOUS
10
57.8325
20
-63.66
11
57.9234
21
-63.6781
0
LINE
8
BLACK
6
CONTINUOUS
10
72.3734
20
-63.6781
11
72.4504
21
-63.7296
0
LINE
8
BLACK
6
CONTINUOUS
10
72.4504
20
-63.7296
11
72.5019
21
-63.8066
0
LINE
8
BLACK
6
CONTINUOUS
10
72.5019
20
-63.8066
11
72.52
21
-63.8975
0
LINE
8
BLACK
6
CONTINUOUS
10
72.52
20
-63.8975
11
72.52
21
-64.3725
0
LINE
8
BLACK
6
CONTINUOUS
10
72.52
20
-64.3725
11
72.5019
21
-64.4634
0
LINE
8
BLACK
6
CONTINUOUS
10
72.5019
20
-64.4634
11
72.4504
21
-64.5404
0
LINE
8
BLACK
6
CONTINUOUS
10
72.4504
20
-64.5404
11
72.3734
21
-64.5919
0
LINE
8
BLACK
6
CONTINUOUS
10
72.3734
20
-64.5919
11
72.2825
21
-64.61
0
LINE
8
BLACK
6
CONTINUOUS
10
72.2825
20
-64.61
11
71.7075
21
-64.61
0
LINE
8
BLACK
6
CONTINUOUS
10
71.7075
20
-64.61
11
71.6166
21
-64.5919
0
LINE
8
BLACK
6
CONTINUOUS
10
71.6166
20
-64.5919
11
71.5396
21
-64.5404
0
LINE
8
BLACK
6
CONTINUOUS
10
71.5396
20
-64.5404
11
71.4881
21
-64.4634
0
LINE
8
BLACK
6
CONTINUOUS
10
71.4881
20
-64.4634
11
71.47
21
-64.3725
0
LINE
8
BLACK
6
CONTINUOUS
10
71.47
20
-64.3725
11
71.47
21
-63.8975
0
LINE
8
BLACK
6
CONTINUOUS
10
71.47
20
-63.8975
11
71.4881
21
-63.8066
0
LINE
8
BLACK
6
CONTINUOUS
10
71.4881
20
-63.8066
11
71.5396
21
-63.7296
0
LINE
8
BLACK
6
CONTINUOUS
10
71.5396
20
-63.7296
11
71.6166
21
-63.6781
0
LINE
8
BLACK
6
CONTINUOUS
10
71.6166
20
-63.6781
11
71.7075
21
-63.66
0
LINE
8
BLACK
6
CONTINUOUS
10
71.7075
20
-63.66
11
72.2825
21
-63.66
0
LINE
8
BLACK
6
CONTINUOUS
10
72.2825
20
-63.66
11
72.3734
21
-63.6781
0
LINE
8
BLACK
6
CONTINUOUS
10
49.6496
20
-102.558
11
49.3026
21
-102.506
0
LINE
8
BLACK
6
CONTINUOUS
10
49.3026
20
-102.506
11
48.9622
21
-102.421
0
LINE
8
BLACK
6
CONTINUOUS
10
48.9622
20
-102.421
11
48.6319
21
-102.303
0
LINE
8
BLACK
6
CONTINUOUS
10
48.6319
20
-102.303
11
48.3148
21
-102.153
0
LINE
8
BLACK
6
CONTINUOUS
10
48.3148
20
-102.153
11
48.0138
21
-101.973
0
LINE
8
BLACK
6
CONTINUOUS
10
48.0138
20
-101.973
11
47.732
21
-101.764
0
LINE
8
BLACK
6
CONTINUOUS
10
47.732
20
-101.764
11
47.4721
21
-101.528
0
LINE
8
BLACK
6
CONTINUOUS
10
47.4721
20
-101.528
11
47.2365
21
-101.268
0
LINE
8
BLACK
6
CONTINUOUS
10
47.2365
20
-101.268
11
47.0275
21
-100.986
0
LINE
8
BLACK
6
CONTINUOUS
10
47.0275
20
-100.986
11
46.8471
21
-100.685
0
LINE
8
BLACK
6
CONTINUOUS
10
46.8471
20
-100.685
11
46.6971
21
-100.368
0
LINE
8
BLACK
6
CONTINUOUS
10
46.6971
20
-100.368
11
46.5789
21
-100.038
0
LINE
8
BLACK
6
CONTINUOUS
10
46.5789
20
-100.038
11
46.4937
21
-99.6974
0
LINE
8
BLACK
6
CONTINUOUS
10
46.4937
20
-99.6974
11
46.4422
21
-99.3504
0
LINE
8
BLACK
6
CONTINUOUS
10
46.4422
20
-99.3504
11
46.425
21
-99
0
LINE
8
BLACK
6
CONTINUOUS
10
46.425
20
-99
11
46.425
21
-50
0
LINE
8
BLACK
6
CONTINUOUS
10
46.425
20
-50
11
46.4422
21
-49.6496
0
LINE
8
BLACK
6
CONTINUOUS
10
46.4422
20
-49.6496
11
46.4937
21
-49.3026
0
LINE
8
BLACK
6
CONTINUOUS
10
46.4937
20
-49.3026
11
46.5789
21
-48.9622
0
LINE
8
BLACK
6
CONTINUOUS
10
46.5789
20
-48.9622
11
46.6971
21
-48.6319
0
LINE
8
BLACK
6
CONTINUOUS
10
46.6971
20
-48.6319
11
46.8471
21
-48.3148
0
LINE
8
BLACK
6
CONTINUOUS
10
46.8471
20
-48.3148
11
47.0275
21
-48.0138
0
LINE
8
BLACK
6
CONTINUOUS
10
47.0275
20
-48.0138
11
47.2365
21
-47.732
0
LINE
8
BLACK
6
CONTINUOUS
10
47.2365
20
-47.732
11
47.4721
21
-47.4721
0
LINE
8
BLACK
6
CONTINUOUS
10
47.4721
20
-47.4721
11
47.732
21
-47.2365
0
LINE
8
BLACK
6
CONTINUOUS
10
47.732
20
-47.2365
11
48.0138
21
-47.0275
0
LINE
8
BLACK
6
CONTINUOUS
10
48.0138
20
-47.0275
11
48.3148
21
-46.8471
0
LINE
8
BLACK
6
CONTINUOUS
10
48.3148
20
-46.8471
11
48.6319
21
-46.6971
0
LINE
8
BLACK
6
CONTINUOUS
10
48.6319
20
-46.6971
11
48.9622
21
-46.5789
0
LINE
8
BLACK
6
CONTINUOUS
10
48.9622
20
-46.5789
11
49.3026
21
-46.4937
0
LINE
8
BLACK
6
CONTINUOUS
10
49.3026
20
-46.4937
11
49.6496
21
-46.4422
0
LINE
8
BLACK
6
CONTINUOUS
10
49.6496
20
-46.4422
11
50
21
-46.425
0
LINE
8
BLACK
6
CONTINUOUS
10
50
20
-46.425
11
108
21
-46.425
0
LINE
8
BLACK
6
CONTINUOUS
10
108
20
-46.425
11
108.35
21
-46.4422
0
LINE
8
BLACK
6
CONTINUOUS
10
108.35
20
-46.4422
11
108.697
21
-46.4937
0
LINE
8
BLACK
6
CONTINUOUS
10
108.697
20
-46.4937
11
109.038
21
-46.5789
0
LINE
8
BLACK
6
CONTINUOUS
10
109.038
20
-46.5789
11
109.368
21
-46.6971
0
LINE
8
BLACK
6
CONTINUOUS
10
109.368
20
-46.6971
11
109.685
21
-46.8471
0
LINE
8
BLACK
6
CONTINUOUS
10
109.685
20
-46.8471
11
109.986
21
-47.0275
0
LINE
8
BLACK
6
CONTINUOUS
10
109.986
20
-47.0275
11
110.268
21
-47.2365
0
LINE
8
BLACK
6
CONTINUOUS
10
110.268
20
-47.2365
11
110.528
21
-47.4721
0
LINE
8
BLACK
6
CONTINUOUS
10
110.528
20
-47.4721
11
110.764
21
-47.732
0
LINE
8
BLACK
6
CONTINUOUS
10
110.764
20
-47.732
11
110.973
21
-48.0138
0
LINE
8
BLACK
6
CONTINUOUS
10
110.973
20
-48.0138
11
111.153
21
-48.3148
0
LINE
8
BLACK
6
CONTINUOUS
10
111.153
20
-48.3148
11
111.303
21
-48.6319
0
LINE
8
BLACK
6
CONTINUOUS
10
111.303
20
-48.6319
11
111.421
21
-48.9622
0
LINE
8
BLACK
6
CONTINUOUS
10
111.421
20
-48.9622
11
111.506
21
-49.3026
0
LINE
8
BLACK
6
CONTINUOUS
10
111.506
20
-49.3026
11
111.558
21
-49.6496
0
LINE
8
BLACK
6
CONTINUOUS
10
111.558
20
-49.6496
11
111.575
21
-50
0
LINE
8
BLACK
6
CONTINUOUS
10
111.575
20
-50
11
111.575
21
-99
0
LINE
8
BLACK
6
CONTINUOUS
10
111.575
20
-99
11
111.558
21
-99.3504
0
LINE
8
BLACK
6
CONTINUOUS
10
111.558
20
-99.3504
11
111.506
21
-99.6974
0
LINE
8
BLACK
6
CONTINUOUS
10
111.506
20
-99.6974
11
111.421
21
-100.038
0
LINE
8
BLACK
6
CONTINUOUS
10
111.421
20
-100.038
11
111.303
21
-100.368
0
LINE
8
BLACK
6
CONTINUOUS
10
111.303
20
-100.368
11
111.153
21
-100.685
0
LINE
8
BLACK
6
CONTINUOUS
10
111.153
20
-100.685
11
110.973
21
-100.986
0
LINE
8
BLACK
6
CONTINUOUS
10
110.973
20
-100.986
11
110.764
21
-101.268
0
LINE
8
BLACK
6
CONTINUOUS
10
110.764
20
-101.268
11
110.528
21
-101.528
0
LINE
8
BLACK
6
CONTINUOUS
10
110.528
20
-101.528
11
110.268
21
-101.764
0
LINE
8
BLACK
6
CONTINUOUS
10
110.268
20
-101.764
11
109.986
21
-101.973
0
LINE
8
BLACK
6
CONTINUOUS
10
109.986
20
-101.973
11
109.685
21
-102.153
0
LINE
8
BLACK
6
CONTINUOUS
10
109.685
20
-102.153
11
109.368
21
-102.303
0
LINE
8
BLACK
6
CONTINUOUS
10
109.368
20
-102.303
11
109.038
21
-102.421
0
LINE
8
BLACK
6
CONTINUOUS
10
109.038
20
-102.421
11
108.697
21
-102.506
0
LINE
8
BLACK
6
CONTINUOUS
10
108.697
20
-102.506
11
108.35
21
-102.558
0
LINE
8
BLACK
6
CONTINUOUS
10
108.35
20
-102.558
11
108
21
-102.575
0
LINE
8
BLACK
6
CONTINUOUS
10
108
20
-102.575
11
50
21
-102.575
0
LINE
8
BLACK
6
CONTINUOUS
10
50
20
-102.575
11
49.6496
21
-102.558
0
LINE
8
BLACK
6
CONTINUOUS
10
49.9817
20
-46.5718
11
49.6639
21
-46.5874
0
LINE
8
BLACK
6
CONTINUOUS
10
49.6639
20
-46.5874
11
49.331
21
-46.6368
0
LINE
8
BLACK
6
CONTINUOUS
10
49.331
20
-46.6368
11
49.0046
21
-46.7185
0
LINE
8
BLACK
6
CONTINUOUS
10
49.0046
20
-46.7185
11
48.6877
21
-46.8319
0
LINE
8
BLACK
6
CONTINUOUS
10
48.6877
20
-46.8319
11
48.3835
21
-46.9758
0
LINE
8
BLACK
6
CONTINUOUS
10
48.3835
20
-46.9758
11
48.0949
21
-47.1488
0
LINE
8
BLACK
6
CONTINUOUS
10
48.0949
20
-47.1488
11
47.8246
21
-47.3492
0
LINE
8
BLACK
6
CONTINUOUS
10
47.8246
20
-47.3492
11
47.5752
21
-47.5752
0
LINE
8
BLACK
6
CONTINUOUS
10
47.5752
20
-47.5752
11
47.3492
21
-47.8246
0
LINE
8
BLACK
6
CONTINUOUS
10
47.3492
20
-47.8246
11
47.1488
21
-48.0949
0
LINE
8
BLACK
6
CONTINUOUS
10
47.1488
20
-48.0949
11
46.9758
21
-48.3835
0
LINE
8
BLACK
6
CONTINUOUS
10
46.9758
20
-48.3835
11
46.8319
21
-48.6877
0
LINE
8
BLACK
6
CONTINUOUS
10
46.8319
20
-48.6877
11
46.7185
21
-49.0046
0
LINE
8
BLACK
6
CONTINUOUS
10
46.7185
20
-49.0046
11
46.6368
21
-49.331
0
LINE
8
BLACK
6
CONTINUOUS
10
46.6368
20
-49.331
11
46.5874
21
-49.6639
0
LINE
8
BLACK
6
CONTINUOUS
10
46.5874
20
-49.6639
11
46.5714
21
-49.989
0
LINE
8
BLACK
6
CONTINUOUS
10
46.5714
20
-49.989
11
46.575
21
-50
0
LINE
8
BLACK
6
CONTINUOUS
10
46.575
20
-50
11
46.575
21
-99
0
LINE
8
BLACK
6
CONTINUOUS
10
46.575
20
-99
11
46.5718
21
-99.0183
0
LINE
8
BLACK
6
CONTINUOUS
10
46.5718
20
-99.0183
11
46.5874
21
-99.3361
0
LINE
8
BLACK
6
CONTINUOUS
10
46.5874
20
-99.3361
11
46.6368
21
-99.669
0
LINE
8
BLACK
6
CONTINUOUS
10
46.6368
20
-99.669
11
46.7185
21
-99.9954
0
LINE
8
BLACK
6
CONTINUOUS
10
46.7185
20
-99.9954
11
46.8319
21
-100.312
0
LINE
8
BLACK
6
CONTINUOUS
10
46.8319
20
-100.312
11
46.9758
21
-100.616
0
LINE
8
BLACK
6
CONTINUOUS
10
46.9758
20
-100.616
11
47.1488
21
-100.905
0
LINE
8
BLACK
6
CONTINUOUS
10
47.1488
20
-100.905
11
47.3492
21
-101.175
0
LINE
8
BLACK
6
CONTINUOUS
10
47.3492
20
-101.175
11
47.5752
21
-101.425
0
LINE
8
BLACK
6
CONTINUOUS
10
47.5752
20
-101.425
11
47.8246
21
-101.651
0
LINE
8
BLACK
6
CONTINUOUS
10
47.8246
20
-101.651
11
48.0949
21
-101.851
0
LINE
8
BLACK
6
CONTINUOUS
10
48.0949
20
-101.851
11
48.3835
21
-102.024
0
LINE
8
BLACK
6
CONTINUOUS
10
48.3835
20
-102.024
11
48.6877
21
-102.168
0
LINE
8
BLACK
6
CONTINUOUS
10
48.6877
20
-102.168
11
49.0046
21
-102.281
0
LINE
8
BLACK
6
CONTINUOUS
10
49.0046
20
-102.281
11
49.331
21
-102.363
0
LINE
8
BLACK
6
CONTINUOUS
10
49.331
20
-102.363
11
49.6639
21
-102.413
0
LINE
8
BLACK
6
CONTINUOUS
10
49.6639
20
-102.413
11
49.989
21
-102.429
0
LINE
8
BLACK
6
CONTINUOUS
10
49.989
20
-102.429
11
50
21
-102.425
0
LINE
8
BLACK
6
CONTINUOUS
10
50
20
-102.425
11
108
21
-102.425
0
LINE
8
BLACK
6
CONTINUOUS
10
108
20
-102.425
11
108.018
21
-102.428
0
LINE
8
BLACK
6
CONTINUOUS
10
108.018
20
-102.428
11
108.336
21
-102.413
0
LINE
8
BLACK
6
CONTINUOUS
10
108.336
20
-102.413
11
108.669
21
-102.363
0
LINE
8
BLACK
6
CONTINUOUS
10
108.669
20
-102.363
11
108.995
21
-102.281
0
LINE
8
BLACK
6
CONTINUOUS
10
108.995
20
-102.281
11
109.312
21
-102.168
0
LINE
8
BLACK
6
CONTINUOUS
10
109.312
20
-102.168
11
109.616
21
-102.024
0
LINE
8
BLACK
6
CONTINUOUS
10
109.616
20
-102.024
11
109.905
21
-101.851
0
LINE
8
BLACK
6
CONTINUOUS
10
109.905
20
-101.851
11
110.175
21
-101.651
0
LINE
8
BLACK
6
CONTINUOUS
10
110.175
20
-101.651
11
110.425
21
-101.425
0
LINE
8
BLACK
6
CONTINUOUS
10
110.425
20
-101.425
11
110.651
21
-101.175
0
LINE
8
BLACK
6
CONTINUOUS
10
110.651
20
-101.175
11
110.851
21
-100.905
0
LINE
8
BLACK
6
CONTINUOUS
10
110.851
20
-100.905
11
111.024
21
-100.616
0
LINE
8
BLACK
6
CONTINUOUS
10
111.024
20
-100.616
11
111.168
21
-100.312
0
LINE
8
BLACK
6
CONTINUOUS
10
111.168
20
-100.312
11
111.281
21
-99.9954
0
LINE
8
BLACK
6
CONTINUOUS
10
111.281
20
-99.9954
11
111.363
21
-99.669
0
LINE
8
BLACK
6
CONTINUOUS
10
111.363
20
-99.669
11
111.413
21
-99.3361
0
LINE
8
BLACK
6
CONTINUOUS
10
111.413
20
-99.3361
11
111.429
21
-99.011
0
LINE
8
BLACK
6
CONTINUOUS
10
111.429
20
-99.011
11
111.425
21
-99
0
LINE
8
BLACK
6
CONTINUOUS
10
111.425
20
-99
11
111.425
21
-50
0
LINE
8
BLACK
6
CONTINUOUS
10
111.425
20
-50
11
111.428
21
-49.9817
0
LINE
8
BLACK
6
CONTINUOUS
10
111.428
20
-49.9817
11
111.413
21
-49.6639
0
LINE
8
BLACK
6
CONTINUOUS
10
111.413
20
-49.6639
11
111.363
21
-49.331
0
LINE
8
BLACK
6
CONTINUOUS
10
111.363
20
-49.331
11
111.281
21
-49.0046
0
LINE
8
BLACK
6
CONTINUOUS
10
111.281
20
-49.0046
11
111.168
21
-48.6877
0
LINE
8
BLACK
6
CONTINUOUS
10
111.168
20
-48.6877
11
111.024
21
-48.3835
0
LINE
8
BLACK
6
CONTINUOUS
10
111.024
20
-48.3835
11
110.851
21
-48.0949
0
LINE
8
BLACK
6
CONTINUOUS
10
110.851
20
-48.0949
11
110.651
21
-47.8246
0
LINE
8
BLACK
6
CONTINUOUS
10
110.651
20
-47.8246
11
110.425
21
-47.5752
0
LINE
8
BLACK
6
CONTINUOUS
10
110.425
20
-47.5752
11
110.175
21
-47.3492
0
LINE
8
BLACK
6
CONTINUOUS
10
110.175
20
-47.3492
11
109.905
21
-47.1488
0
LINE
8
BLACK
6
CONTINUOUS
10
109.905
20
-47.1488
11
109.616
21
-46.9758
0
LINE
8
BLACK
6
CONTINUOUS
10
109.616
20
-46.9758
11
109.312
21
-46.8319
0
LINE
8
BLACK
6
CONTINUOUS
10
109.312
20
-46.8319
11
108.995
21
-46.7185
0
LINE
8
BLACK
6
CONTINUOUS
10
108.995
20
-46.7185
11
108.669
21
-46.6368
0
LINE
8
BLACK
6
CONTINUOUS
10
108.669
20
-46.6368
11
108.336
21
-46.5874
0
LINE
8
BLACK
6
CONTINUOUS
10
108.336
20
-46.5874
11
108.011
21
-46.5714
0
LINE
8
BLACK
6
CONTINUOUS
10
108.011
20
-46.5714
11
108
21
-46.575
0
LINE
8
BLACK
6
CONTINUOUS
10
108
20
-46.575
11
50
21
-46.575
0
LINE
8
BLACK
6
CONTINUOUS
10
50
20
-46.575
11
49.9817
21
-46.5718
  0
ENDSEC
  0
EOF
