%FSLAX45Y45*%
G04 Gerber Fmt 4.5, Leading zero omitted, Abs format (unit mm)*
G04 Created by KiCad (PCBNEW (6.0.2)) date 2022-07-05 13:03:24*
%MOMM*%
%LPD*%
G01*
G04 APERTURE LIST*
%TA.AperFunction,Profile*%
%ADD10C,0.150000*%
%TD*%
%ADD11C,0.200000*%
%ADD12C,0.030000*%
%ADD13C,0.100000*%
%ADD14C,0.120000*%
%ADD15C,0.300000*%
G04 APERTURE END LIST*
D10*
X11150000Y-5000000D02*
G75*
G03*
X10800000Y-4650000I-350000J0D01*
G01*
X5000000Y-4650000D02*
X10800000Y-4650000D01*
X5000000Y-10250000D02*
X10800000Y-10250000D01*
X11150000Y-5000000D02*
X11150000Y-9900000D01*
X10800000Y-10250000D02*
G75*
G03*
X11150000Y-9900000I0J350000D01*
G01*
X4650000Y-9900000D02*
G75*
G03*
X5000000Y-10250000I350000J0D01*
G01*
X5000000Y-4650000D02*
G75*
G03*
X4650000Y-5000000I0J-350000D01*
G01*
X4650000Y-5000000D02*
X4650000Y-9900000D01*
D11*
D12*
X10094200Y-7147800D02*
X10124200Y-7177800D01*
X10124200Y-7147800D02*
X10094200Y-7177800D01*
X10145000Y-7401800D02*
X10175000Y-7431800D01*
X10175000Y-7401800D02*
X10145000Y-7431800D01*
X10246600Y-7351000D02*
X10276600Y-7381000D01*
X10276600Y-7351000D02*
X10246600Y-7381000D01*
X10348200Y-7300200D02*
X10378200Y-7330200D01*
X10378200Y-7300200D02*
X10348200Y-7330200D01*
D13*
X5537000Y-4873000D02*
G75*
G03*
X5537000Y-4873000I-50000J0D01*
G01*
X5537000Y-5127000D02*
G75*
G03*
X5537000Y-5127000I-50000J0D01*
G01*
X5791000Y-4873000D02*
G75*
G03*
X5791000Y-4873000I-50000J0D01*
G01*
X5791000Y-5127000D02*
G75*
G03*
X5791000Y-5127000I-50000J0D01*
G01*
X6045000Y-4873000D02*
G75*
G03*
X6045000Y-4873000I-50000J0D01*
G01*
X6045000Y-5127000D02*
G75*
G03*
X6045000Y-5127000I-50000J0D01*
G01*
X6299000Y-4873000D02*
G75*
G03*
X6299000Y-4873000I-50000J0D01*
G01*
X6299000Y-5127000D02*
G75*
G03*
X6299000Y-5127000I-50000J0D01*
G01*
X6553000Y-4873000D02*
G75*
G03*
X6553000Y-4873000I-50000J0D01*
G01*
X6553000Y-5127000D02*
G75*
G03*
X6553000Y-5127000I-50000J0D01*
G01*
X6807000Y-4873000D02*
G75*
G03*
X6807000Y-4873000I-50000J0D01*
G01*
X6807000Y-5127000D02*
G75*
G03*
X6807000Y-5127000I-50000J0D01*
G01*
X7061000Y-4873000D02*
G75*
G03*
X7061000Y-4873000I-50000J0D01*
G01*
X7061000Y-5127000D02*
G75*
G03*
X7061000Y-5127000I-50000J0D01*
G01*
X7315000Y-4873000D02*
G75*
G03*
X7315000Y-4873000I-50000J0D01*
G01*
X7315000Y-5127000D02*
G75*
G03*
X7315000Y-5127000I-50000J0D01*
G01*
X7569000Y-4873000D02*
G75*
G03*
X7569000Y-4873000I-50000J0D01*
G01*
X7569000Y-5127000D02*
G75*
G03*
X7569000Y-5127000I-50000J0D01*
G01*
X7823000Y-4873000D02*
G75*
G03*
X7823000Y-4873000I-50000J0D01*
G01*
X7823000Y-5127000D02*
G75*
G03*
X7823000Y-5127000I-50000J0D01*
G01*
X8077000Y-4873000D02*
G75*
G03*
X8077000Y-4873000I-50000J0D01*
G01*
X8077000Y-5127000D02*
G75*
G03*
X8077000Y-5127000I-50000J0D01*
G01*
X8331000Y-4873000D02*
G75*
G03*
X8331000Y-4873000I-50000J0D01*
G01*
X8331000Y-5127000D02*
G75*
G03*
X8331000Y-5127000I-50000J0D01*
G01*
X8585000Y-4873000D02*
G75*
G03*
X8585000Y-4873000I-50000J0D01*
G01*
X8585000Y-5127000D02*
G75*
G03*
X8585000Y-5127000I-50000J0D01*
G01*
X8839000Y-4873000D02*
G75*
G03*
X8839000Y-4873000I-50000J0D01*
G01*
X8839000Y-5127000D02*
G75*
G03*
X8839000Y-5127000I-50000J0D01*
G01*
X9093000Y-4873000D02*
G75*
G03*
X9093000Y-4873000I-50000J0D01*
G01*
X9093000Y-5127000D02*
G75*
G03*
X9093000Y-5127000I-50000J0D01*
G01*
X9347000Y-4873000D02*
G75*
G03*
X9347000Y-4873000I-50000J0D01*
G01*
X9347000Y-5127000D02*
G75*
G03*
X9347000Y-5127000I-50000J0D01*
G01*
X9601000Y-4873000D02*
G75*
G03*
X9601000Y-4873000I-50000J0D01*
G01*
X9601000Y-5127000D02*
G75*
G03*
X9601000Y-5127000I-50000J0D01*
G01*
X9855000Y-4873000D02*
G75*
G03*
X9855000Y-4873000I-50000J0D01*
G01*
X9855000Y-5127000D02*
G75*
G03*
X9855000Y-5127000I-50000J0D01*
G01*
X10109000Y-4873000D02*
G75*
G03*
X10109000Y-4873000I-50000J0D01*
G01*
X10109000Y-5127000D02*
G75*
G03*
X10109000Y-5127000I-50000J0D01*
G01*
X10363000Y-4873000D02*
G75*
G03*
X10363000Y-4873000I-50000J0D01*
G01*
X10363000Y-5127000D02*
G75*
G03*
X10363000Y-5127000I-50000J0D01*
G01*
D14*
X6096000Y-9522000D02*
X6096000Y-9642000D01*
X6036000Y-9582000D02*
X6156000Y-9582000D01*
X6446000Y-9522000D02*
X6446000Y-9642000D01*
X6386000Y-9582000D02*
X6506000Y-9582000D01*
X7366000Y-9522000D02*
X7366000Y-9642000D01*
X7306000Y-9582000D02*
X7426000Y-9582000D01*
X7716000Y-9522000D02*
X7716000Y-9642000D01*
X7656000Y-9582000D02*
X7776000Y-9582000D01*
X9300000Y-9520000D02*
X9300000Y-9640000D01*
X9240000Y-9580000D02*
X9360000Y-9580000D01*
X9650000Y-9520000D02*
X9650000Y-9640000D01*
X9590000Y-9580000D02*
X9710000Y-9580000D01*
X10000000Y-9520000D02*
X10000000Y-9640000D01*
X9940000Y-9580000D02*
X10060000Y-9580000D01*
D15*
X5106067Y-10006067D02*
X5106067Y-9793933D01*
X4893933Y-9793933D01*
X4893933Y-10006067D01*
X5106067Y-10006067D01*
X10906067Y-10006067D02*
X10906067Y-9793933D01*
X10693933Y-9793933D01*
X10693933Y-10006067D01*
X10906067Y-10006067D01*
D11*
X4900119Y-10567976D02*
X4900119Y-10367976D01*
X4947738Y-10367976D01*
X4976310Y-10377500D01*
X4995357Y-10396548D01*
X5004881Y-10415595D01*
X5014405Y-10453690D01*
X5014405Y-10482262D01*
X5004881Y-10520357D01*
X4995357Y-10539405D01*
X4976310Y-10558452D01*
X4947738Y-10567976D01*
X4900119Y-10567976D01*
X5100119Y-10567976D02*
X5100119Y-10434643D01*
X5100119Y-10472738D02*
X5109643Y-10453690D01*
X5119167Y-10444167D01*
X5138214Y-10434643D01*
X5157262Y-10434643D01*
X5223929Y-10567976D02*
X5223929Y-10434643D01*
X5223929Y-10367976D02*
X5214405Y-10377500D01*
X5223929Y-10387024D01*
X5233452Y-10377500D01*
X5223929Y-10367976D01*
X5223929Y-10387024D01*
X5347738Y-10567976D02*
X5328690Y-10558452D01*
X5319167Y-10539405D01*
X5319167Y-10367976D01*
X5452500Y-10567976D02*
X5433452Y-10558452D01*
X5423929Y-10539405D01*
X5423929Y-10367976D01*
X5681071Y-10567976D02*
X5681071Y-10367976D01*
X5747738Y-10510833D01*
X5814405Y-10367976D01*
X5814405Y-10567976D01*
X5995357Y-10567976D02*
X5995357Y-10463214D01*
X5985833Y-10444167D01*
X5966786Y-10434643D01*
X5928690Y-10434643D01*
X5909643Y-10444167D01*
X5995357Y-10558452D02*
X5976309Y-10567976D01*
X5928690Y-10567976D01*
X5909643Y-10558452D01*
X5900119Y-10539405D01*
X5900119Y-10520357D01*
X5909643Y-10501310D01*
X5928690Y-10491786D01*
X5976309Y-10491786D01*
X5995357Y-10482262D01*
X6090595Y-10434643D02*
X6090595Y-10634643D01*
X6090595Y-10444167D02*
X6109643Y-10434643D01*
X6147738Y-10434643D01*
X6166786Y-10444167D01*
X6176309Y-10453690D01*
X6185833Y-10472738D01*
X6185833Y-10529881D01*
X6176309Y-10548929D01*
X6166786Y-10558452D01*
X6147738Y-10567976D01*
X6109643Y-10567976D01*
X6090595Y-10558452D01*
X6271548Y-10548929D02*
X6281071Y-10558452D01*
X6271548Y-10567976D01*
X6262024Y-10558452D01*
X6271548Y-10548929D01*
X6271548Y-10567976D01*
X6271548Y-10444167D02*
X6281071Y-10453690D01*
X6271548Y-10463214D01*
X6262024Y-10453690D01*
X6271548Y-10444167D01*
X6271548Y-10463214D01*
D12*
X4612500Y-10882500D02*
X4642500Y-10912500D01*
X4642500Y-10882500D02*
X4612500Y-10912500D01*
D11*
X4938214Y-10787976D02*
X4957262Y-10787976D01*
X4976310Y-10797500D01*
X4985833Y-10807024D01*
X4995357Y-10826071D01*
X5004881Y-10864167D01*
X5004881Y-10911786D01*
X4995357Y-10949881D01*
X4985833Y-10968929D01*
X4976310Y-10978452D01*
X4957262Y-10987976D01*
X4938214Y-10987976D01*
X4919167Y-10978452D01*
X4909643Y-10968929D01*
X4900119Y-10949881D01*
X4890595Y-10911786D01*
X4890595Y-10864167D01*
X4900119Y-10826071D01*
X4909643Y-10807024D01*
X4919167Y-10797500D01*
X4938214Y-10787976D01*
X5090595Y-10968929D02*
X5100119Y-10978452D01*
X5090595Y-10987976D01*
X5081071Y-10978452D01*
X5090595Y-10968929D01*
X5090595Y-10987976D01*
X5166786Y-10787976D02*
X5290595Y-10787976D01*
X5223929Y-10864167D01*
X5252500Y-10864167D01*
X5271548Y-10873690D01*
X5281071Y-10883214D01*
X5290595Y-10902262D01*
X5290595Y-10949881D01*
X5281071Y-10968929D01*
X5271548Y-10978452D01*
X5252500Y-10987976D01*
X5195357Y-10987976D01*
X5176310Y-10978452D01*
X5166786Y-10968929D01*
X5414405Y-10787976D02*
X5433452Y-10787976D01*
X5452500Y-10797500D01*
X5462024Y-10807024D01*
X5471548Y-10826071D01*
X5481071Y-10864167D01*
X5481071Y-10911786D01*
X5471548Y-10949881D01*
X5462024Y-10968929D01*
X5452500Y-10978452D01*
X5433452Y-10987976D01*
X5414405Y-10987976D01*
X5395357Y-10978452D01*
X5385833Y-10968929D01*
X5376310Y-10949881D01*
X5366786Y-10911786D01*
X5366786Y-10864167D01*
X5376310Y-10826071D01*
X5385833Y-10807024D01*
X5395357Y-10797500D01*
X5414405Y-10787976D01*
X5604881Y-10787976D02*
X5623928Y-10787976D01*
X5642976Y-10797500D01*
X5652500Y-10807024D01*
X5662024Y-10826071D01*
X5671548Y-10864167D01*
X5671548Y-10911786D01*
X5662024Y-10949881D01*
X5652500Y-10968929D01*
X5642976Y-10978452D01*
X5623928Y-10987976D01*
X5604881Y-10987976D01*
X5585833Y-10978452D01*
X5576310Y-10968929D01*
X5566786Y-10949881D01*
X5557262Y-10911786D01*
X5557262Y-10864167D01*
X5566786Y-10826071D01*
X5576310Y-10807024D01*
X5585833Y-10797500D01*
X5604881Y-10787976D01*
X5757262Y-10987976D02*
X5757262Y-10854643D01*
X5757262Y-10873690D02*
X5766786Y-10864167D01*
X5785833Y-10854643D01*
X5814405Y-10854643D01*
X5833452Y-10864167D01*
X5842976Y-10883214D01*
X5842976Y-10987976D01*
X5842976Y-10883214D02*
X5852500Y-10864167D01*
X5871548Y-10854643D01*
X5900119Y-10854643D01*
X5919167Y-10864167D01*
X5928690Y-10883214D01*
X5928690Y-10987976D01*
X6023928Y-10987976D02*
X6023928Y-10854643D01*
X6023928Y-10873690D02*
X6033452Y-10864167D01*
X6052500Y-10854643D01*
X6081071Y-10854643D01*
X6100119Y-10864167D01*
X6109643Y-10883214D01*
X6109643Y-10987976D01*
X6109643Y-10883214D02*
X6119167Y-10864167D01*
X6138214Y-10854643D01*
X6166786Y-10854643D01*
X6185833Y-10864167D01*
X6195357Y-10883214D01*
X6195357Y-10987976D01*
X6585833Y-10778452D02*
X6414405Y-11035595D01*
X6842976Y-10787976D02*
X6862024Y-10787976D01*
X6881071Y-10797500D01*
X6890595Y-10807024D01*
X6900119Y-10826071D01*
X6909643Y-10864167D01*
X6909643Y-10911786D01*
X6900119Y-10949881D01*
X6890595Y-10968929D01*
X6881071Y-10978452D01*
X6862024Y-10987976D01*
X6842976Y-10987976D01*
X6823928Y-10978452D01*
X6814405Y-10968929D01*
X6804881Y-10949881D01*
X6795357Y-10911786D01*
X6795357Y-10864167D01*
X6804881Y-10826071D01*
X6814405Y-10807024D01*
X6823928Y-10797500D01*
X6842976Y-10787976D01*
X6995357Y-10968929D02*
X7004881Y-10978452D01*
X6995357Y-10987976D01*
X6985833Y-10978452D01*
X6995357Y-10968929D01*
X6995357Y-10987976D01*
X7128690Y-10787976D02*
X7147738Y-10787976D01*
X7166786Y-10797500D01*
X7176309Y-10807024D01*
X7185833Y-10826071D01*
X7195357Y-10864167D01*
X7195357Y-10911786D01*
X7185833Y-10949881D01*
X7176309Y-10968929D01*
X7166786Y-10978452D01*
X7147738Y-10987976D01*
X7128690Y-10987976D01*
X7109643Y-10978452D01*
X7100119Y-10968929D01*
X7090595Y-10949881D01*
X7081071Y-10911786D01*
X7081071Y-10864167D01*
X7090595Y-10826071D01*
X7100119Y-10807024D01*
X7109643Y-10797500D01*
X7128690Y-10787976D01*
X7385833Y-10987976D02*
X7271548Y-10987976D01*
X7328690Y-10987976D02*
X7328690Y-10787976D01*
X7309643Y-10816548D01*
X7290595Y-10835595D01*
X7271548Y-10845119D01*
X7576309Y-10987976D02*
X7462024Y-10987976D01*
X7519167Y-10987976D02*
X7519167Y-10787976D01*
X7500119Y-10816548D01*
X7481071Y-10835595D01*
X7462024Y-10845119D01*
X7690595Y-10873690D02*
X7671548Y-10864167D01*
X7662024Y-10854643D01*
X7652500Y-10835595D01*
X7652500Y-10826071D01*
X7662024Y-10807024D01*
X7671548Y-10797500D01*
X7690595Y-10787976D01*
X7728690Y-10787976D01*
X7747738Y-10797500D01*
X7757262Y-10807024D01*
X7766786Y-10826071D01*
X7766786Y-10835595D01*
X7757262Y-10854643D01*
X7747738Y-10864167D01*
X7728690Y-10873690D01*
X7690595Y-10873690D01*
X7671548Y-10883214D01*
X7662024Y-10892738D01*
X7652500Y-10911786D01*
X7652500Y-10949881D01*
X7662024Y-10968929D01*
X7671548Y-10978452D01*
X7690595Y-10987976D01*
X7728690Y-10987976D01*
X7747738Y-10978452D01*
X7757262Y-10968929D01*
X7766786Y-10949881D01*
X7766786Y-10911786D01*
X7757262Y-10892738D01*
X7747738Y-10883214D01*
X7728690Y-10873690D01*
X7842976Y-10787976D02*
X7842976Y-10826071D01*
X7919167Y-10787976D02*
X7919167Y-10826071D01*
X8214405Y-11064167D02*
X8204881Y-11054643D01*
X8185833Y-11026071D01*
X8176309Y-11007024D01*
X8166786Y-10978452D01*
X8157262Y-10930833D01*
X8157262Y-10892738D01*
X8166786Y-10845119D01*
X8176309Y-10816548D01*
X8185833Y-10797500D01*
X8204881Y-10768929D01*
X8214405Y-10759405D01*
X8376309Y-10854643D02*
X8376309Y-10987976D01*
X8328690Y-10778452D02*
X8281071Y-10921310D01*
X8404881Y-10921310D01*
X8633452Y-10987976D02*
X8633452Y-10787976D01*
X8719167Y-10987976D02*
X8719167Y-10883214D01*
X8709643Y-10864167D01*
X8690595Y-10854643D01*
X8662024Y-10854643D01*
X8642976Y-10864167D01*
X8633452Y-10873690D01*
X8842976Y-10987976D02*
X8823929Y-10978452D01*
X8814405Y-10968929D01*
X8804881Y-10949881D01*
X8804881Y-10892738D01*
X8814405Y-10873690D01*
X8823929Y-10864167D01*
X8842976Y-10854643D01*
X8871548Y-10854643D01*
X8890595Y-10864167D01*
X8900119Y-10873690D01*
X8909643Y-10892738D01*
X8909643Y-10949881D01*
X8900119Y-10968929D01*
X8890595Y-10978452D01*
X8871548Y-10987976D01*
X8842976Y-10987976D01*
X9023929Y-10987976D02*
X9004881Y-10978452D01*
X8995357Y-10959405D01*
X8995357Y-10787976D01*
X9176310Y-10978452D02*
X9157262Y-10987976D01*
X9119167Y-10987976D01*
X9100119Y-10978452D01*
X9090595Y-10959405D01*
X9090595Y-10883214D01*
X9100119Y-10864167D01*
X9119167Y-10854643D01*
X9157262Y-10854643D01*
X9176310Y-10864167D01*
X9185833Y-10883214D01*
X9185833Y-10902262D01*
X9090595Y-10921310D01*
X9262024Y-10978452D02*
X9281071Y-10987976D01*
X9319167Y-10987976D01*
X9338214Y-10978452D01*
X9347738Y-10959405D01*
X9347738Y-10949881D01*
X9338214Y-10930833D01*
X9319167Y-10921310D01*
X9290595Y-10921310D01*
X9271548Y-10911786D01*
X9262024Y-10892738D01*
X9262024Y-10883214D01*
X9271548Y-10864167D01*
X9290595Y-10854643D01*
X9319167Y-10854643D01*
X9338214Y-10864167D01*
X9414405Y-11064167D02*
X9423929Y-11054643D01*
X9442976Y-11026071D01*
X9452500Y-11007024D01*
X9462024Y-10978452D01*
X9471548Y-10930833D01*
X9471548Y-10892738D01*
X9462024Y-10845119D01*
X9452500Y-10816548D01*
X9442976Y-10797500D01*
X9423929Y-10768929D01*
X9414405Y-10759405D01*
D13*
X4642500Y-11161500D02*
G75*
G03*
X4642500Y-11161500I-50000J0D01*
G01*
D11*
X5004881Y-11251976D02*
X4890595Y-11251976D01*
X4947738Y-11251976D02*
X4947738Y-11051976D01*
X4928690Y-11080548D01*
X4909643Y-11099595D01*
X4890595Y-11109119D01*
X5090595Y-11232928D02*
X5100119Y-11242452D01*
X5090595Y-11251976D01*
X5081071Y-11242452D01*
X5090595Y-11232928D01*
X5090595Y-11251976D01*
X5223929Y-11051976D02*
X5242976Y-11051976D01*
X5262024Y-11061500D01*
X5271548Y-11071024D01*
X5281071Y-11090071D01*
X5290595Y-11128167D01*
X5290595Y-11175786D01*
X5281071Y-11213881D01*
X5271548Y-11232928D01*
X5262024Y-11242452D01*
X5242976Y-11251976D01*
X5223929Y-11251976D01*
X5204881Y-11242452D01*
X5195357Y-11232928D01*
X5185833Y-11213881D01*
X5176310Y-11175786D01*
X5176310Y-11128167D01*
X5185833Y-11090071D01*
X5195357Y-11071024D01*
X5204881Y-11061500D01*
X5223929Y-11051976D01*
X5414405Y-11051976D02*
X5433452Y-11051976D01*
X5452500Y-11061500D01*
X5462024Y-11071024D01*
X5471548Y-11090071D01*
X5481071Y-11128167D01*
X5481071Y-11175786D01*
X5471548Y-11213881D01*
X5462024Y-11232928D01*
X5452500Y-11242452D01*
X5433452Y-11251976D01*
X5414405Y-11251976D01*
X5395357Y-11242452D01*
X5385833Y-11232928D01*
X5376310Y-11213881D01*
X5366786Y-11175786D01*
X5366786Y-11128167D01*
X5376310Y-11090071D01*
X5385833Y-11071024D01*
X5395357Y-11061500D01*
X5414405Y-11051976D01*
X5604881Y-11051976D02*
X5623928Y-11051976D01*
X5642976Y-11061500D01*
X5652500Y-11071024D01*
X5662024Y-11090071D01*
X5671548Y-11128167D01*
X5671548Y-11175786D01*
X5662024Y-11213881D01*
X5652500Y-11232928D01*
X5642976Y-11242452D01*
X5623928Y-11251976D01*
X5604881Y-11251976D01*
X5585833Y-11242452D01*
X5576310Y-11232928D01*
X5566786Y-11213881D01*
X5557262Y-11175786D01*
X5557262Y-11128167D01*
X5566786Y-11090071D01*
X5576310Y-11071024D01*
X5585833Y-11061500D01*
X5604881Y-11051976D01*
X5757262Y-11251976D02*
X5757262Y-11118643D01*
X5757262Y-11137690D02*
X5766786Y-11128167D01*
X5785833Y-11118643D01*
X5814405Y-11118643D01*
X5833452Y-11128167D01*
X5842976Y-11147214D01*
X5842976Y-11251976D01*
X5842976Y-11147214D02*
X5852500Y-11128167D01*
X5871548Y-11118643D01*
X5900119Y-11118643D01*
X5919167Y-11128167D01*
X5928690Y-11147214D01*
X5928690Y-11251976D01*
X6023928Y-11251976D02*
X6023928Y-11118643D01*
X6023928Y-11137690D02*
X6033452Y-11128167D01*
X6052500Y-11118643D01*
X6081071Y-11118643D01*
X6100119Y-11128167D01*
X6109643Y-11147214D01*
X6109643Y-11251976D01*
X6109643Y-11147214D02*
X6119167Y-11128167D01*
X6138214Y-11118643D01*
X6166786Y-11118643D01*
X6185833Y-11128167D01*
X6195357Y-11147214D01*
X6195357Y-11251976D01*
X6585833Y-11042452D02*
X6414405Y-11299595D01*
X6842976Y-11051976D02*
X6862024Y-11051976D01*
X6881071Y-11061500D01*
X6890595Y-11071024D01*
X6900119Y-11090071D01*
X6909643Y-11128167D01*
X6909643Y-11175786D01*
X6900119Y-11213881D01*
X6890595Y-11232928D01*
X6881071Y-11242452D01*
X6862024Y-11251976D01*
X6842976Y-11251976D01*
X6823928Y-11242452D01*
X6814405Y-11232928D01*
X6804881Y-11213881D01*
X6795357Y-11175786D01*
X6795357Y-11128167D01*
X6804881Y-11090071D01*
X6814405Y-11071024D01*
X6823928Y-11061500D01*
X6842976Y-11051976D01*
X6995357Y-11232928D02*
X7004881Y-11242452D01*
X6995357Y-11251976D01*
X6985833Y-11242452D01*
X6995357Y-11232928D01*
X6995357Y-11251976D01*
X7128690Y-11051976D02*
X7147738Y-11051976D01*
X7166786Y-11061500D01*
X7176309Y-11071024D01*
X7185833Y-11090071D01*
X7195357Y-11128167D01*
X7195357Y-11175786D01*
X7185833Y-11213881D01*
X7176309Y-11232928D01*
X7166786Y-11242452D01*
X7147738Y-11251976D01*
X7128690Y-11251976D01*
X7109643Y-11242452D01*
X7100119Y-11232928D01*
X7090595Y-11213881D01*
X7081071Y-11175786D01*
X7081071Y-11128167D01*
X7090595Y-11090071D01*
X7100119Y-11071024D01*
X7109643Y-11061500D01*
X7128690Y-11051976D01*
X7262024Y-11051976D02*
X7385833Y-11051976D01*
X7319167Y-11128167D01*
X7347738Y-11128167D01*
X7366786Y-11137690D01*
X7376309Y-11147214D01*
X7385833Y-11166262D01*
X7385833Y-11213881D01*
X7376309Y-11232928D01*
X7366786Y-11242452D01*
X7347738Y-11251976D01*
X7290595Y-11251976D01*
X7271548Y-11242452D01*
X7262024Y-11232928D01*
X7481071Y-11251976D02*
X7519167Y-11251976D01*
X7538214Y-11242452D01*
X7547738Y-11232928D01*
X7566786Y-11204357D01*
X7576309Y-11166262D01*
X7576309Y-11090071D01*
X7566786Y-11071024D01*
X7557262Y-11061500D01*
X7538214Y-11051976D01*
X7500119Y-11051976D01*
X7481071Y-11061500D01*
X7471548Y-11071024D01*
X7462024Y-11090071D01*
X7462024Y-11137690D01*
X7471548Y-11156738D01*
X7481071Y-11166262D01*
X7500119Y-11175786D01*
X7538214Y-11175786D01*
X7557262Y-11166262D01*
X7566786Y-11156738D01*
X7576309Y-11137690D01*
X7747738Y-11118643D02*
X7747738Y-11251976D01*
X7700119Y-11042452D02*
X7652500Y-11185309D01*
X7776309Y-11185309D01*
X7842976Y-11051976D02*
X7842976Y-11090071D01*
X7919167Y-11051976D02*
X7919167Y-11090071D01*
X8214405Y-11328167D02*
X8204881Y-11318643D01*
X8185833Y-11290071D01*
X8176309Y-11271024D01*
X8166786Y-11242452D01*
X8157262Y-11194833D01*
X8157262Y-11156738D01*
X8166786Y-11109119D01*
X8176309Y-11080548D01*
X8185833Y-11061500D01*
X8204881Y-11032929D01*
X8214405Y-11023405D01*
X8376309Y-11118643D02*
X8376309Y-11251976D01*
X8328690Y-11042452D02*
X8281071Y-11185309D01*
X8404881Y-11185309D01*
X8519167Y-11051976D02*
X8538214Y-11051976D01*
X8557262Y-11061500D01*
X8566786Y-11071024D01*
X8576310Y-11090071D01*
X8585833Y-11128167D01*
X8585833Y-11175786D01*
X8576310Y-11213881D01*
X8566786Y-11232928D01*
X8557262Y-11242452D01*
X8538214Y-11251976D01*
X8519167Y-11251976D01*
X8500119Y-11242452D01*
X8490595Y-11232928D01*
X8481071Y-11213881D01*
X8471548Y-11175786D01*
X8471548Y-11128167D01*
X8481071Y-11090071D01*
X8490595Y-11071024D01*
X8500119Y-11061500D01*
X8519167Y-11051976D01*
X8823929Y-11251976D02*
X8823929Y-11051976D01*
X8909643Y-11251976D02*
X8909643Y-11147214D01*
X8900119Y-11128167D01*
X8881071Y-11118643D01*
X8852500Y-11118643D01*
X8833452Y-11128167D01*
X8823929Y-11137690D01*
X9033452Y-11251976D02*
X9014405Y-11242452D01*
X9004881Y-11232928D01*
X8995357Y-11213881D01*
X8995357Y-11156738D01*
X9004881Y-11137690D01*
X9014405Y-11128167D01*
X9033452Y-11118643D01*
X9062024Y-11118643D01*
X9081071Y-11128167D01*
X9090595Y-11137690D01*
X9100119Y-11156738D01*
X9100119Y-11213881D01*
X9090595Y-11232928D01*
X9081071Y-11242452D01*
X9062024Y-11251976D01*
X9033452Y-11251976D01*
X9214405Y-11251976D02*
X9195357Y-11242452D01*
X9185833Y-11223405D01*
X9185833Y-11051976D01*
X9366786Y-11242452D02*
X9347738Y-11251976D01*
X9309643Y-11251976D01*
X9290595Y-11242452D01*
X9281071Y-11223405D01*
X9281071Y-11147214D01*
X9290595Y-11128167D01*
X9309643Y-11118643D01*
X9347738Y-11118643D01*
X9366786Y-11128167D01*
X9376310Y-11147214D01*
X9376310Y-11166262D01*
X9281071Y-11185309D01*
X9452500Y-11242452D02*
X9471548Y-11251976D01*
X9509643Y-11251976D01*
X9528690Y-11242452D01*
X9538214Y-11223405D01*
X9538214Y-11213881D01*
X9528690Y-11194833D01*
X9509643Y-11185309D01*
X9481071Y-11185309D01*
X9462024Y-11175786D01*
X9452500Y-11156738D01*
X9452500Y-11147214D01*
X9462024Y-11128167D01*
X9481071Y-11118643D01*
X9509643Y-11118643D01*
X9528690Y-11128167D01*
X9604881Y-11328167D02*
X9614405Y-11318643D01*
X9633452Y-11290071D01*
X9642976Y-11271024D01*
X9652500Y-11242452D01*
X9662024Y-11194833D01*
X9662024Y-11156738D01*
X9652500Y-11109119D01*
X9642976Y-11080548D01*
X9633452Y-11061500D01*
X9614405Y-11032929D01*
X9604881Y-11023405D01*
D14*
X4582500Y-11365500D02*
X4582500Y-11485500D01*
X4522500Y-11425500D02*
X4642500Y-11425500D01*
D11*
X5004881Y-11515976D02*
X4890595Y-11515976D01*
X4947738Y-11515976D02*
X4947738Y-11315976D01*
X4928690Y-11344548D01*
X4909643Y-11363595D01*
X4890595Y-11373119D01*
X5090595Y-11496928D02*
X5100119Y-11506452D01*
X5090595Y-11515976D01*
X5081071Y-11506452D01*
X5090595Y-11496928D01*
X5090595Y-11515976D01*
X5176310Y-11335024D02*
X5185833Y-11325500D01*
X5204881Y-11315976D01*
X5252500Y-11315976D01*
X5271548Y-11325500D01*
X5281071Y-11335024D01*
X5290595Y-11354071D01*
X5290595Y-11373119D01*
X5281071Y-11401690D01*
X5166786Y-11515976D01*
X5290595Y-11515976D01*
X5414405Y-11315976D02*
X5433452Y-11315976D01*
X5452500Y-11325500D01*
X5462024Y-11335024D01*
X5471548Y-11354071D01*
X5481071Y-11392167D01*
X5481071Y-11439786D01*
X5471548Y-11477881D01*
X5462024Y-11496928D01*
X5452500Y-11506452D01*
X5433452Y-11515976D01*
X5414405Y-11515976D01*
X5395357Y-11506452D01*
X5385833Y-11496928D01*
X5376310Y-11477881D01*
X5366786Y-11439786D01*
X5366786Y-11392167D01*
X5376310Y-11354071D01*
X5385833Y-11335024D01*
X5395357Y-11325500D01*
X5414405Y-11315976D01*
X5604881Y-11315976D02*
X5623928Y-11315976D01*
X5642976Y-11325500D01*
X5652500Y-11335024D01*
X5662024Y-11354071D01*
X5671548Y-11392167D01*
X5671548Y-11439786D01*
X5662024Y-11477881D01*
X5652500Y-11496928D01*
X5642976Y-11506452D01*
X5623928Y-11515976D01*
X5604881Y-11515976D01*
X5585833Y-11506452D01*
X5576310Y-11496928D01*
X5566786Y-11477881D01*
X5557262Y-11439786D01*
X5557262Y-11392167D01*
X5566786Y-11354071D01*
X5576310Y-11335024D01*
X5585833Y-11325500D01*
X5604881Y-11315976D01*
X5757262Y-11515976D02*
X5757262Y-11382643D01*
X5757262Y-11401690D02*
X5766786Y-11392167D01*
X5785833Y-11382643D01*
X5814405Y-11382643D01*
X5833452Y-11392167D01*
X5842976Y-11411214D01*
X5842976Y-11515976D01*
X5842976Y-11411214D02*
X5852500Y-11392167D01*
X5871548Y-11382643D01*
X5900119Y-11382643D01*
X5919167Y-11392167D01*
X5928690Y-11411214D01*
X5928690Y-11515976D01*
X6023928Y-11515976D02*
X6023928Y-11382643D01*
X6023928Y-11401690D02*
X6033452Y-11392167D01*
X6052500Y-11382643D01*
X6081071Y-11382643D01*
X6100119Y-11392167D01*
X6109643Y-11411214D01*
X6109643Y-11515976D01*
X6109643Y-11411214D02*
X6119167Y-11392167D01*
X6138214Y-11382643D01*
X6166786Y-11382643D01*
X6185833Y-11392167D01*
X6195357Y-11411214D01*
X6195357Y-11515976D01*
X6585833Y-11306452D02*
X6414405Y-11563595D01*
X6842976Y-11315976D02*
X6862024Y-11315976D01*
X6881071Y-11325500D01*
X6890595Y-11335024D01*
X6900119Y-11354071D01*
X6909643Y-11392167D01*
X6909643Y-11439786D01*
X6900119Y-11477881D01*
X6890595Y-11496928D01*
X6881071Y-11506452D01*
X6862024Y-11515976D01*
X6842976Y-11515976D01*
X6823928Y-11506452D01*
X6814405Y-11496928D01*
X6804881Y-11477881D01*
X6795357Y-11439786D01*
X6795357Y-11392167D01*
X6804881Y-11354071D01*
X6814405Y-11335024D01*
X6823928Y-11325500D01*
X6842976Y-11315976D01*
X6995357Y-11496928D02*
X7004881Y-11506452D01*
X6995357Y-11515976D01*
X6985833Y-11506452D01*
X6995357Y-11496928D01*
X6995357Y-11515976D01*
X7128690Y-11315976D02*
X7147738Y-11315976D01*
X7166786Y-11325500D01*
X7176309Y-11335024D01*
X7185833Y-11354071D01*
X7195357Y-11392167D01*
X7195357Y-11439786D01*
X7185833Y-11477881D01*
X7176309Y-11496928D01*
X7166786Y-11506452D01*
X7147738Y-11515976D01*
X7128690Y-11515976D01*
X7109643Y-11506452D01*
X7100119Y-11496928D01*
X7090595Y-11477881D01*
X7081071Y-11439786D01*
X7081071Y-11392167D01*
X7090595Y-11354071D01*
X7100119Y-11335024D01*
X7109643Y-11325500D01*
X7128690Y-11315976D01*
X7366786Y-11382643D02*
X7366786Y-11515976D01*
X7319167Y-11306452D02*
X7271548Y-11449309D01*
X7395357Y-11449309D01*
X7452500Y-11315976D02*
X7585833Y-11315976D01*
X7500119Y-11515976D01*
X7652500Y-11335024D02*
X7662024Y-11325500D01*
X7681071Y-11315976D01*
X7728690Y-11315976D01*
X7747738Y-11325500D01*
X7757262Y-11335024D01*
X7766786Y-11354071D01*
X7766786Y-11373119D01*
X7757262Y-11401690D01*
X7642976Y-11515976D01*
X7766786Y-11515976D01*
X7842976Y-11315976D02*
X7842976Y-11354071D01*
X7919167Y-11315976D02*
X7919167Y-11354071D01*
X8214405Y-11592167D02*
X8204881Y-11582643D01*
X8185833Y-11554071D01*
X8176309Y-11535024D01*
X8166786Y-11506452D01*
X8157262Y-11458833D01*
X8157262Y-11420738D01*
X8166786Y-11373119D01*
X8176309Y-11344548D01*
X8185833Y-11325500D01*
X8204881Y-11296928D01*
X8214405Y-11287405D01*
X8271548Y-11315976D02*
X8404881Y-11315976D01*
X8319167Y-11515976D01*
X8633452Y-11515976D02*
X8633452Y-11315976D01*
X8719167Y-11515976D02*
X8719167Y-11411214D01*
X8709643Y-11392167D01*
X8690595Y-11382643D01*
X8662024Y-11382643D01*
X8642976Y-11392167D01*
X8633452Y-11401690D01*
X8842976Y-11515976D02*
X8823929Y-11506452D01*
X8814405Y-11496928D01*
X8804881Y-11477881D01*
X8804881Y-11420738D01*
X8814405Y-11401690D01*
X8823929Y-11392167D01*
X8842976Y-11382643D01*
X8871548Y-11382643D01*
X8890595Y-11392167D01*
X8900119Y-11401690D01*
X8909643Y-11420738D01*
X8909643Y-11477881D01*
X8900119Y-11496928D01*
X8890595Y-11506452D01*
X8871548Y-11515976D01*
X8842976Y-11515976D01*
X9023929Y-11515976D02*
X9004881Y-11506452D01*
X8995357Y-11487405D01*
X8995357Y-11315976D01*
X9176310Y-11506452D02*
X9157262Y-11515976D01*
X9119167Y-11515976D01*
X9100119Y-11506452D01*
X9090595Y-11487405D01*
X9090595Y-11411214D01*
X9100119Y-11392167D01*
X9119167Y-11382643D01*
X9157262Y-11382643D01*
X9176310Y-11392167D01*
X9185833Y-11411214D01*
X9185833Y-11430262D01*
X9090595Y-11449309D01*
X9262024Y-11506452D02*
X9281071Y-11515976D01*
X9319167Y-11515976D01*
X9338214Y-11506452D01*
X9347738Y-11487405D01*
X9347738Y-11477881D01*
X9338214Y-11458833D01*
X9319167Y-11449309D01*
X9290595Y-11449309D01*
X9271548Y-11439786D01*
X9262024Y-11420738D01*
X9262024Y-11411214D01*
X9271548Y-11392167D01*
X9290595Y-11382643D01*
X9319167Y-11382643D01*
X9338214Y-11392167D01*
X9414405Y-11592167D02*
X9423929Y-11582643D01*
X9442976Y-11554071D01*
X9452500Y-11535024D01*
X9462024Y-11506452D01*
X9471548Y-11458833D01*
X9471548Y-11420738D01*
X9462024Y-11373119D01*
X9452500Y-11344548D01*
X9442976Y-11325500D01*
X9423929Y-11296928D01*
X9414405Y-11287405D01*
X4613211Y-11760211D02*
X4613211Y-11618789D01*
X4471789Y-11618789D01*
X4471789Y-11760211D01*
X4613211Y-11760211D01*
X4881071Y-11579976D02*
X5004881Y-11579976D01*
X4938214Y-11656167D01*
X4966786Y-11656167D01*
X4985833Y-11665690D01*
X4995357Y-11675214D01*
X5004881Y-11694262D01*
X5004881Y-11741881D01*
X4995357Y-11760928D01*
X4985833Y-11770452D01*
X4966786Y-11779976D01*
X4909643Y-11779976D01*
X4890595Y-11770452D01*
X4881071Y-11760928D01*
X5090595Y-11760928D02*
X5100119Y-11770452D01*
X5090595Y-11779976D01*
X5081071Y-11770452D01*
X5090595Y-11760928D01*
X5090595Y-11779976D01*
X5223929Y-11579976D02*
X5242976Y-11579976D01*
X5262024Y-11589500D01*
X5271548Y-11599024D01*
X5281071Y-11618071D01*
X5290595Y-11656167D01*
X5290595Y-11703786D01*
X5281071Y-11741881D01*
X5271548Y-11760928D01*
X5262024Y-11770452D01*
X5242976Y-11779976D01*
X5223929Y-11779976D01*
X5204881Y-11770452D01*
X5195357Y-11760928D01*
X5185833Y-11741881D01*
X5176310Y-11703786D01*
X5176310Y-11656167D01*
X5185833Y-11618071D01*
X5195357Y-11599024D01*
X5204881Y-11589500D01*
X5223929Y-11579976D01*
X5414405Y-11579976D02*
X5433452Y-11579976D01*
X5452500Y-11589500D01*
X5462024Y-11599024D01*
X5471548Y-11618071D01*
X5481071Y-11656167D01*
X5481071Y-11703786D01*
X5471548Y-11741881D01*
X5462024Y-11760928D01*
X5452500Y-11770452D01*
X5433452Y-11779976D01*
X5414405Y-11779976D01*
X5395357Y-11770452D01*
X5385833Y-11760928D01*
X5376310Y-11741881D01*
X5366786Y-11703786D01*
X5366786Y-11656167D01*
X5376310Y-11618071D01*
X5385833Y-11599024D01*
X5395357Y-11589500D01*
X5414405Y-11579976D01*
X5604881Y-11579976D02*
X5623928Y-11579976D01*
X5642976Y-11589500D01*
X5652500Y-11599024D01*
X5662024Y-11618071D01*
X5671548Y-11656167D01*
X5671548Y-11703786D01*
X5662024Y-11741881D01*
X5652500Y-11760928D01*
X5642976Y-11770452D01*
X5623928Y-11779976D01*
X5604881Y-11779976D01*
X5585833Y-11770452D01*
X5576310Y-11760928D01*
X5566786Y-11741881D01*
X5557262Y-11703786D01*
X5557262Y-11656167D01*
X5566786Y-11618071D01*
X5576310Y-11599024D01*
X5585833Y-11589500D01*
X5604881Y-11579976D01*
X5757262Y-11779976D02*
X5757262Y-11646643D01*
X5757262Y-11665690D02*
X5766786Y-11656167D01*
X5785833Y-11646643D01*
X5814405Y-11646643D01*
X5833452Y-11656167D01*
X5842976Y-11675214D01*
X5842976Y-11779976D01*
X5842976Y-11675214D02*
X5852500Y-11656167D01*
X5871548Y-11646643D01*
X5900119Y-11646643D01*
X5919167Y-11656167D01*
X5928690Y-11675214D01*
X5928690Y-11779976D01*
X6023928Y-11779976D02*
X6023928Y-11646643D01*
X6023928Y-11665690D02*
X6033452Y-11656167D01*
X6052500Y-11646643D01*
X6081071Y-11646643D01*
X6100119Y-11656167D01*
X6109643Y-11675214D01*
X6109643Y-11779976D01*
X6109643Y-11675214D02*
X6119167Y-11656167D01*
X6138214Y-11646643D01*
X6166786Y-11646643D01*
X6185833Y-11656167D01*
X6195357Y-11675214D01*
X6195357Y-11779976D01*
X6585833Y-11570452D02*
X6414405Y-11827595D01*
X6842976Y-11579976D02*
X6862024Y-11579976D01*
X6881071Y-11589500D01*
X6890595Y-11599024D01*
X6900119Y-11618071D01*
X6909643Y-11656167D01*
X6909643Y-11703786D01*
X6900119Y-11741881D01*
X6890595Y-11760928D01*
X6881071Y-11770452D01*
X6862024Y-11779976D01*
X6842976Y-11779976D01*
X6823928Y-11770452D01*
X6814405Y-11760928D01*
X6804881Y-11741881D01*
X6795357Y-11703786D01*
X6795357Y-11656167D01*
X6804881Y-11618071D01*
X6814405Y-11599024D01*
X6823928Y-11589500D01*
X6842976Y-11579976D01*
X6995357Y-11760928D02*
X7004881Y-11770452D01*
X6995357Y-11779976D01*
X6985833Y-11770452D01*
X6995357Y-11760928D01*
X6995357Y-11779976D01*
X7195357Y-11779976D02*
X7081071Y-11779976D01*
X7138214Y-11779976D02*
X7138214Y-11579976D01*
X7119167Y-11608548D01*
X7100119Y-11627595D01*
X7081071Y-11637119D01*
X7385833Y-11779976D02*
X7271548Y-11779976D01*
X7328690Y-11779976D02*
X7328690Y-11579976D01*
X7309643Y-11608548D01*
X7290595Y-11627595D01*
X7271548Y-11637119D01*
X7500119Y-11665690D02*
X7481071Y-11656167D01*
X7471548Y-11646643D01*
X7462024Y-11627595D01*
X7462024Y-11618071D01*
X7471548Y-11599024D01*
X7481071Y-11589500D01*
X7500119Y-11579976D01*
X7538214Y-11579976D01*
X7557262Y-11589500D01*
X7566786Y-11599024D01*
X7576309Y-11618071D01*
X7576309Y-11627595D01*
X7566786Y-11646643D01*
X7557262Y-11656167D01*
X7538214Y-11665690D01*
X7500119Y-11665690D01*
X7481071Y-11675214D01*
X7471548Y-11684738D01*
X7462024Y-11703786D01*
X7462024Y-11741881D01*
X7471548Y-11760928D01*
X7481071Y-11770452D01*
X7500119Y-11779976D01*
X7538214Y-11779976D01*
X7557262Y-11770452D01*
X7566786Y-11760928D01*
X7576309Y-11741881D01*
X7576309Y-11703786D01*
X7566786Y-11684738D01*
X7557262Y-11675214D01*
X7538214Y-11665690D01*
X7766786Y-11779976D02*
X7652500Y-11779976D01*
X7709643Y-11779976D02*
X7709643Y-11579976D01*
X7690595Y-11608548D01*
X7671548Y-11627595D01*
X7652500Y-11637119D01*
X7842976Y-11579976D02*
X7842976Y-11618071D01*
X7919167Y-11579976D02*
X7919167Y-11618071D01*
X8214405Y-11856167D02*
X8204881Y-11846643D01*
X8185833Y-11818071D01*
X8176309Y-11799024D01*
X8166786Y-11770452D01*
X8157262Y-11722833D01*
X8157262Y-11684738D01*
X8166786Y-11637119D01*
X8176309Y-11608548D01*
X8185833Y-11589500D01*
X8204881Y-11560928D01*
X8214405Y-11551405D01*
X8281071Y-11599024D02*
X8290595Y-11589500D01*
X8309643Y-11579976D01*
X8357262Y-11579976D01*
X8376309Y-11589500D01*
X8385833Y-11599024D01*
X8395357Y-11618071D01*
X8395357Y-11637119D01*
X8385833Y-11665690D01*
X8271548Y-11779976D01*
X8395357Y-11779976D01*
X8633452Y-11779976D02*
X8633452Y-11579976D01*
X8719167Y-11779976D02*
X8719167Y-11675214D01*
X8709643Y-11656167D01*
X8690595Y-11646643D01*
X8662024Y-11646643D01*
X8642976Y-11656167D01*
X8633452Y-11665690D01*
X8842976Y-11779976D02*
X8823929Y-11770452D01*
X8814405Y-11760928D01*
X8804881Y-11741881D01*
X8804881Y-11684738D01*
X8814405Y-11665690D01*
X8823929Y-11656167D01*
X8842976Y-11646643D01*
X8871548Y-11646643D01*
X8890595Y-11656167D01*
X8900119Y-11665690D01*
X8909643Y-11684738D01*
X8909643Y-11741881D01*
X8900119Y-11760928D01*
X8890595Y-11770452D01*
X8871548Y-11779976D01*
X8842976Y-11779976D01*
X9023929Y-11779976D02*
X9004881Y-11770452D01*
X8995357Y-11751405D01*
X8995357Y-11579976D01*
X9176310Y-11770452D02*
X9157262Y-11779976D01*
X9119167Y-11779976D01*
X9100119Y-11770452D01*
X9090595Y-11751405D01*
X9090595Y-11675214D01*
X9100119Y-11656167D01*
X9119167Y-11646643D01*
X9157262Y-11646643D01*
X9176310Y-11656167D01*
X9185833Y-11675214D01*
X9185833Y-11694262D01*
X9090595Y-11713309D01*
X9262024Y-11770452D02*
X9281071Y-11779976D01*
X9319167Y-11779976D01*
X9338214Y-11770452D01*
X9347738Y-11751405D01*
X9347738Y-11741881D01*
X9338214Y-11722833D01*
X9319167Y-11713309D01*
X9290595Y-11713309D01*
X9271548Y-11703786D01*
X9262024Y-11684738D01*
X9262024Y-11675214D01*
X9271548Y-11656167D01*
X9290595Y-11646643D01*
X9319167Y-11646643D01*
X9338214Y-11656167D01*
X9414405Y-11856167D02*
X9423929Y-11846643D01*
X9442976Y-11818071D01*
X9452500Y-11799024D01*
X9462024Y-11770452D01*
X9471548Y-11722833D01*
X9471548Y-11684738D01*
X9462024Y-11637119D01*
X9452500Y-11608548D01*
X9442976Y-11589500D01*
X9423929Y-11560928D01*
X9414405Y-11551405D01*
M02*
