G04 #@! TF.GenerationSoftware,KiCad,Pcbnew,(6.0.2)*
G04 #@! TF.CreationDate,2022-07-06T15:16:33+02:00*
G04 #@! TF.ProjectId,Raspberry Pi temperature management hat,52617370-6265-4727-9279-205069207465,V2*
G04 #@! TF.SameCoordinates,Original*
G04 #@! TF.FileFunction,Legend,Bot*
G04 #@! TF.FilePolarity,Positive*
%FSLAX46Y46*%
G04 Gerber Fmt 4.6, Leading zero omitted, Abs format (unit mm)*
G04 Created by KiCad (PCBNEW (6.0.2)) date 2022-07-06 15:16:33*
%MOMM*%
%LPD*%
G01*
G04 APERTURE LIST*
%ADD10C,0.150000*%
%ADD11C,0.120000*%
%ADD12C,6.000000*%
%ADD13R,2.400000X2.400000*%
%ADD14C,2.400000*%
%ADD15C,3.000000*%
%ADD16R,1.700000X1.700000*%
%ADD17O,1.700000X1.700000*%
G04 APERTURE END LIST*
D10*
X63619047Y-53452380D02*
X63619047Y-54166666D01*
X63666666Y-54309523D01*
X63761904Y-54404761D01*
X63904761Y-54452380D01*
X64000000Y-54452380D01*
X62666666Y-54452380D02*
X63142857Y-54452380D01*
X63142857Y-53452380D01*
X61761904Y-54357142D02*
X61809523Y-54404761D01*
X61952380Y-54452380D01*
X62047619Y-54452380D01*
X62190476Y-54404761D01*
X62285714Y-54309523D01*
X62333333Y-54214285D01*
X62380952Y-54023809D01*
X62380952Y-53880952D01*
X62333333Y-53690476D01*
X62285714Y-53595238D01*
X62190476Y-53500000D01*
X62047619Y-53452380D01*
X61952380Y-53452380D01*
X61809523Y-53500000D01*
X61761904Y-53547619D01*
X61047619Y-53452380D02*
X61047619Y-54166666D01*
X61095238Y-54309523D01*
X61190476Y-54404761D01*
X61333333Y-54452380D01*
X61428571Y-54452380D01*
X60095238Y-54452380D02*
X60571428Y-54452380D01*
X60571428Y-53452380D01*
X59190476Y-54357142D02*
X59238095Y-54404761D01*
X59380952Y-54452380D01*
X59476190Y-54452380D01*
X59619047Y-54404761D01*
X59714285Y-54309523D01*
X59761904Y-54214285D01*
X59809523Y-54023809D01*
X59809523Y-53880952D01*
X59761904Y-53690476D01*
X59714285Y-53595238D01*
X59619047Y-53500000D01*
X59476190Y-53452380D01*
X59380952Y-53452380D01*
X59238095Y-53500000D01*
X59190476Y-53547619D01*
X58476190Y-53452380D02*
X58476190Y-54166666D01*
X58523809Y-54309523D01*
X58619047Y-54404761D01*
X58761904Y-54452380D01*
X58857142Y-54452380D01*
X57523809Y-54452380D02*
X58000000Y-54452380D01*
X58000000Y-53452380D01*
X56619047Y-54357142D02*
X56666666Y-54404761D01*
X56809523Y-54452380D01*
X56904761Y-54452380D01*
X57047619Y-54404761D01*
X57142857Y-54309523D01*
X57190476Y-54214285D01*
X57238095Y-54023809D01*
X57238095Y-53880952D01*
X57190476Y-53690476D01*
X57142857Y-53595238D01*
X57047619Y-53500000D01*
X56904761Y-53452380D01*
X56809523Y-53452380D01*
X56666666Y-53500000D01*
X56619047Y-53547619D01*
X55904761Y-53452380D02*
X55904761Y-54166666D01*
X55952380Y-54309523D01*
X56047619Y-54404761D01*
X56190476Y-54452380D01*
X56285714Y-54452380D01*
X54952380Y-54452380D02*
X55428571Y-54452380D01*
X55428571Y-53452380D01*
X54047619Y-54357142D02*
X54095238Y-54404761D01*
X54238095Y-54452380D01*
X54333333Y-54452380D01*
X54476190Y-54404761D01*
X54571428Y-54309523D01*
X54619047Y-54214285D01*
X54666666Y-54023809D01*
X54666666Y-53880952D01*
X54619047Y-53690476D01*
X54571428Y-53595238D01*
X54476190Y-53500000D01*
X54333333Y-53452380D01*
X54238095Y-53452380D01*
X54095238Y-53500000D01*
X54047619Y-53547619D01*
D11*
X53540000Y-47400000D02*
X53540000Y-50000000D01*
X56140000Y-50000000D02*
X56140000Y-52600000D01*
X56140000Y-52600000D02*
X104460000Y-52600000D01*
X53540000Y-51270000D02*
X53540000Y-52600000D01*
X104460000Y-47400000D02*
X104460000Y-52600000D01*
X53540000Y-47400000D02*
X104460000Y-47400000D01*
X53540000Y-50000000D02*
X56140000Y-50000000D01*
X53540000Y-52600000D02*
X54870000Y-52600000D01*
%LPC*%
D12*
X108000000Y-99000000D03*
X50000000Y-99000000D03*
D13*
X73660000Y-95820000D03*
D14*
X77160000Y-95820000D03*
D13*
X93000000Y-95800000D03*
D14*
X96500000Y-95800000D03*
X100000000Y-95800000D03*
D15*
X50000000Y-50000000D03*
D13*
X60960000Y-95820000D03*
D14*
X64460000Y-95820000D03*
D15*
X108000000Y-50000000D03*
D16*
X54870000Y-51270000D03*
D17*
X54870000Y-48730000D03*
X57410000Y-51270000D03*
X57410000Y-48730000D03*
X59950000Y-51270000D03*
X59950000Y-48730000D03*
X62490000Y-51270000D03*
X62490000Y-48730000D03*
X65030000Y-51270000D03*
X65030000Y-48730000D03*
X67570000Y-51270000D03*
X67570000Y-48730000D03*
X70110000Y-51270000D03*
X70110000Y-48730000D03*
X72650000Y-51270000D03*
X72650000Y-48730000D03*
X75190000Y-51270000D03*
X75190000Y-48730000D03*
X77730000Y-51270000D03*
X77730000Y-48730000D03*
X80270000Y-51270000D03*
X80270000Y-48730000D03*
X82810000Y-51270000D03*
X82810000Y-48730000D03*
X85350000Y-51270000D03*
X85350000Y-48730000D03*
X87890000Y-51270000D03*
X87890000Y-48730000D03*
X90430000Y-51270000D03*
X90430000Y-48730000D03*
X92970000Y-51270000D03*
X92970000Y-48730000D03*
X95510000Y-51270000D03*
X95510000Y-48730000D03*
X98050000Y-51270000D03*
X98050000Y-48730000D03*
X100590000Y-51270000D03*
X100590000Y-48730000D03*
X103130000Y-51270000D03*
X103130000Y-48730000D03*
M02*
