%FSLAX45Y45*%
G04 Gerber Fmt 4.5, Leading zero omitted, Abs format (unit mm)*
G04 Created by KiCad (PCBNEW (6.0.2)) date 2022-07-05 13:03:24*
%MOMM*%
%LPD*%
G01*
G04 APERTURE LIST*
%TA.AperFunction,Profile*%
%ADD10C,0.150000*%
%TD*%
%ADD11C,0.200000*%
%ADD12C,0.300000*%
G04 APERTURE END LIST*
D10*
X11150000Y-5000000D02*
G75*
G03*
X10800000Y-4650000I-350000J0D01*
G01*
X5000000Y-4650000D02*
X10800000Y-4650000D01*
X5000000Y-10250000D02*
X10800000Y-10250000D01*
X11150000Y-5000000D02*
X11150000Y-9900000D01*
X10800000Y-10250000D02*
G75*
G03*
X11150000Y-9900000I0J350000D01*
G01*
X4650000Y-9900000D02*
G75*
G03*
X5000000Y-10250000I350000J0D01*
G01*
X5000000Y-4650000D02*
G75*
G03*
X4650000Y-5000000I0J-350000D01*
G01*
X4650000Y-5000000D02*
X4650000Y-9900000D01*
D11*
D12*
X4850000Y-4850000D02*
X5150000Y-5150000D01*
X5150000Y-4850000D02*
X4850000Y-5150000D01*
X10650000Y-4850000D02*
X10950000Y-5150000D01*
X10950000Y-4850000D02*
X10650000Y-5150000D01*
D11*
X4900119Y-10567976D02*
X4900119Y-10367976D01*
X4947738Y-10367976D01*
X4976310Y-10377500D01*
X4995357Y-10396548D01*
X5004881Y-10415595D01*
X5014405Y-10453690D01*
X5014405Y-10482262D01*
X5004881Y-10520357D01*
X4995357Y-10539405D01*
X4976310Y-10558452D01*
X4947738Y-10567976D01*
X4900119Y-10567976D01*
X5100119Y-10567976D02*
X5100119Y-10434643D01*
X5100119Y-10472738D02*
X5109643Y-10453690D01*
X5119167Y-10444167D01*
X5138214Y-10434643D01*
X5157262Y-10434643D01*
X5223929Y-10567976D02*
X5223929Y-10434643D01*
X5223929Y-10367976D02*
X5214405Y-10377500D01*
X5223929Y-10387024D01*
X5233452Y-10377500D01*
X5223929Y-10367976D01*
X5223929Y-10387024D01*
X5347738Y-10567976D02*
X5328690Y-10558452D01*
X5319167Y-10539405D01*
X5319167Y-10367976D01*
X5452500Y-10567976D02*
X5433452Y-10558452D01*
X5423929Y-10539405D01*
X5423929Y-10367976D01*
X5681071Y-10567976D02*
X5681071Y-10367976D01*
X5747738Y-10510833D01*
X5814405Y-10367976D01*
X5814405Y-10567976D01*
X5995357Y-10567976D02*
X5995357Y-10463214D01*
X5985833Y-10444167D01*
X5966786Y-10434643D01*
X5928690Y-10434643D01*
X5909643Y-10444167D01*
X5995357Y-10558452D02*
X5976309Y-10567976D01*
X5928690Y-10567976D01*
X5909643Y-10558452D01*
X5900119Y-10539405D01*
X5900119Y-10520357D01*
X5909643Y-10501310D01*
X5928690Y-10491786D01*
X5976309Y-10491786D01*
X5995357Y-10482262D01*
X6090595Y-10434643D02*
X6090595Y-10634643D01*
X6090595Y-10444167D02*
X6109643Y-10434643D01*
X6147738Y-10434643D01*
X6166786Y-10444167D01*
X6176309Y-10453690D01*
X6185833Y-10472738D01*
X6185833Y-10529881D01*
X6176309Y-10548929D01*
X6166786Y-10558452D01*
X6147738Y-10567976D01*
X6109643Y-10567976D01*
X6090595Y-10558452D01*
X6271548Y-10548929D02*
X6281071Y-10558452D01*
X6271548Y-10567976D01*
X6262024Y-10558452D01*
X6271548Y-10548929D01*
X6271548Y-10567976D01*
X6271548Y-10444167D02*
X6281071Y-10453690D01*
X6271548Y-10463214D01*
X6262024Y-10453690D01*
X6271548Y-10444167D01*
X6271548Y-10463214D01*
X4442500Y-10797500D02*
X4642500Y-10997500D01*
X4642500Y-10797500D02*
X4442500Y-10997500D01*
X4881071Y-10787976D02*
X5004881Y-10787976D01*
X4938214Y-10864167D01*
X4966786Y-10864167D01*
X4985833Y-10873690D01*
X4995357Y-10883214D01*
X5004881Y-10902262D01*
X5004881Y-10949881D01*
X4995357Y-10968929D01*
X4985833Y-10978452D01*
X4966786Y-10987976D01*
X4909643Y-10987976D01*
X4890595Y-10978452D01*
X4881071Y-10968929D01*
X5090595Y-10968929D02*
X5100119Y-10978452D01*
X5090595Y-10987976D01*
X5081071Y-10978452D01*
X5090595Y-10968929D01*
X5090595Y-10987976D01*
X5223929Y-10787976D02*
X5242976Y-10787976D01*
X5262024Y-10797500D01*
X5271548Y-10807024D01*
X5281071Y-10826071D01*
X5290595Y-10864167D01*
X5290595Y-10911786D01*
X5281071Y-10949881D01*
X5271548Y-10968929D01*
X5262024Y-10978452D01*
X5242976Y-10987976D01*
X5223929Y-10987976D01*
X5204881Y-10978452D01*
X5195357Y-10968929D01*
X5185833Y-10949881D01*
X5176310Y-10911786D01*
X5176310Y-10864167D01*
X5185833Y-10826071D01*
X5195357Y-10807024D01*
X5204881Y-10797500D01*
X5223929Y-10787976D01*
X5414405Y-10787976D02*
X5433452Y-10787976D01*
X5452500Y-10797500D01*
X5462024Y-10807024D01*
X5471548Y-10826071D01*
X5481071Y-10864167D01*
X5481071Y-10911786D01*
X5471548Y-10949881D01*
X5462024Y-10968929D01*
X5452500Y-10978452D01*
X5433452Y-10987976D01*
X5414405Y-10987976D01*
X5395357Y-10978452D01*
X5385833Y-10968929D01*
X5376310Y-10949881D01*
X5366786Y-10911786D01*
X5366786Y-10864167D01*
X5376310Y-10826071D01*
X5385833Y-10807024D01*
X5395357Y-10797500D01*
X5414405Y-10787976D01*
X5604881Y-10787976D02*
X5623928Y-10787976D01*
X5642976Y-10797500D01*
X5652500Y-10807024D01*
X5662024Y-10826071D01*
X5671548Y-10864167D01*
X5671548Y-10911786D01*
X5662024Y-10949881D01*
X5652500Y-10968929D01*
X5642976Y-10978452D01*
X5623928Y-10987976D01*
X5604881Y-10987976D01*
X5585833Y-10978452D01*
X5576310Y-10968929D01*
X5566786Y-10949881D01*
X5557262Y-10911786D01*
X5557262Y-10864167D01*
X5566786Y-10826071D01*
X5576310Y-10807024D01*
X5585833Y-10797500D01*
X5604881Y-10787976D01*
X5757262Y-10987976D02*
X5757262Y-10854643D01*
X5757262Y-10873690D02*
X5766786Y-10864167D01*
X5785833Y-10854643D01*
X5814405Y-10854643D01*
X5833452Y-10864167D01*
X5842976Y-10883214D01*
X5842976Y-10987976D01*
X5842976Y-10883214D02*
X5852500Y-10864167D01*
X5871548Y-10854643D01*
X5900119Y-10854643D01*
X5919167Y-10864167D01*
X5928690Y-10883214D01*
X5928690Y-10987976D01*
X6023928Y-10987976D02*
X6023928Y-10854643D01*
X6023928Y-10873690D02*
X6033452Y-10864167D01*
X6052500Y-10854643D01*
X6081071Y-10854643D01*
X6100119Y-10864167D01*
X6109643Y-10883214D01*
X6109643Y-10987976D01*
X6109643Y-10883214D02*
X6119167Y-10864167D01*
X6138214Y-10854643D01*
X6166786Y-10854643D01*
X6185833Y-10864167D01*
X6195357Y-10883214D01*
X6195357Y-10987976D01*
X6585833Y-10778452D02*
X6414405Y-11035595D01*
X6842976Y-10787976D02*
X6862024Y-10787976D01*
X6881071Y-10797500D01*
X6890595Y-10807024D01*
X6900119Y-10826071D01*
X6909643Y-10864167D01*
X6909643Y-10911786D01*
X6900119Y-10949881D01*
X6890595Y-10968929D01*
X6881071Y-10978452D01*
X6862024Y-10987976D01*
X6842976Y-10987976D01*
X6823928Y-10978452D01*
X6814405Y-10968929D01*
X6804881Y-10949881D01*
X6795357Y-10911786D01*
X6795357Y-10864167D01*
X6804881Y-10826071D01*
X6814405Y-10807024D01*
X6823928Y-10797500D01*
X6842976Y-10787976D01*
X6995357Y-10968929D02*
X7004881Y-10978452D01*
X6995357Y-10987976D01*
X6985833Y-10978452D01*
X6995357Y-10968929D01*
X6995357Y-10987976D01*
X7195357Y-10987976D02*
X7081071Y-10987976D01*
X7138214Y-10987976D02*
X7138214Y-10787976D01*
X7119167Y-10816548D01*
X7100119Y-10835595D01*
X7081071Y-10845119D01*
X7385833Y-10987976D02*
X7271548Y-10987976D01*
X7328690Y-10987976D02*
X7328690Y-10787976D01*
X7309643Y-10816548D01*
X7290595Y-10835595D01*
X7271548Y-10845119D01*
X7500119Y-10873690D02*
X7481071Y-10864167D01*
X7471548Y-10854643D01*
X7462024Y-10835595D01*
X7462024Y-10826071D01*
X7471548Y-10807024D01*
X7481071Y-10797500D01*
X7500119Y-10787976D01*
X7538214Y-10787976D01*
X7557262Y-10797500D01*
X7566786Y-10807024D01*
X7576309Y-10826071D01*
X7576309Y-10835595D01*
X7566786Y-10854643D01*
X7557262Y-10864167D01*
X7538214Y-10873690D01*
X7500119Y-10873690D01*
X7481071Y-10883214D01*
X7471548Y-10892738D01*
X7462024Y-10911786D01*
X7462024Y-10949881D01*
X7471548Y-10968929D01*
X7481071Y-10978452D01*
X7500119Y-10987976D01*
X7538214Y-10987976D01*
X7557262Y-10978452D01*
X7566786Y-10968929D01*
X7576309Y-10949881D01*
X7576309Y-10911786D01*
X7566786Y-10892738D01*
X7557262Y-10883214D01*
X7538214Y-10873690D01*
X7766786Y-10987976D02*
X7652500Y-10987976D01*
X7709643Y-10987976D02*
X7709643Y-10787976D01*
X7690595Y-10816548D01*
X7671548Y-10835595D01*
X7652500Y-10845119D01*
X7842976Y-10787976D02*
X7842976Y-10826071D01*
X7919167Y-10787976D02*
X7919167Y-10826071D01*
X8214405Y-11064167D02*
X8204881Y-11054643D01*
X8185833Y-11026071D01*
X8176309Y-11007024D01*
X8166786Y-10978452D01*
X8157262Y-10930833D01*
X8157262Y-10892738D01*
X8166786Y-10845119D01*
X8176309Y-10816548D01*
X8185833Y-10797500D01*
X8204881Y-10768929D01*
X8214405Y-10759405D01*
X8281071Y-10807024D02*
X8290595Y-10797500D01*
X8309643Y-10787976D01*
X8357262Y-10787976D01*
X8376309Y-10797500D01*
X8385833Y-10807024D01*
X8395357Y-10826071D01*
X8395357Y-10845119D01*
X8385833Y-10873690D01*
X8271548Y-10987976D01*
X8395357Y-10987976D01*
X8633452Y-10987976D02*
X8633452Y-10787976D01*
X8719167Y-10987976D02*
X8719167Y-10883214D01*
X8709643Y-10864167D01*
X8690595Y-10854643D01*
X8662024Y-10854643D01*
X8642976Y-10864167D01*
X8633452Y-10873690D01*
X8842976Y-10987976D02*
X8823929Y-10978452D01*
X8814405Y-10968929D01*
X8804881Y-10949881D01*
X8804881Y-10892738D01*
X8814405Y-10873690D01*
X8823929Y-10864167D01*
X8842976Y-10854643D01*
X8871548Y-10854643D01*
X8890595Y-10864167D01*
X8900119Y-10873690D01*
X8909643Y-10892738D01*
X8909643Y-10949881D01*
X8900119Y-10968929D01*
X8890595Y-10978452D01*
X8871548Y-10987976D01*
X8842976Y-10987976D01*
X9023929Y-10987976D02*
X9004881Y-10978452D01*
X8995357Y-10959405D01*
X8995357Y-10787976D01*
X9176310Y-10978452D02*
X9157262Y-10987976D01*
X9119167Y-10987976D01*
X9100119Y-10978452D01*
X9090595Y-10959405D01*
X9090595Y-10883214D01*
X9100119Y-10864167D01*
X9119167Y-10854643D01*
X9157262Y-10854643D01*
X9176310Y-10864167D01*
X9185833Y-10883214D01*
X9185833Y-10902262D01*
X9090595Y-10921310D01*
X9262024Y-10978452D02*
X9281071Y-10987976D01*
X9319167Y-10987976D01*
X9338214Y-10978452D01*
X9347738Y-10959405D01*
X9347738Y-10949881D01*
X9338214Y-10930833D01*
X9319167Y-10921310D01*
X9290595Y-10921310D01*
X9271548Y-10911786D01*
X9262024Y-10892738D01*
X9262024Y-10883214D01*
X9271548Y-10864167D01*
X9290595Y-10854643D01*
X9319167Y-10854643D01*
X9338214Y-10864167D01*
X9414405Y-11064167D02*
X9423929Y-11054643D01*
X9442976Y-11026071D01*
X9452500Y-11007024D01*
X9462024Y-10978452D01*
X9471548Y-10930833D01*
X9471548Y-10892738D01*
X9462024Y-10845119D01*
X9452500Y-10816548D01*
X9442976Y-10797500D01*
X9423929Y-10768929D01*
X9414405Y-10759405D01*
X9776310Y-11064167D02*
X9766786Y-11054643D01*
X9747738Y-11026071D01*
X9738214Y-11007024D01*
X9728690Y-10978452D01*
X9719167Y-10930833D01*
X9719167Y-10892738D01*
X9728690Y-10845119D01*
X9738214Y-10816548D01*
X9747738Y-10797500D01*
X9766786Y-10768929D01*
X9776310Y-10759405D01*
X9852500Y-10854643D02*
X9852500Y-10987976D01*
X9852500Y-10873690D02*
X9862024Y-10864167D01*
X9881071Y-10854643D01*
X9909643Y-10854643D01*
X9928690Y-10864167D01*
X9938214Y-10883214D01*
X9938214Y-10987976D01*
X10062024Y-10987976D02*
X10042976Y-10978452D01*
X10033452Y-10968929D01*
X10023929Y-10949881D01*
X10023929Y-10892738D01*
X10033452Y-10873690D01*
X10042976Y-10864167D01*
X10062024Y-10854643D01*
X10090595Y-10854643D01*
X10109643Y-10864167D01*
X10119167Y-10873690D01*
X10128690Y-10892738D01*
X10128690Y-10949881D01*
X10119167Y-10968929D01*
X10109643Y-10978452D01*
X10090595Y-10987976D01*
X10062024Y-10987976D01*
X10185833Y-10854643D02*
X10262024Y-10854643D01*
X10214405Y-10787976D02*
X10214405Y-10959405D01*
X10223929Y-10978452D01*
X10242976Y-10987976D01*
X10262024Y-10987976D01*
X10481071Y-10854643D02*
X10481071Y-11054643D01*
X10481071Y-10864167D02*
X10500119Y-10854643D01*
X10538214Y-10854643D01*
X10557262Y-10864167D01*
X10566786Y-10873690D01*
X10576310Y-10892738D01*
X10576310Y-10949881D01*
X10566786Y-10968929D01*
X10557262Y-10978452D01*
X10538214Y-10987976D01*
X10500119Y-10987976D01*
X10481071Y-10978452D01*
X10690595Y-10987976D02*
X10671548Y-10978452D01*
X10662024Y-10959405D01*
X10662024Y-10787976D01*
X10852500Y-10987976D02*
X10852500Y-10883214D01*
X10842976Y-10864167D01*
X10823929Y-10854643D01*
X10785833Y-10854643D01*
X10766786Y-10864167D01*
X10852500Y-10978452D02*
X10833452Y-10987976D01*
X10785833Y-10987976D01*
X10766786Y-10978452D01*
X10757262Y-10959405D01*
X10757262Y-10940357D01*
X10766786Y-10921310D01*
X10785833Y-10911786D01*
X10833452Y-10911786D01*
X10852500Y-10902262D01*
X10919167Y-10854643D02*
X10995357Y-10854643D01*
X10947738Y-10787976D02*
X10947738Y-10959405D01*
X10957262Y-10978452D01*
X10976310Y-10987976D01*
X10995357Y-10987976D01*
X11138214Y-10978452D02*
X11119167Y-10987976D01*
X11081071Y-10987976D01*
X11062024Y-10978452D01*
X11052500Y-10959405D01*
X11052500Y-10883214D01*
X11062024Y-10864167D01*
X11081071Y-10854643D01*
X11119167Y-10854643D01*
X11138214Y-10864167D01*
X11147738Y-10883214D01*
X11147738Y-10902262D01*
X11052500Y-10921310D01*
X11319167Y-10987976D02*
X11319167Y-10787976D01*
X11319167Y-10978452D02*
X11300119Y-10987976D01*
X11262024Y-10987976D01*
X11242976Y-10978452D01*
X11233452Y-10968929D01*
X11223928Y-10949881D01*
X11223928Y-10892738D01*
X11233452Y-10873690D01*
X11242976Y-10864167D01*
X11262024Y-10854643D01*
X11300119Y-10854643D01*
X11319167Y-10864167D01*
X11395357Y-11064167D02*
X11404881Y-11054643D01*
X11423928Y-11026071D01*
X11433452Y-11007024D01*
X11442976Y-10978452D01*
X11452500Y-10930833D01*
X11452500Y-10892738D01*
X11442976Y-10845119D01*
X11433452Y-10816548D01*
X11423928Y-10797500D01*
X11404881Y-10768929D01*
X11395357Y-10759405D01*
M02*
